<svg width="100%" height="100%" style="display: block;" viewBox="0 0 200 60" fill="none" xmlns="http://www.w3.org/2000/svg">
<path d="M9.1954 33.1051C7.30917 33.1051 5.67443 32.6824 4.29119 31.8372C2.90795 30.9607 1.83908 29.7711 1.08459 28.2684C0.361529 26.7658 0 25.044 0 23.1031C0 21.2874 0.282936 19.55 0.848807 17.8908C1.44611 16.2317 2.2792 14.7447 3.34807 13.4299C4.44837 12.115 5.7373 11.082 7.21485 10.3307C8.69241 9.57934 10.3271 9.20368 12.1191 9.20368C13.6281 9.20368 14.9327 9.48542 16.033 10.0489C17.1648 10.5811 18.0764 11.3168 18.7681 12.2559C19.4597 13.1951 19.8841 14.2751 20.0413 15.496L18.7681 16.4821L19.7583 9.57934H23.6723L20.4185 32.7294H16.4574L17.4005 25.8266L18.5794 26.8597C17.9821 28.2058 17.2276 29.3485 16.3159 30.2876C15.4043 31.1955 14.3511 31.8998 13.1565 32.4007C11.9619 32.8703 10.6415 33.1051 9.1954 33.1051ZM9.9499 29.4424C11.2703 29.4424 12.4649 29.1606 13.5337 28.5971C14.6026 28.0023 15.5143 27.2197 16.2688 26.2493C17.0233 25.2788 17.5892 24.1988 17.9664 23.0092C18.3751 21.8196 18.5794 20.5987 18.5794 19.3465C18.5794 18.0317 18.3436 16.8891 17.8721 15.9186C17.4005 14.9482 16.7246 14.1968 15.8444 13.6646C14.9641 13.1012 13.911 12.8194 12.6849 12.8194C11.3646 12.8194 10.1542 13.1168 9.05393 13.7116C7.98507 14.2751 7.07339 15.0421 6.31889 16.0125C5.5644 16.9517 4.98281 18.0317 4.57412 19.2526C4.16544 20.4422 3.9611 21.6631 3.9611 22.9153C3.9611 24.2301 4.19688 25.3884 4.66844 26.3901C5.17143 27.3606 5.86305 28.1119 6.7433 28.6441C7.65498 29.1763 8.72384 29.4424 9.9499 29.4424Z" fill="black"/>
<path d="M27.3346 32.7294L30.6355 9.57934H34.6438L33.7478 15.7777L32.5689 15.6838C32.9776 14.3064 33.6692 13.1325 34.6438 12.162C35.6497 11.1915 36.75 10.4559 37.9447 9.955C39.1707 9.45412 40.3182 9.20368 41.387 9.20368C42.0787 9.20368 42.7389 9.29759 43.3676 9.48542C43.9963 9.64195 44.6408 9.92369 45.301 10.3307L42.9904 13.7586C42.6445 13.5707 42.2201 13.4299 41.7171 13.3359C41.2456 13.2107 40.7897 13.1481 40.3496 13.1481C38.7149 13.1481 37.3788 13.5551 36.3414 14.369C35.3354 15.1516 34.5652 16.216 34.0307 17.5621C33.4963 18.9082 33.1033 20.3952 32.8518 22.0231L31.3428 32.7294H27.3346Z" fill="black"/>
<path d="M54.5907 33.1051C53.5847 33.1051 52.6887 32.9329 51.9028 32.5885C51.1169 32.2129 50.4881 31.665 50.0166 30.945C49.5765 30.1937 49.3564 29.2389 49.3564 28.0806C49.3564 27.8615 49.3564 27.6423 49.3564 27.4232C49.3878 27.1728 49.4193 26.938 49.4507 26.7188L52.7516 3.38094L57.09 1.12698L53.6004 25.8736C53.569 26.0927 53.5376 26.3275 53.5061 26.578C53.5061 26.7971 53.5061 27.0319 53.5061 27.2823C53.5061 28.1276 53.6633 28.7693 53.9777 29.2076C54.3235 29.6146 54.8894 29.818 55.6753 29.818C56.0525 29.818 56.4769 29.7867 56.9485 29.7241C57.4515 29.6302 57.9702 29.4893 58.5046 29.3015L58.0331 32.5885C57.4358 32.7451 56.8385 32.8703 56.2412 32.9642C55.6439 33.0581 55.0937 33.1051 54.5907 33.1051ZM46.6214 12.6785L47.0929 9.57934H61.2868L60.8624 12.6785H46.6214Z" fill="black"/>
<path d="M63.1473 32.7294L66.401 9.57934H70.4093L67.1084 32.7294H63.1473ZM66.6368 5.40012L67.3913 0H72.1069L71.3524 5.40012H66.6368Z" fill="black"/>
<path d="M81.884 33.1051C80.878 33.1051 79.9821 32.9329 79.1961 32.5885C78.4102 32.2129 77.7815 31.665 77.3099 30.945C76.8698 30.1937 76.6497 29.2389 76.6497 28.0806C76.6497 27.8615 76.6497 27.6423 76.6497 27.4232C76.6812 27.1728 76.7126 26.938 76.744 26.7188L80.0449 3.38094L84.3833 1.12698L80.8938 25.8736C80.8623 26.0927 80.8309 26.3275 80.7994 26.578C80.7994 26.7971 80.7994 27.0319 80.7994 27.2823C80.7994 28.1276 80.9566 28.7693 81.271 29.2076C81.6168 29.6146 82.1827 29.818 82.9686 29.818C83.3459 29.818 83.7703 29.7867 84.2418 29.7241C84.7448 29.6302 85.2635 29.4893 85.798 29.3015L85.3264 32.5885C84.7291 32.7451 84.1318 32.8703 83.5345 32.9642C82.9372 33.0581 82.387 33.1051 81.884 33.1051ZM73.9147 12.6785L74.3862 9.57934H88.5802L88.1558 12.6785H73.9147Z" fill="black"/>
<path d="M99.9333 33.1051C97.7642 33.1051 95.9565 32.6824 94.5104 31.8372C93.0957 30.9607 92.0426 29.7867 91.3509 28.3154C90.6593 26.8441 90.3135 25.2005 90.3135 23.3849C90.3135 21.6318 90.5807 19.9256 91.1152 18.2665C91.6496 16.576 92.4355 15.0577 93.473 13.7116C94.5418 12.3342 95.8308 11.2385 97.3397 10.4246C98.8487 9.61064 100.562 9.20368 102.48 9.20368C104.617 9.20368 106.347 9.6263 107.667 10.4715C108.987 11.3168 109.962 12.4437 110.591 13.8525C111.219 15.2299 111.534 16.7482 111.534 18.4074C111.534 19.0022 111.487 19.6909 111.392 20.4735C111.298 21.2561 111.172 21.9292 111.015 22.4927H94.2746C94.2432 22.7118 94.2275 22.9153 94.2275 23.1031C94.2275 23.2909 94.2275 23.4788 94.2275 23.6666C94.2275 25.5136 94.7304 26.9536 95.7364 27.9867C96.7424 28.9885 98.1728 29.4893 100.028 29.4893C101.442 29.4893 102.684 29.2545 103.753 28.785C104.853 28.3154 105.906 27.5954 106.912 26.6249L109.506 29.2546C108.028 30.6007 106.519 31.5868 104.979 32.2129C103.47 32.8077 101.788 33.1051 99.9333 33.1051ZM107.761 20.2387C107.824 19.7065 107.871 19.2839 107.903 18.9708C107.934 18.6578 107.95 18.2508 107.95 17.75C107.95 16.8734 107.761 16.0438 107.384 15.2612C107.007 14.4473 106.425 13.7899 105.639 13.289C104.853 12.7881 103.816 12.5377 102.527 12.5377C101.144 12.5377 99.9019 12.8664 98.8016 13.5238C97.7327 14.1499 96.8367 14.9951 96.1137 16.0595C95.4221 17.0925 94.9348 18.2352 94.6519 19.4874H108.987L107.761 20.2387Z" fill="black"/>
<path d="M125.245 33.1051C123.359 33.1051 121.724 32.6824 120.341 31.8372C118.958 30.9607 117.889 29.7711 117.134 28.2684C116.411 26.7658 116.05 25.044 116.05 23.1031C116.05 21.2874 116.333 19.55 116.898 17.8908C117.496 16.2317 118.329 14.7447 119.398 13.4299C120.498 12.115 121.787 11.082 123.264 10.3307C124.742 9.57934 126.377 9.20368 128.169 9.20368C129.678 9.20368 130.982 9.48542 132.083 10.0489C133.214 10.5811 134.126 11.3168 134.818 12.2559C135.509 13.1951 135.934 14.2751 136.091 15.496L134.818 16.4821L135.808 9.57934H139.722L136.468 32.7294H132.507L133.45 25.8266L134.629 26.8597C134.032 28.2058 133.277 29.3485 132.366 30.2876C131.454 31.1955 130.401 31.8998 129.206 32.4007C128.011 32.8703 126.691 33.1051 125.245 33.1051ZM125.999 29.4424C127.32 29.4424 128.514 29.1606 129.583 28.5971C130.652 28.0023 131.564 27.2197 132.318 26.2493C133.073 25.2788 133.639 24.1988 134.016 23.0092C134.425 21.8196 134.629 20.5987 134.629 19.3465C134.629 18.0317 134.393 16.8891 133.922 15.9186C133.45 14.9482 132.774 14.1968 131.894 13.6646C131.014 13.1012 129.961 12.8194 128.735 12.8194C127.414 12.8194 126.204 13.1168 125.104 13.7116C124.035 14.2751 123.123 15.0421 122.368 16.0125C121.614 16.9517 121.032 18.0317 120.624 19.2526C120.215 20.4422 120.011 21.6631 120.011 22.9153C120.011 24.2301 120.246 25.3884 120.718 26.3901C121.221 27.3606 121.913 28.1119 122.793 28.6441C123.705 29.1763 124.773 29.4424 125.999 29.4424Z" fill="black"/>
<path d="M151.306 33.1051C150.3 33.1051 149.404 32.9329 148.618 32.5885C147.833 32.2129 147.204 31.665 146.732 30.945C146.292 30.1937 146.072 29.2389 146.072 28.0806C146.072 27.8615 146.072 27.6423 146.072 27.4232C146.103 27.1728 146.135 26.938 146.166 26.7188L149.467 3.38094L153.806 1.12698L150.316 25.8736C150.285 26.0927 150.253 26.3275 150.222 26.578C150.222 26.7971 150.222 27.0319 150.222 27.2823C150.222 28.1276 150.379 28.7693 150.693 29.2076C151.039 29.6146 151.605 29.818 152.391 29.818C152.768 29.818 153.193 29.7867 153.664 29.7241C154.167 29.6302 154.686 29.4893 155.22 29.3015L154.749 32.5885C154.151 32.7451 153.554 32.8703 152.957 32.9642C152.36 33.0581 151.809 33.1051 151.306 33.1051ZM143.337 12.6785L143.809 9.57934H158.003L157.578 12.6785H143.337Z" fill="black"/>
<path d="M159.863 32.7294L163.164 9.57934H167.172L166.276 15.7777L165.097 15.6838C165.506 14.3064 166.198 13.1325 167.172 12.162C168.178 11.1915 169.278 10.4559 170.473 9.955C171.699 9.45412 172.847 9.20368 173.915 9.20368C174.607 9.20368 175.267 9.29759 175.896 9.48542C176.525 9.64195 177.169 9.92369 177.829 10.3307L175.519 13.7586C175.173 13.5707 174.748 13.4299 174.245 13.3359C173.774 13.2107 173.318 13.1481 172.878 13.1481C171.243 13.1481 169.907 13.5551 168.87 14.369C167.864 15.1516 167.094 16.216 166.559 17.5621C166.025 18.9082 165.632 20.3952 165.38 22.0231L163.871 32.7294H159.863Z" fill="black"/>
<path d="M187.953 33.1051C185.784 33.1051 183.976 32.6824 182.53 31.8372C181.115 30.9607 180.062 29.7867 179.37 28.3154C178.679 26.8441 178.333 25.2005 178.333 23.3849C178.333 21.6318 178.6 19.9256 179.135 18.2665C179.669 16.576 180.455 15.0577 181.492 13.7116C182.561 12.3342 183.85 11.2385 185.359 10.4246C186.868 9.61064 188.582 9.20368 190.499 9.20368C192.637 9.20368 194.366 9.6263 195.686 10.4715C197.007 11.3168 197.981 12.4437 198.61 13.8525C199.239 15.2299 199.553 16.7482 199.553 18.4074C199.553 19.0022 199.506 19.6909 199.412 20.4735C199.317 21.2561 199.192 21.9292 199.034 22.4927H182.294C182.263 22.7118 182.247 22.9153 182.247 23.1031C182.247 23.2909 182.247 23.4788 182.247 23.6666C182.247 25.5136 182.75 26.9536 183.756 27.9867C184.762 28.9885 186.192 29.4893 188.047 29.4893C189.462 29.4893 190.704 29.2545 191.772 28.785C192.873 28.3154 193.926 27.5954 194.932 26.6249L197.525 29.2546C196.048 30.6007 194.539 31.5868 192.998 32.2129C191.489 32.8077 189.808 33.1051 187.953 33.1051ZM195.781 20.2387C195.844 19.7065 195.891 19.2839 195.922 18.9708C195.954 18.6578 195.969 18.2508 195.969 17.75C195.969 16.8734 195.781 16.0438 195.403 15.2612C195.026 14.4473 194.445 13.7899 193.659 13.289C192.873 12.7881 191.835 12.5377 190.546 12.5377C189.163 12.5377 187.921 12.8664 186.821 13.5238C185.752 14.1499 184.856 14.9951 184.133 16.0595C183.442 17.0925 182.954 18.2352 182.671 19.4874H197.007L195.781 20.2387Z" fill="black"/>
<path d="M0.392469 59.73V40.9106H2.31761L12.4585 57.4619H12.106V40.9106H13.8684V59.73H11.8891L1.80243 43.1516H2.15492V59.73H0.392469Z" fill="black"/>
<path d="M16.9735 59.73L23.9961 40.9106H25.4875L32.483 59.73H30.5579L24.7554 43.3676L18.9528 59.73H16.9735ZM20.4441 54.8969L21.0135 53.3039H28.4701L29.0666 54.8969H20.4441Z" fill="black"/>
<path d="M35.6192 59.73V40.9106H40.7167C43.7716 40.9106 46.1397 41.7476 47.8208 43.4216C49.52 45.0777 50.3695 47.4267 50.3695 50.4688C50.3695 53.4569 49.529 55.7519 47.8479 57.3539C46.1849 58.938 43.7988 59.73 40.6896 59.73H35.6192ZM37.3816 58.11H40.5269C42.2442 58.11 43.6993 57.84 44.8924 57.2999C46.0854 56.7599 46.9893 55.9229 47.6039 54.7889C48.2365 53.6549 48.5529 52.1968 48.5529 50.4148C48.5529 48.6328 48.2365 47.1567 47.6039 45.9867C46.9893 44.8167 46.0945 43.9526 44.9195 43.3946C43.7445 42.8186 42.3346 42.5306 40.6896 42.5306H37.3816V58.11Z" fill="black"/>
<path d="M54.3579 59.73V40.9106H56.1203V59.73H54.3579Z" fill="black"/>
<path d="M59.2351 59.73L66.2578 40.9106H67.7491L74.7447 59.73H72.8195L67.017 43.3676L61.2145 59.73H59.2351ZM62.7058 54.8969L63.2752 53.3039H70.7317L71.3282 54.8969H62.7058Z" fill="black"/>
<path d="M85.1011 59.73V40.9106H90.8223C92.5757 40.9106 93.9495 41.3246 94.9437 42.1526C95.9379 42.9806 96.435 44.1237 96.435 45.5817C96.435 46.5537 96.2091 47.3997 95.7572 48.1197C95.3053 48.8398 94.6726 49.3708 93.8591 49.7128C94.998 49.9828 95.8656 50.5318 96.4621 51.3598C97.0767 52.1698 97.384 53.2229 97.384 54.5189C97.384 56.1929 96.8598 57.4799 95.8114 58.38C94.781 59.28 93.2988 59.73 91.3646 59.73H85.1011ZM86.8636 58.11H91.2561C94.1664 58.11 95.6216 56.8859 95.6216 54.4379C95.6216 53.2859 95.2962 52.3948 94.6455 51.7648C94.0128 51.1168 93.109 50.7928 91.934 50.7928H86.8636V58.11ZM86.8636 49.1998H91.3104C92.3226 49.1998 93.1361 48.8938 93.7507 48.2817C94.3653 47.6697 94.6726 46.8507 94.6726 45.8247C94.6726 44.7987 94.3291 43.9976 93.6422 43.4216C92.9734 42.8276 92.0334 42.5306 90.8223 42.5306H86.8636V49.1998Z" fill="black"/>
<path d="M99.4314 59.73L106.454 40.9106H107.945L114.941 59.73H113.016L107.213 43.3676L101.411 59.73H99.4314ZM102.902 54.8969L103.471 53.3039H110.928L111.524 54.8969H102.902Z" fill="black"/>
<path d="M118.077 59.73V40.9106H120.002L130.143 57.4619H129.791V40.9106H131.553V59.73H129.574L119.487 43.1516H119.84V59.73H118.077Z" fill="black"/>
<path d="M136.339 59.73V40.9106H148.703V42.5036H138.102V49.3618H147.619V50.9548H138.102V58.137H148.703V59.73H136.339Z" fill="black"/>
<path d="M159.866 60C158.167 60 156.675 59.604 155.392 58.812C154.126 58.002 153.141 56.8679 152.436 55.4099C151.731 53.9519 151.379 52.2508 151.379 50.3068C151.379 48.3627 151.731 46.6707 152.436 45.2307C153.159 43.7726 154.163 42.6476 155.446 41.8556C156.748 41.0456 158.248 40.6406 159.947 40.6406C161.791 40.6406 163.391 41.0996 164.746 42.0176C166.102 42.9176 167.078 44.1687 167.675 45.7707L166.021 46.3917C165.533 45.1317 164.774 44.1417 163.743 43.4216C162.713 42.7016 161.447 42.3416 159.947 42.3416C158.573 42.3416 157.371 42.6656 156.341 43.3136C155.329 43.9616 154.542 44.8797 153.982 46.0677C153.422 47.2557 153.141 48.6688 153.141 50.3068C153.141 51.9448 153.422 53.3669 153.982 54.5729C154.542 55.7609 155.329 56.6789 156.341 57.3269C157.371 57.975 158.573 58.299 159.947 58.299C160.652 58.299 161.357 58.209 162.062 58.029C162.785 57.831 163.454 57.4979 164.069 57.0299C164.683 56.5619 165.171 55.9229 165.533 55.1129C165.912 54.2849 166.102 53.2408 166.102 51.9808V50.4418L166.509 51.6298H161.249V50.0368H167.675V59.73H166.102L165.858 55.7339L166.156 55.9229C165.849 56.8949 165.37 57.6779 164.719 58.272C164.069 58.866 163.318 59.307 162.469 59.595C161.619 59.865 160.751 60 159.866 60Z" fill="black"/>
<path d="M170.176 59.73L177.199 40.9106H178.69L185.686 59.73H183.76L177.958 43.3676L172.155 59.73H170.176ZM173.647 54.8969L174.216 53.3039H181.673L182.269 54.8969H173.647Z" fill="black"/>
<path d="M194.089 59.973C192.245 59.973 190.736 59.496 189.561 58.542C188.386 57.5879 187.672 56.3189 187.419 54.7349L189.154 54.3029C189.371 55.6349 189.922 56.6519 190.808 57.3539C191.712 58.038 192.824 58.38 194.143 58.38C194.921 58.38 195.616 58.227 196.231 57.921C196.864 57.6149 197.361 57.1829 197.722 56.6249C198.084 56.0669 198.265 55.4279 198.265 54.7079C198.265 53.9339 198.057 53.3129 197.641 52.8448C197.225 52.3588 196.674 51.9448 195.987 51.6028C195.3 51.2608 194.523 50.9278 193.655 50.6038C192.679 50.2258 191.802 49.8208 191.025 49.3888C190.248 48.9388 189.633 48.3987 189.181 47.7687C188.747 47.1387 188.53 46.3557 188.53 45.4197C188.53 44.4837 188.756 43.6646 189.208 42.9626C189.66 42.2426 190.293 41.6756 191.106 41.2616C191.938 40.8476 192.896 40.6406 193.981 40.6406C195.137 40.6406 196.159 40.9016 197.044 41.4236C197.93 41.9456 198.644 42.7106 199.187 43.7186L197.777 44.5827C197.343 43.8266 196.8 43.2416 196.15 42.8276C195.517 42.4136 194.776 42.2066 193.926 42.2066C193.203 42.2066 192.571 42.3416 192.028 42.6116C191.486 42.8816 191.061 43.2596 190.754 43.7456C190.447 44.2137 190.293 44.7537 190.293 45.3657C190.293 46.0137 190.465 46.5627 190.808 47.0127C191.17 47.4627 191.676 47.8497 192.327 48.1737C192.995 48.4977 193.773 48.8218 194.658 49.1458C195.707 49.5418 196.629 49.9738 197.424 50.4418C198.238 50.8918 198.87 51.4498 199.322 52.1158C199.774 52.7818 200 53.6099 200 54.5999C200 55.6439 199.747 56.5709 199.241 57.3809C198.735 58.191 198.039 58.83 197.153 59.298C196.267 59.748 195.246 59.973 194.089 59.973Z" fill="black"/>
</svg>
