<svg width="960" height="559" viewBox="0 0 960 559" fill="none" xmlns="http://www.w3.org/2000/svg">
<mask id="path-1-inside-1_16_74" fill="white">
<path fill-rule="evenodd" clip-rule="evenodd" d="M138.5 258.3H141.2L138.4 261.5L137 263L134.8 265.7L127.8 270.8L127.4 271.5L123.4 274.4L99.4 289.2L96.1 291L94.4 292.3L89.9 294.7L88.7 295.6L87.3 296.6L86.5 296.9L85.2 297.2L77.9 301.8L57.1 311.1L51.1 312.9L48.2 313.4L46.7 313.9L40.5 315.5L38.7 316L33.6 317.4L22.4 318.6L13.6 318.7L7.4 316.4L5 312.5L3.1 310.9L0 303.4L1.6 291.5L6.6 283.4L7.6 280L19.3 263L40.1 240.3L38.6 234.8L41 228.4L46.9 222.4L54.1 216.2L62.6 209.8L77.6 200.7L85.4 196.8L87.5 195.5L89.1 194.8L100.5 188.6L102.6 187.3L105.4 186L118.7 180.6L136.1 175.4L143.3 174.6L148.5 175.5L150 176.3L153.9 179.4L151.9 187.5L148.6 192.9L136.5 206.7L132.8 210.1L130.7 211.4L127.9 213.3L112 225L106.4 227.1L93.6 234.1L69.7 242.6L60.6 244.4L59.3 244.7L58.3 244.9L56.6 244.7L52.4 244.4L50.6 243.9L51.2 241.3L57.5 238.4L63.2 234.5L67.7 233.3L71.3 231.2L88.3 228.6L93.6 227.2L112.1 219.4L119.9 213.4L126.4 205.6L128.6 201.4L130.8 193.9L126.4 190L118.9 189.8L115.3 190.8L109.6 193.7L107.7 194.6L105.1 196.4L103.3 197.1L96.6 201.8L89.9 206.7L87.3 208.6L83.6 211.4L77.8 215.3L69.9 222.1L68.2 223.4L66.9 224L63.4 226.8L57.5 231.7L55.1 234.6L49.2 238.7L34.6 255.5L25.6 269L24.5 272.3L22.5 276L17.4 288.6L18.1 293.8L19.9 297.9L22.6 301.1L25.6 303.7L26.5 304.2L28.2 305L32 305.8L47.3 306.1L62.4 302.4L79.6 295.2L87 290.5L88.5 289.7L90.1 288.9L110 278H111.3L111.4 277.2L112.8 275.8L121.9 270.1L138.5 258.3ZM79.8 209.4L82.6 205.5L76.3 208.3L64.8 215.6L62.7 219V220.1L64.7 220.4L70.7 215.8L71.1 215.6L73.5 213.7L79.8 209.4Z"/>
</mask>
<path fill-rule="evenodd" clip-rule="evenodd" d="M138.5 258.3H141.2L138.4 261.5L137 263L134.8 265.7L127.8 270.8L127.4 271.5L123.4 274.4L99.4 289.2L96.1 291L94.4 292.3L89.9 294.7L88.7 295.6L87.3 296.6L86.5 296.9L85.2 297.2L77.9 301.8L57.1 311.1L51.1 312.9L48.2 313.4L46.7 313.9L40.5 315.5L38.7 316L33.6 317.4L22.4 318.6L13.6 318.7L7.4 316.4L5 312.5L3.1 310.9L0 303.4L1.6 291.5L6.6 283.4L7.6 280L19.3 263L40.1 240.3L38.6 234.8L41 228.4L46.9 222.4L54.1 216.2L62.6 209.8L77.6 200.7L85.4 196.8L87.5 195.5L89.1 194.8L100.5 188.6L102.6 187.3L105.4 186L118.7 180.6L136.1 175.4L143.3 174.6L148.5 175.5L150 176.3L153.9 179.4L151.9 187.5L148.6 192.9L136.5 206.7L132.8 210.1L130.7 211.4L127.9 213.3L112 225L106.4 227.1L93.6 234.1L69.7 242.6L60.6 244.4L59.3 244.7L58.3 244.9L56.6 244.7L52.4 244.4L50.6 243.9L51.2 241.3L57.5 238.4L63.2 234.5L67.7 233.3L71.3 231.2L88.3 228.6L93.6 227.2L112.1 219.4L119.9 213.4L126.4 205.6L128.6 201.4L130.8 193.9L126.4 190L118.9 189.8L115.3 190.8L109.6 193.7L107.7 194.6L105.1 196.4L103.3 197.1L96.6 201.8L89.9 206.7L87.3 208.6L83.6 211.4L77.8 215.3L69.9 222.1L68.2 223.4L66.9 224L63.4 226.8L57.5 231.7L55.1 234.6L49.2 238.7L34.6 255.5L25.6 269L24.5 272.3L22.5 276L17.4 288.6L18.1 293.8L19.9 297.9L22.6 301.1L25.6 303.7L26.5 304.2L28.2 305L32 305.8L47.3 306.1L62.4 302.4L79.6 295.2L87 290.5L88.5 289.7L90.1 288.9L110 278H111.3L111.4 277.2L112.8 275.8L121.9 270.1L138.5 258.3ZM79.8 209.4L82.6 205.5L76.3 208.3L64.8 215.6L62.7 219V220.1L64.7 220.4L70.7 215.8L71.1 215.6L73.5 213.7L79.8 209.4Z" fill="black" stroke="black" stroke-width="2" mask="url(#path-1-inside-1_16_74)"/>
<mask id="path-2-inside-2_16_74" fill="white">
<path fill-rule="evenodd" clip-rule="evenodd" d="M163 359.2L165.4 362.5L164.8 364.3L153.5 360.7L151.9 359.2L148.4 358.6L147.2 357.1L146.8 356.7L145.8 353.6L144.9 352.7L144.2 352L143.7 349.9L141.3 346.9L141.6 345.6L133.3 339.7L132.2 337.6L132.1 331.3L135 326.6L134.3 326.1L135.5 324.1L135.2 323.8L138.5 299.2L141.8 294L145.2 285.2L145.4 284.2L146.7 283.1L150.8 274.6L155.2 261.6H154.7L157 253.3L162.1 242.8L161.8 240.6L172.1 210L172.4 206.4L176.3 198.9L183.8 179.9L183.9 179L185.7 175.9L194.1 151.8L196.4 147.9L197.2 141.7L201.7 128.4L201.6 127.2L201.4 125.8L201.3 124.4H200.6L226.5 57.7001L227 56.1001L229.4 52.5001L228.6 47.6001L230.1 43.2001L229.9 42.7001L230.5 40.0001L232.1 34.9001L232.7 32.1001L233.1 31.4001L234.8 29.8001L235.7 29.1001L242.2 24.5001L245.9 24.0001L248.4 23.3001L248.6 22.8001L249.6 22.7001L251 22.6001L251.8 24.0001L251.5 24.5001L251.4 28.2001L250 34.4001L250.2 40.3001L247.5 48.1001L245.8 55.1001L248.1 59.4001L251.8 60.5001L252.1 62.6001L228.1 124.6L225.9 126.3L225.8 128.7L225.7 129.5L225.2 130.3L224.8 131L223.8 131.8L215 150.5L212.5 157.5L209.4 161.4L205.5 172.5L205.1 173.3L203.9 175.8L201.9 181.5L202.1 182.4L201.5 183.1L196.7 196.3L196.1 196.9L194.8 199.5L195.9 199.7L193.9 204.8L192.2 207.2L185.3 224.6L181.7 236.8L179.3 241.2L177.2 249.2L175.8 251.7L175.6 254.9L174.3 256.7L166.2 282.9L163.4 298.1L159.4 306.7V322.6L157.3 326.2L158.3 329.9L157.6 332.6L157.4 333.6L156.9 337.6L158 346.2L160.4 348.5L161.5 354.2L162 356.9L163 359.2Z"/>
</mask>
<path fill-rule="evenodd" clip-rule="evenodd" d="M163 359.2L165.4 362.5L164.8 364.3L153.5 360.7L151.9 359.2L148.4 358.6L147.2 357.1L146.8 356.7L145.8 353.6L144.9 352.7L144.2 352L143.7 349.9L141.3 346.9L141.6 345.6L133.3 339.7L132.2 337.6L132.1 331.3L135 326.6L134.3 326.1L135.5 324.1L135.2 323.8L138.5 299.2L141.8 294L145.2 285.2L145.4 284.2L146.7 283.1L150.8 274.6L155.2 261.6H154.7L157 253.3L162.1 242.8L161.8 240.6L172.1 210L172.4 206.4L176.3 198.9L183.8 179.9L183.9 179L185.7 175.9L194.1 151.8L196.4 147.9L197.2 141.7L201.7 128.4L201.6 127.2L201.4 125.8L201.3 124.4H200.6L226.5 57.7001L227 56.1001L229.4 52.5001L228.6 47.6001L230.1 43.2001L229.9 42.7001L230.5 40.0001L232.1 34.9001L232.7 32.1001L233.1 31.4001L234.8 29.8001L235.7 29.1001L242.2 24.5001L245.9 24.0001L248.4 23.3001L248.6 22.8001L249.6 22.7001L251 22.6001L251.8 24.0001L251.5 24.5001L251.4 28.2001L250 34.4001L250.2 40.3001L247.5 48.1001L245.8 55.1001L248.1 59.4001L251.8 60.5001L252.1 62.6001L228.1 124.6L225.9 126.3L225.8 128.7L225.7 129.5L225.2 130.3L224.8 131L223.8 131.8L215 150.5L212.5 157.5L209.4 161.4L205.5 172.5L205.1 173.3L203.9 175.8L201.9 181.5L202.1 182.4L201.5 183.1L196.7 196.3L196.1 196.9L194.8 199.5L195.9 199.7L193.9 204.8L192.2 207.2L185.3 224.6L181.7 236.8L179.3 241.2L177.2 249.2L175.8 251.7L175.6 254.9L174.3 256.7L166.2 282.9L163.4 298.1L159.4 306.7V322.6L157.3 326.2L158.3 329.9L157.6 332.6L157.4 333.6L156.9 337.6L158 346.2L160.4 348.5L161.5 354.2L162 356.9L163 359.2Z" fill="black" stroke="black" stroke-width="2" mask="url(#path-2-inside-2_16_74)"/>
<mask id="path-3-inside-3_16_74" fill="white">
<path fill-rule="evenodd" clip-rule="evenodd" d="M332.8 233.7L335.5 237.9L326.8 239L311.3 238.5L305.9 237.4L305.2 236L302.2 236.2L302.9 237.4L301.7 238.1L301 237.7L295.5 249.2L295 252.3L283.1 282.4L283.3 283.6L283.7 283.8L277.1 300.8L276.4 301.7L275.4 302.9L275 303.5L275.3 305.3L274.8 308.2L266.7 328.2L267.1 329.8L266.5 330.8L265.4 332.6L260.5 341L260.6 344.8L258.4 350.9L258.9 351.7L258.4 353.5L258.3 354.4L257.6 357.3L257 358.5H256.5L256.8 359.6L256.1 361.1L249 361.4L240.8 365.3L238.4 366.4L236.7 366.5L235.4 366.1L235.2 364.1L236.6 360.2L237.7 357.7L239.6 355.4L242 348.7L243 346.6L244.2 343.6L245.7 338.7L246.6 337.3L247.2 336.2L247.5 334.5V331.2L250.4 323.6L252 321.3L252.5 320L252.9 318.2L252.7 317.1L254.3 306.8L258 297.7L257.5 297.1L258.8 296.3L260.9 290.7L266.1 278.2L269 276.2L270.1 270.3L274.8 255.3L280.7 240.5L273.5 239.2L272.1 237.6L267.9 237.7L259.5 238.1L255.9 236.6L255 231.3L251.4 229.8L250.1 227.6L253 225.9L254.9 226.7L269.3 227.4L274.3 226.6L280.1 226.9L284.5 226.2L285.3 225.1L286.9 224.8L289.9 220.8L290.3 215.9L290.7 213.1L291.5 211.9L292.6 209.9L293.6 205.6L294.3 205.4L294.5 204.7L294.2 201.8L295.2 199.6L303.4 172.1L303.8 170.8L304.3 167.5L308.6 162.6V160.5L308.1 159L308.2 156.5L313 142.7L312.5 142L313.1 138.7L312.7 136.9L315.8 131.6L321.6 129.8L325.9 126.6L329 119.8L329.9 114.2L335.9 103.2L335.6 102L337.3 97.8001L344.4 81.4001L345.3 76.0001L345.8 74.0001L346 72.0001L343.2 70.9001L342.1 70.0001L340.9 69.2001L337.9 69.8001L337.7 64.9001L339.7 58.6001L342.8 54.7001L344.9 46.4001L345.8 44.9001L346.3 44.1001L347.5 43.0001L349.3 39.0001L348.8 37.6001L349.3 35.7001L349.1 35.2001L354.8 29.0001L360.5 26.8001L363.7 24.1001L367.3 21.5001L375.5 13.1001L377.8 13.6001L377.5 17.2001L375.3 24.1001L375.2 26.5001L372.9 31.9001L372.5 36.3001L371.7 38.9001L371 40.5001L370.3 41.5001L370 44.2001L369.8 45.4001L369.5 46.3001L367.5 48.6001L367.1 53.0001L362.4 62.4001L361.5 68.6001L358.9 77.3001L358 79.2001L357.8 82.0001L347.3 108.5L348.4 110.2L345.5 114.6L345.9 115L344.8 116.1L345.7 116.2L339 130.5L336 141.4L333.7 144.8L332.7 149.3L329.9 156L328.1 162.3L322.6 173.6L322.4 175.8L321.7 179.4L321.9 179.5L319.8 186.5L315.4 194.4L305.9 220.3L303.8 221.7L302.5 223.5L303.7 225.4L303.9 227.4L308.7 228.5L311.6 227.8L313.2 229.5L319.9 228.2L328.8 229.6L332.8 233.7Z"/>
</mask>
<path fill-rule="evenodd" clip-rule="evenodd" d="M332.8 233.7L335.5 237.9L326.8 239L311.3 238.5L305.9 237.4L305.2 236L302.2 236.2L302.9 237.4L301.7 238.1L301 237.7L295.5 249.2L295 252.3L283.1 282.4L283.3 283.6L283.7 283.8L277.1 300.8L276.4 301.7L275.4 302.9L275 303.5L275.3 305.3L274.8 308.2L266.7 328.2L267.1 329.8L266.5 330.8L265.4 332.6L260.5 341L260.6 344.8L258.4 350.9L258.9 351.7L258.4 353.5L258.3 354.4L257.6 357.3L257 358.5H256.5L256.8 359.6L256.1 361.1L249 361.4L240.8 365.3L238.4 366.4L236.7 366.5L235.4 366.1L235.2 364.1L236.6 360.2L237.7 357.7L239.6 355.4L242 348.7L243 346.6L244.2 343.6L245.7 338.7L246.6 337.3L247.2 336.2L247.5 334.5V331.2L250.4 323.6L252 321.3L252.5 320L252.9 318.2L252.7 317.1L254.3 306.8L258 297.7L257.5 297.1L258.8 296.3L260.9 290.7L266.1 278.2L269 276.2L270.1 270.3L274.8 255.3L280.7 240.5L273.5 239.2L272.1 237.6L267.9 237.7L259.5 238.1L255.9 236.6L255 231.3L251.4 229.8L250.1 227.6L253 225.9L254.9 226.7L269.3 227.4L274.3 226.6L280.1 226.9L284.5 226.2L285.3 225.1L286.9 224.8L289.9 220.8L290.3 215.9L290.7 213.1L291.5 211.9L292.6 209.9L293.6 205.6L294.3 205.4L294.5 204.7L294.2 201.8L295.2 199.6L303.4 172.1L303.8 170.8L304.3 167.5L308.6 162.6V160.5L308.1 159L308.2 156.5L313 142.7L312.5 142L313.1 138.7L312.7 136.9L315.8 131.6L321.6 129.8L325.9 126.6L329 119.8L329.9 114.2L335.9 103.2L335.6 102L337.3 97.8001L344.4 81.4001L345.3 76.0001L345.8 74.0001L346 72.0001L343.2 70.9001L342.1 70.0001L340.9 69.2001L337.9 69.8001L337.7 64.9001L339.7 58.6001L342.8 54.7001L344.9 46.4001L345.8 44.9001L346.3 44.1001L347.5 43.0001L349.3 39.0001L348.8 37.6001L349.3 35.7001L349.1 35.2001L354.8 29.0001L360.5 26.8001L363.7 24.1001L367.3 21.5001L375.5 13.1001L377.8 13.6001L377.5 17.2001L375.3 24.1001L375.2 26.5001L372.9 31.9001L372.5 36.3001L371.7 38.9001L371 40.5001L370.3 41.5001L370 44.2001L369.8 45.4001L369.5 46.3001L367.5 48.6001L367.1 53.0001L362.4 62.4001L361.5 68.6001L358.9 77.3001L358 79.2001L357.8 82.0001L347.3 108.5L348.4 110.2L345.5 114.6L345.9 115L344.8 116.1L345.7 116.2L339 130.5L336 141.4L333.7 144.8L332.7 149.3L329.9 156L328.1 162.3L322.6 173.6L322.4 175.8L321.7 179.4L321.9 179.5L319.8 186.5L315.4 194.4L305.9 220.3L303.8 221.7L302.5 223.5L303.7 225.4L303.9 227.4L308.7 228.5L311.6 227.8L313.2 229.5L319.9 228.2L328.8 229.6L332.8 233.7Z" fill="black" stroke="black" stroke-width="2" mask="url(#path-3-inside-3_16_74)"/>
<mask id="path-4-inside-4_16_74" fill="white">
<path fill-rule="evenodd" clip-rule="evenodd" d="M475.3 183.2L475.8 187L475.3 189.2L470.4 191.7L467 193.5L464 194.1L460.9 195.5H460.3L457.7 195L456.5 188.1L454.5 183.8L453.7 182.7L453.2 182.3L452.5 182.2L452.1 181.1L450.3 180.9L449.7 180.5L446.5 181.1L442.8 182L440.8 183.4L423.6 189.6L420.1 190.6L418.6 191.5L414.1 193.8L406.9 201.9L400.4 212.7L397.5 216.5L395.5 218.8L393.9 221.3L392.5 225.8L385.7 235L382.8 241.7L379 248L378.4 248.6L377.5 249.5L375.9 253L373.8 255.2L373.5 255.9L373.4 257.1L372.8 260L371.4 262.3L370.5 263.4L370.2 265.7L367.3 270L360.6 285.2L360.8 287.5L358.5 291.3L353.2 309L353.6 309.7L352.3 312.8L348.7 315.1L342.5 316.9L335.3 317.5L333.4 318.5L332.6 317.3L332.7 316L334.8 310.3L335.7 305.1L341.1 293.3H340L341.1 291.7L341.4 290.8H341.3L341.7 290.6L342.6 289.2L346.2 278.9L346.4 274.9L348.5 271.1L350 267.5L350.7 266.6L350.8 265.9L351 264.2L352.2 263L352 262.4H351.3L353 261.8V258.2L353.7 255.7L355.9 249.4V248.5L357.3 247.2L357.4 243.1L357.6 241.8L357.9 240.9L358.7 239.1L360.3 235.7H359.5L357.9 234.2L357.2 234L355.5 234.4L354.5 235L351.9 237L348.1 238.8L345.6 241.9L344.3 242.3L332.1 254.4L326.5 261.5L320.6 272.3L319.8 277.5L318.9 278.2L319.1 278.8L318 279.7L316.4 276.9L315.6 275.8L315.2 274L315.9 272.5V271.8L316 270.9L316.7 269.4L318.9 267.1L319.5 264.4L320.3 263.7L320.7 262.6L322.3 260.3L325.6 256.5L328.6 251.4L330 249.2L330.7 248.8L343.6 236.2L346.5 231.9L347.2 231.7L348.5 230.7L349.3 230.1L350 229.2L350.7 228.8L351.5 227.2L353.3 225.4L355.2 224.1L358.2 221.6L360.5 220.6L361 220.2L363.9 217.1L364.9 213.1V211.9L365 209.9L366.3 205.5L374.6 201.2L376.5 200.3L378.5 198.7H380.1L380.9 199.4L381.2 200.3L384.8 202.3L387 202.1L398 195L400.5 192.5L405.2 190.3L406.8 189.3L407.5 188.6L408.7 187L412.6 183.7L413.9 180.8L415.4 179.9L417 179.7L423.4 177.4L426.7 177.6L431 176L431.9 175.8H432.6L436.1 175.4L450.9 170.5L453.9 170.3L457.3 169.4L473.6 163.5L478 162.9L480.2 165.1V166.4L480.1 166.6L477.8 172.1L475.8 180.2L475.7 182L475.3 183.2ZM391.2 217L392.1 213.9L391.4 213L391.6 212.3L389.6 211.2L384.4 211.4L383.2 213L381.3 214.1L380.3 223.8H382.3L387.1 220.2L388.5 219.6L389.4 219L390.6 218L391.2 217Z"/>
</mask>
<path fill-rule="evenodd" clip-rule="evenodd" d="M475.3 183.2L475.8 187L475.3 189.2L470.4 191.7L467 193.5L464 194.1L460.9 195.5H460.3L457.7 195L456.5 188.1L454.5 183.8L453.7 182.7L453.2 182.3L452.5 182.2L452.1 181.1L450.3 180.9L449.7 180.5L446.5 181.1L442.8 182L440.8 183.4L423.6 189.6L420.1 190.6L418.6 191.5L414.1 193.8L406.9 201.9L400.4 212.7L397.5 216.5L395.5 218.8L393.9 221.3L392.5 225.8L385.7 235L382.8 241.7L379 248L378.4 248.6L377.5 249.5L375.9 253L373.8 255.2L373.5 255.9L373.4 257.1L372.8 260L371.4 262.3L370.5 263.4L370.2 265.7L367.3 270L360.6 285.2L360.8 287.5L358.5 291.3L353.2 309L353.6 309.7L352.3 312.8L348.7 315.1L342.5 316.9L335.3 317.5L333.4 318.5L332.6 317.3L332.7 316L334.8 310.3L335.7 305.1L341.1 293.3H340L341.1 291.7L341.4 290.8H341.3L341.7 290.6L342.6 289.2L346.2 278.9L346.4 274.9L348.5 271.1L350 267.5L350.7 266.6L350.8 265.9L351 264.2L352.2 263L352 262.4H351.3L353 261.8V258.2L353.7 255.7L355.9 249.4V248.5L357.3 247.2L357.4 243.1L357.6 241.8L357.9 240.9L358.7 239.1L360.3 235.7H359.5L357.9 234.2L357.2 234L355.5 234.4L354.5 235L351.9 237L348.1 238.8L345.6 241.9L344.3 242.3L332.1 254.4L326.5 261.5L320.6 272.3L319.8 277.5L318.9 278.2L319.1 278.8L318 279.7L316.4 276.9L315.6 275.8L315.2 274L315.9 272.5V271.8L316 270.9L316.7 269.4L318.9 267.1L319.5 264.4L320.3 263.7L320.7 262.6L322.3 260.3L325.6 256.5L328.6 251.4L330 249.2L330.7 248.8L343.6 236.2L346.5 231.9L347.2 231.7L348.5 230.7L349.3 230.1L350 229.2L350.7 228.8L351.5 227.2L353.3 225.4L355.2 224.1L358.2 221.6L360.5 220.6L361 220.2L363.9 217.1L364.9 213.1V211.9L365 209.9L366.3 205.5L374.6 201.2L376.5 200.3L378.5 198.7H380.1L380.9 199.4L381.2 200.3L384.8 202.3L387 202.1L398 195L400.5 192.5L405.2 190.3L406.8 189.3L407.5 188.6L408.7 187L412.6 183.7L413.9 180.8L415.4 179.9L417 179.7L423.4 177.4L426.7 177.6L431 176L431.9 175.8H432.6L436.1 175.4L450.9 170.5L453.9 170.3L457.3 169.4L473.6 163.5L478 162.9L480.2 165.1V166.4L480.1 166.6L477.8 172.1L475.8 180.2L475.7 182L475.3 183.2ZM391.2 217L392.1 213.9L391.4 213L391.6 212.3L389.6 211.2L384.4 211.4L383.2 213L381.3 214.1L380.3 223.8H382.3L387.1 220.2L388.5 219.6L389.4 219L390.6 218L391.2 217Z" fill="black" stroke="black" stroke-width="2" mask="url(#path-4-inside-4_16_74)"/>
<mask id="path-5-inside-5_16_74" fill="white">
<path fill-rule="evenodd" clip-rule="evenodd" d="M569.3 304.4L570.3 304.6L569.8 306L567.6 307.2L565.4 308.5L554.5 314.1L546.4 316.7L544.7 317L544.5 316.4L541.1 316.2L537.5 312.6L534.5 304.3L532.7 301.5L532.3 296.3L530.6 289.3L529.8 287.9L530.1 286.3L528.8 284.8L529 283.7L528.9 280.9L529.8 277.2L528.6 272L529.9 266.8L529.4 265.4L529.5 262.5L530.2 259.6L528.6 257L527.8 256.7L526.8 256.8L525.3 258L524.9 259.1H524.4L524.2 259.6L522.6 261.5L510.8 272.9L501.1 279.8L499 282.2L488.2 288.8L484.3 292.4L479.5 294.3L476 297.1L468.3 300.8L464.3 301.8L462 303.2L458 304.5L456.5 305.6L454 306.1L446.3 310.2L442.2 311.2L435.3 314.1L421.8 317.5H418.4L415.6 319L412.2 318L405.8 313.8L403.6 311.4H402.2L399.9 312.3L396.7 314.3L394.3 314.1L392.7 314.7L388.4 313.1L381.8 309.4L380.8 304.5L385.4 294.2L386.9 292.9L387.1 291.9L395.3 284.9L396.6 284.1L399.1 281.7L404.2 276.5L419.3 266.5L420.9 265.9L421.4 265.4L424.6 263.9L427.1 261.5L431.3 259.6L436.9 255.7L444.1 252.6L446.3 251.5L446.8 251.2L447.5 250.4L449 249.8L452.2 247.8L452.9 247.6L454.1 246.3L455.9 244.2L461.6 241.8H463.4L470 238.7L474.5 237.6L477.6 236L480 235.3L480.4 234.6L488.1 232.2L488.5 232L491 230.9L495.7 229.1L504.9 227.3L507.8 226L519 226.7L524.5 229.9L526.5 232.2L527.3 234.6H528.5L527.2 230.5L528.5 224.4L527.7 220.7L527.3 213L526.1 208.8L522.3 204.4L514.8 203.7L511.1 205.5L493.3 219L486.9 222.9L484.3 224.3L482.8 224.5L481.8 224.3L481.1 223.4L481.4 222.6L485.4 220.2L485.8 219.5L486.3 218.7L487.9 217.2L493 213.1L499.1 209.4L505.8 203.7L526.4 190.5L530.4 190L536.4 187.2L537.7 186.6L538.9 186.4L540 186.7L540.8 187.6H544.7L549.5 194.1L551 198.5L551.8 207.5L552.7 208.9L553.2 220.5L552.9 221.8V223.8L551.7 229L552.3 231.9L551.6 233.5V235.9L551.2 238.2L551.1 241.1L550.7 249.5L551.7 251.8L550.5 256.4L551.7 261.1L550 267.2L550.8 270.4L550.4 278.7L552.2 290.8L553.6 293.1L553.9 294.2L555.4 296.6L554.6 299.9L560.9 305.6L566 304.9L567 304.6L567.7 304.3H569.3V304.4ZM523 236.8L523.4 235.2L520.8 232.9L519 230.8L516.5 230.1L508.9 229.4L499.5 231.2L496 232.4L492 233.8L490.2 234.6L488.9 234.9L473.4 240.9L471.7 242.2L470.3 243L467.9 243.7L466 244.4L464.6 245.3L461.5 247.1L461 247.4L460.2 248.1L459.3 248.8L456.8 250.2L447.5 257.4L446.3 258.8L444.6 261.2L442.2 262.7L441.4 264L437.2 268.9L435.9 269.7L434.1 271.6L431.7 274L430.6 278.2L427.3 281.6L424.9 286.3L423.2 292.9L424 297.1L425.7 298.2L426.3 301.6L429.8 304.4L434.7 305L442.4 304.6L452.4 301.5L454.4 300.3L457.5 299.5L466.2 295.6L475.7 289.6L476.9 289.1L478.1 288.3L494.2 275.4L495.4 274.5L497.7 273L499.3 271.6L503.6 267.4L508.8 261L511.1 258.7L512.5 257.1L512.8 256.3L514.4 254.9L517.6 250.2L518 248.6L518.8 247.8L519.9 246.9L522.8 238.6L523 236.8ZM427.6 267.6L423.4 269.2L417.1 274.1L413.5 275.5L411.8 277.2L410.3 279L408.2 281.3L406.3 282.6L405.2 285.7L404.7 286.5L403.3 287.8L401.3 289.6L399.2 293L399.4 294.4L399.2 297.3L400.9 299.2L401 298.4L403.6 298.6L405.2 298L407.4 296.3L408.6 294.5L409 293.2L409.7 292.4L414.2 286.2L415.9 283.9L417.8 282.1L417.9 281.9L418.9 281.1L420 279.4L422 276.7L429.9 269.4L432.3 266.6L432 265.8L430.9 265.4L429.2 265.8L427.5 267.1L427.6 267.6Z"/>
</mask>
<path fill-rule="evenodd" clip-rule="evenodd" d="M569.3 304.4L570.3 304.6L569.8 306L567.6 307.2L565.4 308.5L554.5 314.1L546.4 316.7L544.7 317L544.5 316.4L541.1 316.2L537.5 312.6L534.5 304.3L532.7 301.5L532.3 296.3L530.6 289.3L529.8 287.9L530.1 286.3L528.8 284.8L529 283.7L528.9 280.9L529.8 277.2L528.6 272L529.9 266.8L529.4 265.4L529.5 262.5L530.2 259.6L528.6 257L527.8 256.7L526.8 256.8L525.3 258L524.9 259.1H524.4L524.2 259.6L522.6 261.5L510.8 272.9L501.1 279.8L499 282.2L488.2 288.8L484.3 292.4L479.5 294.3L476 297.1L468.3 300.8L464.3 301.8L462 303.2L458 304.5L456.5 305.6L454 306.1L446.3 310.2L442.2 311.2L435.3 314.1L421.8 317.5H418.4L415.6 319L412.2 318L405.8 313.8L403.6 311.4H402.2L399.9 312.3L396.7 314.3L394.3 314.1L392.7 314.7L388.4 313.1L381.8 309.4L380.8 304.5L385.4 294.2L386.9 292.9L387.1 291.9L395.3 284.9L396.6 284.1L399.1 281.7L404.2 276.5L419.3 266.5L420.9 265.9L421.4 265.4L424.6 263.9L427.1 261.5L431.3 259.6L436.9 255.7L444.1 252.6L446.3 251.5L446.8 251.2L447.5 250.4L449 249.8L452.2 247.8L452.9 247.6L454.1 246.3L455.9 244.2L461.6 241.8H463.4L470 238.7L474.5 237.6L477.6 236L480 235.3L480.4 234.6L488.1 232.2L488.5 232L491 230.9L495.7 229.1L504.9 227.3L507.8 226L519 226.7L524.5 229.9L526.5 232.2L527.3 234.6H528.5L527.2 230.5L528.5 224.4L527.7 220.7L527.3 213L526.1 208.8L522.3 204.4L514.8 203.7L511.1 205.5L493.3 219L486.9 222.9L484.3 224.3L482.8 224.5L481.8 224.3L481.1 223.4L481.4 222.6L485.4 220.2L485.8 219.5L486.3 218.7L487.9 217.2L493 213.1L499.1 209.4L505.8 203.7L526.4 190.5L530.4 190L536.4 187.2L537.7 186.6L538.9 186.4L540 186.7L540.8 187.6H544.7L549.5 194.1L551 198.5L551.8 207.5L552.7 208.9L553.2 220.5L552.9 221.8V223.8L551.7 229L552.3 231.9L551.6 233.5V235.9L551.2 238.2L551.1 241.1L550.7 249.5L551.7 251.8L550.5 256.4L551.7 261.1L550 267.2L550.8 270.4L550.4 278.7L552.2 290.8L553.6 293.1L553.9 294.2L555.4 296.6L554.6 299.9L560.9 305.6L566 304.9L567 304.6L567.7 304.3H569.3V304.4ZM523 236.8L523.4 235.2L520.8 232.9L519 230.8L516.5 230.1L508.9 229.4L499.5 231.2L496 232.4L492 233.8L490.2 234.6L488.9 234.9L473.4 240.9L471.7 242.2L470.3 243L467.9 243.7L466 244.4L464.6 245.3L461.5 247.1L461 247.4L460.2 248.1L459.3 248.8L456.8 250.2L447.5 257.4L446.3 258.8L444.6 261.2L442.2 262.7L441.4 264L437.2 268.9L435.9 269.7L434.1 271.6L431.7 274L430.6 278.2L427.3 281.6L424.9 286.3L423.2 292.9L424 297.1L425.7 298.2L426.3 301.6L429.8 304.4L434.7 305L442.4 304.6L452.4 301.5L454.4 300.3L457.5 299.5L466.2 295.6L475.7 289.6L476.9 289.1L478.1 288.3L494.2 275.4L495.4 274.5L497.7 273L499.3 271.6L503.6 267.4L508.8 261L511.1 258.7L512.5 257.1L512.8 256.3L514.4 254.9L517.6 250.2L518 248.6L518.8 247.8L519.9 246.9L522.8 238.6L523 236.8ZM427.6 267.6L423.4 269.2L417.1 274.1L413.5 275.5L411.8 277.2L410.3 279L408.2 281.3L406.3 282.6L405.2 285.7L404.7 286.5L403.3 287.8L401.3 289.6L399.2 293L399.4 294.4L399.2 297.3L400.9 299.2L401 298.4L403.6 298.6L405.2 298L407.4 296.3L408.6 294.5L409 293.2L409.7 292.4L414.2 286.2L415.9 283.9L417.8 282.1L417.9 281.9L418.9 281.1L420 279.4L422 276.7L429.9 269.4L432.3 266.6L432 265.8L430.9 265.4L429.2 265.8L427.5 267.1L427.6 267.6Z" fill="black" stroke="black" stroke-width="2" mask="url(#path-5-inside-5_16_74)"/>
<mask id="path-6-inside-6_16_74" fill="white">
<path fill-rule="evenodd" clip-rule="evenodd" d="M668.9 368.3L663.1 369.2L642.5 362.9L623 359.7L622.5 358.4L617 352.9L612.3 353.3L600.3 340.5L596.3 334.2L594.7 333.8L591.2 325.3L587 321.6L585.9 319.4L583.7 319L583.8 316.1L583.3 313.9L588.5 282.6L597 269L597.4 261.1L600.4 258.1L613.9 235.3L631.3 218.4V217.1L633.6 214.5L637.1 209.9L645.6 201.5L649.2 198L654.6 193L657.8 189.3L667.9 181.7L679.7 167.7L681.4 165.7L686.4 160.5L699.3 150.4L705 147.1L709.7 144.1L719.6 134.4L758.9 105.7L760.5 104L765.7 101L796.7 77.4001L855.8 41.1001L897.2 19.6001L943.3 1.9001L959.9 0.600098L959.4 4.8001L952.8 17.1001L937 37.5001L920.5 38.4001L894.7 48.5001L885.4 56.6001L874.4 59.1001L849.6 71.8001L836.9 78.6001L834.9 79.5001L826.5 85.0001L819.8 89.6001L813.3 94.6001L792.9 110.3L757.9 141.6L750.3 147.5L746.2 153.8L735.4 162.2L689.7 218.9L668.3 256.8L664.9 266.6L658.9 297L657.2 297.9L656 299.9L656.2 303.4L657.2 304.6L660.5 304.3L662.8 305.9L663.5 313.1L667.2 321.2L674.8 327.5L681.7 330.4L684 334.3L696.3 335L713.8 333L713.5 333.9L715.5 334.6H717.9L721 333.9H722.7L725.6 335.1L738.6 330.9L754.2 328.7L782.7 317.3L814 299.1L830.7 289.9L832.6 288.6L837.7 285.7L862.8 264.5L864.8 262.8L867.7 260.8L871.3 258.6L887.9 248.1L899.4 235L927.3 210.9L933.1 204.6L936.2 201.3L944.4 189.5L952.4 187.8L936 215.3L933.5 218.3L928.7 222.9L928.2 224.2L917.5 233.4L914.6 237.7L912.2 239.7L907.9 245.2L886.4 264.2L878.3 271.4L869.9 275.6L863.3 284.1L841.1 299.7L835.2 304.7L831.6 306.9L827.5 309.5L806.4 320.5L796.2 328.4L759.2 347L709.4 363.6L706.5 365.2L702.3 366.9L700.7 367.3M728.5 157.1L728.7 152.5L719.2 154.2L704.9 163.4L697 171.5L695.5 173.1L691.8 177L688.5 177.4L657.6 207.4L652.3 217.1L645 222.1L625.1 253.8L619.3 266.9L619.1 284.6L615.1 290.5L615.2 295.5L621.2 294.2L623 295.5L629.3 292.5L630.2 291.3L638.7 278.6L636 278.2L638.9 274L644.4 265.1L646 260.5L651.6 250.7L654 246.5L656.9 241L686.5 201.3L691.3 196.5L694.5 192.8L695.1 192.4L702.5 184.3L710.3 175.5L716.6 167.9L719.8 165.5L728.5 157.1Z"/>
</mask>
<path fill-rule="evenodd" clip-rule="evenodd" d="M668.9 368.3L663.1 369.2L642.5 362.9L623 359.7L622.5 358.4L617 352.9L612.3 353.3L600.3 340.5L596.3 334.2L594.7 333.8L591.2 325.3L587 321.6L585.9 319.4L583.7 319L583.8 316.1L583.3 313.9L588.5 282.6L597 269L597.4 261.1L600.4 258.1L613.9 235.3L631.3 218.4V217.1L633.6 214.5L637.1 209.9L645.6 201.5L649.2 198L654.6 193L657.8 189.3L667.9 181.7L679.7 167.7L681.4 165.7L686.4 160.5L699.3 150.4L705 147.1L709.7 144.1L719.6 134.4L758.9 105.7L760.5 104L765.7 101L796.7 77.4001L855.8 41.1001L897.2 19.6001L943.3 1.9001L959.9 0.600098L959.4 4.8001L952.8 17.1001L937 37.5001L920.5 38.4001L894.7 48.5001L885.4 56.6001L874.4 59.1001L849.6 71.8001L836.9 78.6001L834.9 79.5001L826.5 85.0001L819.8 89.6001L813.3 94.6001L792.9 110.3L757.9 141.6L750.3 147.5L746.2 153.8L735.4 162.2L689.7 218.9L668.3 256.8L664.9 266.6L658.9 297L657.2 297.9L656 299.9L656.2 303.4L657.2 304.6L660.5 304.3L662.8 305.9L663.5 313.1L667.2 321.2L674.8 327.5L681.7 330.4L684 334.3L696.3 335L713.8 333L713.5 333.9L715.5 334.6H717.9L721 333.9H722.7L725.6 335.1L738.6 330.9L754.2 328.7L782.7 317.3L814 299.1L830.7 289.9L832.6 288.6L837.7 285.7L862.8 264.5L864.8 262.8L867.7 260.8L871.3 258.6L887.9 248.1L899.4 235L927.3 210.9L933.1 204.6L936.2 201.3L944.4 189.5L952.4 187.8L936 215.3L933.5 218.3L928.7 222.9L928.2 224.2L917.5 233.4L914.6 237.7L912.2 239.7L907.9 245.2L886.4 264.2L878.3 271.4L869.9 275.6L863.3 284.1L841.1 299.7L835.2 304.7L831.6 306.9L827.5 309.5L806.4 320.5L796.2 328.4L759.2 347L709.4 363.6L706.5 365.2L702.3 366.9L700.7 367.3M728.5 157.1L728.7 152.5L719.2 154.2L704.9 163.4L697 171.5L695.5 173.1L691.8 177L688.5 177.4L657.6 207.4L652.3 217.1L645 222.1L625.1 253.8L619.3 266.9L619.1 284.6L615.1 290.5L615.2 295.5L621.2 294.2L623 295.5L629.3 292.5L630.2 291.3L638.7 278.6L636 278.2L638.9 274L644.4 265.1L646 260.5L651.6 250.7L654 246.5L656.9 241L686.5 201.3L691.3 196.5L694.5 192.8L695.1 192.4L702.5 184.3L710.3 175.5L716.6 167.9L719.8 165.5L728.5 157.1Z" fill="black"/>
<path d="M663.1 369.2L662.808 370.156L663.027 370.223L663.253 370.188L663.1 369.2ZM642.5 362.9L642.793 361.944L642.728 361.924L642.662 361.913L642.5 362.9ZM623 359.7L622.067 360.059L622.272 360.594L622.838 360.687L623 359.7ZM622.5 358.4L623.433 358.041L623.357 357.843L623.207 357.693L622.5 358.4ZM617 352.9L617.707 352.193L617.378 351.864L616.915 351.904L617 352.9ZM612.3 353.3L611.571 353.984L611.902 354.338L612.385 354.296L612.3 353.3ZM600.3 340.5L599.456 341.036L599.506 341.115L599.571 341.184L600.3 340.5ZM596.3 334.2L597.144 333.664L596.93 333.327L596.543 333.23L596.3 334.2ZM594.7 333.8L593.775 334.181L593.968 334.648L594.458 334.77L594.7 333.8ZM591.2 325.3L592.125 324.919L592.036 324.704L591.861 324.55L591.2 325.3ZM587 321.6L586.106 322.047L586.193 322.222L586.339 322.35L587 321.6ZM585.9 319.4L586.795 318.953L586.571 318.506L586.079 318.416L585.9 319.4ZM583.7 319L582.701 318.966L582.671 319.829L583.521 319.984L583.7 319ZM583.8 316.1L584.799 316.135L584.804 316.005L584.775 315.878L583.8 316.1ZM583.3 313.9L582.314 313.736L582.281 313.93L582.325 314.122L583.3 313.9ZM588.5 282.6L587.652 282.07L587.546 282.239L587.514 282.436L588.5 282.6ZM597 269L597.848 269.53L597.986 269.31L597.999 269.051L597 269ZM597.4 261.1L596.693 260.393L596.421 260.665L596.401 261.05L597.4 261.1ZM600.4 258.1L601.107 258.807L601.196 258.718L601.261 258.61L600.4 258.1ZM613.9 235.3L613.203 234.583L613.108 234.676L613.04 234.791L613.9 235.3ZM631.3 218.4L631.997 219.117L632.3 218.823V218.4H631.3ZM631.3 217.1L630.551 216.438L630.3 216.721V217.1H631.3ZM633.6 214.5L634.349 215.163L634.374 215.135L634.396 215.106L633.6 214.5ZM637.1 209.9L636.397 209.189L636.347 209.238L636.304 209.295L637.1 209.9ZM645.6 201.5L644.903 200.783L644.897 200.789L645.6 201.5ZM649.2 198L648.521 197.266L648.512 197.275L648.503 197.283L649.2 198ZM654.6 193L655.279 193.734L655.32 193.696L655.356 193.654L654.6 193ZM657.8 189.3L657.199 188.501L657.114 188.565L657.044 188.646L657.8 189.3ZM667.9 181.7L668.501 182.499L668.592 182.431L668.665 182.345L667.9 181.7ZM679.7 167.7L678.938 167.052L678.935 167.056L679.7 167.7ZM681.4 165.7L680.679 165.007L680.658 165.029L680.638 165.052L681.4 165.7ZM686.4 160.5L685.784 159.713L685.728 159.756L685.679 159.807L686.4 160.5ZM699.3 150.4L698.799 149.535L698.739 149.57L698.684 149.613L699.3 150.4ZM705 147.1L705.501 147.966L705.52 147.955L705.538 147.943L705 147.1ZM709.7 144.1L710.238 144.943L710.326 144.887L710.4 144.814L709.7 144.1ZM719.6 134.4L719.01 133.593L718.952 133.635L718.9 133.686L719.6 134.4ZM758.9 105.7L759.49 106.508L759.565 106.453L759.628 106.385L758.9 105.7ZM760.5 104L760 103.134L759.873 103.208L759.772 103.315L760.5 104ZM765.7 101L766.2 101.866L766.255 101.834L766.306 101.796L765.7 101ZM796.7 77.4001L796.177 76.548L796.134 76.5742L796.094 76.6044L796.7 77.4001ZM855.8 41.1001L855.339 40.2126L855.307 40.2292L855.277 40.248L855.8 41.1001ZM897.2 19.6001L896.842 18.6665L896.789 18.6867L896.739 18.7126L897.2 19.6001ZM943.3 1.9001L943.222 0.90315L943.077 0.914489L942.942 0.966544L943.3 1.9001ZM959.9 0.600098L960.893 0.718311L961.037 -0.492012L959.822 -0.39685L959.9 0.600098ZM959.4 4.8001L960.281 5.27292L960.371 5.10619L960.393 4.91831L959.4 4.8001ZM952.8 17.1001L953.591 17.7124L953.642 17.6465L953.681 17.5729L952.8 17.1001ZM937 37.5001L937.055 38.4986L937.511 38.4737L937.791 38.1124L937 37.5001ZM920.5 38.4001L920.446 37.4016L920.285 37.4103L920.136 37.4689L920.5 38.4001ZM894.7 48.5001L894.336 47.5689L894.174 47.6321L894.043 47.746L894.7 48.5001ZM885.4 56.6001L885.622 57.5752L885.867 57.5195L886.057 57.3542L885.4 56.6001ZM874.4 59.1001L874.178 58.125L874.056 58.1528L873.944 58.21L874.4 59.1001ZM849.6 71.8001L849.144 70.91L849.136 70.9142L849.128 70.9185L849.6 71.8001ZM836.9 78.6001L837.31 79.512L837.342 79.4979L837.372 79.4817L836.9 78.6001ZM834.9 79.5001L834.49 78.5882L834.418 78.6204L834.352 78.6635L834.9 79.5001ZM826.5 85.0001L825.952 84.1635L825.943 84.1695L825.934 84.1757L826.5 85.0001ZM819.8 89.6001L819.234 88.7757L819.212 88.791L819.19 88.8075L819.8 89.6001ZM813.3 94.6001L812.69 93.8075L812.69 93.8076L813.3 94.6001ZM792.9 110.3L792.29 109.508L792.261 109.53L792.233 109.555L792.9 110.3ZM757.9 141.6L758.513 142.39L758.541 142.369L758.567 142.346L757.9 141.6ZM750.3 147.5L749.687 146.71L749.554 146.813L749.462 146.955L750.3 147.5ZM746.2 153.8L746.814 154.589L746.947 154.486L747.038 154.346L746.2 153.8ZM735.4 162.2L734.786 161.411L734.694 161.482L734.621 161.573L735.4 162.2ZM689.7 218.9L688.921 218.273L688.87 218.337L688.829 218.408L689.7 218.9ZM668.3 256.8L667.429 256.308L667.385 256.387L667.355 256.472L668.3 256.8ZM664.9 266.6L663.955 266.272L663.932 266.338L663.919 266.406L664.9 266.6ZM658.9 297L659.368 297.884L659.789 297.661L659.881 297.194L658.9 297ZM657.2 297.9L656.732 297.016L656.486 297.147L656.343 297.386L657.2 297.9ZM656 299.9L655.143 299.386L654.984 299.65L655.002 299.957L656 299.9ZM656.2 303.4L655.202 303.457L655.221 303.787L655.432 304.04L656.2 303.4ZM657.2 304.6L656.432 305.24L656.768 305.644L657.291 305.596L657.2 304.6ZM660.5 304.3L661.071 303.479L660.772 303.271L660.41 303.304L660.5 304.3ZM662.8 305.9L663.795 305.803L663.751 305.343L663.371 305.079L662.8 305.9ZM663.5 313.1L662.505 313.197L662.521 313.363L662.59 313.516L663.5 313.1ZM667.2 321.2L666.29 321.616L666.386 321.824L666.562 321.97L667.2 321.2ZM674.8 327.5L674.162 328.27L674.276 328.365L674.413 328.422L674.8 327.5ZM681.7 330.4L682.561 329.892L682.393 329.607L682.088 329.478L681.7 330.4ZM684 334.3L683.139 334.808L683.41 335.268L683.943 335.298L684 334.3ZM696.3 335L696.243 335.998L696.329 336.003L696.414 335.994L696.3 335ZM713.8 333L714.749 333.316L715.245 331.828L713.687 332.007L713.8 333ZM713.5 333.9L712.551 333.584L712.24 334.518L713.17 334.844L713.5 333.9ZM715.5 334.6L715.17 335.544L715.33 335.6H715.5V334.6ZM717.9 334.6V335.6H718.012L718.12 335.576L717.9 334.6ZM721 333.9V332.9H720.889L720.78 332.925L721 333.9ZM722.7 333.9L723.082 332.976L722.899 332.9H722.7V333.9ZM725.6 335.1L725.218 336.024L725.558 336.165L725.907 336.052L725.6 335.1ZM738.6 330.9L738.46 329.91L738.375 329.922L738.293 329.949L738.6 330.9ZM754.2 328.7L754.34 329.69L754.459 329.673L754.571 329.629L754.2 328.7ZM782.7 317.3L783.071 318.229L783.139 318.201L783.203 318.165L782.7 317.3ZM814 299.1L813.518 298.224L813.507 298.23L813.497 298.236L814 299.1ZM830.7 289.9L831.183 290.776L831.225 290.753L831.265 290.725L830.7 289.9ZM832.6 288.6L832.106 287.731L832.07 287.751L832.035 287.775L832.6 288.6ZM837.7 285.7L838.194 286.569L838.275 286.524L838.345 286.464L837.7 285.7ZM862.8 264.5L863.445 265.264L863.448 265.262L862.8 264.5ZM864.8 262.8L864.232 261.977L864.191 262.005L864.152 262.038L864.8 262.8ZM867.7 260.8L867.179 259.947L867.155 259.961L867.132 259.977L867.7 260.8ZM871.3 258.6L871.821 259.453L871.828 259.449L871.835 259.445L871.3 258.6ZM887.9 248.1L888.435 248.945L888.556 248.868L888.652 248.76L887.9 248.1ZM899.4 235L898.746 234.243L898.694 234.288L898.649 234.34L899.4 235ZM927.3 210.9L927.954 211.657L927.997 211.619L928.036 211.577L927.3 210.9ZM933.1 204.6L932.371 203.915L932.364 203.923L933.1 204.6ZM936.2 201.3L936.929 201.985L936.979 201.931L937.021 201.871L936.2 201.3ZM944.4 189.5L944.192 188.522L943.805 188.604L943.579 188.929L944.4 189.5ZM952.4 187.8L953.259 188.312L954.432 186.346L952.192 186.822L952.4 187.8ZM936 215.3L936.768 215.94L936.819 215.88L936.859 215.812L936 215.3ZM933.5 218.3L934.192 219.022L934.232 218.983L934.268 218.94L933.5 218.3ZM928.7 222.9L928.008 222.178L927.847 222.333L927.767 222.541L928.7 222.9ZM928.2 224.2L928.852 224.958L929.043 224.794L929.133 224.559L928.2 224.2ZM917.5 233.4L916.848 232.642L916.746 232.729L916.671 232.841L917.5 233.4ZM914.6 237.7L915.24 238.468L915.35 238.377L915.429 238.259L914.6 237.7ZM912.2 239.7L911.56 238.932L911.478 239L911.412 239.084L912.2 239.7ZM907.9 245.2L908.562 245.949L908.631 245.888L908.688 245.816L907.9 245.2ZM886.4 264.2L885.738 263.451L885.736 263.453L886.4 264.2ZM878.3 271.4L878.747 272.295L878.866 272.235L878.964 272.147L878.3 271.4ZM869.9 275.6L869.453 274.706L869.25 274.807L869.11 274.987L869.9 275.6ZM863.3 284.1L863.875 284.918L863.998 284.832L864.09 284.713L863.3 284.1ZM841.1 299.7L840.525 298.882L840.488 298.908L840.454 298.937L841.1 299.7ZM835.2 304.7L835.722 305.553L835.788 305.513L835.847 305.463L835.2 304.7ZM831.6 306.9L831.079 306.047L831.072 306.051L831.064 306.056L831.6 306.9ZM827.5 309.5L827.962 310.387L828 310.367L828.036 310.345L827.5 309.5ZM806.4 320.5L805.938 319.613L805.858 319.655L805.788 319.709L806.4 320.5ZM796.2 328.4L796.649 329.294L796.736 329.25L796.812 329.191L796.2 328.4ZM759.2 347L759.516 347.949L759.585 347.926L759.649 347.894L759.2 347ZM709.4 363.6L709.084 362.651L708.997 362.68L708.917 362.725L709.4 363.6ZM706.5 365.2L706.875 366.127L706.931 366.105L706.983 366.076L706.5 365.2ZM702.3 366.9L702.543 367.87L702.61 367.853L702.675 367.827L702.3 366.9ZM728.5 157.1L729.195 157.819L729.482 157.542L729.499 157.144L728.5 157.1ZM728.7 152.5L729.699 152.544L729.753 151.296L728.524 151.516L728.7 152.5ZM719.2 154.2L719.024 153.216L718.827 153.251L718.659 153.359L719.2 154.2ZM704.9 163.4L704.359 162.559L704.264 162.621L704.184 162.702L704.9 163.4ZM697 171.5L696.284 170.802L696.277 170.809L696.271 170.816L697 171.5ZM695.5 173.1L696.226 173.788L696.23 173.784L695.5 173.1ZM691.8 177L691.92 177.993L692.278 177.95L692.526 177.688L691.8 177ZM688.5 177.4L688.38 176.407L688.045 176.448L687.803 176.683L688.5 177.4ZM657.6 207.4L656.903 206.683L656.795 206.788L656.722 206.921L657.6 207.4ZM652.3 217.1L652.865 217.925L653.063 217.79L653.178 217.58L652.3 217.1ZM645 222.1L644.435 221.275L644.264 221.392L644.153 221.568L645 222.1ZM625.1 253.8L624.253 253.268L624.215 253.329L624.186 253.395L625.1 253.8ZM619.3 266.9L618.386 266.495L618.302 266.683L618.3 266.889L619.3 266.9ZM619.1 284.6L619.928 285.161L620.097 284.912L620.1 284.611L619.1 284.6ZM615.1 290.5L614.272 289.939L614.094 290.202L614.1 290.52L615.1 290.5ZM615.2 295.5L614.2 295.52L614.225 296.735L615.412 296.477L615.2 295.5ZM621.2 294.2L621.786 293.389L621.424 293.128L620.988 293.223L621.2 294.2ZM623 295.5L622.415 296.311L622.895 296.658L623.43 296.403L623 295.5ZM629.3 292.5L629.73 293.403L629.952 293.297L630.1 293.1L629.3 292.5ZM630.2 291.3L631 291.9L631.016 291.879L631.031 291.856L630.2 291.3ZM638.7 278.6L639.531 279.156L640.41 277.843L638.847 277.611L638.7 278.6ZM636 278.2L635.177 277.632L634.264 278.954L635.854 279.189L636 278.2ZM638.9 274L639.723 274.568L639.737 274.547L639.751 274.526L638.9 274ZM644.4 265.1L645.251 265.626L645.308 265.532L645.345 265.429L644.4 265.1ZM646 260.5L645.132 260.004L645.086 260.084L645.056 260.172L646 260.5ZM651.6 250.7L650.732 250.204L650.732 250.204L651.6 250.7ZM654 246.5L654.868 246.996L654.877 246.982L654.885 246.967L654 246.5ZM656.9 241L656.098 240.402L656.052 240.465L656.016 240.534L656.9 241ZM686.5 201.3L685.793 200.593L685.742 200.644L685.698 200.702L686.5 201.3ZM691.3 196.5L692.007 197.207L692.033 197.182L692.056 197.154L691.3 196.5ZM694.5 192.8L693.945 191.968L693.832 192.043L693.744 192.146L694.5 192.8ZM695.1 192.4L695.655 193.232L695.756 193.165L695.838 193.075L695.1 192.4ZM702.5 184.3L703.238 184.975L703.243 184.969L703.248 184.963L702.5 184.3ZM710.3 175.5L711.048 176.163L711.059 176.151L711.07 176.138L710.3 175.5ZM716.6 167.9L716 167.1L715.906 167.171L715.83 167.262L716.6 167.9ZM719.8 165.5L720.4 166.3L720.45 166.263L720.495 166.219L719.8 165.5ZM668.747 367.312L662.947 368.212L663.253 370.188L669.053 369.288L668.747 367.312ZM663.392 368.244L642.793 361.944L642.208 363.856L662.808 370.156L663.392 368.244ZM642.662 361.913L623.162 358.713L622.838 360.687L642.338 363.887L642.662 361.913ZM623.933 359.341L623.433 358.041L621.567 358.759L622.067 360.059L623.933 359.341ZM623.207 357.693L617.707 352.193L616.293 353.607L621.793 359.107L623.207 357.693ZM616.915 351.904L612.215 352.304L612.385 354.296L617.085 353.896L616.915 351.904ZM613.03 352.616L601.03 339.816L599.571 341.184L611.571 353.984L613.03 352.616ZM601.144 339.964L597.144 333.664L595.456 334.736L599.456 341.036L601.144 339.964ZM596.543 333.23L594.943 332.83L594.458 334.77L596.057 335.17L596.543 333.23ZM595.625 333.419L592.125 324.919L590.275 325.681L593.775 334.181L595.625 333.419ZM591.861 324.55L587.661 320.85L586.339 322.35L590.539 326.05L591.861 324.55ZM587.894 321.153L586.795 318.953L585.006 319.847L586.106 322.047L587.894 321.153ZM586.079 318.416L583.879 318.016L583.521 319.984L585.721 320.384L586.079 318.416ZM584.699 319.035L584.799 316.135L582.801 316.066L582.701 318.966L584.699 319.035ZM584.775 315.878L584.275 313.678L582.325 314.122L582.825 316.322L584.775 315.878ZM584.287 314.064L589.487 282.764L587.514 282.436L582.314 313.736L584.287 314.064ZM589.348 283.13L597.848 269.53L596.152 268.47L587.652 282.07L589.348 283.13ZM597.999 269.051L598.399 261.151L596.401 261.05L596.001 268.95L597.999 269.051ZM598.107 261.807L601.107 258.807L599.693 257.393L596.693 260.393L598.107 261.807ZM601.261 258.61L614.761 235.81L613.04 234.791L599.54 257.591L601.261 258.61ZM614.597 236.017L631.997 219.117L630.603 217.683L613.203 234.583L614.597 236.017ZM632.3 218.4V217.1H630.3V218.4H632.3ZM632.049 217.763L634.349 215.163L632.851 213.838L630.551 216.438L632.049 217.763ZM634.396 215.106L637.896 210.506L636.304 209.295L632.804 213.895L634.396 215.106ZM637.803 210.611L646.303 202.211L644.897 200.789L636.397 209.189L637.803 210.611ZM646.297 202.217L649.897 198.717L648.503 197.283L644.903 200.783L646.297 202.217ZM649.879 198.734L655.279 193.734L653.921 192.266L648.521 197.266L649.879 198.734ZM655.356 193.654L658.556 189.954L657.044 188.646L653.844 192.346L655.356 193.654ZM658.401 190.099L668.501 182.499L667.299 180.901L657.199 188.501L658.401 190.099ZM668.665 182.345L680.465 168.345L678.935 167.056L667.135 181.056L668.665 182.345ZM680.462 168.348L682.162 166.348L680.638 165.052L678.938 167.052L680.462 168.348ZM682.121 166.393L687.121 161.193L685.679 159.807L680.679 165.007L682.121 166.393ZM687.017 161.287L699.917 151.187L698.684 149.613L685.784 159.713L687.017 161.287ZM699.801 151.266L705.501 147.966L704.499 146.235L698.799 149.535L699.801 151.266ZM705.538 147.943L710.238 144.943L709.162 143.257L704.462 146.257L705.538 147.943ZM710.4 144.814L720.3 135.114L718.9 133.686L709 143.386L710.4 144.814ZM720.19 135.208L759.49 106.508L758.31 104.893L719.01 133.593L720.19 135.208ZM759.628 106.385L761.228 104.685L759.772 103.315L758.172 105.015L759.628 106.385ZM761 104.866L766.2 101.866L765.2 100.134L760 103.134L761 104.866ZM766.306 101.796L797.306 78.1958L796.094 76.6044L765.094 100.204L766.306 101.796ZM797.223 78.2522L856.323 41.9522L855.277 40.248L796.177 76.548L797.223 78.2522ZM856.261 41.9876L897.661 20.4876L896.739 18.7126L855.339 40.2126L856.261 41.9876ZM897.559 20.5337L943.658 2.83365L942.942 0.966544L896.842 18.6665L897.559 20.5337ZM943.378 2.89705L959.978 1.59705L959.822 -0.39685L943.222 0.90315L943.378 2.89705ZM958.907 0.481885L958.407 4.68189L960.393 4.91831L960.893 0.718311L958.907 0.481885ZM958.519 4.32728L951.919 16.6273L953.681 17.5729L960.281 5.27292L958.519 4.32728ZM952.009 16.4878L936.209 36.8878L937.791 38.1124L953.591 17.7124L952.009 16.4878ZM936.946 36.5016L920.446 37.4016L920.555 39.3986L937.055 38.4986L936.946 36.5016ZM920.136 37.4689L894.336 47.5689L895.065 49.4313L920.865 39.3313L920.136 37.4689ZM894.043 47.746L884.743 55.846L886.057 57.3542L895.357 49.2542L894.043 47.746ZM885.178 55.625L874.178 58.125L874.622 60.0752L885.622 57.5752L885.178 55.625ZM873.944 58.21L849.144 70.91L850.056 72.6902L874.856 59.9902L873.944 58.21ZM849.128 70.9185L836.428 77.7185L837.372 79.4817L850.072 72.6817L849.128 70.9185ZM836.49 77.6882L834.49 78.5882L835.31 80.412L837.31 79.512L836.49 77.6882ZM834.352 78.6635L825.952 84.1635L827.048 85.8367L835.448 80.3367L834.352 78.6635ZM825.934 84.1757L819.234 88.7757L820.366 90.4245L827.066 85.8245L825.934 84.1757ZM819.19 88.8075L812.69 93.8075L813.91 95.3927L820.41 90.3927L819.19 88.8075ZM812.69 93.8076L792.29 109.508L793.51 111.093L813.91 95.3926L812.69 93.8076ZM792.233 109.555L757.233 140.855L758.567 142.346L793.567 111.046L792.233 109.555ZM757.287 140.81L749.687 146.71L750.913 148.29L758.513 142.39L757.287 140.81ZM749.462 146.955L745.362 153.255L747.038 154.346L751.138 148.046L749.462 146.955ZM745.586 153.011L734.786 161.411L736.014 162.989L746.814 154.589L745.586 153.011ZM734.621 161.573L688.921 218.273L690.479 219.528L736.179 162.828L734.621 161.573ZM688.829 218.408L667.429 256.308L669.171 257.292L690.571 219.392L688.829 218.408ZM667.355 256.472L663.955 266.272L665.845 266.928L669.245 257.128L667.355 256.472ZM663.919 266.406L657.919 296.806L659.881 297.194L665.881 266.794L663.919 266.406ZM658.432 296.116L656.732 297.016L657.668 298.784L659.368 297.884L658.432 296.116ZM656.343 297.386L655.143 299.386L656.858 300.415L658.058 298.415L656.343 297.386ZM655.002 299.957L655.202 303.457L657.198 303.343L656.998 299.843L655.002 299.957ZM655.432 304.04L656.432 305.24L657.968 303.96L656.968 302.76L655.432 304.04ZM657.291 305.596L660.591 305.296L660.41 303.304L657.11 303.604L657.291 305.596ZM659.929 305.121L662.229 306.721L663.371 305.079L661.071 303.479L659.929 305.121ZM661.805 305.997L662.505 313.197L664.495 313.003L663.795 305.803L661.805 305.997ZM662.59 313.516L666.29 321.616L668.11 320.785L664.41 312.685L662.59 313.516ZM666.562 321.97L674.162 328.27L675.438 326.73L667.838 320.43L666.562 321.97ZM674.413 328.422L681.313 331.322L682.088 329.478L675.188 326.578L674.413 328.422ZM680.839 330.908L683.139 334.808L684.861 333.792L682.561 329.892L680.839 330.908ZM683.943 335.298L696.243 335.998L696.357 334.002L684.057 333.302L683.943 335.298ZM696.414 335.994L713.914 333.994L713.687 332.007L696.187 334.007L696.414 335.994ZM712.851 332.684L712.551 333.584L714.449 334.216L714.749 333.316L712.851 332.684ZM713.17 334.844L715.17 335.544L715.83 333.656L713.83 332.956L713.17 334.844ZM715.5 335.6H717.9V333.6H715.5V335.6ZM718.12 335.576L721.22 334.876L720.78 332.925L717.68 333.625L718.12 335.576ZM721 334.9H722.7V332.9H721V334.9ZM722.318 334.824L725.218 336.024L725.982 334.176L723.082 332.976L722.318 334.824ZM725.907 336.052L738.907 331.852L738.293 329.949L725.293 334.149L725.907 336.052ZM738.74 331.89L754.34 329.69L754.06 327.71L738.46 329.91L738.74 331.89ZM754.571 329.629L783.071 318.229L782.329 316.372L753.829 327.772L754.571 329.629ZM783.203 318.165L814.503 299.965L813.497 298.236L782.197 316.436L783.203 318.165ZM814.483 299.976L831.183 290.776L830.218 289.024L813.518 298.224L814.483 299.976ZM831.265 290.725L833.165 289.425L832.035 287.775L830.135 289.075L831.265 290.725ZM833.094 289.469L838.194 286.569L837.206 284.831L832.106 287.731L833.094 289.469ZM838.345 286.464L863.445 265.264L862.155 263.736L837.055 284.936L838.345 286.464ZM863.448 265.262L865.448 263.562L864.152 262.038L862.152 263.738L863.448 265.262ZM865.368 263.623L868.268 261.623L867.132 259.977L864.232 261.977L865.368 263.623ZM868.222 261.653L871.821 259.453L870.779 257.747L867.179 259.947L868.222 261.653ZM871.835 259.445L888.435 248.945L887.366 247.255L870.765 257.755L871.835 259.445ZM888.652 248.76L900.152 235.66L898.649 234.34L887.149 247.44L888.652 248.76ZM900.054 235.757L927.954 211.657L926.646 210.143L898.746 234.243L900.054 235.757ZM928.036 211.577L933.836 205.277L932.364 203.923L926.564 210.223L928.036 211.577ZM933.829 205.285L936.929 201.985L935.471 200.615L932.371 203.915L933.829 205.285ZM937.021 201.871L945.221 190.071L943.579 188.929L935.379 200.729L937.021 201.871ZM944.608 190.478L952.608 188.778L952.192 186.822L944.192 188.522L944.608 190.478ZM951.541 187.288L935.141 214.788L936.859 215.812L953.259 188.312L951.541 187.288ZM935.232 214.66L932.732 217.66L934.268 218.94L936.768 215.94L935.232 214.66ZM932.808 217.578L928.008 222.178L929.392 223.622L934.192 219.022L932.808 217.578ZM927.767 222.541L927.267 223.841L929.133 224.559L929.633 223.259L927.767 222.541ZM927.548 223.442L916.848 232.642L918.152 234.158L928.852 224.958L927.548 223.442ZM916.671 232.841L913.771 237.141L915.429 238.259L918.329 233.959L916.671 232.841ZM913.96 236.932L911.56 238.932L912.84 240.468L915.24 238.468L913.96 236.932ZM911.412 239.084L907.112 244.584L908.688 245.816L912.988 240.316L911.412 239.084ZM907.238 244.451L885.738 263.451L887.062 264.949L908.562 245.949L907.238 244.451ZM885.736 263.453L877.636 270.653L878.964 272.147L887.064 264.948L885.736 263.453ZM877.853 270.506L869.453 274.706L870.347 276.495L878.747 272.295L877.853 270.506ZM869.11 274.987L862.51 283.487L864.09 284.713L870.69 276.213L869.11 274.987ZM862.725 283.282L840.525 298.882L841.675 300.518L863.875 284.918L862.725 283.282ZM840.454 298.937L834.554 303.937L835.847 305.463L841.747 300.463L840.454 298.937ZM834.679 303.847L831.079 306.047L832.121 307.753L835.722 305.553L834.679 303.847ZM831.064 306.056L826.965 308.656L828.036 310.345L832.136 307.745L831.064 306.056ZM827.038 308.613L805.938 319.613L806.862 321.387L827.962 310.387L827.038 308.613ZM805.788 319.709L795.588 327.609L796.812 329.191L807.012 321.291L805.788 319.709ZM795.751 327.507L758.751 346.107L759.649 347.894L796.649 329.294L795.751 327.507ZM758.884 346.051L709.084 362.651L709.716 364.549L759.516 347.949L758.884 346.051ZM708.917 362.725L706.017 364.325L706.983 366.076L709.883 364.476L708.917 362.725ZM706.125 364.273L701.925 365.973L702.675 367.827L706.875 366.127L706.125 364.273ZM702.058 365.93L700.458 366.33L700.943 368.27L702.543 367.87L702.058 365.93ZM729.499 157.144L729.699 152.544L727.701 152.457L727.501 157.057L729.499 157.144ZM728.524 151.516L719.024 153.216L719.376 155.184L728.876 153.484L728.524 151.516ZM718.659 153.359L704.359 162.559L705.441 164.241L719.741 155.041L718.659 153.359ZM704.184 162.702L696.284 170.802L697.716 172.198L705.616 164.098L704.184 162.702ZM696.271 170.816L694.771 172.416L696.23 173.784L697.73 172.184L696.271 170.816ZM694.775 172.412L691.075 176.312L692.526 177.688L696.226 173.788L694.775 172.412ZM691.68 176.007L688.38 176.407L688.62 178.393L691.92 177.993L691.68 176.007ZM687.803 176.683L656.903 206.683L658.297 208.118L689.197 178.118L687.803 176.683ZM656.722 206.921L651.422 216.621L653.178 217.58L658.478 207.88L656.722 206.921ZM651.735 216.275L644.435 221.275L645.565 222.925L652.865 217.925L651.735 216.275ZM644.153 221.568L624.253 253.268L625.947 254.332L645.847 222.632L644.153 221.568ZM624.186 253.395L618.386 266.495L620.214 267.305L626.014 254.205L624.186 253.395ZM618.3 266.889L618.1 284.589L620.1 284.611L620.3 266.911L618.3 266.889ZM618.272 284.039L614.272 289.939L615.928 291.061L619.928 285.161L618.272 284.039ZM614.1 290.52L614.2 295.52L616.2 295.48L616.1 290.48L614.1 290.52ZM615.412 296.477L621.412 295.177L620.988 293.223L614.988 294.523L615.412 296.477ZM620.615 295.011L622.415 296.311L623.586 294.689L621.786 293.389L620.615 295.011ZM623.43 296.403L629.73 293.403L628.87 291.597L622.57 294.597L623.43 296.403ZM630.1 293.1L631 291.9L629.4 290.7L628.5 291.9L630.1 293.1ZM631.031 291.856L639.531 279.156L637.869 278.044L629.369 290.744L631.031 291.856ZM638.847 277.611L636.147 277.211L635.854 279.189L638.554 279.589L638.847 277.611ZM636.823 278.768L639.723 274.568L638.077 273.432L635.177 277.632L636.823 278.768ZM639.751 274.526L645.251 265.626L643.549 264.574L638.049 273.474L639.751 274.526ZM645.345 265.429L646.945 260.829L645.056 260.172L643.456 264.772L645.345 265.429ZM646.868 260.996L652.468 251.196L650.732 250.204L645.132 260.004L646.868 260.996ZM652.468 251.196L654.868 246.996L653.132 246.004L650.732 250.204L652.468 251.196ZM654.885 246.967L657.785 241.467L656.016 240.534L653.115 246.034L654.885 246.967ZM657.702 241.598L687.302 201.898L685.698 200.702L656.098 240.402L657.702 241.598ZM687.207 202.007L692.007 197.207L690.593 195.793L685.793 200.593L687.207 202.007ZM692.056 197.154L695.256 193.454L693.744 192.146L690.544 195.846L692.056 197.154ZM695.055 193.632L695.655 193.232L694.545 191.568L693.945 191.968L695.055 193.632ZM695.838 193.075L703.238 184.975L701.762 183.626L694.362 191.726L695.838 193.075ZM703.248 184.963L711.048 176.163L709.552 174.837L701.752 183.637L703.248 184.963ZM711.07 176.138L717.37 168.538L715.83 167.262L709.53 174.862L711.07 176.138ZM717.2 168.7L720.4 166.3L719.2 164.7L716 167.1L717.2 168.7ZM720.495 166.219L729.195 157.819L727.805 156.381L719.105 164.781L720.495 166.219Z" fill="black" mask="url(#path-6-inside-6_16_74)"/>
<path fill-rule="evenodd" clip-rule="evenodd" d="M361 374.9C361 376 361.3 381.6 362.6 382.5C365.7 384.7 396.5 367.2 386.5 392.6C386.3 393.1 391.6 393.8 392 394.1C391.1 394.1 385.8 393.7 385.3 393.8C379.9 395.2 389.8 402.5 394.6 402.5C380.4 402.5 401.5 413.9 395.3 419.3C394.9 419.6 397.4 423.2 396.7 423.4C396.1 423.6 392.7 420.7 392.3 421.1C389.5 423.7 390.2 429.7 390.2 434C390.2 437.4 387.4 439.8 383.4 441.5C382.8 441.7 383.8 446.1 383.2 446.3C382.6 446.5 381.6 442.4 379.8 442.8C370.1 444.6 357.8 446.2 355.6 447.7C340.5 458.2 352.7 435.8 339.4 435.8C340.3 435.8 341.4 432.3 341.4 433.1C333.3 435 315.1 424.8 322.8 419.4C329.5 419.4 332.2 408.7 330.3 402.8C330.2 402.4 326.4 400.6 326.2 400.2C326.8 400.2 330.9 401.6 331.4 401.6C338.2 401.4 334.3 399.6 334.3 394.3C334.3 388.6 337.2 393.8 340.5 391.1L349.7 383.6L346.9 379.4C346.8 379.2 351 382.5 351.8 382C353.6 380.9 356.5 379.4 358.5 378.7C359.9 378.5 361 374.2 361 374.9Z" fill="black" stroke="black" stroke-miterlimit="10"/>
<path d="M361 374.9C361 376 361.3 381.6 362.6 382.5C365.7 384.7 396.5 367.2 386.5 392.6C386.3 393.1 391.6 393.8 392 394.1C391.1 394.1 385.8 393.7 385.3 393.8C379.9 395.2 389.8 402.5 394.6 402.5C380.4 402.5 401.5 413.9 395.3 419.3C394.9 419.6 397.4 423.2 396.7 423.4C396.1 423.6 392.7 420.7 392.3 421.1C389.5 423.7 390.2 429.7 390.2 434C390.2 437.4 387.4 439.8 383.4 441.5C382.8 441.7 383.8 446.1 383.2 446.3C382.6 446.5 381.6 442.4 379.8 442.8C370.1 444.6 357.8 446.2 355.6 447.7C340.5 458.2 352.7 435.8 339.4 435.8C340.3 435.8 341.4 432.3 341.4 433.1C333.3 435 315.1 424.8 322.8 419.4C329.5 419.4 332.2 408.7 330.3 402.8C330.2 402.4 326.4 400.6 326.2 400.2C326.8 400.2 330.9 401.6 331.4 401.6C338.2 401.4 334.3 399.6 334.3 394.3C334.3 388.6 337.2 393.8 340.5 391.1L349.7 383.6L346.9 379.4C346.8 379.2 351 382.5 351.8 382C353.6 380.9 356.5 379.4 358.5 378.7C359.9 378.5 361 374.2 361 374.9Z" fill="black" stroke="black" stroke-width="0.216" stroke-miterlimit="22.9256"/>
<path fill-rule="evenodd" clip-rule="evenodd" d="M533.2 546.7L531.8 547.8L497.4 557.5L475.7 556.4L455.9 558L455.1 556.9L448.1 553L443.7 554.5L428.4 545.1L422.7 539.9H421.1L415.2 532.6L410 530L408.3 528.2L390.6 516.6L405.2 525.5L395.1 515.4L399.9 492.1L428.3 493.4L429.9 498.2L435.3 495.5L437.4 496.3L442.5 491.9L443.1 490.6L449.1 491.1L447.7 492.4L447.1 494.6L448.3 497.9L449.7 498.7L452.7 497.7L455.4 498.6L472.7 511.5L486.6 514.7L496.5 514.4L504 515.5L507.3 518.7L519.4 516.4L535.6 510.2V511.1L537.7 511.4L540 510.8L542.8 509.3L544.4 508.9L547.6 509.3L558.9 502.1L573.4 496.3L597.5 478.4L622.4 453.3L635.8 440.3L637.2 438.6L641.3 434.6L659.3 408.1L660.8 405.9L663 403.3L665.9 400.3L678.8 386.1L686.1 370.7L705.9 340.7L709.7 333.2L711.7 329.3L716.2 315.9L723.4 312.2L715.5 343.1L714 346.6L710.7 352.2V353.6L703.1 365.1L701.6 369.9L699.8 372.5L697.3 378.8L682.1 402.4L676.4 411.3L669.5 417.3L665.7 427.1L648.8 447.5L644.6 453.8L641.8 456.8L638.6 460.3L621.5 475.9L614 486L583.7 513L540.6 541L538.2 543.2L534.6 545.9L533.2 546.7Z" fill="black" stroke="black" stroke-miterlimit="10"/>
<path d="M533.2 546.7L531.8 547.8L497.4 557.5L475.7 556.4L455.9 558L455.1 556.9L448.1 553L443.7 554.5L428.4 545.1L422.7 539.9H421.1L415.2 532.6L410 530L408.3 528.2L390.6 516.6L405.2 525.5L395.1 515.4L399.9 492.1L428.3 493.4L429.9 498.2L435.3 495.5L437.4 496.3L442.5 491.9L443.1 490.6L449.1 491.1L447.7 492.4L447.1 494.6L448.3 497.9L449.7 498.7L452.7 497.7L455.4 498.6L472.7 511.5L486.6 514.7L496.5 514.4L504 515.5L507.3 518.7L519.4 516.4L535.6 510.2V511.1L537.7 511.4L540 510.8L542.8 509.3L544.4 508.9L547.6 509.3L558.9 502.1L573.4 496.3L597.5 478.4L622.4 453.3L635.8 440.3L637.2 438.6L641.3 434.6L659.3 408.1L660.8 405.9L663 403.3L665.9 400.3L678.8 386.1L686.1 370.7L705.9 340.7L709.7 333.2L711.7 329.3L716.2 315.9L723.4 312.2L715.5 343.1L714 346.6L710.7 352.2V353.6L703.1 365.1L701.6 369.9L699.8 372.5L697.3 378.8L682.1 402.4L676.4 411.3L669.5 417.3L665.7 427.1L648.8 447.5L644.6 453.8L641.8 456.8L638.6 460.3L621.5 475.9L614 486L583.7 513L540.6 541L538.2 543.2L534.6 545.9L533.2 546.7Z" fill="black" stroke="black" stroke-width="0.216" stroke-miterlimit="22.9256"/>
<path fill-rule="evenodd" clip-rule="evenodd" d="M419.4 480.2L422.3 477.1C419.9 479.3 416.4 482.9 413.5 484.2C413.5 485.1 414 487.3 415.5 487.3C417 490 425.3 490.9 428.7 490.9L429.2 490.5C428.7 490.9 429.2 490.5 429.2 489.6C430.7 488.3 435.1 485.2 435.1 483.8L434.6 483.4C434.1 483.4 431.7 482.1 431.7 481.6L431.2 481.2C430.2 481.2 429.7 480.3 428.8 480.3C428.8 478.5 425.9 477.2 425.9 475.9C425.4 475.9 424.9 475.9 424.9 475.5L424.4 475.9L423.9 476.3C424.4 475.9 423.9 476.3 422.9 476.3C424.4 475.9 423.9 476.3 422.9 477.2C424.4 475.9 423.9 476.3 421.9 477.2C421.9 477.6 421.4 477.6 420.9 477.6C420.9 478.4 419.9 479.3 419.4 480.2Z" fill="black" stroke="black" stroke-miterlimit="10"/>
<path d="M419.4 480.2L422.3 477.1C419.9 479.3 416.4 482.9 413.5 484.2C413.5 485.1 414 487.3 415.5 487.3C417 490 425.3 490.9 428.7 490.9L429.2 490.5C428.7 490.9 429.2 490.5 429.2 489.6C430.7 488.3 435.1 485.2 435.1 483.8L434.6 483.4C434.1 483.4 431.7 482.1 431.7 481.6L431.2 481.2C430.2 481.2 429.7 480.3 428.8 480.3C428.8 478.5 425.9 477.2 425.9 475.9C425.4 475.9 424.9 475.9 424.9 475.5L424.4 475.9L423.9 476.3C424.4 475.9 423.9 476.3 422.9 476.3C424.4 475.9 423.9 476.3 422.9 477.2C424.4 475.9 423.9 476.3 421.9 477.2C421.9 477.6 421.4 477.6 420.9 477.6C420.9 478.4 419.9 479.3 419.4 480.2Z" fill="black" stroke="black" stroke-width="0.216" stroke-miterlimit="22.9256"/>
<path fill-rule="evenodd" clip-rule="evenodd" d="M404.3 478.9C403.3 480.7 396.5 487.8 396.5 489.1C393.1 489.1 388.7 484.7 384.8 484.7V480.7C389.2 480.7 397 478 403.3 478L404.3 478.9Z" fill="black" stroke="black" stroke-miterlimit="10"/>
<path d="M404.3 478.9C403.3 480.7 396.5 487.8 396.5 489.1C393.1 489.1 388.7 484.7 384.8 484.7V480.7C389.2 480.7 397 478 403.3 478L404.3 478.9Z" fill="black" stroke="black" stroke-width="0.216" stroke-miterlimit="22.9256"/>
<path fill-rule="evenodd" clip-rule="evenodd" d="M389.2 496.2C388.7 500.2 386.3 505.1 386.3 508.6C381.9 508.6 373.1 504.6 372.2 501.1C382 508.6 373.2 504.7 371.2 501.1C371.2 500.7 370.2 498.4 369.7 498.4V497.1C369.2 497.1 369.2 496.7 369.2 496.2C369.7 496.2 371.2 494.4 371.2 494L371.7 493.6C372.2 493.6 373.2 493.2 373.2 492.7C377.1 492.7 382 494 385.4 494C385.4 494.4 385.9 494.4 386.4 494.4C386.4 494.8 386.9 494.8 387.4 494.8C387.4 495.7 387.9 496.1 387.9 497C388.9 497 387.9 497.4 388.9 497.4C388.7 497.1 387.7 497.5 389.2 496.2Z" fill="black" stroke="black" stroke-miterlimit="10"/>
<path d="M389.2 496.2C388.7 500.2 386.3 505.1 386.3 508.6C381.9 508.6 373.1 504.6 372.2 501.1C382 508.6 373.2 504.7 371.2 501.1C371.2 500.7 370.2 498.4 369.7 498.4V497.1C369.2 497.1 369.2 496.7 369.2 496.2C369.7 496.2 371.2 494.4 371.2 494L371.7 493.6C372.2 493.6 373.2 493.2 373.2 492.7C377.1 492.7 382 494 385.4 494C385.4 494.4 385.9 494.4 386.4 494.4C386.4 494.8 386.9 494.8 387.4 494.8C387.4 495.7 387.9 496.1 387.9 497C388.9 497 387.9 497.4 388.9 497.4C388.7 497.1 387.7 497.5 389.2 496.2Z" fill="black" stroke="black" stroke-width="0.216" stroke-miterlimit="22.9256"/>
<path fill-rule="evenodd" clip-rule="evenodd" d="M378 482.4C377 483.3 375.6 484.6 374.6 485.1H369.2C369.2 484.7 368.2 482.9 367.7 482.4V481.1L368.2 480.2L368.7 479.8C369.7 479.8 372.1 479.8 373.1 479.8L373.6 480.2L374.1 481.1C375.1 481.1 376.5 482.4 377 482.4C375 481.1 376.5 482.4 377 483.3L378 482.4Z" fill="black" stroke="black" stroke-miterlimit="10"/>
<path d="M378 482.4C377 483.3 375.6 484.6 374.6 485.1H369.2C369.2 484.7 368.2 482.9 367.7 482.4V481.1L368.2 480.2L368.7 479.8C369.7 479.8 372.1 479.8 373.1 479.8L373.6 480.2L374.1 481.1C375.1 481.1 376.5 482.4 377 482.4C375 481.1 376.5 482.4 377 483.3L378 482.4Z" fill="black" stroke="black" stroke-width="0.216" stroke-miterlimit="22.9256"/>
<path fill-rule="evenodd" clip-rule="evenodd" d="M354.1 458.5C355.6 460.3 359 462.1 360 463.8C362.9 464.2 366.8 467.8 369.3 468.7C369.3 469.1 369.8 469.6 369.8 470C370.8 470 369.8 470.4 370.8 470.4L370.3 470.8C370.3 471.7 369.8 470.8 369.8 471.7C369.3 471.7 368.8 471.7 368.8 471.3H367.3C366.8 470 361.4 466.4 359 466.4L358.5 466C358 464.7 355.1 463.8 354.1 462.4C352.6 462.4 353.6 462 352.6 462L352.1 461.6C352.1 461.2 351.6 460.3 351.1 460.3V458H352.6C351.1 458 352.6 458 352.6 457.1L353.1 457.5C353.6 457.5 354.1 457.9 354.6 457.9C354.5 458.9 355 458 354.1 458.5Z" fill="black" stroke="black" stroke-miterlimit="10"/>
<path d="M354.1 458.5C355.6 460.3 359 462.1 360 463.8C362.9 464.2 366.8 467.8 369.3 468.7C369.3 469.1 369.8 469.6 369.8 470C370.8 470 369.8 470.4 370.8 470.4L370.3 470.8C370.3 471.7 369.8 470.8 369.8 471.7C369.3 471.7 368.8 471.7 368.8 471.3H367.3C366.8 470 361.4 466.4 359 466.4L358.5 466C358 464.7 355.1 463.8 354.1 462.4C352.6 462.4 353.6 462 352.6 462L352.1 461.6C352.1 461.2 351.6 460.3 351.1 460.3V458H352.6C351.1 458 352.6 458 352.6 457.1L353.1 457.5C353.6 457.5 354.1 457.9 354.6 457.9C354.5 458.9 355 458 354.1 458.5Z" fill="black" stroke="black" stroke-width="0.216" stroke-miterlimit="22.9256"/>
</svg>
