<svg width="221" height="129" viewBox="0 0 221 129" fill="none" xmlns="http://www.w3.org/2000/svg">
<path fill-rule="evenodd" clip-rule="evenodd" d="M83.2529 86.5065C83.2529 86.7578 83.3168 88.0576 83.6115 88.2609C84.3288 88.7544 91.3944 84.7361 89.1123 90.5933C89.0712 90.6984 90.2933 90.8743 90.371 90.9451C90.1608 90.9451 88.9547 90.8537 88.8244 90.8857C87.5726 91.2009 89.8547 92.8776 90.9649 92.8776C87.7074 92.8776 92.5525 95.5001 91.1202 96.7428C91.0289 96.8228 91.5931 97.636 91.4401 97.6931C91.3144 97.7411 90.5263 97.0786 90.4349 97.1631C89.793 97.7525 89.9461 99.146 89.9461 100.121C89.9461 100.903 89.2996 101.451 88.3744 101.848C88.2419 101.905 88.4635 102.906 88.3219 102.959C88.1871 103.007 87.9655 102.07 87.5429 102.15C85.3179 102.57 82.4899 102.936 81.9919 103.281C78.5219 105.691 81.3363 100.553 78.2752 100.553C78.4785 100.553 78.7275 99.7513 78.7275 99.9364C76.8657 100.373 72.6762 98.0289 74.4443 96.7794C75.9748 96.7794 76.6076 94.3305 76.1759 92.953C76.1484 92.8617 75.2758 92.4459 75.237 92.3659C75.3649 92.3659 76.3198 92.6926 76.4226 92.6903C77.9919 92.6446 77.0942 92.2426 77.0942 91.0227C77.0942 89.7229 77.7635 90.8994 78.5219 90.2803L80.6418 88.551L80.0067 87.5847C79.9748 87.5368 80.9479 88.2906 81.1375 88.1787C81.5533 87.9297 82.2226 87.5733 82.6886 87.4248C82.997 87.3266 83.2551 86.3352 83.2551 86.5088L83.2529 86.5065Z" fill="black"/>
<path fill-rule="evenodd" clip-rule="evenodd" d="M18.637 48.458L19.2743 47.5511L17.8169 48.1884L15.1808 49.8743L14.6942 50.667L14.6896 50.9228L15.1533 50.9982L16.5422 49.952L16.6405 49.9131L17.2024 49.4654L18.6347 48.4557L18.637 48.458ZM32.1194 59.688H32.7362L32.0988 60.4281L31.7813 60.773L31.2696 61.399L29.6728 62.5617L29.5769 62.7148L28.654 63.3909L23.1486 66.7901L22.388 67.199L21.9996 67.5051L20.9762 68.0671L20.6907 68.2841L20.3731 68.5148L20.179 68.5925L19.8706 68.6701L18.187 69.7187L13.4172 71.8523L12.0397 72.2612L11.3818 72.3754L11.046 72.4896L9.61144 72.8597L9.1934 72.9739L8.01009 73.3051L5.44702 73.5724L3.42992 73.5975L1.99762 73.0744L1.45394 72.1789L1.0062 71.8089L0.286621 70.0842L0.663542 67.3498L1.80345 65.4834L2.03645 64.6907L4.72059 60.7685L9.49494 55.5555L9.15 54.29L9.70282 52.8211L11.0529 51.4414L12.6976 50.0228L14.6416 48.5539L18.0933 46.4591L19.8774 45.566L20.3594 45.2713L20.7363 45.1182L23.3634 43.6996L23.8477 43.3935L24.4827 43.0988L27.5392 41.8584L31.5346 40.6568L33.1953 40.4787L34.3969 40.6957L34.751 40.8876L35.6533 41.6026L35.201 43.4666L34.4472 44.707L31.6557 47.8892L30.8082 48.6681L30.3216 48.9742L29.6751 49.422L26.0133 52.0422L24.7363 52.5264L21.7894 54.1369L16.3001 56.0786L14.2167 56.5013L13.9129 56.5652L13.6891 56.6041L13.2961 56.5652L12.3367 56.5013L11.9141 56.387L12.0534 55.7862L13.5109 55.1101L14.8175 54.2146L15.8501 53.9473L16.6793 53.4608L20.5924 52.86L21.8169 52.5287L26.0635 50.7264L27.8476 49.3466L29.3439 47.5442L29.851 46.5734L30.3673 44.8487L29.3599 43.9555L27.6466 43.9166L26.8219 44.1474L25.5198 44.8235L25.0789 45.0406L24.4736 45.4494L24.0555 45.6025L22.5273 46.6876L20.9853 47.8115L20.38 48.2592L19.5416 48.8989L18.2053 49.792L16.3823 51.3637L15.9803 51.6698L15.6924 51.8114L14.8952 52.4511L13.5497 53.575L12.99 54.2511L11.6422 55.1832L8.27965 59.0415L6.21686 62.1459L5.95416 62.8998L5.48814 63.7564L4.31398 66.6439L4.47616 67.8318L4.88964 68.7775L5.50185 69.5176L6.19173 70.1184L6.40418 70.2326L6.79024 70.4108L7.66287 70.6027L11.174 70.6804L14.6439 69.8237L18.5845 68.1744L20.2818 67.0893L20.629 66.8975L20.9899 66.7056L25.5518 64.2019H25.8465L25.8716 64.01L26.1983 63.6788L28.2931 62.3767L32.108 59.6811L32.1194 59.688Z" fill="black"/>
<path fill-rule="evenodd" clip-rule="evenodd" d="M37.7458 82.8995L38.2986 83.6533L38.1547 84.0622L35.5642 83.2467L35.1919 82.8995L34.3855 82.7601L34.1251 82.4152L34.036 82.3124L33.7938 81.5974L33.5791 81.4055L33.4306 81.2273L33.3187 80.7408L32.7682 80.0646L32.8321 79.7585L30.9132 78.4153L30.6757 77.931L30.6483 76.4735L31.3084 75.3885L31.1508 75.272L31.4181 74.8265L31.361 74.7488L32.1285 69.1042L32.871 67.9026L33.6568 65.8855L33.6956 65.6547L33.9949 65.3989L34.9497 63.4572L35.9526 60.4555H35.8406L36.3775 58.5503L37.5356 56.1495L37.4785 55.6241L39.8383 48.5973L39.9182 47.7681L40.8114 46.0434L42.5293 41.6734L42.5544 41.4815L42.9702 40.7665L44.8959 35.2337L45.4213 34.3268L45.6201 32.9082L46.6457 29.8426L46.6275 29.573L46.5726 29.2418L46.5544 28.9334H46.3853L52.3384 13.5961L52.4686 13.2261L53.0054 12.4082L52.8204 11.2843L53.1722 10.2746L53.1265 10.1581L53.2659 9.52079L53.6291 8.35805L53.7661 7.71842L53.8712 7.54024L54.2436 7.1953L54.4606 7.01483L55.9477 5.96859L56.7998 5.85438L57.3869 5.69904L57.428 5.58482L57.6519 5.54598L57.9831 5.52085L58.1613 5.85438L58.079 5.96859L58.063 6.82523L57.7387 8.24155L57.8003 9.59618L57.1744 11.3986L56.7815 13.009L57.3001 13.9799L58.1658 14.2357L58.2344 14.72L52.7153 28.9722L52.2036 29.356L52.1762 29.918L52.1556 30.0984L52.0483 30.288L51.9523 30.4411L51.7216 30.6216L49.6908 34.9276L49.1311 36.5358L48.4116 37.4313L47.5229 39.9875L47.4179 40.1657L47.1392 40.7276L46.68 42.0434L46.7325 42.2605L46.5932 42.4135L45.499 45.4426L45.3619 45.5956L45.0672 46.1964L45.3071 46.2353L44.8594 47.398L44.455 47.96L42.8674 51.9576L42.0427 54.7697L41.4945 55.7794L41.0102 57.6183L40.7018 58.1803L40.6401 58.9204L40.3431 59.3293L38.4837 65.3601L37.8463 68.8483L36.9189 70.8289L36.928 74.4816L36.43 75.3108L36.679 76.1674L36.4985 76.7682L36.4597 76.9967L36.3455 77.931L36.5968 79.9115L37.1587 80.4347L37.4032 81.7505L37.5174 82.3512L37.7458 82.8995Z" fill="black"/>
<path fill-rule="evenodd" clip-rule="evenodd" d="M76.7744 54.0524L77.398 55.005L75.406 55.2677L71.8287 55.1443L70.5814 54.8908L70.4398 54.5664L69.7453 54.6166L69.9075 54.8885L69.6311 55.0598L69.4644 54.9593L68.2125 57.6137L68.0915 58.3173L65.3525 65.2436L65.389 65.5063L65.4964 65.5679L63.9704 69.4719L63.8128 69.6684L63.5844 69.9448L63.4884 70.0956L63.557 70.5022L63.4473 71.1715L61.5878 75.7631L61.6724 76.1355L61.5444 76.3685L61.2726 76.7659L60.1578 78.7168L60.1761 79.5894L59.6804 80.9783L59.7809 81.1771L59.6781 81.586L59.6461 81.7939L59.4999 82.4426L59.3537 82.7282L59.2281 82.719L59.3057 82.9863L59.1436 83.3221L57.5034 83.4021L55.637 84.2838L55.0865 84.5374L54.689 84.558L54.3852 84.4803L54.3349 84.0257L54.6548 83.1256L54.9106 82.5363L55.3561 82.0154L55.9066 80.4735L56.1259 79.9846L56.416 79.2948L56.7678 78.1891L56.9734 77.8579L57.1059 77.6066L57.1607 77.2091L57.1767 76.4461L57.8415 74.7032L58.2047 74.1755L58.3143 73.8694L58.4103 73.4764L58.376 73.2137L58.7232 70.8357L59.5936 68.7638L59.4748 68.613L59.758 68.428L60.2606 67.1442L61.4439 64.275L62.111 63.8227L62.3577 62.4475L63.4565 59.0164L64.8065 55.6035L63.1412 55.318L62.8145 54.9433L61.8688 54.973L59.9385 55.0667L59.1047 54.7057L58.9014 53.5064L58.0676 53.1432L57.7706 52.6498L58.4308 52.25L58.8671 52.4396L62.1749 52.595L63.3285 52.4236L64.6603 52.4762L65.6814 52.3117L65.8573 52.065L66.2297 51.9896L66.9264 51.085L66.9995 49.9588L67.1046 49.3055L67.2896 49.0245L67.5386 48.5745L67.7648 47.5808L67.9361 47.5419L67.9612 47.3889L67.8996 46.7218L68.1234 46.217L70.0149 39.887L70.1177 39.5992L70.2159 38.8408L71.2142 37.6986L71.2096 37.228L71.0931 36.8716L71.1251 36.2982L72.217 33.1275L72.1051 32.9608L72.2444 32.2069L72.1462 31.798L72.8681 30.5827L74.1976 30.1647L75.1822 29.4246L75.9132 27.862L76.1096 26.5874L77.4916 24.0494L77.4163 23.7821L77.8092 22.8022L79.4402 19.0466L79.6458 17.7925L79.7623 17.3493L79.7989 16.8811L79.173 16.6229L78.9171 16.4105L78.6361 16.2323L77.9485 16.3876L77.896 15.2523L78.3689 13.8086L79.0793 12.9062L79.5499 10.9919L79.7532 10.6607L79.8697 10.4597L80.1552 10.2221L80.5733 9.29692L80.4454 8.97254L80.5596 8.52938L80.5116 8.41973L81.8297 6.99199L83.1455 6.48486L83.8651 5.8795L84.7103 5.28328L86.5858 3.34156L87.1272 3.46948L87.0381 4.28272L86.5538 5.88178L86.5264 6.43689L86.0009 7.66588L85.8936 8.68471L85.7245 9.28094L85.5555 9.63501L85.3865 9.86574L85.3362 10.4871L85.2745 10.7795L85.2014 10.9828L84.756 11.5059L84.6509 12.5247L83.5749 14.6858L83.3716 16.0975L82.7731 18.0895L82.5744 18.5258L82.5104 19.1837L80.1141 25.283L80.37 25.6508L79.7006 26.6787L79.7966 26.7724L79.5362 27.0123L79.7463 27.0305L78.1952 30.3223L77.4985 32.8283L76.9777 33.605L76.7607 34.6512L76.0982 36.1817L75.6938 37.6323L74.4329 40.2319L74.3758 40.7505L74.2181 41.5569L74.2753 41.5957L73.7887 43.1948L72.7653 45.0131L70.5951 50.9548L70.104 51.2837L69.8207 51.7132L70.088 52.1335L70.1337 52.6087L71.2256 52.8508L71.9132 52.6955L72.281 53.0724L73.8184 52.7937L75.8492 53.109L76.7744 54.0524Z" fill="black"/>
<path fill-rule="evenodd" clip-rule="evenodd" d="M90.1996 50.2101L90.4007 49.5019L90.2408 49.2895L90.2956 49.1341L89.841 48.8783L88.644 48.9217L88.3767 49.2895L87.9312 49.543L87.696 51.7817H88.1483L89.2585 50.9594L89.5829 50.8314L89.7976 50.7035L90.0671 50.4636L90.2019 50.2078L90.1996 50.2101ZM109.528 42.4501L109.642 43.3273L109.516 43.823L108.397 44.4032L107.616 44.8144L106.933 44.9423L106.229 45.269H106.09L105.491 45.1548L105.219 43.5694L104.756 42.578L104.564 42.3221L104.454 42.2376L104.294 42.2102L104.196 41.9544L103.792 41.9109L103.65 41.8264L102.921 41.9544L102.069 42.1668L101.599 42.4935L97.6376 43.9098L96.822 44.1496L96.4679 44.3621L95.4263 44.9012L93.7655 46.7698L92.2601 49.2621L91.6022 50.1256L91.1362 50.6647L90.7639 51.2449L90.4509 52.2797L88.8884 54.4042L88.2168 55.9347L87.351 57.3922L87.214 57.5201L87.0061 57.7188L86.636 58.5115L86.154 59.0072L86.0946 59.1763L86.074 59.4595L85.9347 60.1243L85.608 60.6634L85.3956 60.9192L85.3316 61.4584L84.676 62.4498L83.1363 65.9334L83.182 66.4725L82.6429 67.3497L81.4162 71.4137L81.4962 71.5827L81.2038 72.2909L80.3791 72.83L78.9605 73.2412L77.3135 73.3691L76.8726 73.6089L76.6921 73.3257L76.7173 73.0287L77.2061 71.7129L77.4071 70.509L78.659 67.8043H78.442L78.6955 67.4366L78.7686 67.2241H78.7366L78.8303 67.1807L79.0382 66.854L79.8606 64.4897L79.9154 63.5691L80.386 62.7056L80.724 61.8695L80.8862 61.6708L80.8977 61.5018L80.9365 61.1203L81.222 60.837L81.1741 60.7091H81.0027L81.4048 60.5812L81.4094 59.7588L81.5647 59.1785L82.0718 57.7188L82.0627 57.5201L82.3848 57.2231L82.4031 56.2751L82.4602 55.9781L82.5287 55.7794L82.7229 55.3545L83.0861 54.5755H82.8988L82.5196 54.2352L82.3482 54.1918L81.9599 54.2763L81.7292 54.4042L81.1215 54.8588L80.2466 55.27L79.6732 55.9781L79.3785 56.0627L76.5779 58.8382L75.2804 60.4669L73.9212 62.9455L73.7361 64.1493L73.5374 64.3184L73.5877 64.4463L73.3318 64.6451L72.9686 63.994L72.7927 63.7382L72.7013 63.327L72.8658 62.9866L72.8726 62.8313L72.9001 62.6188L73.0645 62.2784L73.5625 61.7393L73.7019 61.1157L73.8801 60.9604L73.9691 60.7045L74.3438 60.1677L75.0953 59.3042L75.7784 58.1437L76.0959 57.6343L76.2649 57.5498L79.2346 54.6463L79.8902 53.6549L80.0456 53.6115L80.3471 53.3717L80.5322 53.2437L80.6989 53.0313L80.868 52.9468L81.0439 52.579L81.4505 52.1678L81.8799 51.8708L82.579 51.2906L83.1135 51.0507L83.2369 50.9662L83.9039 50.2581L84.1301 49.3375L84.1346 49.0542L84.1529 48.6019L84.4567 47.5968L86.3573 46.6053L86.7891 46.3929L87.2436 46.0251H87.6023L87.7759 46.1942L87.8467 46.3929L88.6805 46.8589L89.1922 46.8155L91.7187 45.1867L92.2944 44.6065L93.368 44.1108L93.7313 43.8709L93.8843 43.7019L94.1516 43.3341L95.0494 42.5826L95.36 41.9178L95.7141 41.7054L96.0865 41.662L97.5645 41.1251L98.3114 41.1685L99.3097 40.8007L99.5107 40.7573H99.6821L100.488 40.6728L103.894 39.5535L104.593 39.5101L105.382 39.2976L109.137 37.9384L110.147 37.8105L110.658 38.3062L110.649 38.6032L110.636 38.6466L110.099 39.9213L109.635 41.7899L109.612 42.2148L109.528 42.4546V42.4501Z" fill="black"/>
<path fill-rule="evenodd" clip-rule="evenodd" d="M98.5559 61.849L97.5987 62.219L96.1413 63.343L95.3235 63.6742L94.9374 64.058L94.5993 64.4669L94.1219 64.99L93.697 65.2847L93.448 65.9997L93.3384 66.1916L93.0254 66.4863L92.5594 66.8952L92.0728 67.6878L92.1254 68.0191L92.0865 68.6953L92.4794 69.143L92.5046 68.9511L93.1076 68.9899L93.48 68.8483L93.978 68.4645L94.2453 68.0556L94.3481 67.7609L94.4988 67.5691L95.5268 66.1505L95.9197 65.6273L96.3469 65.2047L96.3606 65.1659L96.5913 64.9877L96.8517 64.6039L97.3086 63.978L99.1292 62.2921L99.6889 61.6525L99.6295 61.4606L99.3714 61.3578L98.9716 61.4606L98.5856 61.7667L98.5582 61.8444L98.5559 61.849ZM120.5 54.7697L120.586 54.3996L119.997 53.8765L119.59 53.3899L119.026 53.2369L117.269 53.0838L115.106 53.4927L114.311 53.76L113.381 54.0912L112.977 54.2831L112.669 54.3608L109.101 55.7406L108.712 56.0467L108.397 56.2248L107.853 56.3779L107.422 56.531L107.109 56.748L106.391 57.1569L106.282 57.2345L106.101 57.3876L105.893 57.5406L105.315 57.8719L103.184 59.5212L102.901 59.8524L102.508 60.4144L101.966 60.7593L101.779 61.054L100.813 62.1779L100.507 62.3698L100.098 62.8176L99.5381 63.3795L99.2846 64.3504L98.5216 65.1293L97.9756 66.2167L97.5782 67.7244L97.7746 68.6953L98.1767 68.9511L98.3092 69.7438L99.111 70.3834L100.226 70.525L101.987 70.4222L104.285 69.7072L104.744 69.44L105.466 69.2618L107.465 68.3549L109.642 66.9751L109.921 66.8609L110.192 66.6827L113.891 63.7176L114.176 63.5006L114.704 63.1556L115.072 62.8244L116.07 61.8535L117.269 60.3847L117.788 59.8616L118.112 59.4915L118.179 59.2996L118.546 58.9684L119.289 57.8833L119.376 57.5132L119.57 57.3213L119.814 57.1043L120.481 55.1877L120.497 54.7788L120.5 54.7697ZM131.136 70.3057L131.362 70.3446L131.245 70.6758L130.745 70.9431L130.236 71.2378L127.727 72.5147L125.877 73.1155L125.491 73.1795L125.454 73.0378L124.682 72.999L123.862 72.1698L123.163 70.2669L122.741 69.6273L122.654 68.4257L122.275 66.8152L122.096 66.484L122.156 66.1139L121.854 65.769L121.9 65.5131L121.884 64.8735L122.096 64.0168L121.813 62.8153L122.105 61.6137L121.982 61.2824L122.007 60.6063L122.158 59.9301L121.793 59.3293L121.619 59.2654L121.4 59.2905L121.055 59.5578L120.966 59.8136H120.854L120.813 59.9278L120.447 60.3756L117.726 62.9957L115.492 64.5788L115.006 65.1293L112.516 66.637L111.613 67.4548L110.503 67.9026L109.706 68.5422L107.936 69.3988L107.026 69.6296L106.503 69.9608L105.583 70.2669L105.242 70.5228L104.669 70.637L102.898 71.569L101.962 71.7997L100.365 72.4759L97.2583 73.2549H96.4725L95.8192 73.5998L95.0425 73.3691L93.5691 72.3982L93.062 71.8363H92.7398L92.2007 72.0533L91.4652 72.5124L90.9032 72.4736L90.5309 72.6152L89.5509 72.2452L88.0386 71.3885L87.8125 70.2646L88.8724 67.9003L89.2265 67.6056L89.2653 67.3749L91.1454 65.7644L91.4469 65.5862L92.0226 65.0243L93.183 63.8227L96.6461 61.536L97.0185 61.3944L97.1418 61.2802L97.8797 60.9352L98.4554 60.3733L99.4239 59.9255L100.717 59.0323L102.368 58.3173L102.864 58.0615L102.974 57.9838L103.125 57.7919L103.47 57.6503L104.205 57.1911L104.372 57.1523L104.644 56.8576L105.064 56.3733L106.368 55.8114H106.775L108.301 55.0964L109.329 54.8405L110.033 54.4704L110.576 54.3174L110.672 54.1643L112.44 53.6024L112.539 53.5635L113.119 53.3077L114.206 52.8874L116.328 52.4785L117.004 52.1838L119.577 52.3368L120.849 53.077L121.313 53.6001L121.496 54.1621H121.777L121.484 53.23L121.772 51.8366L121.578 50.9799L121.489 49.2164L121.21 48.2455L120.326 47.2358L118.61 47.0828L117.763 47.5031L113.667 50.6464L112.205 51.5396L111.597 51.8708L111.262 51.9097L111.022 51.8708L110.86 51.6538L110.926 51.4619L111.851 50.9L111.947 50.7469L112.052 50.5687L112.424 50.2238L113.605 49.2918L115.013 48.4351L116.552 47.1193L121.297 44.0902L122.206 43.976L123.579 43.3364L123.867 43.1948L124.132 43.1559L124.385 43.2336L124.563 43.4506H125.461L126.555 44.9446L126.891 45.9543L127.083 48.0239L127.291 48.3552L127.405 51.0119L127.346 51.3066L127.341 51.7657L127.053 52.9536L127.184 53.6298L127.026 53.9999V54.5618L126.928 55.0849L126.903 55.7611L126.802 57.7028L127.026 58.226L126.745 59.2745L127.026 60.3596L126.626 61.753L126.818 62.4932L126.727 64.4098L127.152 67.183L127.474 67.7061L127.54 67.962L127.878 68.5239L127.7 69.2778L129.141 70.5799L130.304 70.4268L130.537 70.3628L130.69 70.2852H131.14L131.136 70.3057Z" fill="black"/>
<path fill-rule="evenodd" clip-rule="evenodd" d="M167.718 36.4307L167.759 35.3708L165.582 35.7683L162.294 37.8904L160.483 39.7476L160.138 40.1109L159.281 41.0063L158.518 41.1068L151.423 48.0011L150.215 50.2215L148.538 51.382L143.962 58.6737L142.621 61.6891L142.587 65.7644L141.678 67.1236L141.712 68.2841L143.09 67.9848L143.496 68.2841L144.94 67.5873L145.141 67.3223L147.103 64.4052L146.482 64.3047L147.144 63.3429L148.405 61.2893L148.773 60.2293L150.066 57.9747L150.619 57.0129L151.275 55.7543L158.087 46.6396L159.195 45.5454L159.93 44.6842L160.074 44.5837L161.776 42.7287L163.571 40.7071L165.02 38.9504L165.762 38.3862L167.718 36.4307ZM154.03 84.9828L152.686 85.1816L147.951 83.7241L143.46 82.9886L143.346 82.6893L142.073 81.4306L140.983 81.5311L138.235 78.5889L137.324 77.1314L136.958 77.0309L136.145 75.0755L135.17 74.2143L134.907 73.7163L134.395 73.6158L134.407 72.9533L134.288 72.4553L135.48 65.2641L137.438 62.1482L137.527 60.3253L138.206 59.6286L141.301 54.3928L145.308 50.5162L145.303 50.2169L145.838 49.6207L146.644 48.5608L148.586 46.6396L149.408 45.8446L150.649 44.6842L151.384 43.823L153.707 42.0663L156.428 38.8522L156.807 38.3884L157.95 37.196L160.903 34.8751L162.224 34.1121L163.304 33.4153L165.57 31.1949L174.598 24.5999L174.954 24.2025L176.142 23.5057L183.276 18.0712L196.848 9.71953L206.355 4.7807L216.948 0.70538L220.765 0.406128L220.649 1.36785L219.123 4.18448L215.641 8.95654L211.859 9.15529L205.919 11.4762L203.781 13.3311L201.254 13.8954L195.544 16.8125L192.636 18.3705L192.165 18.5692L190.235 19.8279L188.702 20.8878L187.206 22.0483L182.527 25.6599L174.491 32.8511L172.743 34.2103L171.8 35.6677L169.312 37.5889L158.811 50.6144L153.886 59.3293L153.102 61.584L151.725 68.5765L151.327 68.7752L151.058 69.2389L151.108 70.0339L151.343 70.2989L152.095 70.2326L152.622 70.5958L152.773 72.2543L153.621 74.1092L155.37 75.5666L156.96 76.2291L157.486 77.1246L160.305 77.2891L164.325 76.8253L164.257 77.0241L164.709 77.1908H165.255L165.968 77.0241H166.367L167.039 77.2891L170.032 76.3273L173.627 75.8293L180.181 73.2114L187.386 69.0356L191.219 66.9134L191.651 66.6142L192.827 65.9517L198.6 61.0814L199.066 60.6839L199.738 60.2202L200.567 59.7222L204.393 57.3031L207.043 54.2877L213.446 48.7526L214.792 47.2952L215.493 46.5322L217.384 43.8138L219.235 43.4163L215.408 49.8126L214.84 50.5093L213.743 51.5693L213.64 51.8685L211.191 53.9907L210.518 54.9844L209.956 55.4482L208.971 56.7068L204.028 61.0814L202.177 62.7376L200.24 63.6993L198.723 65.6547L193.62 69.2343L192.27 70.3948L191.441 70.8928L190.506 71.489L185.661 74.0087L183.315 75.8316L174.801 80.1057L163.354 83.916L162.681 84.2815L161.705 84.679L161.342 84.7795L154.03 84.9783V84.9828Z" fill="black"/>
<path fill-rule="evenodd" clip-rule="evenodd" d="M122.839 125.992L122.519 126.241L114.61 128.473L109.619 128.215L105.075 128.592L104.879 128.333L103.285 127.427L102.261 127.787L98.7523 125.617L97.4457 124.432L97.0642 124.425L95.7095 122.737L94.5194 122.143L94.1196 121.727L90.0603 119.073L93.416 121.113L91.0928 118.785L92.203 113.442L98.7204 113.729L99.0904 114.84L100.331 114.218L100.811 114.408L101.998 113.387L102.115 113.083L103.499 113.206L103.175 113.494L103.049 114.006L103.33 114.762L103.634 114.958L104.34 114.714L104.954 114.938L108.925 117.889L112.118 118.623L114.391 118.556L116.118 118.81L116.886 119.545L119.652 119.022L123.392 117.601L123.382 117.809L123.867 117.86L124.392 117.727L125.032 117.396L125.418 117.298L126.144 117.391L128.746 115.74L132.065 114.39L137.619 110.278L143.341 104.507L146.416 101.535L146.745 101.143L147.686 100.22L151.825 94.1249L152.159 93.6269L152.67 93.017L153.321 92.3385L156.305 89.0787L157.977 85.5288L162.532 78.6437L163.402 76.9121L163.855 76.0075L164.885 72.9282L166.553 72.099L164.732 79.1897L164.387 79.9983L163.64 81.2867L163.626 81.5997L161.886 84.2381L161.527 85.3598L161.12 85.9423L160.54 87.3951L157.054 92.8091L155.754 94.8559L154.169 96.2517L153.278 98.5041L149.404 103.192L148.442 104.635L147.789 105.316L147.062 106.118L143.129 109.718L141.399 112.044L134.443 118.227L124.525 124.674L123.983 125.188L123.159 125.809L122.839 125.992Z" fill="black"/>
<path fill-rule="evenodd" clip-rule="evenodd" d="M96.685 110.705L97.3589 109.99C96.7992 110.499 96.0134 111.317 95.3395 111.623C95.3395 111.827 95.4514 112.338 95.7872 112.338C96.123 112.95 98.0305 113.156 98.814 113.156L98.9259 113.053C98.814 113.156 98.9259 113.053 98.9259 112.85C99.2617 112.544 100.271 111.829 100.271 111.523L100.16 111.42C100.048 111.42 99.4856 111.114 99.4856 111.011L99.3737 110.908C99.1498 110.908 99.0379 110.703 98.814 110.703C98.814 110.294 98.1401 109.988 98.1401 109.682C98.0282 109.682 97.9163 109.682 97.9163 109.579L97.6924 109.784C97.8043 109.682 97.6924 109.784 97.4685 109.784C97.8043 109.682 97.6924 109.784 97.4685 109.988C97.8043 109.682 97.6924 109.784 97.2446 109.988C97.2446 110.09 97.1327 110.09 97.0208 110.09C97.0208 110.294 96.7969 110.499 96.685 110.703V110.705Z" fill="black"/>
<path fill-rule="evenodd" clip-rule="evenodd" d="M93.2082 110.399C92.9843 110.808 91.4149 112.441 91.4149 112.747C90.6291 112.747 89.6217 111.726 88.7239 111.726V110.808C89.7336 110.808 91.5269 110.195 92.9843 110.195L93.2082 110.399Z" fill="black"/>
<path fill-rule="evenodd" clip-rule="evenodd" d="M89.7336 114.38C89.6217 115.299 89.0597 116.423 89.0597 117.238C88.05 117.238 86.0329 116.32 85.8091 115.502C88.0523 117.238 86.0329 116.32 85.5852 115.502C85.5852 115.399 85.3613 114.89 85.2494 114.89V114.584C85.1375 114.584 85.1375 114.481 85.1375 114.38C85.2494 114.38 85.5852 113.972 85.5852 113.869L85.6971 113.766C85.8091 113.766 86.0329 113.663 86.0329 113.563C86.9307 113.563 88.05 113.869 88.8359 113.869C88.8359 113.972 88.9478 113.972 89.0597 113.972C89.0597 114.074 89.1717 114.074 89.2836 114.074C89.2836 114.28 89.3955 114.38 89.3955 114.586C89.6194 114.586 89.3955 114.689 89.6194 114.689C89.6194 114.586 89.3955 114.689 89.7313 114.383L89.7336 114.38Z" fill="black"/>
<path fill-rule="evenodd" clip-rule="evenodd" d="M87.1546 111.217C86.9307 111.42 86.5949 111.726 86.371 111.829H85.1375C85.1375 111.726 84.9136 111.319 84.8016 111.217V110.911L84.9136 110.705L85.0255 110.602C85.2494 110.602 85.8091 110.602 86.0352 110.602L86.1471 110.705L86.2591 110.911C86.4829 110.911 86.8187 111.217 86.933 111.217C86.4852 110.911 86.821 111.217 86.933 111.42L87.1568 111.217H87.1546Z" fill="black"/>
<path fill-rule="evenodd" clip-rule="evenodd" d="M81.6606 105.704C81.9964 106.113 82.7823 106.52 83.0061 106.929C83.68 107.032 84.5755 107.847 85.1375 108.053C85.1375 108.156 85.2494 108.256 85.2494 108.359C85.4733 108.359 85.2494 108.462 85.4733 108.462L85.3613 108.564C85.3613 108.768 85.2494 108.564 85.2494 108.768C85.1375 108.768 85.0255 108.768 85.0255 108.665H84.6897C84.5778 108.359 83.3442 107.543 82.7846 107.543L82.6726 107.441C82.5607 107.134 81.8891 106.929 81.6629 106.623C81.3271 106.623 81.551 106.52 81.3271 106.52L81.2152 106.417C81.2152 106.314 81.1032 106.111 80.9913 106.111V105.599H81.3271C80.9913 105.599 81.3271 105.599 81.3271 105.396L81.4391 105.499C81.551 105.499 81.6629 105.602 81.7748 105.602C81.7748 105.807 81.8868 105.602 81.6629 105.704H81.6606Z" fill="black"/>
<path fill-rule="evenodd" clip-rule="evenodd" d="M220.936 0.24231L220.794 1.41426L219.25 4.26481L215.72 9.10264L211.89 9.30385L205.998 11.6065L203.851 13.4693L201.306 14.0377L195.614 16.9448L195.612 16.9461L192.694 18.5093L192.235 18.7022L190.32 19.9513L190.316 19.9536L188.794 21.0064L188.787 21.0113L187.297 22.1669L182.623 25.7754L174.583 32.9698L172.855 34.3132L171.912 35.7708L169.418 37.6969L158.935 50.699L154.023 59.3913L153.247 61.6234L151.857 68.6777L151.434 68.8894L151.21 69.275L151.254 69.9729L151.405 70.1429L152.135 70.0785L152.765 70.5122L152.92 72.2153L153.743 74.0159L155.449 75.4369L157.064 76.11L157.575 76.9796L160.3 77.1386L163.294 76.7933L163.716 75.9499L164.762 72.8216L166.779 71.8187L165.451 76.9909L165.95 76.8741H166.396L167.044 77.1299L169.998 76.1806L173.588 75.6833L180.115 73.0762L187.311 68.9059L187.313 68.9044L191.14 66.7859L191.577 66.4829L192.741 65.828L198.503 60.9673L198.974 60.5649L199.66 60.0914L200.487 59.5955L200.49 59.5937L204.295 57.1879L206.937 54.181L213.342 48.6447L214.681 47.1937L215.376 46.4382L217.295 43.6796L219.541 43.1973L215.531 49.899L214.95 50.6111L214.944 50.6172L213.873 51.6521L213.769 51.9555L211.304 54.0912L210.63 55.0865L210.064 55.5535L209.081 56.8101L204.128 61.1932L202.262 62.8629L200.338 63.8184L198.828 65.7646L193.712 69.3529L192.358 70.5169L191.521 71.0193L191.518 71.0214L190.576 71.6227L185.742 74.1355L183.396 75.9591L174.859 80.2447L163.414 84.0542L162.745 84.4174L161.872 84.773L161.663 85.4271L161.253 86.014L160.674 87.4642L157.181 92.8896L155.869 94.9544L154.295 96.3405L153.409 98.5814L149.524 103.281L148.559 104.73L147.9 105.417L147.897 105.42L147.164 106.229L143.24 109.819L141.51 112.145L134.535 118.347L124.618 124.792L124.08 125.303L123.241 125.935L122.922 126.117L122.588 126.377L114.627 128.624L109.621 128.365L105.006 128.748L104.778 128.449L103.27 127.591L102.243 127.953L98.6616 125.738L97.3865 124.581L96.9911 124.574L95.613 122.856L94.4291 122.265L94.0232 121.843L89.9822 119.201L89.9781 119.198L90.1381 118.944L90.1423 118.947L92.4316 120.339L90.9294 118.833L92.082 113.286L98.8299 113.584L99.1779 114.628L100.323 114.054L100.781 114.235L101.872 113.298L102.015 112.924L103.859 113.088L103.309 113.575L103.206 113.997L103.453 114.663L103.654 114.793L104.341 114.555L105.026 114.804L108.989 117.75L112.133 118.472L114.4 118.406L116.187 118.668L116.934 119.384L119.611 118.877L123.551 117.38L123.538 117.675L123.856 117.708L124.339 117.586L124.978 117.255L125.408 117.145L126.11 117.236L128.677 115.606L131.991 114.258L137.52 110.164L143.234 104.402L143.237 104.4L146.306 101.433L146.634 101.041L146.64 101.035L147.57 100.123L151.7 94.0415L152.034 93.5435L152.039 93.5368L152.562 92.9129L153.211 92.2373L153.213 92.2347L156.179 88.9943L157.846 85.4551L157.852 85.4461L158.136 85.0168L154.08 85.127L152.675 85.335L147.916 83.8706L143.35 83.1227L143.217 82.7732L142.017 81.5865L140.924 81.6873L138.116 78.6807L137.228 77.2606L136.848 77.1562L136.02 75.1651L135.05 74.3086L134.808 73.8497L134.243 73.7388L134.256 72.9697L134.135 72.4607L135.337 65.2099L137.29 62.1017L137.38 60.2613L138.086 59.5368L141.182 54.2991L145.157 50.4536L145.152 50.1606L145.722 49.5252L146.531 48.4616L148.48 46.533L148.482 46.5318L149.304 45.7368L149.306 45.7351L150.54 44.5804L151.281 43.7132L153.604 41.9567L156.312 38.7572L156.314 38.7553L156.699 38.2844L157.848 37.0846L160.819 34.7506L162.142 33.9861L162.148 33.9822L163.21 33.2976L165.473 31.0802L174.497 24.4881L174.858 24.085L176.059 23.3809L183.191 17.9474L196.778 9.58611L206.294 4.64377L216.914 0.557589L220.936 0.24231ZM158.502 85.0068L158.108 85.6026L156.431 89.1633L153.432 92.4398L153.43 92.4424L152.782 93.1173L152.279 93.7171L151.95 94.2084L147.802 100.316L146.855 101.245L146.531 101.632L146.526 101.638L143.447 104.613L143.445 104.615L137.717 110.392L132.139 114.521L128.815 115.874L126.179 117.547L125.427 117.45L125.085 117.537L124.446 117.868L123.878 118.012L123.226 117.944L123.232 117.823L119.693 119.167L116.838 119.707L116.049 118.951L114.382 118.707L112.103 118.773L108.86 118.028L104.882 115.071L104.339 114.873L103.614 115.124L103.207 114.861L102.892 114.015L103.04 113.413L103.14 113.325L102.214 113.242L102.125 113.476L100.84 114.581L100.338 114.382L99.0027 115.051L98.6105 113.875L92.3238 113.597L91.256 118.736L93.9547 121.44L94.2158 121.611L94.6094 122.02L95.8058 122.617L97.137 124.276L97.5046 124.283L98.8428 125.497L102.279 127.622L103.299 127.262L104.98 128.218L105.145 128.435L109.617 128.064L114.593 128.322L122.45 126.105L122.755 125.867L123.076 125.684L123.886 125.073L124.431 124.556L134.352 118.108L141.288 111.942L143.017 109.617L146.956 106.012L147.677 105.215L147.68 105.212L148.325 104.541L149.283 103.102L153.147 98.4269L154.043 96.163L155.639 94.7575L156.927 92.7287L160.406 87.3261L160.987 85.8706L161.391 85.2925L161.521 84.8856L161.364 84.929L158.502 85.0068ZM161.991 84.4005L162.616 84.1458L163.294 83.7779L174.744 79.9668L183.235 75.7042L185.58 73.8819L190.431 71.359L191.36 70.7664L191.363 70.7643L192.182 70.2728L193.528 69.1158L198.619 65.545L200.143 63.5803L202.092 62.6123L203.928 60.9697L208.861 56.6036L209.847 55.3429L210.405 54.8825L211.078 53.8903L213.511 51.7817L213.613 51.4865L214.729 50.4077L215.285 49.7262L218.929 43.6355L217.474 43.9481L215.61 46.6263L214.902 47.3968L213.551 48.8606L207.149 54.3945L204.491 57.4183L200.647 59.849L200.644 59.8508L199.819 60.3463L199.157 60.8031L198.697 61.1956L192.913 66.0755L191.731 66.7414L191.298 67.0411L187.461 69.1654L187.459 69.1669L180.247 73.3467L173.666 75.9755L170.065 76.4742L167.034 77.4483L166.339 77.1741H165.985L165.367 77.3187L164.874 79.2381L164.521 80.0657L163.788 81.3301L163.774 81.6477L162.022 84.3036L161.991 84.4005ZM165.129 77.0409H164.736L164.446 76.9342L164.545 76.6491L163.65 76.7523L163.994 76.0652L163.997 76.0552L165.007 73.0349L166.326 72.3793L165.129 77.0409ZM163.489 77.0728L162.662 78.7191L158.704 84.7012L161.319 84.6301L161.63 84.5441L161.749 84.1728L163.478 81.5517L163.492 81.2434L164.253 79.9311L164.589 79.1414L165.052 77.3409H164.682L164.067 77.1141L164.106 77.0017L163.489 77.0728ZM163.133 77.1139L162.402 78.5684L158.338 84.7111L153.879 84.8323V84.8534L152.698 85.0283L147.985 83.5778L143.569 82.8545L143.474 82.6056L142.129 81.2749L141.043 81.3751L138.355 78.4971L137.42 77.0023L137.069 76.9058L136.27 74.986L135.29 74.1201L135.006 73.583L134.547 73.4929L134.557 72.937L134.441 72.45L135.623 65.3184L137.586 62.1948L137.674 60.3893L138.326 59.7204L141.42 54.4865L145.459 50.5789L145.454 50.2734L145.949 49.7209L146.757 48.66L148.69 46.7475L148.691 46.7463L149.511 45.9542L149.512 45.9525L150.757 44.788L151.488 43.9328L153.811 42.1759L156.543 38.9491L156.544 38.9472L156.92 38.488L158.05 37.3075L160.987 34.9996L162.299 34.242L163.398 33.5332L165.667 31.3097L174.699 24.7118L175.05 24.3201L176.226 23.6306L183.361 18.1951L196.922 9.8502L206.417 4.91772L216.981 0.853258L220.594 0.570033L220.503 1.32154L218.996 4.10418L215.562 8.81054L211.826 9.00681L205.84 11.346L203.711 13.193L201.203 13.7532L195.475 16.679L195.473 16.6803L192.571 18.235L192.094 18.4363L190.153 19.7023L190.149 19.7046L188.616 20.7645L187.114 21.9296L182.435 25.5412L174.394 32.7359L172.631 34.1075L171.688 35.5647L169.206 37.481L158.686 50.5299L153.748 59.2673L152.957 61.5447L151.592 68.4753L151.22 68.6611L150.905 69.203L150.961 70.0949L151.281 70.455L152.054 70.3868L152.479 70.6796L152.626 72.2934L153.498 74.2027L155.292 75.6964L156.856 76.3483L157.397 77.2697L160.309 77.4396L163.133 77.1139ZM86.5371 3.17599L87.2906 3.35404L87.1855 4.31293L86.7026 5.90765L86.6747 6.47118L86.1476 7.7041L86.0413 8.71328L85.8653 9.33413L85.6847 9.71237L85.5324 9.92019L85.4848 10.5087L85.419 10.8206L85.3332 11.0593L84.9003 11.5677L84.7972 12.5673L83.7198 14.7311L83.5184 16.13L82.9137 18.1424L82.7211 18.5653L82.6576 19.2191L80.2829 25.2632L80.5507 25.648L79.8934 26.6574L80.0145 26.7756L79.8877 26.8923L79.9737 26.8998L78.3362 30.3748L77.6364 32.8918L77.1185 33.6642L76.9043 34.6967L76.2398 36.2319L75.8346 37.6857L74.579 40.2741L74.5234 40.7794L74.3842 41.4885L74.4508 41.5338L73.9273 43.2541L72.9019 45.0761L70.7191 51.0522L70.2124 51.3916L69.9993 51.7147L70.2337 52.0834L70.2724 52.4859L71.2252 52.6972L71.9619 52.5307L72.3326 52.9106L73.8163 52.6417L75.9213 52.9684L76.8917 53.958L77.6541 55.1225L75.4132 55.4181L71.8109 55.2939L70.475 55.0223L70.3447 54.7237L69.9987 54.7487L70.1118 54.9383L69.6321 55.2357L69.5291 55.1736L68.3568 57.6593L68.2365 58.3581L65.5064 65.262L65.5274 65.4128L65.683 65.5023L64.1017 69.548L63.9297 69.7623L63.9283 69.764L63.7058 70.0333L63.6458 70.1275L63.7089 70.5019L63.5925 71.2123L61.7444 75.7758L61.8311 76.1578L61.6723 76.4471L61.3997 76.8457L60.3085 78.7552L60.3265 79.6139L59.8432 80.9682L59.9399 81.1594L59.8252 81.6158L59.7927 81.827L59.642 82.4941L59.4418 82.885L59.4322 82.8843L59.4657 82.9998L59.2397 83.4676L57.5404 83.5505L55.701 84.4195L55.6997 84.4201L55.1229 84.6857L54.6739 84.709L54.2474 84.5999L54.1819 84.008L54.5167 83.0658L54.7819 82.4559L55.224 81.939L55.7692 80.4119L55.9875 79.9265L55.9889 79.9233L56.275 79.2429L56.6304 78.1259L56.8431 77.7833L56.9608 77.56L57.0108 77.1973L57.0272 76.417L57.7076 74.633L58.0699 74.1066L58.1703 73.8262L58.2578 73.4681L58.2245 73.2126L58.5774 70.7952L59.4209 68.7872L59.2554 68.5771L59.6357 68.3287L60.1208 67.0895L60.1218 67.087L61.3223 64.1762L61.9744 63.734L62.2117 62.4112L63.3165 58.9611L64.599 55.7202L63.0631 55.4568L62.7481 55.0955L61.876 55.1229L61.8734 55.123L59.9108 55.2182L58.9703 54.8111L58.767 53.6116L57.9637 53.2617L57.5649 52.599L58.4194 52.0816L58.9016 52.2911L62.1672 52.4445L63.3203 52.2733L64.6511 52.3258L65.5956 52.1736L65.7694 51.9298L66.1449 51.8537L66.7796 51.0297L66.8502 49.942L66.9615 49.2499L67.1611 48.9469L67.397 48.5205L67.6394 47.4554L67.8043 47.418L67.81 47.3836L67.7465 46.6968L67.9823 46.165L69.8733 39.8365L69.9709 39.564L70.0729 38.7764L71.0635 37.6429L71.0597 37.2526L70.9417 36.8915L70.9764 36.2691L72.0508 33.1492L71.9464 32.9937L72.091 32.211L71.986 31.7739L72.7683 30.4569L74.1279 30.0294L75.062 29.3272L75.7681 27.818L75.9652 26.5387L77.3306 24.0314L77.2579 23.7738L77.6714 22.7424L79.2951 19.004L79.4988 17.7613L79.6137 17.3243L79.6407 16.9782L79.0946 16.7529L78.8285 16.532L78.6083 16.3924L77.8068 16.5734L77.7448 15.2318L78.2344 13.7367L78.9413 12.839L79.4097 10.9334L79.6233 10.5855L79.6252 10.5823L79.7532 10.3614L80.0326 10.1289L80.4103 9.293L80.2878 8.98231L80.4013 8.54212L80.3347 8.39007L81.743 6.86463L83.068 6.35396L83.7782 5.75653L84.6121 5.16891L86.5371 3.17599ZM59.2654 82.5714L59.3576 82.3912L59.4985 81.7659L59.5319 81.5493L59.6217 81.1949L59.5173 80.9886L60.0254 79.565L60.0069 78.6785L61.1483 76.681L61.4164 76.2899L61.5134 76.1132L61.431 75.7505L63.3019 71.1308L63.4048 70.5026L63.3308 70.0637L63.4627 69.8565L63.6957 69.5746L63.6971 69.5729L63.839 69.396L65.3095 65.6337L65.2505 65.5998L65.1984 65.2252L67.9461 58.2767L68.068 57.5683L69.3994 54.7451L69.6299 54.8841L69.703 54.8387L69.4918 54.4846L70.5347 54.4092L70.6876 54.7594L71.8462 54.9949L75.3986 55.1174L77.1417 54.8875L76.6568 54.147L75.7768 53.2496L73.8202 52.9459L72.2292 53.2343L71.8643 52.8603L71.2258 53.0046L69.9947 52.7316L69.942 52.1837L69.6419 51.7118L69.9953 51.176L70.4709 50.8574L72.6285 44.9502L73.6498 43.1355L74.0995 41.6577L74.0518 41.6253L74.2272 40.7279L74.2865 40.1898L75.5529 37.579L75.9563 36.1316L76.6168 34.6058L76.8366 33.5458L77.3603 32.7648L78.054 30.2699L79.5188 27.1614L79.1843 27.1323L79.5785 26.7693L79.5076 26.7001L80.189 25.6536L79.9451 25.3028L82.363 19.1484L82.4274 18.4864L82.6323 18.0366L83.2246 16.0651L83.4298 14.6406L84.5043 12.4823L84.6114 11.4442L85.0694 10.9064L85.1298 10.7385L85.1873 10.4656L85.2402 9.81137L85.4261 9.55772L85.5836 9.22784L85.7456 8.65626L85.854 7.62774L86.3777 6.40269L86.4047 5.856L86.8904 4.2526L86.9635 3.58501L86.6342 3.50721L84.8082 5.39773L83.9566 5.99844L83.2227 6.61584L81.9161 7.11944L80.6882 8.44947L80.7176 8.51672L80.6026 8.96287L80.736 9.30094L80.2776 10.3154L79.986 10.558L79.8828 10.736L79.8809 10.7392L79.6898 11.0505L79.2171 12.9736L78.503 13.8805L78.047 15.2729L78.09 16.2019L78.6637 16.0723L79.0054 16.289L79.2511 16.493L79.9568 16.784L79.9107 17.3745L79.7926 17.8238L79.5851 19.0893L77.9483 22.858L77.9466 22.862L77.5744 23.7906L77.6525 24.0676L76.2537 26.6361L76.058 27.9062L75.302 29.522L74.267 30.3001L72.9676 30.7087L72.3062 31.8223L72.3976 32.2029L72.2636 32.928L72.383 33.1059L71.2736 36.3274L71.2443 36.8518L71.3593 37.2034L71.3646 37.7543L70.3587 38.9052L70.2643 39.6345L70.1574 39.9337L68.2643 46.2691L68.0524 46.747L68.1123 47.3943L68.0677 47.6659L67.89 47.7062L67.68 48.6285L67.4152 49.1073L67.2475 49.3611L67.1486 49.9756L67.073 51.1404L66.3142 52.1256L65.945 52.2003L65.7671 52.4499L64.6693 52.6267L63.3365 52.5741L62.1824 52.7455L58.8325 52.5882L58.4421 52.4186L57.9762 52.7007L58.1713 53.0249L59.0356 53.4014L59.2389 54.6005L59.966 54.9152L61.8614 54.8232L61.864 54.8231L62.8808 54.7912L63.2191 55.1792L65.0138 55.4869L63.5977 59.0669L62.5034 62.4838L62.2473 63.9114L61.5653 64.3739L60.4002 67.1989L60.3992 67.2014L59.8801 68.5274L59.6939 68.649L59.766 68.7404L58.8688 70.8763L58.5273 73.215L58.5625 73.4849L58.4581 73.9126L58.3392 74.2445L57.9751 74.7734L57.326 76.4753L57.3104 77.221L57.2508 77.6533L57.101 77.9372L56.905 78.2524L56.5547 79.3532L56.264 80.0428L56.2626 80.0461L56.0458 80.5295L55.4879 82.092L55.0391 82.6167L54.7943 83.1807L54.4877 84.0435L54.5228 84.3607L54.7039 84.407L55.0498 84.3891L55.5728 84.1482L55.5742 84.1476L57.4662 83.2537L59.0471 83.1767L59.1455 82.9729L59.0237 82.5538L59.2654 82.5714ZM58.0692 5.36393L58.3375 5.8662L58.228 6.01827L58.2126 6.84362L57.8893 8.25517L57.9514 9.6182L57.3183 11.4411L56.9407 12.989L57.4027 13.8539L58.3007 14.1193L58.3883 14.7378L52.8396 29.0665L52.3499 29.4338L52.3254 29.935L52.3011 30.1458L52.1754 30.3678L52.0653 30.5431L51.842 30.7178L49.8297 34.9845L49.2642 36.6096L48.5446 37.5051L47.6596 40.0509L47.5497 40.2373L47.2776 40.7859L46.8361 42.0512L46.8969 42.3026L46.724 42.4925L45.63 45.521L45.4874 45.6803L45.2909 46.0808L45.5134 46.1168L44.9923 47.47L44.5875 48.0326L43.0092 52.0066L42.182 54.8273L41.6348 55.8351L41.1504 57.6744L40.8485 58.2245L40.786 58.9747L40.479 59.3973L38.6295 65.3958L37.9903 68.8944L37.0688 70.8621L37.078 74.523L36.5922 75.3319L36.8353 76.1682L36.6447 76.8025L36.608 77.0184L36.4965 77.9307L36.7386 79.8388L37.297 80.3586L37.5504 81.7225L37.6617 82.308L37.8773 82.8253L38.4663 83.6285L38.2479 84.2489L35.4867 83.3796L35.1222 83.0397L34.3014 82.8979L34.0083 82.5096L33.9032 82.3884L33.6643 81.683L33.4708 81.5101L33.2923 81.2959L33.1802 80.8084L32.6066 80.1039L32.6649 79.8247L30.7955 78.516L30.5262 77.9672L30.4973 76.4328L31.1089 75.4277L30.952 75.3117L31.238 74.835L31.2041 74.7888L31.9841 69.0524L32.736 67.8354L33.5113 65.8454L33.5566 65.5762L33.8738 65.305L34.8106 63.4001L35.7442 60.6055H35.6424L36.2365 58.497L37.3818 56.123L37.3257 55.6076L39.6905 48.5659L39.7716 47.7249L40.6745 45.9813L42.3828 41.6357L42.4095 41.4322L42.8331 40.7036L44.7588 35.1709L45.2767 34.277L45.4733 32.8738L46.4939 29.8232L46.4782 29.5904L46.4232 29.2586L46.4129 29.0835H46.1661L52.1975 13.5442L52.3331 13.1591L52.8478 12.3749L52.6661 11.2711L53.0122 10.2778L52.9701 10.1706L53.122 9.47594L53.4837 8.31994L53.6244 7.66323L53.7531 7.44517L54.1474 7.07985L54.3739 6.8918L55.8913 5.82484L56.7704 5.707L57.2723 5.5742L57.3163 5.45198L57.6332 5.397L58.0692 5.36393ZM46.6043 28.7835H46.6956L46.7218 29.2251L46.7765 29.5557L46.7973 29.8621L45.7666 32.9428L45.5657 34.3767L45.0327 35.2966L43.107 40.8294L42.6991 41.5309L42.6755 41.7112L40.9481 46.1055L40.0647 47.8114L39.9858 48.6288L37.6311 55.6406L37.6893 56.176L36.5182 58.6037L36.0386 60.3055H36.1607L35.0887 63.5143L34.1157 65.4929L33.8344 65.7334L33.802 65.9256L33.0056 67.9698L32.2728 69.156L31.5177 74.7089L31.598 74.8181L31.3494 75.2324L31.5077 75.3494L30.7989 76.5143L30.8249 77.8949L31.0308 78.3146L32.9991 79.6924L32.9295 80.0253L33.4569 80.6732L33.5687 81.1589L33.6871 81.301L33.9231 81.5119L34.1685 82.2365L34.2449 82.3247L34.4694 82.6225L35.2614 82.7593L35.6416 83.1139L38.0613 83.8756L38.1307 83.6782L37.6141 82.9738L37.3728 82.3946L37.2557 81.7785L37.0202 80.5108L36.4547 79.9843L36.1942 77.9314L36.3115 76.9716L36.3521 76.734L36.5225 76.1668L36.2676 75.2898L36.7778 74.4402L36.7687 70.7957L37.7021 68.8023L38.3376 65.3244L40.207 59.2614L40.494 58.8662L40.5548 58.1361L40.8697 57.5623L41.3539 55.7237L41.9032 54.7122L42.7272 51.9021L44.3223 47.8874L44.7262 47.3261L45.1006 46.3539L44.8433 46.3122L45.2362 45.511L45.3677 45.3643L46.4621 42.3346L46.5679 42.2184L46.5237 42.0358L47.0005 40.6694L47.2882 40.0893L47.386 39.9242L48.2783 37.3576L48.9979 36.4621L49.5516 34.8709L51.601 30.5254L51.8391 30.3392L51.9193 30.2113L52.0099 30.0512L52.0265 29.9059L52.0571 29.2784L52.5908 28.8781L58.0803 14.7024L58.0307 14.3523L57.1972 14.106L56.6221 13.0292L57.0303 11.3561L57.6491 9.57425L57.5878 8.22801L57.9132 6.80695L57.9298 5.919L57.9848 5.84264L57.8968 5.67787L57.6703 5.69505L57.5395 5.71775L57.5012 5.82395L56.8289 6.00184L56.0039 6.11243L54.5517 7.13409L54.3424 7.30812L53.9891 7.6354L53.9076 7.7737L53.7727 8.40301L53.4109 9.5593L53.2826 10.1458L53.332 10.2716L52.9745 11.2977L53.1628 12.4417L52.6039 13.2931L52.4782 13.6505L46.6043 28.7835ZM167.916 35.1896L167.865 36.4953L165.861 38.4995L165.124 39.0593L163.687 40.8025L163.683 40.8067L161.888 42.8284L161.886 42.8302L160.173 44.6972L160.032 44.7962L159.3 45.6525L158.2 46.7385L151.402 55.8343L150.749 57.0878L150.196 58.0493L148.91 60.2919L148.542 61.3539L147.268 63.4282L146.74 64.1945L147.358 64.2946L145.265 67.4061L145.261 67.4132L145.038 67.7068L143.48 68.4585L143.055 68.1458L141.567 68.469L141.526 67.0801L142.437 65.7183L142.472 61.6566L143.829 58.603L148.427 51.2762L150.1 50.1185L151.302 47.9094L158.449 40.9647L159.209 40.8645L160.029 40.0076L160.374 39.6444L160.375 39.6429L162.199 37.7736L165.525 35.6261L167.916 35.1896ZM165.638 35.9105L162.39 38.0073L160.592 39.851L160.59 39.8524L160.247 40.2142L159.353 41.1482L158.587 41.2491L151.544 48.0929L150.329 50.3246L148.649 51.4878L144.095 58.7445L142.771 61.7215L142.737 65.8105L141.829 67.1672L141.857 68.0992L143.124 67.8239L143.512 68.1097L144.842 67.4679L145.019 67.2351L146.848 64.5159L146.224 64.4149L147.017 63.2645L147.021 63.2579L148.269 61.2248L148.636 60.1669L149.936 57.9001L150.486 56.9437L150.489 56.9382L151.147 55.6742L157.973 46.5408L159.085 45.4432L159.828 44.5722L159.974 44.4702L161.664 42.6292L161.665 42.6274L163.456 40.6117L163.459 40.6075L164.915 38.8416L165.663 38.2729L167.57 36.3662L167.601 35.552L165.638 35.9105ZM110.199 37.6527L110.81 38.2446L110.799 38.6286L110.774 38.7051L110.241 39.9688L109.784 41.8122L109.761 42.2444L109.681 42.4696L109.794 43.3364L109.645 43.9252L108.467 44.536L107.665 44.9577L106.979 45.0863L106.262 45.419H106.075L105.361 45.2827L105.075 43.6147L104.626 42.6556L104.456 42.4285L104.392 42.3792L104.185 42.3437L104.089 42.0938L103.743 42.0566L103.621 41.9838L102.952 42.1012L102.132 42.3057L101.668 42.6281L97.6798 44.054L96.8826 44.2882L96.5369 44.4956L95.5198 45.0217L93.8867 46.8592L92.3842 49.3466L91.7158 50.2239L91.2566 50.7547L90.9013 51.3084L90.5869 52.3479L89.019 54.4797L88.3503 56.0035L87.4689 57.4872L87.3175 57.6285L87.3162 57.6298L87.13 57.8078L86.7611 58.5979L86.2845 59.0881L86.2426 59.2071L86.2228 59.4805L86.0761 60.1801L85.7304 60.7507L85.5392 60.981L85.4763 61.5114L84.808 62.522L83.2889 65.959L83.3355 66.5091L82.7808 67.4118L81.5764 71.4018L81.66 71.5786L81.3246 72.3911L80.4423 72.9678L78.9874 73.3896L77.3569 73.5162L76.8212 73.8076L76.5383 73.3636L76.5694 72.9957L77.0604 71.6741L77.2624 70.4644L78.4241 67.9544H78.1562L78.5562 67.3742H78.056L78.7272 67.0631L78.9021 66.7883L79.7119 64.4601L79.7675 63.5268L80.25 62.6414L80.5934 61.7923L80.7397 61.613L80.7482 61.4866L80.7926 61.0517L80.9867 60.8591H80.0365L81.2553 60.4713L81.2593 59.7387L81.4225 59.1292L81.9205 57.6969L81.9095 57.4572L82.2359 57.1563L82.2532 56.2594L82.3148 55.9394L82.3891 55.7237L82.5863 55.2922L82.5868 55.2912L82.8505 54.7256H82.8412L82.4467 54.3715L82.3455 54.3459L82.0132 54.4182L81.8107 54.5305L81.199 54.9881L80.3414 55.3911L79.7599 56.1093L79.4567 56.1963L76.6896 58.9385L75.4056 60.5504L74.0653 62.9944L73.8758 64.2274L73.7161 64.3633L73.7682 64.496L73.2858 64.8707L72.8409 64.0733L72.6525 63.7992L72.5435 63.3087L72.7172 62.9492L72.7232 62.812L72.7543 62.5755L72.9391 62.1931L73.4248 61.6673L73.5661 61.035L73.7514 60.8735L73.8342 60.6357L74.2252 60.0753L74.973 59.2162L75.649 58.0677L75.6509 58.0644L75.9909 57.5191L76.1767 57.4262L79.1182 54.5503L79.7959 53.5256L79.9758 53.4753L80.2615 53.248L80.4281 53.1333L80.6016 52.9122L80.7547 52.8357L80.9193 52.4915L81.3535 52.0524L81.7891 51.7512L82.4988 51.1622L83.0397 50.9194L83.1386 50.8517L83.7675 50.184L83.9802 49.3181L83.9845 49.0518L83.9846 49.0482L84.0037 48.5768L84.3313 47.493L86.2878 46.4724L86.291 46.4708L86.7076 46.2658L87.1904 45.8752H87.6631L87.9054 46.111L87.969 46.2895L88.7135 46.7056L89.1422 46.6692L91.6236 45.0696L92.2069 44.4817L93.2947 43.9794L93.6327 43.7563L93.7676 43.6072L94.041 43.231L94.9274 42.489L95.2434 41.8128L95.6645 41.5602L96.0516 41.515L97.5422 40.9736L98.2888 41.017L99.2676 40.6564L99.4946 40.6074H99.6741L100.457 40.5253L103.866 39.405L104.569 39.3613L105.336 39.1545L109.102 37.7917L110.199 37.6527ZM82.9561 54.4256H83.3214L82.8592 55.4169L82.8587 55.4179L82.668 55.8352L82.6053 56.017L82.5527 56.2909L82.5334 57.2901L82.2156 57.583L82.2229 57.7408L81.708 59.2227L81.5591 59.779L81.554 60.6911L81.3515 60.7555L81.3964 60.8752L81.0802 61.1889L81.0472 61.5119L81.0468 61.517L81.0326 61.7286L80.8545 61.9468L80.5217 62.7699L80.063 63.6115L80.0089 64.5194L79.174 66.9199L78.9331 67.2984L78.8956 67.3158L78.8306 67.5048L78.7274 67.6544H78.8936L77.5516 70.5537L77.3516 71.7518L76.8649 73.0618L76.8457 73.2879L76.9238 73.4103L77.2698 73.2221L78.9334 73.0928L80.3157 72.6922L81.0827 72.1908L81.3321 71.5869L81.2558 71.4256L82.5048 67.2878L83.0283 66.4361L82.9835 65.9079L84.5438 62.3776L85.1867 61.4054L85.2517 60.8576L85.4854 60.5762L85.793 60.0685L85.925 59.4386L85.9463 59.1455L86.0233 58.9264L86.5107 58.4251L86.8819 57.6299L87.1102 57.4117L87.1115 57.4105L87.2329 57.2972L88.083 55.8661L88.7576 54.3288L90.3147 52.2117L90.6262 51.1815L91.0156 50.5747L91.4856 50.0311L92.1358 49.1776L93.6442 46.6805L95.3325 44.7808L96.3947 44.2311L96.7612 44.0112L97.591 43.7671L101.529 42.359L102.006 42.0279L102.895 41.8063L103.679 41.6691L103.84 41.7654L104.303 41.815L104.404 42.0768L104.516 42.0961L104.671 42.2158L104.885 42.5004L105.364 43.5242L105.621 45.027L106.104 45.119H106.196L106.886 44.7984L107.566 44.6712L108.327 44.2705L109.387 43.7208L109.489 43.3182L109.461 43.0964L109.378 43.3317V40.1364L109.554 41.4926L109.956 39.8738L110.495 38.5948L110.5 38.5778L110.506 38.3679L110.094 37.9684L109.172 38.0852L105.421 39.443L104.618 39.6589L103.923 39.702L100.52 40.8204L99.6898 40.9074H99.5266L99.3516 40.9452L98.3338 41.3201L97.5865 41.2767L96.1211 41.809L95.7635 41.8506L95.4764 42.0229L95.171 42.6763L94.2619 43.4373L94.0008 43.7966L93.8296 43.9857L93.4411 44.2423L92.3817 44.7314L91.8136 45.304L89.242 46.9619L88.6473 47.0123L87.7242 46.4964L87.6462 46.2774L87.5412 46.1752H87.2966L86.8702 46.5201L86.4266 46.7384L86.4234 46.74L84.5819 47.7006L84.3019 48.6271L84.2845 49.0566L84.2844 49.0603L84.2796 49.3568L84.04 50.3322L83.3348 51.0809L83.1871 51.1821L82.6589 51.4191L81.9655 51.9947L81.5472 52.2832L81.1682 52.6665L80.9809 53.058L80.796 53.1504L80.636 53.3542L80.4365 53.4922L80.1151 53.7479L79.9844 53.7844L79.3508 54.7425L76.3529 57.6735L76.2007 57.7496L75.9075 58.2198L75.9055 58.2231L75.2175 59.3923L74.4621 60.2601L74.1039 60.7734L74.0085 61.0473L73.8374 61.1965L73.7 61.8115L73.1898 62.3639L73.0456 62.6622L73.0221 62.8442L73.0142 63.0241L72.8589 63.3453L72.9327 63.6772L73.1 63.9206L73.3776 64.4195L73.4069 64.3968L73.3585 64.2736L73.5963 64.0713L73.7768 62.8966L75.1549 60.3836L76.4659 58.7379L79.3001 55.9291L79.5863 55.847L80.1516 55.1489L81.0438 54.7296L81.6474 54.278L81.9063 54.1344L82.3507 54.0377L82.5921 54.0989L82.9561 54.4256ZM33.2007 40.3273L34.4471 40.5524L34.8338 40.7619L35.8216 41.5447L35.3412 43.5247L34.5684 44.7962L31.763 47.9942L30.8995 48.7879L30.4042 49.0995L29.7623 49.544L29.7604 49.5453L26.0846 52.1755L24.799 52.6631L21.8507 54.2744L16.3401 56.2236L14.2475 56.6481L14.2464 56.6483L13.9385 56.7132L13.6945 56.7554L13.2837 56.7148L12.3118 56.65L11.7352 56.4941L11.9237 55.681L13.4363 54.9793L14.7543 54.076L15.7921 53.8074L16.628 53.3169L20.5613 52.713L21.7676 52.3867L25.9869 50.5959L27.7426 49.2381L29.2182 47.4607L29.7113 46.5167L30.196 44.8974L29.3014 44.1042L27.6654 44.0671L26.8772 44.2877L25.586 44.9582L25.1543 45.1706L24.5422 45.584L24.1259 45.7365L22.6155 46.8088L22.614 46.8099L21.0744 47.9321L21.0736 47.9328L20.4708 48.3785L20.4691 48.3799L19.625 49.0239L18.2961 49.9117L16.4732 51.4833L16.0594 51.798L15.7733 51.9388L14.9912 52.5662L14.989 52.5681L13.6563 53.6813L13.0923 54.3628L11.7429 55.2959L8.39905 59.1327L6.35216 62.2132L6.09165 62.9608L5.62381 63.8208L4.4679 66.6633L4.62184 67.7908L5.01852 68.6982L5.60948 69.4126L6.27745 69.9943L6.47111 70.0984L6.83821 70.2679L7.68068 70.4531L11.1572 70.53L14.5966 69.6809L18.5145 68.0411L20.2089 66.9578L20.5563 66.7662L20.5584 66.7651L20.9176 66.5741L20.9194 66.5732L25.5132 64.0519H25.7147L25.7293 63.9406L26.1039 63.5608L28.21 62.2516L32.1012 59.5022L32.1608 59.538H33.0632L32.2091 60.5298L31.8945 60.8714L31.3734 61.5089L29.7844 62.666L29.6886 62.8188L28.7329 63.519L23.2197 66.9225L22.4704 67.3249L22.0826 67.6306L21.058 68.1933L20.7813 68.4035L20.7787 68.4055L20.4461 68.6472L20.2252 68.7355L19.9299 68.8099L18.2575 69.8514L13.4693 71.9933L12.0739 72.4075L11.4189 72.5212L11.0835 72.6353L9.65086 73.0044L9.64879 73.005L9.23372 73.1184L8.03817 73.453L5.44878 73.7231L3.40417 73.7479L1.8966 73.1973L1.33874 72.2785L0.881927 71.9009L0.132324 70.1042L0.519101 67.2983L1.665 65.4222L1.89913 64.6257L4.60268 60.675L9.32835 55.5152L8.99239 54.2826L9.57342 52.7388L10.9544 51.3274L12.6069 49.9029L14.5572 48.4297L18.0258 46.3246L19.8045 45.4347L20.2915 45.1369L20.6722 44.9824L23.2874 43.5701L23.7756 43.2616L24.4261 42.9597L27.4957 41.7142L31.5046 40.5092L33.2007 40.3273ZM31.5643 40.8045L27.589 42.0001L24.5425 43.2365L23.9195 43.5255L23.4347 43.832L20.8003 45.2541L20.4271 45.4057L19.9447 45.7006L18.1658 46.5906L14.7258 48.6782L12.7918 50.1396L11.1555 51.5509L9.83197 52.9035L9.30737 54.2974L9.66128 55.5959L4.83827 60.862L2.17355 64.7559L1.94166 65.5448L0.807745 67.4013L0.440681 70.0642L1.13023 71.7169L1.5689 72.0795L2.0984 72.9516L3.45544 73.4472L5.43813 73.4225L7.98179 73.1573L9.15285 72.8295L9.57179 72.715L9.57386 72.7145L11.003 72.3458L11.3445 72.2296L12.0053 72.1149L13.3649 71.7113L18.1163 69.586L19.8111 68.5304L20.1324 68.4495L20.3 68.3825L20.5998 68.1647L20.6024 68.1628L20.8942 67.941L21.9164 67.3796L22.3053 67.0731L23.0735 66.6602L28.57 63.2665L29.4649 62.6108L29.561 62.4575L31.1656 61.2891L31.6706 60.6713L31.9867 60.3284L32.4089 59.838H32.1458L28.3723 62.5043L26.2925 63.7968L26.0137 64.0795L25.978 64.3519H25.5901L21.062 66.8371L21.0602 66.8381L20.7014 67.0288L20.6993 67.0299L20.3584 67.2184L18.6542 68.3078L14.691 69.9666L11.1904 70.8308L7.64481 70.7524L6.74202 70.5539L6.3329 70.3651L6.10578 70.2426L5.39397 69.6227L4.76051 68.8569L4.33025 67.8728L4.15982 66.6245L5.35224 63.6922L5.81642 62.8389L6.08133 62.0787L8.16002 58.9504L11.5414 55.0705L12.8876 54.1396L13.4428 53.4687L14.8012 52.3341L15.6113 51.6842L15.9009 51.5417L16.2877 51.2471L18.1142 49.6725L19.4543 48.7768L20.2889 48.14L20.2907 48.1387L20.896 47.6909L20.8969 47.6903L22.4388 46.5664L22.4403 46.5653L23.985 45.4686L24.4047 45.3149L25.0034 44.9105L25.4506 44.6905L25.4535 44.689L26.7664 44.0071L27.6275 43.7662L29.4181 43.8068L30.5383 44.8L29.9905 46.6301L29.4693 47.6278L27.9523 49.4552L26.1398 50.8569L21.8659 52.6709L20.6234 53.007L16.7303 53.6047L15.9078 54.0873L14.8805 54.3533L13.5852 55.2409L12.1829 55.8915L12.0928 56.28L12.3614 56.3526L13.3108 56.4159L13.6834 56.4528L13.8846 56.4179L14.1857 56.3545L14.1868 56.3543L16.2599 55.9338L21.728 53.9996L24.6733 52.3899L25.9417 51.9089L29.5877 49.3L29.5896 49.2987L30.2415 48.8472L30.7166 48.5485L31.5481 47.7842L34.3257 44.618L35.0606 43.4087L35.4848 41.6605L34.6679 41.0133L34.3465 40.839L33.1898 40.6301L31.5643 40.8045ZM124.143 43.0027L124.472 43.1035L124.634 43.3007H125.537L126.69 44.875L127.039 45.9233L127.229 47.9745L127.439 48.3091L127.556 51.0237L127.496 51.3223L127.491 51.7844L127.207 52.9573L127.34 53.6465L127.176 54.0305V54.5758L127.077 55.1017L127.052 55.7667L127.052 55.7689L126.954 57.6759L127.184 58.2147L126.9 59.2752L127.181 60.3616L126.782 61.7551L126.969 62.4776L126.877 64.4019L127.295 67.1303L127.613 67.6467L127.68 67.9033L128.038 68.499L127.866 69.226L129.19 70.4221L130.274 70.2795L130.483 70.2223L130.654 70.1352H131.327L131.316 70.1846L131.562 70.2268L131.367 70.7806L130.82 71.073L130.816 71.0754L130.304 71.3717L127.785 72.6538L125.913 73.2617L125.38 73.35L125.337 73.1822L124.616 73.146L123.733 72.2521L123.028 70.3351L122.594 69.6773L122.505 68.4484L122.133 66.8689L121.94 66.5104L121.996 66.1597L121.694 65.8135L121.749 65.5017L121.733 64.8571L121.942 64.016L121.659 62.8148L121.949 61.623L121.831 61.3068L121.858 60.5871L121.998 59.9565L121.691 59.452L121.6 59.4185L121.458 59.4348L121.182 59.6491L121.072 59.9636H120.959L120.945 60.0028L120.557 60.4774L117.822 63.1116L115.593 64.6912L115.103 65.2458L112.606 66.7579L111.694 67.584L110.58 68.0335L109.786 68.6699L107.987 69.5405L107.086 69.7691L106.568 70.0974L105.653 70.4016L105.305 70.6632L104.719 70.7799L102.952 71.7103L102.009 71.9426L100.413 72.6186L97.2767 73.4049H96.5096L95.835 73.7611L94.9784 73.5066L93.4704 72.513L92.9951 71.9863H92.7688L92.2688 72.1876L91.5032 72.6655L90.9256 72.6256L90.5309 72.7757L89.4869 72.3814L87.905 71.4853L87.6558 70.2471L88.7496 67.8073L89.0877 67.5259L89.1263 67.2964L91.0576 65.642L91.3549 65.4663L91.9145 64.9201L91.9177 64.917L93.0865 63.7066L96.5772 61.4018L96.9378 61.2646L97.057 61.1542L97.793 60.8102L98.3689 60.248L99.3492 59.7948L100.644 58.9006L102.304 58.1817L102.786 57.9331L102.869 57.874L103.031 57.6682L103.401 57.5164L104.147 57.0507L104.293 57.0167L104.53 56.7593L104.533 56.756L104.973 56.2492L106.337 55.6614H106.742L108.25 54.9544L109.275 54.6994L109.977 54.3304L110.48 54.1887L110.574 54.0381L112.39 53.461L112.478 53.4263L112.483 53.4241L113.065 53.1677L114.164 52.7427L116.283 52.3344L116.977 52.032L119.621 52.1893L120.945 52.9595L121.404 53.4775L121.329 53.2378L121.618 51.8381L121.429 51.0005L121.34 49.2412L121.075 48.3192L120.253 47.3799L118.639 47.236L117.843 47.631L113.752 50.7703L112.277 51.6715L111.643 52.0165L111.258 52.0611L110.938 52.0092L110.692 51.68L110.802 51.3619L111.743 50.7902L111.818 50.6707L111.82 50.6673L111.934 50.4737L112.331 50.1057L113.519 49.1684L114.924 48.3133L116.463 46.9986L121.244 43.9457L122.164 43.8302L123.513 43.2019L123.515 43.2005L123.822 43.0498L124.143 43.0027ZM131.003 70.4352H130.726L130.591 70.5035L130.334 70.5742L129.092 70.7377L127.533 69.3297L127.718 68.5489L127.4 68.0207L127.334 67.7656L127.008 67.2358L126.576 64.4177L126.667 62.5088L126.471 61.7511L126.87 60.3576L126.59 59.2739L126.868 58.2373L126.65 57.7299L126.753 55.7556L126.753 55.7534L126.778 55.0683L126.876 54.5479V53.9693L127.028 53.6132L126.9 52.95L127.191 51.7471L127.196 51.2909L127.254 51.0002L127.143 48.4013L126.937 48.0734L126.743 45.9853L126.42 45.0143L125.385 43.6007H124.492L124.298 43.3638L124.12 43.3093L123.912 43.3398L123.645 43.471L123.642 43.4724L122.248 44.122L121.349 44.2349L116.642 47.2402L115.101 48.557L113.691 49.4152L112.522 50.3379L112.17 50.6639L112.076 50.8232L112.074 50.8266L111.959 51.0098L111.05 51.5621L111.027 51.6277L111.105 51.7325L111.265 51.7583L111.551 51.7252L112.13 51.4097L113.582 50.5226L117.683 47.3753L118.581 46.9296L120.399 47.0918L121.345 48.172L121.638 49.1916L121.727 50.9595L121.925 51.8351L121.639 53.2223L121.981 54.3121H121.386L121.18 53.6762L120.753 53.1946L119.532 52.4845L117.031 52.3357L116.373 52.6227L114.248 53.0322L113.176 53.4464L112.594 53.7032L112.486 53.7457L110.77 54.2907L110.672 54.4461L110.088 54.6106L109.383 54.9817L108.351 55.2384L106.808 55.9614H106.399L105.155 56.4976L104.754 56.9594L104.451 57.288L104.263 57.3316L103.538 57.7843L103.218 57.9157L103.078 58.0937L102.942 58.19L102.428 58.4553L100.79 59.1642L99.4985 60.0563L98.5416 60.4986L97.9661 61.0604L97.2265 61.4062L97.0989 61.5243L96.7148 61.6704L93.2793 63.9388L92.1273 65.1317L91.5386 65.7062L91.2328 65.8869L89.4041 67.4535L89.3651 67.6854L88.9949 67.9934L87.9689 70.2822L88.172 71.2918L89.6146 72.109L90.5305 72.4549L90.8806 72.3217L91.4269 72.3595L92.1324 71.9191L92.7107 71.6863H93.1285L93.6675 72.2836L95.1064 73.2317L95.8031 73.4386L96.4352 73.1049H97.2397L100.317 72.3333L101.914 71.657L102.845 71.4278L104.618 70.4942L105.179 70.3824L105.512 70.1323L106.438 69.8243L106.966 69.4901L107.884 69.2572L109.625 68.4146L110.426 67.7718L111.532 67.3258L112.426 66.5162L114.908 65.0129L115.391 64.4665L117.63 62.8799L120.336 60.2738L120.68 59.8529L120.748 59.6636H120.859L120.928 59.4665L121.341 59.1463L121.637 59.1123L121.893 59.2067L122.317 59.9038L122.157 60.6256L122.133 61.2582L122.262 61.6045L121.967 62.8159L122.251 64.0178L122.034 64.89L122.05 65.5246L122.014 65.7245L122.315 66.0682L122.252 66.4577L122.416 66.7616L122.802 68.403L122.887 69.5774L123.298 70.1988L123.992 72.0875L124.748 72.8522L125.572 72.8936L125.602 73.0091L125.841 72.9694L127.67 72.3757L130.16 71.108L130.167 71.1041L130.67 70.8133L130.674 70.8108L131.123 70.571L131.161 70.4624L131.003 70.4352ZM19.705 47.199L18.6569 48.6905L18.6177 48.6512L17.2923 49.5855L16.7163 50.0444L16.6162 50.084L15.1923 51.1566L14.5372 51.0501L14.5448 50.6234L15.0708 49.7665L17.7459 48.0557L19.705 47.199ZM18.5346 48.3427L18.8434 47.9032L17.8877 48.3212L15.2905 49.9821L14.8433 50.7106L14.8418 50.7956L15.1141 50.8399L16.4681 49.82L16.5644 49.7819L17.1157 49.3426L18.5346 48.3427ZM89.8776 48.7269L90.4788 49.0653L90.4089 49.2636L90.5652 49.4713L90.5008 49.6981L90.7936 49.4062L90.187 50.5577L89.8865 50.8251L89.6491 50.9666L89.3317 51.0917L88.1976 51.9318H87.5293L87.79 49.4508L88.2743 49.1752L88.5654 48.7745L89.8776 48.7269ZM90.0582 50.1585L90.2359 49.5327L90.0724 49.3154L90.1121 49.2031L89.8041 49.0298L88.7223 49.069L88.4789 49.4039L88.0723 49.6354L87.8624 51.6318H88.0986L89.1849 50.8271L89.5164 50.6964L89.7084 50.582L89.947 50.3697L90.0582 50.1585ZM117.262 52.9326L119.052 53.0886L119.675 53.2576L120.105 53.7718L120.753 54.3469L120.646 54.7999L120.63 55.216L119.943 57.1906L119.672 57.4309L119.512 57.5896L119.428 57.9449L118.66 59.0679L118.308 59.3852L118.244 59.5683L117.895 59.9674L117.381 60.4852L116.181 61.9551L115.172 62.936L114.796 63.2749L114.263 63.6232L113.985 63.8347L113.982 63.8371L110.281 66.8043L109.991 66.9943L109.711 67.1089L107.536 68.4872L105.515 69.4041L104.801 69.5805L104.346 69.8455L102.014 70.571L100.22 70.6756L99.0502 70.5269L98.1706 69.8252L98.0396 69.0418L97.6401 68.7876L97.4241 67.72L97.8345 66.1634L98.3979 65.0411L99.1494 64.2739L99.4031 63.3024L99.9891 62.714L100.41 62.2536L100.714 62.0629L101.658 60.9645L101.858 60.6508L102.402 60.304L102.782 59.7605L103.08 59.412L105.232 57.7469L105.811 57.4148L106.008 57.2699L106.194 57.1117L106.31 57.0302L107.028 56.621L107.352 56.3963L107.812 56.2332L108.339 56.0854L108.628 55.9218L109.025 55.6088L112.623 54.2176L112.926 54.1413L113.324 53.9525L114.261 53.6187L114.263 53.6179L115.068 53.3473L117.262 52.9326ZM117.277 53.2351L115.144 53.6382L114.361 53.9013L114.359 53.9022L113.439 54.23L113.028 54.425L112.714 54.5041L109.176 55.8724L108.796 56.1716L108.455 56.3644L107.899 56.521L107.49 56.6657L107.183 56.8788L106.472 57.2836L106.374 57.3532L106.19 57.5087L105.975 57.6666L105.399 57.9969L103.288 59.6304L103.019 59.9444L102.614 60.5249L102.075 60.868L101.9 61.1436L100.912 62.293L100.604 62.4861L100.204 62.9235L99.6729 63.4567L99.4195 64.4269L98.645 65.2176L98.1166 66.2701L97.732 67.7289L97.9089 68.603L98.3135 68.8605L98.4475 69.6624L99.1715 70.2399L100.231 70.3745L101.96 70.2736L104.224 69.5691L104.687 69.2995L105.417 69.1195L107.393 68.2226L109.573 66.8414L109.85 66.7276L110.104 66.5613L113.797 63.6006L113.8 63.5982L114.094 63.3748L114.612 63.0365L114.967 62.7169L114.971 62.713L115.959 61.7521L117.158 60.2843L117.678 59.7593L117.98 59.4148L118.049 59.2141L118.433 58.8689L119.149 57.8218L119.239 57.437L119.47 57.2091L119.685 57.0182L120.332 55.1596L120.348 54.7575L120.352 54.7424L120.353 54.7355L120.354 54.7333L120.42 54.4525L119.889 53.9813L119.505 53.5224L119 53.3852L117.277 53.2351ZM99.3813 61.2004L99.7515 61.3478L99.8569 61.6883L99.2368 62.3969L97.4211 64.0782L96.9757 64.6882L96.9728 64.6924L96.7019 65.0918L96.4872 65.2576L96.4768 65.2872L96.0329 65.7263L95.6481 66.2385L95.6466 66.2406L94.6167 67.6618L94.4813 67.834L94.3807 68.1224L94.0895 68.5679L93.5539 68.9807L93.1304 69.1418L92.6349 69.1099L92.585 69.4909L91.9331 68.748L91.9746 68.0267L91.9159 67.6567L92.4433 66.7974L92.9224 66.3771L92.9263 66.3736L93.2191 66.0977L93.3108 65.9373L93.5713 65.1893L94.0224 64.8764L94.4859 64.3685L94.8264 63.9568L95.239 63.5465L96.0658 63.2117L97.5242 62.087L98.4381 61.7337L98.4584 61.6761L98.9033 61.3233L99.3813 61.2004ZM92.3736 68.7951L92.3739 68.7924L93.0846 68.8382L93.4058 68.716L93.8662 68.3613L94.1095 67.989L94.2145 67.688L94.3807 67.4764L95.4052 66.0625L95.4067 66.0604L95.8063 65.5285L96.2168 65.1224L96.2337 65.0743L96.4805 64.8837L96.7304 64.5155L97.1959 63.8779L99.0214 62.1875L99.5207 61.6169L99.5073 61.5735L99.3612 61.5153L99.0397 61.598L98.7125 61.8575L98.6964 61.9033L98.6639 61.968L97.673 62.3512L96.2165 63.4743L95.4077 63.8019L95.0482 64.1592L94.7101 64.5681L94.2212 65.1037L93.8225 65.3802L93.585 66.0621L93.4574 66.2855L93.1243 66.5991L92.6752 66.993L92.2295 67.7191L92.2759 68.0116L92.2397 68.6425L92.3736 68.7951ZM83.3086 86.3501L83.1027 86.1436V86.4378C83.099 86.445 83.0958 86.4516 83.0933 86.4568C83.0863 86.4718 83.0788 86.4893 83.0713 86.5075C83.0598 86.5353 83.0476 86.566 83.0343 86.5994C83.0104 86.6596 82.9829 86.7286 82.9497 86.8054C82.8992 86.9221 82.842 87.0408 82.7813 87.1342C82.751 87.1808 82.7223 87.2175 82.6959 87.2435C82.6688 87.2704 82.6508 87.2795 82.643 87.282C82.1665 87.4338 81.4974 87.7896 81.0783 88.0393C81.075 88.0388 81.0706 88.038 81.0652 88.0369C81.0357 88.0304 80.9935 88.0153 80.9391 87.9902C80.8312 87.9404 80.6998 87.8627 80.5698 87.7794C80.4409 87.6969 80.3184 87.6121 80.2286 87.5498L80.2227 87.5457C80.1811 87.5169 80.1455 87.4922 80.1209 87.476C80.1095 87.4684 80.0948 87.4589 80.082 87.4521C80.0784 87.4502 80.0723 87.4471 80.0647 87.4441C80.0623 87.4431 80.0394 87.4332 80.0092 87.4326C79.9942 87.4324 79.9522 87.4337 79.9124 87.4655C79.8646 87.5037 79.8546 87.5564 79.856 87.5896C79.8572 87.618 79.8662 87.6388 79.8698 87.6466C79.8744 87.6564 79.879 87.6638 79.8818 87.668M80.442 88.5204L78.427 90.1641C78.154 90.3869 77.9115 90.331 77.6624 90.2736C77.6264 90.2653 77.5903 90.2569 77.5539 90.2494C77.4272 90.2232 77.2362 90.194 77.0994 90.3446C77.0372 90.4132 77.0002 90.5052 76.9775 90.612C76.9547 90.7198 76.944 90.8551 76.944 91.0228C76.944 91.3467 77.0038 91.6153 77.0655 91.8325C77.0844 91.8992 77.1047 91.9647 77.1229 92.0236C77.1334 92.0574 77.1432 92.089 77.1516 92.1173C77.1764 92.2006 77.1922 92.2631 77.1976 92.3132C77.203 92.3623 77.1967 92.3849 77.1909 92.3963C77.1862 92.4056 77.1734 92.4242 77.1265 92.4459C77.022 92.4943 76.8151 92.5285 76.4248 92.5402C76.4236 92.5401 76.422 92.5398 76.42 92.5394C76.4114 92.5379 76.399 92.5353 76.3823 92.5312C76.3653 92.5271 76.3453 92.522 76.3228 92.5159C76.3017 92.5102 76.2784 92.5037 76.2531 92.4964C76.1563 92.4688 76.0365 92.4323 75.9126 92.3946L75.8827 92.3855C75.7493 92.3449 75.6131 92.3037 75.5021 92.2726C75.4467 92.257 75.396 92.2436 75.3541 92.2339C75.3178 92.2255 75.2726 92.216 75.2368 92.216H74.9972L75.1019 92.4315C75.1186 92.4658 75.1448 92.489 75.1548 92.4977C75.1692 92.5103 75.1856 92.5225 75.2016 92.5336C75.2339 92.5561 75.2752 92.5815 75.32 92.6079C75.3978 92.6537 75.4951 92.7075 75.5926 92.7614L75.6379 92.7865C75.7516 92.8494 75.8615 92.9108 75.9443 92.9618C75.9861 92.9875 76.0175 93.0084 76.0381 93.0241C76.0393 93.025 76.0404 93.0258 76.0414 93.0267C76.2355 93.6767 76.1869 94.5828 75.9054 95.3299C75.6179 96.093 75.115 96.6294 74.4442 96.6294H74.3965L74.3576 96.6569C74.1162 96.8275 73.9623 97.0272 73.8997 97.2514C73.8371 97.4757 73.8716 97.7044 73.9687 97.9223C74.1597 98.3507 74.6052 98.7668 75.1429 99.1159C75.6853 99.4681 76.3421 99.7653 76.9831 99.9472C77.4879 100.09 77.9939 100.165 78.4315 100.132C78.3916 100.211 78.3501 100.287 78.3097 100.343C78.2875 100.374 78.2698 100.393 78.2577 100.403C78.2441 100.414 78.251 100.403 78.2751 100.403C78.3953 100.403 78.508 100.411 78.6137 100.425C78.5943 100.458 78.5741 100.489 78.5533 100.518C78.5236 100.56 78.4885 100.602 78.4481 100.635C78.4091 100.667 78.3499 100.703 78.2751 100.703C78.6365 100.703 78.8989 100.779 79.0933 100.897C79.2872 101.016 79.4244 101.183 79.5249 101.385C79.7111 101.759 79.7635 102.231 79.8145 102.69C79.82 102.74 79.8254 102.789 79.831 102.838C79.8591 103.083 79.8917 103.323 79.9551 103.522C80.0181 103.721 80.1204 103.906 80.3079 104.004C80.4963 104.103 80.731 104.094 81.0103 103.997C81.2905 103.901 81.6391 103.708 82.0772 103.404C82.1215 103.373 82.2038 103.335 82.3301 103.292C82.4536 103.251 82.6088 103.208 82.7915 103.163C83.1569 103.075 83.6229 102.985 84.146 102.891C84.5693 102.816 85.031 102.738 85.5045 102.658C86.1952 102.542 86.9112 102.422 87.5706 102.297C87.6124 102.289 87.6594 102.302 87.7222 102.36C87.7869 102.419 87.8492 102.511 87.9101 102.617C87.9399 102.669 87.9678 102.722 87.9948 102.773C88.0019 102.786 88.009 102.8 88.016 102.813C88.0354 102.849 88.0545 102.885 88.0729 102.917C88.0967 102.958 88.1254 103.003 88.1581 103.038C88.1818 103.063 88.262 103.139 88.3721 103.1L88.3739 103.099C88.4242 103.081 88.455 103.045 88.4726 103.016C88.4898 102.987 88.4993 102.957 88.5051 102.933C88.5168 102.884 88.5204 102.827 88.5211 102.773C88.5224 102.662 88.5114 102.523 88.501 102.393C88.4902 102.259 88.48 102.134 88.4801 102.039C88.4801 102.007 88.4813 101.983 88.4832 101.965C89.3919 101.565 90.0959 100.986 90.0959 100.121C90.0959 99.9623 90.0921 99.796 90.0882 99.626C90.0798 99.2596 90.0709 98.8759 90.0992 98.5091C90.1383 98.0024 90.2466 97.5802 90.4883 97.3212C90.5024 97.328 90.5195 97.3368 90.5397 97.3481C90.6222 97.3941 90.728 97.4639 90.8415 97.5394C90.9519 97.6128 91.0695 97.6915 91.1674 97.7484C91.216 97.7766 91.265 97.8027 91.3092 97.8202C91.3195 97.8242 91.3305 97.8282 91.342 97.8318C91.3552 97.8359 91.3691 97.8395 91.3834 97.842C91.4072 97.8461 91.4484 97.8502 91.4924 97.8337C91.4927 97.8336 91.4931 97.8334 91.4934 97.8333L91.4399 97.6932L91.4924 97.8337C91.603 97.7924 91.6174 97.6855 91.6163 97.636C91.6152 97.5836 91.5995 97.5285 91.5833 97.4822C91.5496 97.3861 91.4917 97.268 91.4372 97.1593C91.428 97.1408 91.4188 97.1226 91.4097 97.1046C91.3632 97.0123 91.3206 96.9275 91.2911 96.8582C91.2825 96.8382 91.2759 96.8213 91.271 96.8076C91.4436 96.6377 91.5286 96.441 91.5408 96.2286C91.5538 96.0022 91.4836 95.7713 91.3772 95.5497C91.1983 95.1769 90.8942 94.7877 90.6194 94.436C90.5707 94.3736 90.5228 94.3124 90.4768 94.2527C90.3206 94.0501 90.1844 93.8644 90.0905 93.6989C89.9938 93.5286 89.9572 93.4054 89.9655 93.3216C89.9716 93.2594 90.0053 93.1913 90.1515 93.1317C90.3062 93.0687 90.5633 93.0277 90.9648 93.0277V92.7277C90.719 92.7277 90.3914 92.633 90.0489 92.4746C89.7094 92.3176 89.3704 92.105 89.1046 91.8845C88.9717 91.7743 88.8596 91.6641 88.7753 91.5601C88.6898 91.4546 88.6392 91.3631 88.6192 91.2903C88.6003 91.2215 88.6108 91.1802 88.6327 91.15C88.6588 91.1141 88.7211 91.0666 88.8598 91.0315C88.8591 91.0317 88.8614 91.0314 88.8677 91.031C88.8766 91.0304 88.8936 91.0294 88.9214 91.0291C88.9641 91.0286 89.0203 91.0294 89.0868 91.0314C89.2195 91.0354 89.3875 91.0438 89.5594 91.0532C89.6544 91.0584 89.7512 91.064 89.8439 91.0693C90.0814 91.083 90.2913 91.0951 90.3708 91.0951H90.758L90.4719 90.8343C90.4448 90.8095 90.412 90.7964 90.3984 90.7911C90.3898 90.7877 90.3806 90.7844 90.3711 90.7812C90.3593 90.7773 90.3469 90.7735 90.3344 90.7699C90.2892 90.7568 90.2317 90.7429 90.1685 90.7287C90.0879 90.7106 89.9922 90.6906 89.8937 90.6701C89.8387 90.6586 89.7828 90.647 89.7282 90.6353C89.5728 90.6023 89.4267 90.5693 89.3229 90.5388C89.3136 90.536 89.3049 90.5334 89.2968 90.5308C89.5553 89.8449 89.6866 89.2881 89.7102 88.8396C89.7352 88.3649 89.64 87.9999 89.4348 87.7354C89.2293 87.4704 88.9302 87.3278 88.5914 87.2641C88.254 87.2007 87.867 87.2134 87.4666 87.2671C86.7312 87.3657 85.9175 87.6082 85.2292 87.8133C85.169 87.8312 85.1098 87.8489 85.0517 87.8661C84.6868 87.9743 84.3675 88.0659 84.118 88.1155C83.9932 88.1404 83.892 88.1534 83.8149 88.1541C83.7326 88.155 83.702 88.1412 83.6964 88.1374C83.6872 88.131 83.6678 88.1116 83.6434 88.0663C83.6197 88.0224 83.5964 87.964 83.5744 87.8923C83.5304 87.749 83.4961 87.5686 83.4701 87.3812C83.4293 87.0859 83.4109 86.7865 83.405 86.6147V86.5089C83.405 86.4999 83.4047 86.487 83.4025 86.473C83.4013 86.465 83.3953 86.4255 83.365 86.3908C83.3518 86.3757 83.3329 86.3603 83.3086 86.3501M90.1094 92.8278C90.0471 92.8026 89.9848 92.7755 89.923 92.7469C89.5614 92.5797 89.2 92.3534 88.913 92.1154C88.7695 91.9963 88.6421 91.8722 88.5422 91.749C88.4435 91.6272 88.3652 91.4983 88.3299 91.3696C88.2935 91.2369 88.3014 91.0955 88.39 90.9736C88.4743 90.8576 88.6143 90.7839 88.7877 90.7403C88.8236 90.7314 88.8753 90.7296 88.9177 90.7291C88.9485 90.7287 88.984 90.729 89.023 90.7297C89.0185 90.7258 89.0141 90.7215 89.0098 90.717C88.9846 90.6905 88.9393 90.6235 88.9725 90.5387C88.9725 90.5386 88.9724 90.5387 88.9725 90.5387C89.2546 89.8144 89.388 89.2533 89.4106 88.8238C89.4332 88.3952 89.3452 88.1094 89.1978 87.9192C89.0506 87.7295 88.8275 87.6137 88.536 87.5589C88.243 87.5039 87.8915 87.5128 87.5065 87.5644C86.7958 87.6598 86.0045 87.8954 85.3115 88.1018C85.2526 88.1194 85.1944 88.1367 85.137 88.1537C84.7744 88.2613 84.4419 88.3569 84.1766 88.4097C84.044 88.4361 83.922 88.4531 83.8179 88.4541C83.719 88.4551 83.6104 88.4424 83.5264 88.3846C83.4618 88.34 83.4146 88.2741 83.3794 88.2088C83.3431 88.1416 83.313 88.0632 83.2876 87.9805C83.2368 87.815 83.1999 87.6167 83.173 87.4223C83.1585 87.318 83.1468 87.2133 83.1373 87.1134C83.1051 87.1772 83.0702 87.2402 83.0329 87.2976C82.9956 87.355 82.9536 87.4106 82.9068 87.4568C82.8608 87.5024 82.8033 87.5457 82.734 87.5678C82.2853 87.7108 81.6283 88.0596 81.2145 88.3074C81.1391 88.3519 81.0531 88.3413 81.0009 88.3299C80.941 88.3167 80.8763 88.2917 80.8134 88.2626C80.7245 88.2216 80.6266 88.1668 80.5302 88.1083L80.8414 88.5818L78.6166 90.3966C78.2224 90.7183 77.8318 90.624 77.5834 90.564C77.5507 90.5561 77.5205 90.5488 77.4931 90.5432C77.3577 90.5151 77.3339 90.5326 77.3215 90.5463C77.3091 90.5599 77.288 90.5941 77.271 90.6741C77.2543 90.7532 77.244 90.8654 77.244 91.0228C77.244 91.3088 77.2965 91.5479 77.3541 91.7505C77.3725 91.8152 77.3902 91.8726 77.4074 91.9281C77.4182 91.9629 77.4288 91.9969 77.4391 92.0316C77.4643 92.1161 77.4872 92.2013 77.4959 92.2806C77.5046 92.3609 77.5006 92.4492 77.4583 92.5323C77.415 92.6174 77.3421 92.6767 77.2524 92.7182C77.0844 92.796 76.8168 92.8289 76.4268 92.8403L76.4258 92.8403C76.4034 92.8408 76.3812 92.8373 76.3672 92.8348C76.3504 92.8318 76.3317 92.8276 76.3121 92.8229C76.292 92.8181 76.2694 92.8122 76.2449 92.8056C76.253 92.8125 76.2609 92.8198 76.2683 92.8274C76.2791 92.8384 76.3061 92.8669 76.3191 92.9088C76.3192 92.9092 76.3193 92.9096 76.3194 92.91L76.1757 92.9531L76.3191 92.9088C76.3191 92.9091 76.319 92.9086 76.3191 92.9088C76.5462 93.6343 76.4915 94.6253 76.1862 95.4357C75.8885 96.2256 75.3264 96.9025 74.4942 96.9286C74.506 96.9197 74.5182 96.9108 74.5307 96.9019L74.4442 96.7794V96.9294C74.4609 96.9294 74.4776 96.9291 74.4942 96.9286C74.3176 97.0621 74.2257 97.1994 74.1887 97.332C74.1493 97.4734 74.1666 97.6294 74.2427 97.8001C74.3982 98.1489 74.7848 98.5258 75.3063 98.8643C75.8229 99.1997 76.4521 99.4847 77.065 99.6586C77.64 99.8218 78.1853 99.8828 78.6047 99.8085C78.5905 99.823 78.5818 99.8362 78.579 99.8403C78.5696 99.8541 78.5608 99.8695 78.5533 99.8835C78.5363 99.915 78.5137 99.9623 78.4896 100.013C78.4743 100.045 78.4584 100.078 78.443 100.109C78.4392 100.117 78.4354 100.124 78.4315 100.132C78.5467 100.123 78.6572 100.107 78.7616 100.082L78.7923 100.075C78.7843 100.092 78.7756 100.11 78.7661 100.13C78.7505 100.163 78.7327 100.2 78.7119 100.242C78.6831 100.3 78.6499 100.365 78.6137 100.425C78.863 100.46 79.073 100.534 79.2494 100.641C79.501 100.794 79.6732 101.01 79.7935 101.251C80.0051 101.677 80.063 102.204 80.1125 102.654C80.118 102.705 80.1235 102.755 80.1291 102.804C80.1574 103.05 80.1876 103.264 80.2409 103.431C80.2945 103.6 80.3628 103.694 80.4473 103.738C80.5308 103.782 80.6694 103.798 80.9124 103.714C81.1544 103.63 81.4768 103.456 81.9062 103.158C81.9863 103.102 82.1015 103.053 82.2338 103.008C82.3691 102.962 82.5339 102.917 82.7211 102.872C83.0956 102.781 83.569 102.69 84.0933 102.596C84.5238 102.519 84.9877 102.441 85.4617 102.361C86.1484 102.246 86.8563 102.127 87.5149 102.003C87.6845 101.971 87.8236 102.045 87.9255 102.139C88.0254 102.231 88.1061 102.356 88.1703 102.468C88.1825 102.489 88.1943 102.51 88.2057 102.531C88.2076 102.535 88.2096 102.538 88.2115 102.541C88.2177 102.627 88.2219 102.705 88.2211 102.769C88.2205 102.817 88.2172 102.847 88.2133 102.863C88.2114 102.871 88.2111 102.868 88.2159 102.86C88.2211 102.852 88.2371 102.83 88.2696 102.818L88.3218 102.959L88.2715 102.817C88.3277 102.797 88.3664 102.823 88.3764 102.832C88.3786 102.834 88.3793 102.835 88.3789 102.834C88.3786 102.834 88.3777 102.833 88.3764 102.832C88.3766 102.832 88.3762 102.832 88.3764 102.832C88.3695 102.825 88.3548 102.805 88.3323 102.766C88.311 102.729 88.2877 102.685 88.2601 102.633C88.2449 102.604 88.2287 102.573 88.2115 102.541C88.2086 102.501 88.2053 102.46 88.2019 102.417C88.1916 102.288 88.18 102.149 88.1801 102.039C88.1801 101.984 88.1829 101.928 88.193 101.88C88.198 101.856 88.2063 101.826 88.2216 101.798C88.2368 101.77 88.2652 101.732 88.3149 101.711C89.2326 101.316 89.7959 100.804 89.7959 100.121C89.7959 99.9762 89.7923 99.818 89.7886 99.6525C89.78 99.2788 89.7706 98.8679 89.8001 98.486C89.8424 97.9373 89.967 97.3894 90.3329 97.0531C90.3331 97.0529 90.3328 97.0532 90.3329 97.0531M91.2417 97.4427C91.2202 97.3965 91.1954 97.3464 91.1691 97.2938C91.1154 97.1868 91.0551 97.0698 91.0151 96.9758C90.9953 96.9295 90.9767 96.8801 90.9672 96.8355C90.9625 96.8135 90.9581 96.7842 90.9609 96.7527C90.9637 96.7218 90.9754 96.6702 91.0213 96.63C91.1713 96.4998 91.2328 96.3596 91.2413 96.2114C91.2502 96.0564 91.2024 95.8786 91.1068 95.6796C90.9433 95.3389 90.6636 94.9806 90.3878 94.627C90.3379 94.5631 90.2881 94.4993 90.2392 94.4358C90.0828 94.233 89.935 94.0326 89.8296 93.847C89.727 93.6664 89.649 93.4735 89.6669 93.2921C89.687 93.089 89.8205 92.9426 90.0384 92.8539C90.0609 92.8447 90.0846 92.836 90.1094 92.8278M78.8264 100.01C78.8219 100.016 78.8104 100.029 78.792 100.039C78.7845 100.044 78.7717 100.05 78.755 100.054C78.7327 100.06 78.7034 100.062 78.6707 100.05C78.616 100.031 78.5937 99.988 78.5871 99.9729C78.5752 99.9456 78.5774 99.9248 78.5774 99.9364H78.7274L78.6932 99.7904C78.6644 99.7971 78.6349 99.8032 78.6047 99.8085C78.6142 99.7989 78.6262 99.7887 78.6405 99.7803C78.6618 99.7679 78.7115 99.7463 78.7714 99.7676C78.8289 99.7881 78.8535 99.8334 78.862 99.8528C78.8774 99.8881 78.8774 99.9238 78.8774 99.9359V100.055L78.7923 100.075C78.8014 100.057 78.8097 100.04 78.8173 100.026C78.8195 100.022 78.8213 100.019 78.8228 100.016C78.8244 100.013 78.8256 100.011 78.8264 100.01ZM78.8271 100.009C78.8292 100.006 78.8289 100.007 78.8264 100.01C78.8267 100.01 78.827 100.009 78.8271 100.009ZM90.5356 97.2743C90.5193 97.2893 90.5035 97.3049 90.4883 97.3212C90.473 97.3139 90.4612 97.3091 90.4527 97.3063C90.4442 97.3035 90.4469 97.3055 90.457 97.3057C90.4663 97.3059 90.502 97.3047 90.5356 97.2743ZM90.5356 97.2743C90.5354 97.2745 90.5358 97.2741 90.5356 97.2743ZM88.4337 101.986C88.4668 101.972 88.4814 101.948 88.4852 101.941C88.4891 101.934 88.4885 101.932 88.4866 101.941C88.4853 101.947 88.4842 101.955 88.4832 101.965C88.4667 101.972 88.4502 101.979 88.4337 101.986ZM88.4337 101.986C88.4336 101.986 88.4337 101.986 88.4337 101.986ZM82.0772 103.404C82.0771 103.404 82.0772 103.404 82.0772 103.404ZM76.0326 92.9979C76.038 93.0151 76.0455 93.0262 76.0483 93.0303C76.0502 93.0329 76.0517 93.0347 76.0525 93.0357L76.0496 93.0333C76.0475 93.0315 76.0447 93.0293 76.0414 93.0267C76.0385 93.017 76.0356 93.0075 76.0326 92.9979ZM76.0525 93.0357C76.0533 93.0364 76.0539 93.0372 76.0539 93.0372L76.0525 93.0357ZM76.0326 92.9979C76.0324 92.9974 76.0322 92.9968 76.0321 92.9962ZM76.4192 92.5404C76.421 92.5404 76.4229 92.5403 76.4248 92.5402C76.4266 92.5405 76.4274 92.5406 76.4274 92.5406M80.442 88.5204L80.5469 88.4348L80.6417 88.5511L80.5163 88.6335L80.442 88.5204ZM81.177 105.055L81.5042 105.355C81.5728 105.368 81.6325 105.397 81.6694 105.414C81.7331 105.443 81.7578 105.452 81.7747 105.452H81.9247V105.601C81.9413 105.626 81.9527 105.656 81.9527 105.692C81.9527 105.715 81.9473 105.743 81.9317 105.77C82.0579 105.886 82.2141 106.005 82.379 106.131C82.4079 106.153 82.437 106.175 82.4664 106.198C82.5998 106.3 82.7344 106.405 82.8503 106.512C82.9454 106.6 83.0335 106.694 83.0993 106.794C83.4545 106.869 83.8443 107.102 84.1946 107.326C84.2659 107.372 84.3356 107.417 84.4037 107.461C84.52 107.537 84.632 107.61 84.7407 107.677C84.9128 107.783 85.0634 107.866 85.1889 107.912L85.2873 107.948V108.053C85.2874 108.053 85.2878 108.058 85.2935 108.072C85.3002 108.089 85.3099 108.107 85.3247 108.134L85.3293 108.142C85.3404 108.162 85.3558 108.189 85.3694 108.222C85.3895 108.228 85.4114 108.237 85.4323 108.251C85.4562 108.268 85.4747 108.289 85.4876 108.312H85.8583L85.5067 108.635C85.5057 108.641 85.5045 108.648 85.5031 108.655C85.4971 108.683 85.4853 108.718 85.4594 108.749C85.4408 108.771 85.4197 108.786 85.3993 108.796V108.918H85.2493C85.2012 108.918 85.1196 108.919 85.0515 108.898C85.0139 108.887 84.9672 108.865 84.9302 108.821C84.9284 108.819 84.9267 108.817 84.925 108.815H84.5847L84.5487 108.717C84.5444 108.705 84.5277 108.675 84.4861 108.628C84.4467 108.584 84.3927 108.532 84.3261 108.475C84.1929 108.361 84.0172 108.235 83.8261 108.117C83.6351 107.999 83.4321 107.892 83.2451 107.814C83.0543 107.735 82.8943 107.693 82.7844 107.693H82.726L82.5442 107.526L82.5316 107.492C82.5175 107.453 82.4795 107.404 82.4045 107.343C82.3312 107.283 82.2379 107.224 82.1325 107.16C82.1153 107.149 82.0978 107.139 82.0801 107.128C81.9923 107.075 81.8989 107.018 81.8146 106.96C81.7351 106.905 81.6558 106.842 81.591 106.771C81.5366 106.768 81.4914 106.762 81.4539 106.749C81.4254 106.74 81.3971 106.726 81.3719 106.705C81.3578 106.694 81.347 106.682 81.3384 106.67C81.335 106.67 81.3312 106.67 81.327 106.67H81.2686L81.0651 106.483V106.417C81.0651 106.417 81.065 106.414 81.0633 106.406C81.0617 106.398 81.059 106.389 81.0549 106.377C81.0467 106.355 81.0344 106.33 81.0199 106.308C81.0049 106.285 80.9907 106.27 80.9806 106.262C80.98 106.262 80.9795 106.261 80.979 106.261H80.8412V105.449H81.1172C81.1196 105.448 81.1217 105.447 81.1234 105.446C81.1742 105.415 81.177 105.404 81.177 105.396V105.055ZM81.327 105.607V105.6C81.3269 105.602 81.3272 105.605 81.327 105.607ZM81.368 105.637C81.354 105.65 81.3399 105.661 81.327 105.671V105.749C81.3249 105.749 81.3227 105.749 81.3206 105.749H81.1412V106.009C81.1502 106.014 81.1585 106.021 81.1662 106.027C81.2085 106.06 81.2433 106.102 81.2703 106.143C81.3079 106.2 81.3418 106.273 81.3568 106.344L81.3883 106.373C81.4288 106.377 81.4693 106.386 81.505 106.408C81.5324 106.425 81.5531 106.449 81.5668 106.468C81.5844 106.47 81.6144 106.473 81.6628 106.473H81.7385L81.7834 106.534C81.8253 106.59 81.8937 106.649 81.9859 106.713C82.0617 106.766 82.1452 106.817 82.233 106.87C82.2513 106.881 82.2698 106.892 82.2885 106.904C82.3932 106.967 82.5029 107.036 82.5941 107.11C82.6737 107.175 82.7522 107.255 82.798 107.352L82.8455 107.396C83.0021 107.408 83.1821 107.463 83.3599 107.537C83.565 107.622 83.7824 107.738 83.9837 107.862C84.185 107.986 84.3736 108.121 84.5207 108.246C84.5942 108.309 84.6593 108.371 84.711 108.43C84.7348 108.457 84.758 108.485 84.7782 108.515H85.1754V108.559C85.1871 108.549 85.1993 108.542 85.2112 108.536V108.509H85.0993V108.359C85.0992 108.359 85.0989 108.353 85.0931 108.339C85.0864 108.323 85.0767 108.305 85.0619 108.278L85.0573 108.27C85.0433 108.245 85.0223 108.207 85.007 108.162C84.873 108.104 84.7291 108.023 84.5833 107.933C84.4719 107.864 84.3538 107.787 84.2349 107.71C84.1674 107.666 84.0997 107.622 84.0327 107.579C83.6496 107.333 83.2837 107.123 82.9834 107.077L82.9101 107.066L82.8744 107.001C82.8299 106.92 82.7526 106.831 82.6468 106.733C82.5419 106.636 82.4171 106.538 82.2841 106.436C82.2551 106.414 82.2256 106.391 82.1959 106.369C81.9603 106.19 81.7061 105.996 81.5446 105.8L81.4208 105.649H81.3805L81.368 105.637ZM85.3052 108.816C85.305 108.816 85.3054 108.816 85.3052 108.816ZM98.0661 109.53V109.237L97.6761 109.596C97.6605 109.594 97.6461 109.594 97.6341 109.594C97.58 109.597 97.5076 109.615 97.4245 109.641L96.4659 109.934H97.0945V109.939C97.0948 109.939 97.0942 109.939 97.0945 109.939C97.0737 109.94 97.0496 109.94 97.0207 109.94H96.8707V110.09C96.8707 110.142 96.8406 110.21 96.7709 110.312C96.757 110.332 96.7407 110.355 96.7232 110.379C96.585 110.508 96.4413 110.64 96.2932 110.77C95.9442 111.075 95.5931 111.343 95.2773 111.487L95.1893 111.527V111.623C95.1893 111.744 95.221 111.944 95.3008 112.119C95.3691 112.269 95.494 112.442 95.7001 112.48C95.8182 112.643 96.0147 112.766 96.2309 112.862C96.4826 112.973 96.7884 113.059 97.1021 113.124C97.7298 113.254 98.4128 113.306 98.8139 113.306H98.8723L99.0159 113.174C99.019 113.171 99.0221 113.169 99.0254 113.166L99.0273 113.164L98.8318 112.951C98.8325 112.951 98.8331 112.951 98.8338 112.95C98.8462 112.946 98.8835 112.936 98.928 112.952C98.9823 112.972 99.0093 113.016 99.0194 113.048C99.0278 113.075 99.0261 113.097 99.0255 113.104C99.0247 113.113 99.0232 113.12 99.0225 113.123C99.0218 113.126 99.0211 113.128 99.0211 113.128C99.0211 113.128 99.022 113.125 99.0247 113.118L99.0251 113.117C99.0375 113.083 99.0629 113.013 99.0723 112.921C99.1498 112.853 99.2536 112.769 99.3721 112.673L99.3742 112.671C99.5152 112.557 99.6741 112.429 99.8228 112.3C99.9715 112.171 100.115 112.038 100.221 111.915C100.275 111.853 100.323 111.791 100.357 111.73C100.391 111.671 100.421 111.599 100.421 111.523V111.457L100.218 111.27H100.165C100.163 111.269 100.157 111.268 100.145 111.264C100.134 111.261 100.122 111.256 100.107 111.25C100.095 111.245 100.082 111.24 100.068 111.233C100.005 111.206 99.9289 111.167 99.8556 111.124C99.7817 111.081 99.7148 111.038 99.6682 111.001C99.654 110.99 99.6433 110.98 99.6355 110.973V110.945L99.432 110.758H99.3736C99.3096 110.758 99.2597 110.731 99.172 110.678L99.1641 110.673C99.109 110.639 99.0372 110.595 98.9473 110.571C98.9247 110.48 98.8812 110.399 98.8318 110.328C98.7597 110.224 98.6662 110.129 98.5822 110.047C98.5693 110.034 98.5567 110.022 98.5444 110.01C98.4723 109.939 98.41 109.878 98.3619 109.818C98.304 109.747 98.29 109.705 98.29 109.682V109.532H98.14C98.1293 109.532 98.1194 109.532 98.1102 109.531C98.0942 109.531 98.0793 109.531 98.0661 109.53C98.0664 109.53 98.0659 109.53 98.0661 109.53ZM98.7463 113.006C98.759 112.97 98.7758 112.918 98.7758 112.85V112.784L98.8248 112.739C98.9122 112.659 99.0413 112.555 99.1806 112.442L99.1833 112.44C99.3255 112.325 99.4814 112.199 99.6262 112.073C99.7719 111.947 99.9022 111.825 99.9951 111.718C100.042 111.664 100.076 111.618 100.097 111.581C100.099 111.577 100.101 111.574 100.102 111.571L100.091 111.561C100.076 111.557 100.063 111.553 100.051 111.549C100.019 111.538 99.983 111.524 99.9461 111.508C99.872 111.475 99.7865 111.431 99.7053 111.384C99.6248 111.337 99.5442 111.285 99.4819 111.236C99.4629 111.221 99.444 111.205 99.4266 111.188C99.4157 111.177 99.4053 111.167 99.3959 111.156C99.3836 111.141 99.3701 111.123 99.359 111.102C99.3579 111.1 99.3567 111.098 99.3555 111.095L99.3109 111.054C99.1872 111.039 99.0922 110.98 99.0234 110.938L99.0154 110.933C98.9277 110.88 98.8779 110.853 98.8139 110.853H98.6639V110.703C98.6639 110.643 98.6393 110.577 98.5854 110.499C98.5311 110.421 98.4561 110.344 98.3717 110.26C98.3602 110.249 98.3484 110.238 98.3365 110.226C98.2654 110.156 98.1886 110.081 98.1286 110.007C98.0874 109.956 98.0456 109.896 98.0188 109.827C97.993 109.824 97.9667 109.82 97.9422 109.812C97.9293 109.808 97.9154 109.803 97.9011 109.796L97.8052 109.884C97.8021 109.887 97.7989 109.89 97.7956 109.893L97.7937 109.895L97.7861 109.886C97.7793 109.897 97.7732 109.904 97.7709 109.907C97.7628 109.917 97.7537 109.926 97.745 109.935C97.722 109.958 97.6863 109.992 97.6397 110.034C97.6173 110.055 97.5936 110.077 97.5692 110.099L97.5068 110.03C97.4855 110.04 97.4627 110.051 97.4385 110.063L97.4679 110.093L96.5348 111.083V110.957C96.5201 110.97 96.5053 110.983 96.4906 110.996C96.1692 111.277 95.8258 111.546 95.4961 111.714C95.507 111.797 95.5315 111.902 95.5738 111.995C95.6363 112.132 95.71 112.188 95.7871 112.188H95.8759L95.9186 112.266C95.9781 112.375 96.1218 112.485 96.3522 112.587C96.577 112.687 96.86 112.767 97.1631 112.83C97.7347 112.948 98.3566 113 98.7463 113.006ZM88.8738 110.954V111.584C89.0753 111.606 89.2756 111.667 89.4695 111.747C89.7116 111.846 89.9534 111.978 90.1838 112.105L90.2281 112.13C90.4453 112.25 90.6514 112.364 90.8491 112.45C91.0157 112.523 91.1677 112.572 91.3057 112.59C91.3191 112.561 91.3352 112.531 91.3529 112.5C91.4004 112.418 91.4665 112.322 91.5431 112.219C91.6968 112.012 91.9027 111.764 92.1129 111.515C92.1908 111.422 92.2693 111.33 92.3462 111.24C92.4781 111.085 92.6054 110.935 92.7179 110.799C92.8456 110.646 92.9475 110.517 93.0133 110.425L92.9266 110.346C92.2297 110.354 91.4537 110.499 90.7158 110.649C90.6457 110.663 90.5758 110.677 90.5063 110.691C89.9032 110.814 89.3286 110.931 88.8738 110.954ZM90.6563 110.355C91.4115 110.202 92.2383 110.046 92.9842 110.046H93.0421L93.3964 110.367L93.3396 110.471C93.2753 110.588 93.1246 110.779 92.9489 110.991C92.8352 111.128 92.7055 111.281 92.5725 111.437C92.4959 111.527 92.4183 111.618 92.3421 111.708C92.1319 111.957 91.9314 112.2 91.7839 112.398C91.7099 112.498 91.6516 112.583 91.6124 112.65C91.6023 112.668 91.594 112.683 91.5871 112.697C91.5807 112.71 91.5756 112.721 91.5717 112.731C91.5669 112.743 91.5653 112.749 91.5648 112.751V112.897H91.4148C91.1879 112.897 90.9552 112.824 90.729 112.725C90.518 112.633 90.3002 112.512 90.0866 112.394L90.0388 112.368C89.8069 112.24 89.5794 112.116 89.3555 112.024C89.1316 111.932 88.9208 111.876 88.7238 111.876H88.5738V110.658H88.7238C89.1663 110.658 89.771 110.535 90.4542 110.396C90.5208 110.382 90.5883 110.368 90.6563 110.355ZM84.967 110.452H86.0935L86.2668 110.611L86.3538 110.771C86.407 110.782 86.458 110.801 86.5034 110.821C86.5773 110.854 86.6506 110.896 86.7148 110.935C86.7158 110.936 86.7169 110.937 86.7179 110.937C86.7485 110.938 86.7724 110.947 86.7807 110.95C86.7939 110.955 86.8082 110.962 86.8227 110.969C86.8407 110.979 86.8594 110.99 86.8782 111.001C86.9146 111.024 86.9606 111.054 87.0175 111.093L87.0461 111.112C87.0465 111.112 87.047 111.112 87.0474 111.111L87.0965 111.067H87.545L87.302 111.287L87.418 111.367H87.2147L86.8931 111.659L86.8887 111.651C86.8784 111.659 86.8681 111.668 86.8578 111.676C86.7173 111.792 86.5645 111.905 86.4335 111.965L86.4037 111.979H84.9873V111.834C84.9869 111.832 84.986 111.828 84.9838 111.82C84.9795 111.806 84.9724 111.786 84.9623 111.762C84.9421 111.714 84.9132 111.655 84.8799 111.595C84.8468 111.535 84.8107 111.475 84.7771 111.425C84.7416 111.373 84.7146 111.34 84.7001 111.327L84.6515 111.283V110.872L84.7936 110.611L84.967 110.452ZM86.6042 111.219C86.6118 111.23 86.6207 111.243 86.6304 111.256C86.6534 111.286 86.6805 111.321 86.7036 111.351C86.7138 111.364 86.7237 111.377 86.7331 111.39C86.7113 111.408 86.6894 111.427 86.6675 111.444C86.5417 111.548 86.4258 111.632 86.3362 111.679H85.2521C85.2479 111.668 85.2435 111.657 85.2389 111.646C85.2136 111.586 85.1796 111.517 85.1429 111.451C85.13 111.427 85.1166 111.403 85.1029 111.38C85.0775 111.337 85.0512 111.295 85.0254 111.257C85.0021 111.223 84.977 111.188 84.9515 111.158V110.949L85.0333 110.799L85.0837 110.752H85.9763L86.0272 110.799L86.1698 111.061H86.259C86.284 111.061 86.3243 111.07 86.3819 111.096C86.4375 111.12 86.4973 111.154 86.5592 111.192C86.5738 111.201 86.5889 111.21 86.6042 111.219ZM85.8828 113.413H86.0328C86.4954 113.413 87.0114 113.491 87.4994 113.568L87.5413 113.574C88.0203 113.649 88.4679 113.719 88.8357 113.719H88.9857V113.82C88.986 113.82 88.9855 113.82 88.9857 113.82C89.0066 113.822 89.0306 113.822 89.0596 113.822H89.2096V113.923C89.2099 113.923 89.2093 113.923 89.2096 113.923C89.2304 113.924 89.2545 113.924 89.2835 113.924H89.4335V114.074C89.4335 114.148 89.4523 114.202 89.4803 114.279C89.4916 114.309 89.5042 114.344 89.5154 114.382C89.5457 114.351 89.5829 114.315 89.6276 114.274L89.935 113.967L89.8824 114.399C89.8299 114.829 89.6825 115.301 89.5419 115.751C89.5271 115.798 89.5124 115.846 89.4978 115.892C89.342 116.395 89.2096 116.857 89.2096 117.238V117.388H89.0596C88.5215 117.388 87.7405 117.148 87.0721 116.811C86.9576 116.753 86.8456 116.692 86.7378 116.629C86.7083 116.621 86.6782 116.611 86.6493 116.599C86.491 116.534 86.2541 116.387 86.0306 116.208C85.8078 116.03 85.5796 115.804 85.4535 115.574L85.4351 115.541V115.506C85.4348 115.505 85.4339 115.498 85.4303 115.485C85.4255 115.467 85.4178 115.443 85.4075 115.415C85.3868 115.358 85.3576 115.29 85.3249 115.224C85.2919 115.158 85.2579 115.1 85.2286 115.061C85.2222 115.052 85.2166 115.045 85.2121 115.04H85.0993V114.69C85.0987 114.689 85.0981 114.689 85.0975 114.688C85.0508 114.655 85.0248 114.611 85.0104 114.571C84.987 114.507 84.9872 114.432 84.9873 114.389L84.9873 114.381V114.231H85.1176C85.1268 114.225 85.1403 114.215 85.1577 114.2C85.1967 114.167 85.2433 114.12 85.289 114.066C85.3344 114.013 85.3753 113.958 85.4039 113.912C85.4183 113.889 85.428 113.871 85.4335 113.859C85.4341 113.858 85.4346 113.857 85.4351 113.855V113.803L85.6386 113.616H85.697C85.7049 113.616 85.7243 113.614 85.7529 113.605C85.7801 113.597 85.8091 113.585 85.8349 113.57C85.8573 113.558 85.8732 113.547 85.8828 113.538V113.413ZM86.9951 116.43C87.064 116.469 87.1348 116.507 87.2071 116.543C87.7928 116.838 88.4469 117.045 88.9155 117.082C88.9446 116.685 89.0762 116.239 89.2113 115.803C89.2257 115.757 89.2401 115.711 89.2545 115.665C89.3441 115.378 89.4323 115.095 89.4976 114.825C89.4779 114.819 89.4566 114.81 89.4362 114.796C89.4123 114.78 89.3939 114.759 89.3809 114.736H89.2454V114.586C89.2454 114.513 89.2266 114.458 89.1986 114.382L89.1969 114.377C89.1805 114.333 89.1614 114.28 89.1485 114.218C89.1272 114.215 89.1058 114.211 89.0857 114.205C89.0481 114.194 89.0014 114.172 88.9644 114.128C88.9619 114.125 88.9594 114.122 88.9571 114.119C88.9254 114.116 88.8923 114.112 88.8618 114.102C88.8242 114.091 88.7775 114.069 88.7405 114.025C88.7383 114.023 88.7362 114.02 88.7341 114.017C88.3643 114.006 87.9361 113.939 87.5083 113.873L87.4531 113.864C86.996 113.793 86.5388 113.723 86.1276 113.714C86.1198 113.724 86.1119 113.733 86.1045 113.741C86.0677 113.779 86.0221 113.81 85.9789 113.834C85.915 113.869 85.8356 113.899 85.7614 113.911L85.7208 113.948C85.7163 113.961 85.7115 113.972 85.7074 113.982C85.6941 114.011 85.6766 114.042 85.6578 114.072C85.6199 114.132 85.5699 114.199 85.5174 114.26C85.4651 114.322 85.4068 114.383 85.3514 114.43C85.3497 114.431 85.348 114.432 85.3463 114.434H85.3993V114.803C85.4258 114.827 85.4492 114.855 85.4693 114.882C85.5135 114.941 85.5565 115.017 85.5934 115.091C85.6077 115.119 85.6215 115.148 85.6344 115.177L85.9007 115.384C86.4608 115.817 86.768 116.094 86.8993 116.254C86.932 116.294 86.9614 116.336 86.979 116.377C86.9833 116.387 86.9908 116.406 86.9951 116.43Z" fill="black"/>
</svg>
