<svg width="718" height="311" viewBox="0 0 718 311" fill="none" xmlns="http://www.w3.org/2000/svg">
<path d="M435.82 199.709L520.445 162.848C537.878 158.506 569.867 158.038 558.362 190.909C543.98 231.998 539.622 347.749 569.693 297.64C593.75 257.553 677.922 151.657 717 103.72C673.273 46.2625 567.427 -44.5007 493.86 52.1085C445.345 115.82 443.897 165.585 435.82 199.709Z" fill="#080808"/>
<path d="M332.607 2L177.456 162.848C174.824 164.348 171.697 166.139 168.253 168.123C181.839 210.653 182.205 264.417 196.632 273.087C211.621 282.096 229.805 269.98 294.06 259.952L332.607 2Z" fill="#080808"/>
<path d="M149.563 131.781C116.005 93.1975 105.545 52.1085 92.4708 52.1085C79.3962 52.1085 -36.0959 62.6313 13.1517 131.781C62.3992 200.931 99.4439 210.953 113.826 200.931C123.487 194.199 150.213 178.516 168.253 168.123C163.78 154.121 157.875 141.337 149.563 131.781Z" fill="#080808"/>
<path d="M359.628 252.543C416.041 248.282 428.588 230.266 435.82 199.709L299.372 259.144C316.221 256.646 336.077 254.321 359.628 252.543Z" fill="#080808"/>
<path d="M435.82 199.709L520.445 162.848C537.878 158.506 569.867 158.038 558.362 190.909C543.98 231.998 539.622 347.749 569.693 297.64C593.75 257.553 677.922 151.657 717 103.72C673.273 46.2625 567.427 -44.5007 493.86 52.1085C445.345 115.82 443.897 165.585 435.82 199.709ZM435.82 199.709C428.588 230.266 416.041 248.282 359.628 252.543C336.077 254.321 316.221 256.646 299.372 259.144M435.82 199.709L299.372 259.144M168.253 168.123C171.697 166.139 174.824 164.348 177.456 162.848L332.607 2L294.06 259.952M168.253 168.123C181.839 210.653 182.205 264.417 196.632 273.087C211.621 282.096 229.805 269.98 294.06 259.952M168.253 168.123C150.213 178.516 123.487 194.199 113.826 200.931C99.4439 210.953 62.3992 200.931 13.1517 131.781C-36.0959 62.6313 79.3962 52.1085 92.4708 52.1085C105.545 52.1085 116.005 93.1975 149.563 131.781C157.875 141.337 163.78 154.121 168.253 168.123ZM294.06 259.952L293.819 261.562L299.372 259.144M294.06 259.952C295.797 259.681 297.567 259.411 299.372 259.144" stroke="black"/>
<rect x="353.5" y="108.5" width="15" height="23" fill="#080808" stroke="black"/>
<rect x="157.5" y="54.5" width="32" height="33" fill="#080808" stroke="black"/>
</svg>
