<svg width="26" height="29" viewBox="0 0 26 29" fill="none" xmlns="http://www.w3.org/2000/svg" style="opacity: 1; visibility: visible;">
    <path d="M16.234 10.717L10.1904 0.908765C9.6654 0.0535713 8.59748 -0.253121 7.79803 0.230507C7.00455 0.708238 6.78381 1.78755 7.31478 2.64275L12.72 11.4129C12.893 11.696 12.8214 12.0558 12.5589 12.215C12.2905 12.3743 11.9325 12.274 11.7595 11.9909L5.72185 2.18861C5.19684 1.33931 4.12892 1.02672 3.32947 1.50445C2.53599 1.98218 2.32121 3.0674 2.84622 3.9167L8.89578 13.7249C9.0688 14.008 8.99721 14.3678 8.72874 14.527C8.46623 14.6863 8.10827 14.586 7.93525 14.3029L3.16242 6.56486C2.63144 5.70966 1.56352 5.40887 0.770038 5.8807C-0.0234449 6.35843 -0.244188 7.43774 0.286789 8.29294L8.23952 21.1917L4.53461 19.499C3.37123 18.8915 2.05274 19.2512 1.56352 20.2952C1.08624 21.345 1.63511 22.6897 2.79253 23.2972C2.79253 23.2972 9.06283 26.5116 11.7476 27.8858C14.4323 29.2718 17.648 29.6728 21.687 27.237C28.3809 23.2028 25.553 17.2813 24.5268 15.6181L15.9417 1.68729C15.4167 0.837991 14.3428 0.531299 13.5493 1.00903C12.7558 1.48676 12.541 2.57197 13.066 3.42127L17.2065 10.1331C17.3795 10.4162 17.3079 10.776 17.0454 10.9352C16.771 11.1003 16.413 11.0001 16.234 10.717Z" fill="black"></path>
</svg>