<!-- <svg width="897" height="560" viewBox="0 0 897 560" fill="none" xmlns="http://www.w3.org/2000/svg">
<path fill-rule="evenodd" clip-rule="evenodd" d="M136 0H0V151H136V560H897V0H137.5H136ZM598.899 219.58C611.673 231.121 622.618 244.694 631.238 259.797H598.899V219.58ZM588.232 210.74V270.464H636.814C647.006 291.845 652.719 315.825 652.719 341.157C652.719 431.146 580.614 504.074 491.764 504.074C402.915 504.074 330.81 431.147 330.81 341.157C330.81 251.164 402.915 178.238 491.764 178.238C527.942 178.238 561.344 190.329 588.232 210.74ZM615.584 171.724C645.534 194.172 669.324 224.556 683.919 259.797H700.56V324.927H696.733C688.549 217.625 599.891 133.106 491.765 133.106C378.242 133.106 286.181 226.272 286.181 341.155C286.181 456.039 378.243 549.206 491.765 549.206C605.288 549.206 697.35 456.039 697.35 341.155C697.35 339.1 697.32 337.051 697.262 335.01H700.56V548.667H787.334V259.797H886.095V171.724H615.584ZM491.765 175.572C576.706 175.572 646.549 241.106 654.61 324.927H652.719V335.01H655.276C655.349 337.05 655.386 339.099 655.386 341.156C655.386 432.589 582.117 506.74 491.765 506.74C401.413 506.74 328.144 432.589 328.144 341.156C328.144 249.722 401.413 175.572 491.765 175.572ZM11.3331 11.3333V140.266H146.758V548.667H278.042V140.266H413.467V11.3333H11.3331ZM888.593 388.805L878.089 383.592C874.282 389.578 870.72 393.932 867.463 396.596C864.204 399.289 860.216 401.437 855.557 403.07C850.899 404.702 846.088 405.505 841.155 405.505C830.925 405.505 822.338 402.096 815.366 395.307C808.424 388.518 804.801 379.81 804.588 369.154H891.821C891.699 356.693 888.137 346.296 881.103 337.96C871.238 326.158 858.024 320.229 841.491 320.229C825.444 320.229 812.626 326.015 803.066 337.53C795.514 346.582 791.739 356.923 791.739 368.495C791.739 380.813 796.184 391.841 805.106 401.609C814.026 411.377 826.389 416.246 842.221 416.246C849.346 416.246 855.74 415.215 861.403 413.182C867.036 411.148 872.121 408.169 876.658 404.244C881.164 400.32 885.153 395.193 888.593 388.805ZM870.812 344.005C873.978 347.728 876.414 352.741 878.089 359.015H805.836C808.394 350.621 812.17 344.319 817.163 340.137C823.983 334.38 832.174 331.487 841.673 331.487C847.458 331.487 852.939 332.632 858.176 334.924C863.413 337.215 867.615 340.252 870.812 344.005Z" fill="black"/>
<path fill-rule="evenodd" clip-rule="evenodd" d="M594 211.876C565.99 189.16 530.443 175.572 491.765 175.572C401.415 175.572 328.144 249.722 328.144 341.155C328.144 432.589 401.415 506.739 491.765 506.739C582.115 506.739 655.386 432.589 655.386 341.155C655.386 339.098 655.349 337.049 655.276 335.01H652.719V324.927H654.61C652.53 303.296 646.335 282.883 636.829 264.5H618.25H594V211.876ZM509.04 388.805L498.535 383.592C494.729 389.578 491.167 393.932 487.91 396.596C484.651 399.289 480.663 401.437 476.004 403.07C471.346 404.702 466.535 405.505 461.602 405.505C451.372 405.505 442.785 402.096 435.813 395.307C428.871 388.518 425.248 379.81 425.035 369.154H512.267C512.146 356.693 508.584 346.296 501.55 337.96C491.684 326.158 478.47 320.229 461.938 320.229C445.891 320.229 433.073 326.015 423.513 337.53C415.961 346.582 412.186 356.923 412.186 368.495C412.186 380.813 416.631 391.841 425.552 401.609C434.473 411.377 446.835 416.246 462.668 416.246C469.793 416.246 476.187 415.215 481.85 413.182C487.483 411.148 492.568 408.169 497.104 404.244C501.611 400.32 505.599 395.193 509.04 388.805ZM491.259 344.005C494.425 347.728 496.861 352.741 498.535 359.015H426.283C428.841 350.621 432.616 344.319 437.61 340.137C444.43 334.38 452.62 331.487 462.12 331.487C467.905 331.487 473.386 332.632 478.622 334.924C483.86 337.215 488.061 340.252 491.259 344.005ZM633.919 322.579V413.898H621.618V398.2C616.381 404.187 610.504 408.684 603.989 411.721C597.473 414.729 590.348 416.246 582.615 416.246C568.883 416.246 557.16 411.549 547.417 402.182C537.704 392.815 532.833 381.415 532.833 367.98C532.833 354.832 537.765 343.604 547.57 334.265C557.374 324.927 569.187 320.23 582.981 320.23C590.958 320.23 598.174 321.834 604.598 325.013C611.053 328.221 616.717 333.005 621.618 339.364V322.578L633.919 322.579ZM583.954 331.573C577.012 331.573 570.587 333.177 564.68 336.385C558.805 339.623 554.116 344.119 550.644 349.963C547.173 355.778 545.438 361.936 545.438 368.41C545.438 374.855 547.173 381.014 550.674 386.886C554.206 392.758 558.896 397.313 564.833 400.607C570.74 403.872 577.104 405.505 583.863 405.505C590.714 405.505 597.2 403.872 603.319 400.636C609.439 397.398 614.158 393.016 617.447 387.459C620.766 381.93 622.41 375.686 622.41 368.754C622.41 358.184 618.695 349.333 611.296 342.229C603.898 335.125 594.794 331.573 583.954 331.573ZM364.424 266H379.551V306.664H403.3V318.763H379.551V416.246H364.424V318.763H344V306.664H364.424V266Z" fill="black" fill-opacity="0.33"/>
<path d="M594 211.876H594.144V211.807L594.091 211.764L594 211.876ZM655.276 335.01L655.419 335.005L655.414 334.866H655.276V335.01ZM652.719 335.01H652.575V335.154H652.719V335.01ZM652.719 324.927V324.783H652.575V324.927H652.719ZM654.61 324.927V325.071H654.769L654.753 324.913L654.61 324.927ZM636.829 264.5L636.956 264.434L636.916 264.356H636.829V264.5ZM594 264.5H593.856V264.644H594V264.5ZM498.535 383.592L498.599 383.463L498.483 383.405L498.414 383.514L498.535 383.592ZM509.04 388.805L509.167 388.873L509.237 388.742L509.104 388.676L509.04 388.805ZM487.91 396.596L487.818 396.485L487.818 396.485L487.91 396.596ZM476.004 403.07L475.956 402.934L475.956 402.934L476.004 403.07ZM435.813 395.307L435.712 395.41L435.713 395.41L435.813 395.307ZM425.035 369.154V369.01H424.888L424.891 369.157L425.035 369.154ZM512.267 369.154V369.298H512.413L512.411 369.153L512.267 369.154ZM501.55 337.96L501.439 338.052L501.44 338.053L501.55 337.96ZM423.513 337.53L423.623 337.623L423.623 337.622L423.513 337.53ZM425.552 401.609L425.659 401.512L425.659 401.512L425.552 401.609ZM481.85 413.182L481.899 413.317L481.899 413.317L481.85 413.182ZM497.104 404.244L497.199 404.353L497.199 404.353L497.104 404.244ZM498.535 359.015V359.159H498.723L498.674 358.977L498.535 359.015ZM491.259 344.005L491.368 343.911L491.368 343.911L491.259 344.005ZM426.283 359.015L426.145 358.973L426.089 359.159H426.283V359.015ZM437.61 340.137L437.702 340.247L437.702 340.247L437.61 340.137ZM478.622 334.924L478.565 335.056L478.565 335.056L478.622 334.924ZM633.919 413.898V414.042H634.063V413.898H633.919ZM633.919 322.579H634.063V322.435L633.919 322.435L633.919 322.579ZM621.618 413.898H621.474V414.042H621.618V413.898ZM621.618 398.2H621.762V397.817L621.51 398.106L621.618 398.2ZM603.989 411.721L604.049 411.852L604.05 411.851L603.989 411.721ZM547.417 402.182L547.317 402.285L547.317 402.286L547.417 402.182ZM547.57 334.265L547.669 334.37L547.669 334.37L547.57 334.265ZM604.598 325.013L604.662 324.885L604.662 324.885L604.598 325.013ZM621.618 339.364L621.504 339.452L621.762 339.787V339.364H621.618ZM621.618 322.578L621.618 322.434L621.474 322.434V322.578H621.618ZM564.68 336.385L564.612 336.259L564.611 336.259L564.68 336.385ZM550.644 349.963L550.768 350.037L550.768 350.036L550.644 349.963ZM550.674 386.886L550.551 386.96L550.551 386.96L550.674 386.886ZM564.833 400.607L564.763 400.732L564.763 400.733L564.833 400.607ZM603.319 400.636L603.386 400.763L603.386 400.763L603.319 400.636ZM617.447 387.459L617.324 387.385L617.323 387.386L617.447 387.459ZM611.296 342.229L611.396 342.125L611.396 342.125L611.296 342.229ZM379.551 266H379.695V265.856H379.551V266ZM364.424 266V265.856H364.28V266H364.424ZM379.551 306.664H379.407V306.808H379.551V306.664ZM403.3 306.664H403.443V306.52H403.3V306.664ZM403.3 318.763V318.907H403.443V318.763H403.3ZM379.551 318.763V318.619H379.407V318.763H379.551ZM379.551 416.246V416.39H379.695V416.246H379.551ZM364.424 416.246H364.28V416.39H364.424V416.246ZM364.424 318.763H364.568V318.619H364.424V318.763ZM344 318.763H343.856V318.907H344V318.763ZM344 306.664V306.52H343.856V306.664H344ZM364.424 306.664V306.808H364.568V306.664H364.424ZM491.765 175.715C530.408 175.715 565.924 189.292 593.909 211.988L594.091 211.764C566.056 189.028 530.477 175.428 491.765 175.428V175.715ZM328.288 341.155C328.288 249.799 401.496 175.715 491.765 175.715V175.428C401.334 175.428 328 249.644 328 341.155H328.288ZM491.765 506.595C401.496 506.595 328.288 432.511 328.288 341.155H328C328 432.667 401.334 506.883 491.765 506.883V506.595ZM655.242 341.155C655.242 432.511 582.034 506.595 491.765 506.595V506.883C582.196 506.883 655.53 432.667 655.53 341.155H655.242ZM655.132 335.015C655.205 337.053 655.242 339.1 655.242 341.155H655.53C655.53 339.096 655.493 337.046 655.419 335.005L655.132 335.015ZM652.719 335.154H655.276V334.866H652.719V335.154ZM652.575 324.927V335.01H652.863V324.927H652.575ZM654.61 324.783H652.719V325.071H654.61V324.783ZM636.701 264.566C646.199 282.933 652.388 303.329 654.467 324.941L654.753 324.913C652.671 303.264 646.471 282.833 636.956 264.434L636.701 264.566ZM636.829 264.356H618.25V264.644H636.829V264.356ZM618.25 264.356H594V264.644H618.25V264.356ZM594.144 264.5V211.876H593.856V264.5H594.144ZM498.471 383.72L508.976 388.933L509.104 388.676L498.599 383.463L498.471 383.72ZM488.001 396.707C491.275 394.029 494.847 389.661 498.657 383.669L498.414 383.514C494.611 389.495 491.059 393.835 487.818 396.485L488.001 396.707ZM476.052 403.205C480.723 401.568 484.727 399.412 488.001 396.707L487.818 396.485C484.575 399.165 480.602 401.306 475.956 402.934L476.052 403.205ZM461.602 405.648C466.551 405.648 471.378 404.843 476.052 403.205L475.956 402.934C471.314 404.561 466.519 405.361 461.602 405.361V405.648ZM435.713 395.41C442.713 402.227 451.336 405.648 461.602 405.648V405.361C451.407 405.361 442.857 401.965 435.913 395.204L435.713 395.41ZM424.891 369.157C425.104 379.847 428.741 388.592 435.712 395.41L435.914 395.204C429.001 388.444 425.391 379.773 425.179 369.151L424.891 369.157ZM512.267 369.01H425.035V369.298H512.267V369.01ZM501.44 338.053C508.449 346.36 512.002 356.723 512.123 369.156L512.411 369.153C512.29 356.664 508.719 346.233 501.66 337.867L501.44 338.053ZM461.938 320.373C478.431 320.373 491.603 326.286 501.439 338.052L501.66 337.868C491.765 326.03 478.509 320.085 461.938 320.085V320.373ZM423.623 337.622C433.154 326.143 445.93 320.373 461.938 320.373V320.085C445.851 320.085 432.991 325.888 423.402 337.438L423.623 337.622ZM412.33 368.495C412.33 356.958 416.093 346.649 423.623 337.623L423.402 337.438C415.829 346.515 412.042 356.889 412.042 368.495H412.33ZM425.659 401.512C416.759 391.769 412.33 380.775 412.33 368.495H412.042C412.042 380.852 416.502 391.914 425.446 401.706L425.659 401.512ZM462.668 416.102C446.867 416.102 434.547 411.244 425.659 401.512L425.446 401.706C434.399 411.509 446.804 416.39 462.668 416.39V416.102ZM481.801 413.046C476.156 415.074 469.779 416.102 462.668 416.102V416.39C469.806 416.39 476.218 415.357 481.899 413.317L481.801 413.046ZM497.01 404.135C492.487 408.048 487.417 411.018 481.801 413.046L481.899 413.317C487.548 411.277 492.648 408.289 497.199 404.353L497.01 404.135ZM508.913 388.736C505.479 395.112 501.501 400.225 497.01 404.136L497.199 404.353C501.72 400.415 505.719 395.273 509.167 388.873L508.913 388.736ZM498.674 358.977C496.996 352.69 494.552 347.656 491.368 343.911L491.149 344.098C494.298 347.801 496.726 352.793 498.396 359.052L498.674 358.977ZM426.283 359.159H498.535V358.871H426.283V359.159ZM437.517 340.027C432.496 344.232 428.708 350.561 426.145 358.973L426.421 359.057C428.973 350.68 432.737 344.406 437.702 340.247L437.517 340.027ZM462.12 331.343C452.589 331.343 444.365 334.246 437.517 340.027L437.702 340.247C444.495 334.513 452.652 331.631 462.12 331.631V331.343ZM478.68 334.792C473.425 332.493 467.924 331.343 462.12 331.343V331.631C467.885 331.631 473.346 332.772 478.565 335.056L478.68 334.792ZM491.368 343.911C488.155 340.14 483.935 337.091 478.68 334.792L478.565 335.056C483.785 337.34 487.968 340.364 491.149 344.098L491.368 343.911ZM634.063 413.898V322.579H633.775V413.898H634.063ZM621.618 414.042H633.919V413.754H621.618V414.042ZM621.474 398.2V413.898H621.762V398.2H621.474ZM604.05 411.851C610.585 408.806 616.478 404.296 621.726 398.295L621.51 398.106C616.285 404.079 610.424 408.563 603.928 411.59L604.05 411.851ZM582.615 416.39C590.368 416.39 597.513 414.869 604.049 411.852L603.929 411.59C597.433 414.589 590.329 416.102 582.615 416.102V416.39ZM547.317 402.286C557.087 411.678 568.846 416.39 582.615 416.39V416.102C568.919 416.102 557.232 411.419 547.517 402.078L547.317 402.286ZM532.689 367.98C532.689 381.454 537.576 392.892 547.317 402.285L547.517 402.078C537.832 392.738 532.976 381.375 532.976 367.98H532.689ZM547.471 334.161C537.639 343.526 532.689 354.791 532.689 367.98H532.976C532.976 354.873 537.892 343.682 547.669 334.37L547.471 334.161ZM582.981 320.086C569.151 320.086 557.301 324.797 547.47 334.161L547.669 334.37C557.446 325.057 569.223 320.374 582.981 320.374V320.086ZM604.662 324.885C598.216 321.694 590.977 320.086 582.981 320.086V320.374C590.938 320.374 598.132 321.973 604.534 325.142L604.662 324.885ZM621.732 339.276C616.819 332.902 611.139 328.103 604.662 324.885L604.534 325.142C610.967 328.339 616.614 333.108 621.504 339.452L621.732 339.276ZM621.474 322.578V339.364H621.762V322.578H621.474ZM633.919 322.435L621.618 322.434L621.618 322.722L633.919 322.722L633.919 322.435ZM564.749 336.512C570.634 333.315 577.036 331.717 583.954 331.717V331.429C576.989 331.429 570.54 333.039 564.612 336.259L564.749 336.512ZM550.768 350.036C554.226 344.215 558.896 339.737 564.75 336.511L564.611 336.259C558.713 339.509 554.005 344.024 550.521 349.889L550.768 350.036ZM545.582 368.41C545.582 361.964 547.309 355.83 550.768 350.037L550.521 349.889C547.036 355.726 545.294 361.909 545.294 368.41H545.582ZM550.798 386.813C547.309 380.961 545.582 374.828 545.582 368.41H545.294C545.294 374.883 547.037 381.067 550.551 386.96L550.798 386.813ZM564.903 400.481C558.988 397.2 554.317 392.663 550.798 386.812L550.551 386.96C554.096 392.853 558.803 397.426 564.763 400.732L564.903 400.481ZM583.863 405.361C577.128 405.361 570.788 403.734 564.903 400.481L564.763 400.733C570.691 404.01 577.079 405.649 583.863 405.649V405.361ZM603.252 400.508C597.153 403.734 590.69 405.361 583.863 405.361V405.649C590.738 405.649 597.247 404.01 603.386 400.763L603.252 400.508ZM617.323 387.386C614.049 392.918 609.35 397.282 603.252 400.508L603.386 400.763C609.528 397.514 614.268 393.114 617.571 387.532L617.323 387.386ZM622.266 368.754C622.266 375.662 620.628 381.88 617.324 387.385L617.571 387.533C620.904 381.98 622.554 375.709 622.554 368.754H622.266ZM611.197 342.333C618.566 349.409 622.266 358.222 622.266 368.754H622.554C622.554 358.146 618.824 349.257 611.396 342.125L611.197 342.333ZM583.954 331.717C594.759 331.717 603.826 335.256 611.197 342.333L611.396 342.125C603.969 334.994 594.829 331.429 583.954 331.429V331.717ZM379.551 265.856H364.424V266.144H379.551V265.856ZM379.695 306.664V266H379.407V306.664H379.695ZM403.3 306.52H379.551V306.808H403.3V306.52ZM403.443 318.763V306.664H403.156V318.763H403.443ZM379.551 318.907H403.3V318.619H379.551V318.907ZM379.695 416.246V318.763H379.407V416.246H379.695ZM364.424 416.39H379.551V416.102H364.424V416.39ZM364.28 318.763V416.246H364.568V318.763H364.28ZM344 318.907H364.424V318.619H344V318.907ZM343.856 306.664V318.763H344.144V306.664H343.856ZM364.424 306.52H344V306.808H364.424V306.52ZM364.28 266V306.664H364.568V266H364.28Z" fill="black"/>
<path d="M498.535 383.592L509.04 388.805C505.599 395.193 501.61 400.32 497.104 404.244C492.567 408.169 487.483 411.148 481.85 413.182C476.187 415.215 469.792 416.246 462.668 416.246C446.835 416.246 434.473 411.377 425.552 401.609C416.631 391.841 412.186 380.813 412.186 368.495C412.186 356.923 415.961 346.582 423.512 337.53C433.073 326.015 445.89 320.229 461.937 320.229C478.47 320.229 491.684 326.158 501.55 337.96C508.584 346.296 512.146 356.693 512.267 369.154H425.035C425.247 379.81 428.871 388.518 435.813 395.307C442.785 402.096 451.372 405.505 461.602 405.505C466.535 405.505 471.346 404.702 476.004 403.07C480.663 401.437 484.651 399.289 487.909 396.596C491.167 393.932 494.729 389.578 498.535 383.592ZM498.535 359.015C496.861 352.741 494.425 347.728 491.259 344.005C488.061 340.252 483.86 337.215 478.622 334.924C473.386 332.632 467.904 331.487 462.119 331.487C452.62 331.487 444.43 334.38 437.609 340.137C432.616 344.319 428.841 350.621 426.283 359.015H498.535Z" stroke="black" stroke-width="2" stroke-miterlimit="22.9256"/>
<path d="M633.919 322.578V413.898H621.618V398.2C616.381 404.187 610.504 408.684 603.989 411.721C597.473 414.728 590.348 416.246 582.615 416.246C568.883 416.246 557.16 411.548 547.417 402.182C537.704 392.815 532.833 381.414 532.833 367.98C532.833 354.832 537.765 343.604 547.57 334.265C557.374 324.927 569.187 320.229 582.981 320.229C590.958 320.229 598.174 321.833 604.598 325.013C611.053 328.221 616.717 333.005 621.618 339.364V322.578L633.919 322.578ZM583.954 331.573C577.012 331.573 570.587 333.177 564.68 336.385C558.804 339.623 554.116 344.119 550.644 349.963C547.173 355.778 545.438 361.936 545.438 368.41C545.438 374.855 547.173 381.014 550.674 386.886C554.206 392.758 558.895 397.313 564.833 400.606C570.74 403.872 577.104 405.505 583.863 405.505C590.714 405.505 597.2 403.872 603.319 400.636C609.439 397.398 614.158 393.016 617.447 387.459C620.766 381.93 622.41 375.685 622.41 368.754C622.41 358.184 618.695 349.333 611.296 342.229C603.898 335.125 594.794 331.573 583.954 331.573Z" stroke="black" stroke-width="2" stroke-miterlimit="22.9256"/>
<path d="M669.74 291.041H682.344V324.927H702.135V335.01H682.344V416.247H669.74V335.01H652.719V324.927H669.74V291.041Z" stroke="black" stroke-width="2" stroke-miterlimit="22.9256"/>
<path d="M364.424 266H379.551V306.664H403.3V318.763H379.551V416.246H364.424V318.763H344V306.664H364.424V266Z" stroke="black" stroke-width="2" stroke-miterlimit="22.9256"/>
<path d="M722.366 324.927H735.124V338.276C738.929 333.034 742.949 329.109 747.15 326.503C751.383 323.896 755.767 322.578 760.365 322.578C763.806 322.578 767.49 323.638 771.418 325.7L764.902 335.611C762.284 334.523 760.091 334.007 758.295 334.007C754.154 334.007 750.135 335.611 746.268 338.82C742.401 342.057 739.447 347.041 737.438 353.801C735.885 359.014 735.125 369.527 735.125 385.367V416.246H722.367L722.366 324.927Z" stroke="black" stroke-width="2" stroke-miterlimit="22.9256"/>
<path d="M878.088 383.592L888.593 388.805C885.152 395.193 881.164 400.32 876.657 404.244C872.121 408.169 867.036 411.148 861.403 413.182C855.74 415.215 849.346 416.246 842.221 416.246C826.388 416.246 814.026 411.377 805.106 401.609C796.184 391.841 791.739 380.813 791.739 368.495C791.739 356.923 795.514 346.582 803.066 337.53C812.626 326.015 825.444 320.229 841.491 320.229C858.023 320.229 871.237 326.158 881.103 337.96C888.137 346.296 891.699 356.693 891.82 369.154H804.588C804.801 379.81 808.424 388.518 815.366 395.307C822.338 402.096 830.925 405.505 841.155 405.505C846.088 405.505 850.899 404.702 855.557 403.07C860.216 401.437 864.204 399.289 867.463 396.596C870.72 393.932 874.282 389.578 878.088 383.592ZM878.088 359.015C876.414 352.741 873.978 347.728 870.812 344.005C867.614 340.252 863.413 337.215 858.176 334.924C852.939 332.632 847.458 331.487 841.673 331.487C832.173 331.487 823.983 334.38 817.163 340.137C812.169 344.319 808.394 350.621 805.836 359.015H878.088Z" stroke="black" stroke-width="2" stroke-miterlimit="22.9256"/>
</svg> -->

<svg width="897" height="560" viewBox="0 0 897 560" fill="none" xmlns="http://www.w3.org/2000/svg">
<path fill-rule="evenodd" clip-rule="evenodd" d="M0 0H136H137.5H897V560H136V151H0V0ZM631.238 259.797C622.618 244.694 611.673 231.121 598.899 219.58V259.797H631.238ZM588.232 270.464V210.74C561.344 190.329 527.942 178.238 491.764 178.238C402.915 178.238 330.81 251.164 330.81 341.157C330.81 431.147 402.915 504.074 491.764 504.074C580.614 504.074 652.719 431.146 652.719 341.157C652.719 315.825 647.006 291.845 636.814 270.464H588.232ZM683.919 259.797C669.324 224.556 645.534 194.172 615.584 171.724H886.095V259.797H787.334V548.667H700.56V335.01H697.262C697.32 337.051 697.35 339.1 697.35 341.155C697.35 456.039 605.288 549.206 491.765 549.206C378.243 549.206 286.181 456.039 286.181 341.155C286.181 226.272 378.242 133.106 491.765 133.106C599.891 133.106 688.549 217.625 696.733 324.927H700.56V259.797H683.919ZM654.61 324.927C646.549 241.106 576.706 175.572 491.765 175.572C401.413 175.572 328.144 249.722 328.144 341.156C328.144 432.589 401.413 506.74 491.765 506.74C582.117 506.74 655.386 432.589 655.386 341.156C655.386 339.099 655.349 337.05 655.276 335.01H652.719V324.927H654.61ZM11.3331 140.266V11.3333H413.467V140.266H278.042V548.667H146.758V140.266H11.3331ZM878.089 383.592L888.593 388.805C888.378 389.204 888.161 389.598 887.942 389.988C884.652 395.829 880.882 400.565 876.658 404.244C876.091 404.735 875.515 405.211 874.931 405.672C870.841 408.899 866.332 411.402 861.403 413.182C860.695 413.436 859.976 413.674 859.245 413.897C854.13 415.457 848.455 416.246 842.221 416.246C841.232 416.246 840.256 416.227 839.293 416.189C824.857 415.618 813.469 410.766 805.106 401.609C803.99 400.388 802.945 399.147 801.97 397.887C795.142 389.064 791.739 379.273 791.739 368.495C791.739 356.923 795.514 346.582 803.066 337.53C812.626 326.015 825.444 320.229 841.491 320.229C858.024 320.229 871.238 326.158 881.103 337.96C888.137 346.296 891.699 356.693 891.821 369.154H804.588C804.801 379.81 808.424 388.518 815.366 395.307C822.338 402.096 830.925 405.505 841.155 405.505C846.088 405.505 850.899 404.702 855.557 403.07C860.216 401.437 864.204 399.289 867.462 396.597C867.462 396.596 867.463 396.596 867.463 396.596C870.72 393.932 874.282 389.578 878.088 383.592C878.088 383.592 878.089 383.592 878.089 383.592ZM877.766 357.853C876.107 352.12 873.78 347.496 870.812 344.005C870.412 343.535 869.997 343.078 869.566 342.631C866.548 339.504 862.758 336.929 858.176 334.924C857.521 334.637 856.863 334.369 856.2 334.118C851.564 332.364 846.735 331.487 841.673 331.487C841.079 331.487 840.491 331.498 839.907 331.521C831.155 331.859 823.557 334.74 817.163 340.137C816.539 340.66 815.934 341.216 815.347 341.805C811.245 345.927 808.074 351.67 805.836 359.015H878.089C877.984 358.622 877.876 358.235 877.766 357.853Z" fill="black" fill-opacity="0.85"/>
<path fill-rule="evenodd" clip-rule="evenodd" d="M594 211.876C565.99 189.16 530.443 175.572 491.765 175.572C401.415 175.572 328.144 249.722 328.144 341.155C328.144 432.589 401.415 506.739 491.765 506.739C582.115 506.739 655.386 432.589 655.386 341.155C655.386 339.098 655.349 337.049 655.276 335.01H652.719V324.927H654.61C652.53 303.296 646.335 282.883 636.829 264.5H618.25H594V211.876ZM509.04 388.805L498.535 383.592C494.729 389.578 491.167 393.932 487.91 396.596C484.651 399.289 480.663 401.437 476.004 403.07C471.346 404.702 466.535 405.505 461.602 405.505C451.372 405.505 442.785 402.096 435.813 395.307C428.871 388.518 425.248 379.81 425.035 369.154H512.267C512.146 356.693 508.584 346.296 501.55 337.96C491.684 326.158 478.47 320.229 461.938 320.229C445.891 320.229 433.073 326.015 423.513 337.53C415.961 346.582 412.186 356.923 412.186 368.495C412.186 380.813 416.631 391.841 425.552 401.609C434.473 411.377 446.835 416.246 462.668 416.246C469.793 416.246 476.187 415.215 481.85 413.182C487.483 411.148 492.568 408.169 497.104 404.244C501.611 400.32 505.599 395.193 509.04 388.805ZM491.259 344.005C494.425 347.728 496.861 352.741 498.535 359.015H426.283C428.841 350.621 432.616 344.319 437.61 340.137C444.43 334.38 452.62 331.487 462.12 331.487C467.905 331.487 473.386 332.632 478.622 334.924C483.86 337.215 488.061 340.252 491.259 344.005ZM633.919 322.579V413.898H621.618V398.2C616.381 404.187 610.504 408.684 603.989 411.721C597.473 414.729 590.348 416.246 582.615 416.246C568.883 416.246 557.16 411.549 547.417 402.182C537.704 392.815 532.833 381.415 532.833 367.98C532.833 354.832 537.765 343.604 547.57 334.265C557.374 324.927 569.187 320.23 582.981 320.23C590.958 320.23 598.174 321.834 604.598 325.013C611.053 328.221 616.717 333.005 621.618 339.364V322.578L633.919 322.579ZM583.954 331.573C577.012 331.573 570.587 333.177 564.68 336.385C558.805 339.623 554.116 344.119 550.644 349.963C547.173 355.778 545.438 361.936 545.438 368.41C545.438 374.855 547.173 381.014 550.674 386.886C554.206 392.758 558.896 397.313 564.833 400.607C570.74 403.872 577.104 405.505 583.863 405.505C590.714 405.505 597.2 403.872 603.319 400.636C609.439 397.398 614.158 393.016 617.447 387.459C620.766 381.93 622.41 375.686 622.41 368.754C622.41 358.184 618.695 349.333 611.296 342.229C603.898 335.125 594.794 331.573 583.954 331.573ZM364.424 266H379.551V306.664H403.3V318.763H379.551V416.246H364.424V318.763H344V306.664H364.424V266Z" fill="black" fill-opacity="0.25"/>
<path d="M594 211.876H594.144V211.807L594.091 211.764L594 211.876ZM655.276 335.01L655.419 335.005L655.414 334.866H655.276V335.01ZM652.719 335.01H652.575V335.154H652.719V335.01ZM652.719 324.927V324.783H652.575V324.927H652.719ZM654.61 324.927V325.071H654.769L654.753 324.913L654.61 324.927ZM636.829 264.5L636.956 264.434L636.916 264.356H636.829V264.5ZM594 264.5H593.856V264.644H594V264.5ZM498.535 383.592L498.599 383.463L498.483 383.405L498.414 383.514L498.535 383.592ZM509.04 388.805L509.167 388.873L509.237 388.742L509.104 388.676L509.04 388.805ZM487.91 396.596L487.818 396.485L487.818 396.485L487.91 396.596ZM476.004 403.07L475.956 402.934L475.956 402.934L476.004 403.07ZM435.813 395.307L435.712 395.41L435.713 395.41L435.813 395.307ZM425.035 369.154V369.01H424.888L424.891 369.157L425.035 369.154ZM512.267 369.154V369.298H512.413L512.411 369.153L512.267 369.154ZM501.55 337.96L501.439 338.052L501.44 338.053L501.55 337.96ZM423.513 337.53L423.623 337.623L423.623 337.622L423.513 337.53ZM425.552 401.609L425.659 401.512L425.659 401.512L425.552 401.609ZM481.85 413.182L481.899 413.317L481.899 413.317L481.85 413.182ZM497.104 404.244L497.199 404.353L497.199 404.353L497.104 404.244ZM498.535 359.015V359.159H498.723L498.674 358.977L498.535 359.015ZM491.259 344.005L491.368 343.911L491.368 343.911L491.259 344.005ZM426.283 359.015L426.145 358.973L426.089 359.159H426.283V359.015ZM437.61 340.137L437.702 340.247L437.702 340.247L437.61 340.137ZM478.622 334.924L478.565 335.056L478.565 335.056L478.622 334.924ZM633.919 413.898V414.042H634.063V413.898H633.919ZM633.919 322.579H634.063V322.435L633.919 322.435L633.919 322.579ZM621.618 413.898H621.474V414.042H621.618V413.898ZM621.618 398.2H621.762V397.817L621.51 398.106L621.618 398.2ZM603.989 411.721L604.049 411.852L604.05 411.851L603.989 411.721ZM547.417 402.182L547.317 402.285L547.317 402.286L547.417 402.182ZM547.57 334.265L547.669 334.37L547.669 334.37L547.57 334.265ZM604.598 325.013L604.662 324.885L604.662 324.885L604.598 325.013ZM621.618 339.364L621.504 339.452L621.762 339.787V339.364H621.618ZM621.618 322.578L621.618 322.434L621.474 322.434V322.578H621.618ZM564.68 336.385L564.612 336.259L564.611 336.259L564.68 336.385ZM550.644 349.963L550.768 350.037L550.768 350.036L550.644 349.963ZM550.674 386.886L550.551 386.96L550.551 386.96L550.674 386.886ZM564.833 400.607L564.763 400.732L564.763 400.733L564.833 400.607ZM603.319 400.636L603.386 400.763L603.386 400.763L603.319 400.636ZM617.447 387.459L617.324 387.385L617.323 387.386L617.447 387.459ZM611.296 342.229L611.396 342.125L611.396 342.125L611.296 342.229ZM379.551 266H379.695V265.856H379.551V266ZM364.424 266V265.856H364.28V266H364.424ZM379.551 306.664H379.407V306.808H379.551V306.664ZM403.3 306.664H403.443V306.52H403.3V306.664ZM403.3 318.763V318.907H403.443V318.763H403.3ZM379.551 318.763V318.619H379.407V318.763H379.551ZM379.551 416.246V416.39H379.695V416.246H379.551ZM364.424 416.246H364.28V416.39H364.424V416.246ZM364.424 318.763H364.568V318.619H364.424V318.763ZM344 318.763H343.856V318.907H344V318.763ZM344 306.664V306.52H343.856V306.664H344ZM364.424 306.664V306.808H364.568V306.664H364.424ZM491.765 175.715C530.408 175.715 565.924 189.292 593.909 211.988L594.091 211.764C566.056 189.028 530.477 175.428 491.765 175.428V175.715ZM328.288 341.155C328.288 249.799 401.496 175.715 491.765 175.715V175.428C401.334 175.428 328 249.644 328 341.155H328.288ZM491.765 506.595C401.496 506.595 328.288 432.511 328.288 341.155H328C328 432.667 401.334 506.883 491.765 506.883V506.595ZM655.242 341.155C655.242 432.511 582.034 506.595 491.765 506.595V506.883C582.196 506.883 655.53 432.667 655.53 341.155H655.242ZM655.132 335.015C655.205 337.053 655.242 339.1 655.242 341.155H655.53C655.53 339.096 655.493 337.046 655.419 335.005L655.132 335.015ZM652.719 335.154H655.276V334.866H652.719V335.154ZM652.575 324.927V335.01H652.863V324.927H652.575ZM654.61 324.783H652.719V325.071H654.61V324.783ZM636.701 264.566C646.199 282.933 652.388 303.329 654.467 324.941L654.753 324.913C652.671 303.264 646.471 282.833 636.956 264.434L636.701 264.566ZM636.829 264.356H618.25V264.644H636.829V264.356ZM618.25 264.356H594V264.644H618.25V264.356ZM594.144 264.5V211.876H593.856V264.5H594.144ZM498.471 383.72L508.976 388.933L509.104 388.676L498.599 383.463L498.471 383.72ZM488.001 396.707C491.275 394.029 494.847 389.661 498.657 383.669L498.414 383.514C494.611 389.495 491.059 393.835 487.818 396.485L488.001 396.707ZM476.052 403.205C480.723 401.568 484.727 399.412 488.001 396.707L487.818 396.485C484.575 399.165 480.602 401.306 475.956 402.934L476.052 403.205ZM461.602 405.648C466.551 405.648 471.378 404.843 476.052 403.205L475.956 402.934C471.314 404.561 466.519 405.361 461.602 405.361V405.648ZM435.713 395.41C442.713 402.227 451.336 405.648 461.602 405.648V405.361C451.407 405.361 442.857 401.965 435.913 395.204L435.713 395.41ZM424.891 369.157C425.104 379.847 428.741 388.592 435.712 395.41L435.914 395.204C429.001 388.444 425.391 379.773 425.179 369.151L424.891 369.157ZM512.267 369.01H425.035V369.298H512.267V369.01ZM501.44 338.053C508.449 346.36 512.002 356.723 512.123 369.156L512.411 369.153C512.29 356.664 508.719 346.233 501.66 337.867L501.44 338.053ZM461.938 320.373C478.431 320.373 491.603 326.286 501.439 338.052L501.66 337.868C491.765 326.03 478.509 320.085 461.938 320.085V320.373ZM423.623 337.622C433.154 326.143 445.93 320.373 461.938 320.373V320.085C445.851 320.085 432.991 325.888 423.402 337.438L423.623 337.622ZM412.33 368.495C412.33 356.958 416.093 346.649 423.623 337.623L423.402 337.438C415.829 346.515 412.042 356.889 412.042 368.495H412.33ZM425.659 401.512C416.759 391.769 412.33 380.775 412.33 368.495H412.042C412.042 380.852 416.502 391.914 425.446 401.706L425.659 401.512ZM462.668 416.102C446.867 416.102 434.547 411.244 425.659 401.512L425.446 401.706C434.399 411.509 446.804 416.39 462.668 416.39V416.102ZM481.801 413.046C476.156 415.074 469.779 416.102 462.668 416.102V416.39C469.806 416.39 476.218 415.357 481.899 413.317L481.801 413.046ZM497.01 404.135C492.487 408.048 487.417 411.018 481.801 413.046L481.899 413.317C487.548 411.277 492.648 408.289 497.199 404.353L497.01 404.135ZM508.913 388.736C505.479 395.112 501.501 400.225 497.01 404.136L497.199 404.353C501.72 400.415 505.719 395.273 509.167 388.873L508.913 388.736ZM498.674 358.977C496.996 352.69 494.552 347.656 491.368 343.911L491.149 344.098C494.298 347.801 496.726 352.793 498.396 359.052L498.674 358.977ZM426.283 359.159H498.535V358.871H426.283V359.159ZM437.517 340.027C432.496 344.232 428.708 350.561 426.145 358.973L426.421 359.057C428.973 350.68 432.737 344.406 437.702 340.247L437.517 340.027ZM462.12 331.343C452.589 331.343 444.365 334.246 437.517 340.027L437.702 340.247C444.495 334.513 452.652 331.631 462.12 331.631V331.343ZM478.68 334.792C473.425 332.493 467.924 331.343 462.12 331.343V331.631C467.885 331.631 473.346 332.772 478.565 335.056L478.68 334.792ZM491.368 343.911C488.155 340.14 483.935 337.091 478.68 334.792L478.565 335.056C483.785 337.34 487.968 340.364 491.149 344.098L491.368 343.911ZM634.063 413.898V322.579H633.775V413.898H634.063ZM621.618 414.042H633.919V413.754H621.618V414.042ZM621.474 398.2V413.898H621.762V398.2H621.474ZM604.05 411.851C610.585 408.806 616.478 404.296 621.726 398.295L621.51 398.106C616.285 404.079 610.424 408.563 603.928 411.59L604.05 411.851ZM582.615 416.39C590.368 416.39 597.513 414.869 604.049 411.852L603.929 411.59C597.433 414.589 590.329 416.102 582.615 416.102V416.39ZM547.317 402.286C557.087 411.678 568.846 416.39 582.615 416.39V416.102C568.919 416.102 557.232 411.419 547.517 402.078L547.317 402.286ZM532.689 367.98C532.689 381.454 537.576 392.892 547.317 402.285L547.517 402.078C537.832 392.738 532.976 381.375 532.976 367.98H532.689ZM547.471 334.161C537.639 343.526 532.689 354.791 532.689 367.98H532.976C532.976 354.873 537.892 343.682 547.669 334.37L547.471 334.161ZM582.981 320.086C569.151 320.086 557.301 324.797 547.47 334.161L547.669 334.37C557.446 325.057 569.223 320.374 582.981 320.374V320.086ZM604.662 324.885C598.216 321.694 590.977 320.086 582.981 320.086V320.374C590.938 320.374 598.132 321.973 604.534 325.142L604.662 324.885ZM621.732 339.276C616.819 332.902 611.139 328.103 604.662 324.885L604.534 325.142C610.967 328.339 616.614 333.108 621.504 339.452L621.732 339.276ZM621.474 322.578V339.364H621.762V322.578H621.474ZM633.919 322.435L621.618 322.434L621.618 322.722L633.919 322.722L633.919 322.435ZM564.749 336.512C570.634 333.315 577.036 331.717 583.954 331.717V331.429C576.989 331.429 570.54 333.039 564.612 336.259L564.749 336.512ZM550.768 350.036C554.226 344.215 558.896 339.737 564.75 336.511L564.611 336.259C558.713 339.509 554.005 344.024 550.521 349.889L550.768 350.036ZM545.582 368.41C545.582 361.964 547.309 355.83 550.768 350.037L550.521 349.889C547.036 355.726 545.294 361.909 545.294 368.41H545.582ZM550.798 386.813C547.309 380.961 545.582 374.828 545.582 368.41H545.294C545.294 374.883 547.037 381.067 550.551 386.96L550.798 386.813ZM564.903 400.481C558.988 397.2 554.317 392.663 550.798 386.812L550.551 386.96C554.096 392.853 558.803 397.426 564.763 400.732L564.903 400.481ZM583.863 405.361C577.128 405.361 570.788 403.734 564.903 400.481L564.763 400.733C570.691 404.01 577.079 405.649 583.863 405.649V405.361ZM603.252 400.508C597.153 403.734 590.69 405.361 583.863 405.361V405.649C590.738 405.649 597.247 404.01 603.386 400.763L603.252 400.508ZM617.323 387.386C614.049 392.918 609.35 397.282 603.252 400.508L603.386 400.763C609.528 397.514 614.268 393.114 617.571 387.532L617.323 387.386ZM622.266 368.754C622.266 375.662 620.628 381.88 617.324 387.385L617.571 387.533C620.904 381.98 622.554 375.709 622.554 368.754H622.266ZM611.197 342.333C618.566 349.409 622.266 358.222 622.266 368.754H622.554C622.554 358.146 618.824 349.257 611.396 342.125L611.197 342.333ZM583.954 331.717C594.759 331.717 603.826 335.256 611.197 342.333L611.396 342.125C603.969 334.994 594.829 331.429 583.954 331.429V331.717ZM379.551 265.856H364.424V266.144H379.551V265.856ZM379.695 306.664V266H379.407V306.664H379.695ZM403.3 306.52H379.551V306.808H403.3V306.52ZM403.443 318.763V306.664H403.156V318.763H403.443ZM379.551 318.907H403.3V318.619H379.551V318.907ZM379.695 416.246V318.763H379.407V416.246H379.695ZM364.424 416.39H379.551V416.102H364.424V416.39ZM364.28 318.763V416.246H364.568V318.763H364.28ZM344 318.907H364.424V318.619H344V318.907ZM343.856 306.664V318.763H344.144V306.664H343.856ZM364.424 306.52H344V306.808H364.424V306.52ZM364.28 266V306.664H364.568V266H364.28Z" fill="black"/>
<path d="M498.535 383.592L509.04 388.805C505.599 395.193 501.61 400.32 497.104 404.244C492.567 408.169 487.483 411.148 481.85 413.182C476.187 415.215 469.792 416.246 462.668 416.246C446.835 416.246 434.473 411.377 425.552 401.609C416.631 391.841 412.186 380.813 412.186 368.495C412.186 356.923 415.961 346.582 423.512 337.53C433.073 326.015 445.89 320.229 461.937 320.229C478.47 320.229 491.684 326.158 501.55 337.96C508.584 346.296 512.146 356.693 512.267 369.154H425.035C425.247 379.81 428.871 388.518 435.813 395.307C442.785 402.096 451.372 405.505 461.602 405.505C466.535 405.505 471.346 404.702 476.004 403.07C480.663 401.437 484.651 399.289 487.909 396.596C491.167 393.932 494.729 389.578 498.535 383.592ZM498.535 359.015C496.861 352.741 494.425 347.728 491.259 344.005C488.061 340.252 483.86 337.215 478.622 334.924C473.386 332.632 467.904 331.487 462.119 331.487C452.62 331.487 444.43 334.38 437.609 340.137C432.616 344.319 428.841 350.621 426.283 359.015H498.535Z" fill="black" stroke="black" stroke-width="2" stroke-miterlimit="22.9256"/>
<path d="M633.919 322.578V413.898H621.618V398.2C616.381 404.187 610.504 408.684 603.989 411.721C597.473 414.728 590.348 416.246 582.615 416.246C568.883 416.246 557.16 411.548 547.417 402.182C537.704 392.815 532.833 381.414 532.833 367.98C532.833 354.832 537.765 343.604 547.57 334.265C557.374 324.927 569.187 320.229 582.981 320.229C590.958 320.229 598.174 321.833 604.598 325.013C611.053 328.221 616.717 333.005 621.618 339.364V322.578L633.919 322.578ZM583.954 331.573C577.012 331.573 570.587 333.177 564.68 336.385C558.804 339.623 554.116 344.119 550.644 349.963C547.173 355.778 545.438 361.936 545.438 368.41C545.438 374.855 547.173 381.014 550.674 386.886C554.206 392.758 558.895 397.313 564.833 400.606C570.74 403.872 577.104 405.505 583.863 405.505C590.714 405.505 597.2 403.872 603.319 400.636C609.439 397.398 614.158 393.016 617.447 387.459C620.766 381.93 622.41 375.685 622.41 368.754C622.41 358.184 618.695 349.333 611.296 342.229C603.898 335.125 594.794 331.573 583.954 331.573Z" fill="black" stroke="black" stroke-width="2" stroke-miterlimit="22.9256"/>
<path d="M669.74 291.041H682.344V324.927H702.135V335.01H682.344V416.247H669.74V335.01H652.719V324.927H669.74V291.041Z" fill="black" stroke="black" stroke-width="2" stroke-miterlimit="22.9256"/>
<path d="M364.424 266H379.551V306.664H403.3V318.763H379.551V416.246H364.424V318.763H344V306.664H364.424V266Z" fill="black" stroke="black" stroke-width="2" stroke-miterlimit="22.9256"/>
<path d="M722.366 324.927H735.124V338.276C738.929 333.034 742.949 329.109 747.15 326.503C751.383 323.896 755.767 322.578 760.365 322.578C763.806 322.578 767.49 323.638 771.418 325.7L764.902 335.611C762.284 334.523 760.091 334.007 758.295 334.007C754.154 334.007 750.135 335.611 746.268 338.82C742.401 342.057 739.447 347.041 737.438 353.801C735.885 359.014 735.125 369.527 735.125 385.367V416.246H722.367L722.366 324.927Z" fill="black" stroke="black" stroke-width="2" stroke-miterlimit="22.9256"/>
</svg>

