<svg width="458" height="323" viewBox="0 0 458 323" fill="none" xmlns="http://www.w3.org/2000/svg">
<path fill-rule="evenodd" clip-rule="evenodd" d="M69.0324 106.967C69.0806 106.892 69.1583 106.809 69.1985 106.764C69.2386 106.721 69.319 106.619 69.3672 106.568L82.9824 94.5142C83.7805 93.6117 84.3215 92.8458 85.0499 92.0933C85.8158 91.3006 86.4586 90.9122 87.2218 90.1008C91.5523 85.4918 93.3519 85.1785 96.5951 82.1978C98.2876 80.6419 99.2731 79.5144 101.116 78.087C103.148 76.5123 108.879 70.8937 112.372 74.0378C115.416 76.7801 111.265 79.1475 111.011 79.3484C110.395 79.8331 106.466 89.9133 105.901 91.488C102.613 100.663 102.01 103.065 100.478 112.066C100.127 114.126 100.473 118.076 99.5998 119.568L69.0297 106.967H69.0324ZM123.285 37.6723L44.6968 113.863L89.7312 58.047L116.094 37.6723C123.346 34.9809 124.9 35.4495 123.287 37.6723H123.285ZM107.465 120.242C107.487 117.846 107.554 114.466 108.041 112.2C108.491 110.109 109.254 107.872 108.901 105.591C108.582 103.523 111.324 94.5705 111.814 92.2004C112.28 89.9455 112.238 87.2246 112.888 85.0767C113.727 82.3076 114.201 81.697 115.339 79.5171C116.265 77.7388 116.509 74.8331 117.567 73.7512C118.927 72.3586 121.086 71.3624 123.587 71.8417C123.702 73.695 120.532 82.6959 119.642 84.1608C116.579 89.2143 115.291 95.2159 112.519 101.035C111.041 104.142 111.93 105.031 111.648 108.226C111.616 108.593 108.745 119.005 107.463 120.245L107.465 120.242ZM140.486 16.2639C142.087 15.6801 143.884 16.3201 144.741 17.3565C146.3 19.2419 145.065 20.0694 144.589 21.3897C144.061 22.8466 144.503 24.2552 143.434 25.6826C140.981 28.9606 132.387 25.5541 134.538 21.2638C134.784 20.7711 139.407 16.6575 140.489 16.2666L140.486 16.2639ZM19.5578 90.5721C28.8722 84.5197 37.059 79.4153 46.2073 72.1337C49.753 69.3137 58.7781 64.5976 63.8718 61.0036C67.0988 58.7273 78.3842 50.7841 81.4158 49.6513C80.5936 51.1644 79.1796 52.6641 78.0468 54.0514C72.4737 60.8751 73.6655 59.4075 66.1829 65.551L62.1444 69.1878C60.7411 70.5563 59.3217 71.5713 57.6613 72.7041C48.2453 79.1288 43.9256 82.4924 35.1683 89.2572C33.607 90.465 32.2438 91.5362 30.6263 92.7146L16.8262 102.267C15.1417 103.365 15.2113 103.087 13.9178 104.319C13.2537 106.11 9.23123 116.426 6.81829 126.431C3.6796 139.441 0.623932 153.919 0.977437 154.824C23.6258 143.906 7.58154 155.587 33.1062 135.197L40.7574 128.678C41.8126 127.446 41.0734 127.037 42.6508 125.866C43.5372 125.21 44.7504 124.894 45.8082 124.214C47.2597 123.279 47.2892 123.028 48.4461 122.055C49.3165 121.324 50.0155 120.698 50.8323 119.942C53.9897 117.026 53.3202 117.902 55.9072 115.738C57.6747 114.257 57.6828 115.074 60.7224 116.391C61.6704 116.801 61.5419 116.638 62.2944 117.232C64.8627 118.004 68.1513 119.755 71.0142 120.845C72.7335 121.498 73.7645 122.144 75.3446 122.918C76.8845 123.673 78.3681 124.144 79.9053 124.763C81.4131 125.371 82.5968 126.035 84.1688 126.581C87.1629 127.62 96.3031 130.644 98.0867 131.932C97.8644 135.406 97.4922 137.187 100.66 138.223C100.267 139.838 99.0187 142.055 98.1965 143.673C97.2297 145.574 96.737 146.723 95.7515 148.911C94.8489 150.912 94.4713 152.377 93.4376 154.278C92.2485 156.466 91.5817 157.315 91.1264 159.779L98.9973 159.768C99.49 158.1 100.738 156.262 101.493 154.605C102.315 152.8 103.028 150.853 103.81 148.916C104.517 147.17 105.516 145.676 106.375 143.804C107.189 142.026 107.886 139.838 108.885 138.271C110.925 138.686 110.561 139.096 110.473 141.201L110.293 150.017C110.658 151.059 111.82 151.969 113.073 152.154C119.353 153.083 117.829 143.614 118.25 138.689C121.003 138.651 129.691 142.655 132.195 142.853L132.184 130.47L120.114 126.817C120.197 124.9 121.244 121.14 121.563 118.786C121.755 117.355 121.782 115.864 121.983 114.364C122.163 113.009 122.813 111.788 123.282 110.435C125.017 105.43 125.947 100.352 127.998 95.3391C130.307 89.6937 129.369 88.4564 132.575 80.4089C133.135 79.0056 133.14 77.929 133.416 76.4962L137.278 65.2778C138.874 61.6463 137.976 61.965 141.994 60.4037C144.5 59.4289 146.675 58.6148 149.299 57.7953C154.891 56.0465 160.376 55.9126 166.19 54.8307C170.188 54.0862 180.587 53.5559 183.375 52.1901C185.994 50.9073 185.764 47.5571 183.131 46.4992C180.943 45.6208 177.336 47.1848 174.511 47.0241L182.548 44.6567C186.131 43.8747 185.373 45.0129 185.338 37.6429C176.251 37.8303 168.335 43.7756 155.93 44.6514C151.929 44.9326 148.777 45.7788 145.162 46.5849C146.52 44.3059 151.889 42.6214 155.869 39.7264C159.457 37.1126 164.331 34.8737 166.246 32.8197C168.011 30.9236 167.36 28.125 164.736 27.4448C161.894 26.7083 160.277 28.8026 158.774 29.8256C157.181 30.9075 154.907 31.8984 153.324 33.0152C151.905 34.0168 149.701 36.0307 147.867 36.5208C148.37 34.531 149.61 35.9128 149.605 31.7913L149.974 19.2981C150.124 16.9709 150.954 16.3576 150.569 13.5403H130.154C129.002 15.2328 123.737 20.6907 121.83 22.6403C113.303 31.3441 119.916 24.4427 112.112 30.1952C110.074 31.6976 106.689 34.7693 105.042 34.5765C105.875 33.4222 113.226 28.9874 115.09 27.426C116.45 26.2879 118.938 24.8256 118.933 22.4957C118.927 20.0962 116.051 18.6366 113.657 19.5927C112.722 19.9676 110.28 22.4074 108.845 23.409C98.068 30.9316 83.4297 40.2433 72.1577 47.2062C66.9703 50.4092 54.6807 59.3512 50.9689 60.9474C49.3915 60.227 48.5479 58.3282 44.2442 60.8911C39.6701 63.6147 33.3954 64.7342 30.4094 69.2521C27.1984 74.1074 21.9654 84.1448 19.5632 90.5855L19.5578 90.5721Z" fill="black"/>
<path fill-rule="evenodd" clip-rule="evenodd" d="M94.1927 294.531C93.4696 297.747 92.5002 298.628 90.9924 300.642C89.6239 302.471 88.5661 304.587 86.9405 306.191C81.7102 311.354 73.9546 308.055 77.2915 302.94C80.074 298.676 78.4457 302.112 80.5453 296.912C81.2094 295.27 82.744 291.483 83.7349 290.508C87.0342 287.271 95.8076 287.34 94.1873 294.531H94.1927ZM48.4032 315.969C46.8526 315.966 46.4509 315.888 45.3234 315.23C45.2886 313.65 47.0695 295.942 47.7631 293.891C49.9109 287.544 48.3202 291.266 59.4395 285.725C60.3902 285.251 61.357 284.467 62.0586 284.167C63.6547 283.481 63.8315 284.231 65.1786 283.462C67.2621 282.273 66.1105 282.994 68.411 282.485C71.3515 281.834 68.02 281.39 74.4902 281.564C73.3065 282.873 76.3086 284.119 74.1153 286.641C73.3547 287.517 70.9846 287.806 67.0184 295.227L58.3763 310.264C57.7255 311.258 55.5911 313.467 54.5306 314.086C53.8771 314.466 49.1048 315.971 48.4032 315.971V315.969ZM30.2941 310.264C31.2689 306.796 32.5464 303.701 33.1543 300.08C33.5265 297.868 33.9523 295.921 34.4772 293.719C34.8227 292.271 35.1039 288.189 35.1842 286.51C35.3422 283.2 34.745 273.604 35.6743 271.245C37.9882 265.372 44.7235 268.46 42.7069 272.769C41.4081 275.541 41.6625 272.506 41.6625 279.488C41.6598 291.938 41.5607 288.722 39.5254 301.031C38.4702 307.412 39.0085 303.585 37.9453 307.112C37.3347 309.132 36.451 311.427 36.2769 313.427C36.1109 315.347 35.2432 316.528 34.1853 317.048L30.2941 310.262V310.264ZM44.6512 265.019C43.4005 262.723 43.505 256.593 43.039 253.511C42.7337 251.492 42.2972 249.834 41.9624 247.879C41.6464 246.045 41.6036 243.985 41.3224 242.086C39.737 231.363 38.2265 231.358 41.9758 220.595C42.6801 218.573 42.7203 216.955 43.2774 215.156C43.7487 213.629 44.4155 212.028 44.9592 210.445C45.5805 208.637 46.1134 207.55 46.5473 205.619C46.9249 203.943 47.2141 202.014 47.739 200.432C48.7165 197.48 51.349 188.52 52.6747 185.839C53.3281 184.521 54.2146 183.147 54.6457 181.68C55.2965 186.827 54.9028 199.484 54.0057 204.462C53.3656 208.016 52.6425 217.435 52.0641 220.118C50.484 227.459 50.6715 229.05 49.5922 235.198C47.8113 245.324 47.6828 254.928 44.6566 265.019H44.6512ZM25.4923 301.558C29.2764 308.767 33.1918 315.8 37.5088 322.284L62.1684 322.289C63.4378 322.289 64.7983 322.12 65.9338 322.147L87.4601 322.302C90.1569 322.27 90.9094 320.519 92.5457 318.84C93.9758 317.375 95.3443 316.111 96.8949 314.544C97.626 313.808 98.1268 313.106 98.8204 312.305C99.5756 311.435 100.285 310.929 101.067 310.074C105.379 305.366 109.519 297.155 116.182 290.632C120.165 286.732 124.425 279.392 127.395 275.6C127.709 275.201 137.291 260.969 137.842 260.12C139.171 258.072 139.468 256.585 140.981 254.628C142.398 252.793 143.63 251.853 144.888 249.901C146.144 247.951 147.285 246.283 148.373 244.416L155.729 234.502C156.959 233.126 158.016 231.045 159.112 229.221C160.587 226.76 160.081 224.789 160.081 221.567C160.081 212.895 160.453 193.932 160.02 186.565C155.199 195.876 152.317 204.711 146.61 212.579C142.896 217.7 143.927 218.509 138.809 224.623C137.376 226.334 136.139 228.578 134.717 230.45L130.665 236.213C132.422 230.9 134.942 225.565 137.192 220.423C138.41 217.641 138.782 214.569 140.079 212.132L145.119 200.199C146.565 197.612 149.393 191.072 150.207 188.346C152.258 181.484 165.662 161.723 165.223 154.889L146.091 154.814C145.108 155.207 145.194 155.389 144.594 156.198C142.296 159.291 133.809 175.938 132.698 179.805C131.629 183.525 130.288 185.692 129.227 188.753C128.501 190.847 127.888 191.131 127.203 192.855L121.533 206.056C120.245 209.154 119.838 212.164 118.402 215.429C117.109 218.369 115.063 221.993 114.562 224.044C113.727 227.477 112.165 229.888 110.674 232.635C108.938 235.83 107.655 237.528 105.957 240.415C102.923 245.57 99.6158 250.568 95.995 255.404C94.956 256.792 94.3239 257.426 93.1965 258.677C88.0733 264.36 92.1708 260.161 86.9057 264.871C80.9818 270.171 85.0632 266.604 79.7928 270.233C78.0708 271.419 73.7751 274.767 72.3558 275.284L63.569 278.971C61.8604 279.941 61.1534 280.15 59.1904 280.98L50.326 284.66C50.6688 283.505 51.1884 283.205 51.8284 281.955C53.4754 278.736 57.6586 262.193 58.221 258.897C59.4341 251.768 57.1899 253.005 60.4223 244.135C64.5332 232.85 66.132 213.38 67.9664 201.099C68.3521 198.509 69.1234 197.205 69.4126 194.251C69.6697 191.616 70.2776 189.564 70.7222 186.907C71.5684 181.867 71.9675 156.932 72.8753 151.868L66.1614 151.908C65.1357 156.937 64.9322 182.009 64.0859 187.02C63.6467 189.62 63.1272 191.586 62.8219 194.369C62.763 194.91 61.4239 200.882 61.2525 201.35L60.4491 141.82H50.8509C49.2709 142.765 49.1236 178.131 48.2184 180.108C47.5971 181.466 46.9517 182.47 46.2821 183.932C45.4653 185.716 45.7813 186.46 44.769 188.18C43.5237 190.295 42.8676 194.294 41.9972 196.926C41.0653 199.741 40.5216 203.825 39.5415 206.173L39.4317 171.961H28.8587C28.7997 182.202 29.97 181.977 26.585 185.603C25.5807 184.452 24.2336 185.684 22.8598 183.721C22.0055 182.499 22.4447 180.935 22.0858 179.406C21.344 176.251 18.9927 175.036 19.0462 171.961L9.98901 171.972C12.2948 173.622 10.9986 171.3 12.9402 174.449C13.7249 175.724 14.3462 176.616 15.0265 178.118C19.4212 187.815 23.2695 189.398 26.1993 200.89C26.5716 202.347 27.3 203.45 27.4473 204.984C27.6267 206.864 27.3938 208.611 27.691 210.595C28.1329 213.53 28.9417 217.279 29.1345 220.311C29.5817 227.378 29.2041 235.798 29.1907 243.005C29.1827 246.631 29.5576 250.134 29.571 253.886C29.5871 257.619 29.5791 261.352 29.5791 265.086C29.5791 269.63 29.7478 283.623 29.03 287.332C28.3927 290.626 27.3509 292.761 26.8153 296.298C26.7591 296.668 26.2288 298.749 25.4843 301.555L25.4923 301.558Z" fill="black"/>
<path fill-rule="evenodd" clip-rule="evenodd" d="M403.603 310.848C403.6 305.76 406.364 290.934 408.327 287.166C408.619 290.286 408.303 291.732 409.042 294.847C409.634 297.33 410.753 298.441 411.578 300.648C413.841 306.708 416.98 305.431 421.155 307.533C419.76 308.197 418.922 308.465 417.427 308.987C416.147 309.434 415.1 310.101 413.812 310.503C411.541 311.21 406.305 310.846 403.6 310.846L403.603 310.848ZM431.187 252.611C433.686 249.992 437.754 245.857 439.62 241.471C439.58 244.799 437.863 247.534 436.739 250.233C436.05 251.883 435.587 252.898 434.693 254.266C433.991 255.34 432.839 256.339 432.529 257.571C432.585 253.999 431.873 254.711 431.187 252.614V252.611ZM424.685 225.25C426.867 225.027 430.451 225.075 432.738 225.148C435.271 225.228 436.599 226.819 437.55 228.565C438.983 231.197 438.932 231.773 437.21 234.066L426.8 248.286C423.801 251.387 425.801 250.196 422.333 252.156C420.381 253.259 420.767 254.909 418.967 256.776C416.401 259.432 422.968 242.638 419.5 246.026C417.159 248.313 409.971 267.389 407.015 269.322C402.845 272.054 400.815 273.931 397.692 276.778L388.544 284.279C386.418 286.224 382.168 290.768 380.007 292.075C378.18 293.181 375.095 291.349 374.637 290.219C374.209 289.153 374.372 275.894 374.592 274.178C374.983 271.098 375.387 270.11 376.23 267.477C378.839 259.333 380.274 260.268 381.672 256.275C382.486 253.953 383.279 252.71 384.425 251.029C385.023 250.156 385.604 249.416 386.222 248.672C386.857 247.909 387.559 247.33 388.209 246.503C392.727 240.742 393.48 239.114 400.866 234.518C404.988 231.955 403.381 232.603 405.523 230.857C408.057 228.793 421.886 225.536 424.685 225.252V225.25ZM370.379 298.039C368.376 296.821 366.164 292.772 364.95 290.626C363.389 287.865 362.251 283.548 363.681 280.337C364.482 272.448 364.576 275.12 365.368 270.747C365.591 269.529 365.489 268.449 365.765 267.234C366.549 263.779 368.429 259.146 369.841 256.288C373.381 249.119 379.147 246.371 385.256 241.875C382.27 246.323 379.292 248.075 377.192 254.049C375.888 257.761 374.602 256.733 370.7 268.034C369.667 271.028 369.38 276.805 369.442 280.238C369.436 281.467 370.408 288.888 370.743 289.952C371.03 290.859 372.602 292.806 373.186 293.254C374.704 294.416 375.368 294.244 375.47 296.829C381.737 298.479 384.136 295.592 388.678 291.127C389.811 290.013 390.716 288.955 392.066 287.798C393.105 286.909 394.773 285.683 395.877 284.882C400.419 281.591 400.74 279.529 406.977 276.044C404.436 280.581 402.39 289.199 400.893 295.037C400.435 296.826 400.33 298.61 399.883 300.407C399.385 302.413 399.182 303.778 399.007 305.926C398.694 309.756 397.339 314.732 401.08 315.65C402.146 315.913 412.087 315.816 413.506 315.637C415.303 315.412 421.024 313.103 422.944 312.263C425.44 311.17 429.39 308.267 431.463 307.975C436.741 307.233 441.441 306.296 445.654 303.299C447.049 302.308 448.332 301.848 449.143 300.377C451.136 296.762 448.453 293.074 444.872 292.991C440.362 292.884 448.42 295.115 439.047 295.123C456.963 272.046 433.388 295.15 431.479 295.107C419.454 294.836 420.095 292.699 420.727 285.439C421.19 280.12 421.966 279.753 423.659 275.544C424.875 272.523 426.503 269.389 428.118 267.201C429.569 265.238 431.506 261.176 432.21 258.374C433.126 262.539 435.756 261.393 436.549 260.6L439.746 255.474C443.324 249.173 445.188 243.369 444.414 236.077C443.961 231.811 450.102 222.612 450.268 221.808C450.6 220.193 450.051 219.366 448.994 218.975C448.142 221.372 448.985 222.713 446.645 223.977C445.046 224.84 442.936 225.132 441.642 226.05C440.876 224.384 439.553 222.751 438.163 222.025C438.155 218.38 437.93 216.832 441.698 216.468C443.158 216.326 444.569 216.508 445.898 216.688C448.035 216.977 447.159 216.838 448.712 217.896L457.678 217.874V209.219L413.212 209.168C410.936 209.259 388.651 215.392 386.978 216.123C378.684 219.754 380.473 217.981 371.892 223.134C363.855 227.957 365.81 226.098 358.539 232.175C354.632 235.44 351.796 240.29 348.531 244.574C345.291 248.827 327.806 284.25 327.822 284.403C328.229 283.838 348.987 266.776 351.745 262.833L354.704 259.146C354.477 260.844 353.802 262.204 353.363 263.803C352.913 265.439 352.897 267.26 352.452 269.009C351.469 272.863 350.974 275.236 350.867 279.483C350.639 288.463 353.887 300.024 360.055 306.071C362.122 308.098 363.376 311.065 367.117 311.186C370.708 311.301 373.317 308.979 374 306.199C375.213 301.264 371.951 300.093 370.379 298.031V298.039Z" fill="black"/>
<path fill-rule="evenodd" clip-rule="evenodd" d="M401.683 146.324C401.675 141.265 404.447 126.389 406.407 122.645C406.702 125.765 406.383 127.208 407.122 130.325C407.711 132.811 408.833 133.919 409.658 136.126C411.918 142.184 415.065 140.914 419.235 143.011L411.651 146.056C409.508 146.648 404.259 146.324 401.68 146.324H401.683ZM429.267 88.087C431.766 85.4705 435.836 81.3302 437.7 76.9462C437.663 80.0072 434.519 87.0747 432.773 89.742C432.066 90.8186 430.922 91.8148 430.606 93.0494C428.394 91.5068 429.944 90.1866 429.267 88.0896V88.087ZM422.765 60.7252C424.947 60.5029 428.53 60.5511 430.818 60.6234C433.351 60.7038 434.679 62.2918 435.63 64.0406C437.079 66.7053 437.028 67.2248 435.29 69.5414L424.88 83.7619C424.12 84.5466 423.656 85.1411 422.912 85.9606C421.835 87.1443 421.945 86.764 420.413 87.629C418.461 88.7324 418.847 90.3821 417.047 92.2487C414.465 94.9294 412.607 97.5968 409.136 100.979C406.785 103.269 403.346 106.59 400.381 108.531C396.206 111.266 398.884 109.418 395.77 112.251L386.621 119.75C384.492 121.697 380.25 126.233 378.084 127.546C376.279 128.638 373.164 126.806 372.714 125.69C372.286 124.624 372.449 111.365 372.669 109.648C373.06 106.566 373.464 105.583 374.308 102.948C376.921 94.7902 378.352 95.7355 379.75 91.7452C380.564 89.4233 381.354 88.1807 382.503 86.4989L388.057 79.5841C395.989 70.626 392.599 74.627 401.461 68.3469C402.449 67.648 402.762 67.0106 403.6 66.3277C406.134 64.2629 419.966 61.0064 422.762 60.7225L422.765 60.7252ZM445.831 54.9861L438.504 44.5684L413.841 44.5657C407.593 44.547 395.716 48.5775 388.667 50.42C385.523 51.2421 383.863 52.4151 380.973 53.2935C373.223 55.6476 366.887 62.9881 360.81 68.7219C358.534 70.8697 356.14 74.619 354.08 77.3479C353.004 78.7753 336.223 105.628 336.236 107.902C336.274 114.667 337.953 110.698 338.29 117.38C339.129 116.292 348.829 99.7526 349.696 98.5127L352.784 94.6348C352.556 96.3327 351.884 97.6932 351.445 99.292C350.995 100.931 350.979 102.752 350.535 104.498C347.704 115.634 348.486 124.3 353.322 134.527C354.538 137.098 356.533 139.991 358.138 141.56C360.208 143.587 361.456 146.554 365.2 146.675C368.791 146.79 371.399 144.468 372.082 141.688C373.295 136.75 370.031 135.582 368.461 133.52C367.725 133.073 366.107 131.231 365.403 130.135C362.821 126.129 359.659 120.526 361.766 115.818C362.554 107.918 362.663 110.58 363.451 106.231C363.673 105.012 363.571 103.933 363.847 102.715C364.632 99.2652 366.512 94.6241 367.923 91.7693C369.458 88.6601 372.355 85.2 374.693 83.5048C377.658 81.3516 380.515 79.4341 383.338 77.3586C382.722 78.2772 382.811 78.379 381.988 79.2788C374.958 86.9675 377.026 87.9798 372.795 93.7725C371.659 95.3258 369.578 101.215 368.783 103.521C367.754 106.501 367.463 112.302 367.524 115.725C367.516 117.243 368.51 124.688 368.911 125.679C369.211 126.421 370.671 128.22 371.474 128.855C372.923 129.996 373.453 129.87 373.552 132.318C378.314 133.574 380.66 132.347 383.285 129.854C387.061 126.265 389.65 123.496 393.959 120.374C395.245 119.442 396.313 118.274 397.564 117.267C401.378 114.195 399.299 114.774 405.06 111.539C402.524 116.051 400.464 124.715 398.975 130.532L397.087 141.421C396.774 145.253 395.422 150.223 399.163 151.145C400.231 151.407 410.167 151.311 411.586 151.131C413.389 150.904 419.101 148.598 421.024 147.757C423.522 146.664 427.465 143.761 429.543 143.469C434.819 142.728 439.524 141.788 443.737 138.793C445.132 137.803 446.415 137.342 447.226 135.872C449.219 132.256 446.535 128.569 442.955 128.486C438.434 128.378 441.792 130.738 432.403 130.746C414.771 130.762 418.094 129.144 418.812 120.936C419.313 115.2 423.003 107.029 426.203 102.698C427.655 100.733 429.588 96.6755 430.295 93.8716C431.211 98.036 433.844 96.8871 434.634 96.0944L437.831 90.9686C441.407 84.6698 443.273 78.861 442.499 71.5713C442.207 68.8102 443.252 67.8194 444.219 65.3582C445.113 63.0819 445.855 61.9785 446.803 59.9378C447.363 58.7354 447.727 59.3272 447.952 58.2373L445.828 54.9914L445.831 54.9861ZM444.727 59.4638C443.131 60.3261 441.018 60.6181 439.722 61.5393C438.964 59.8762 437.631 58.2373 436.246 57.5142C436.23 52.7097 436.484 51.1645 443.98 52.1768L444.727 59.4665V59.4638Z" fill="black"/>
<path fill-rule="evenodd" clip-rule="evenodd" d="M296.812 295.664C297.972 294.105 299.166 292.386 300.433 290.873L304.405 286.216C307.865 282.801 310.588 278.042 312.043 276.609C310.093 280.672 307.929 283.896 305.436 287.241C299.79 294.809 299.338 292.804 296.815 295.664H296.812ZM297.42 302.265C298.719 300.897 300.031 299.445 301.486 298.339C310.698 291.333 312.436 284.802 318.655 276.13C320.907 272.989 322.23 268.902 324.23 265.704C327.471 260.517 326.804 259.92 329.613 255.426C331.051 253.128 335.867 242.252 337.133 238.937C337.889 236.966 338.312 234.877 339.195 233.404C339.193 234.719 339.083 235.948 338.922 237.228C338.74 238.664 338.349 239.06 338.089 240.233C337.696 242.006 336.544 251.401 335.853 253.996C332.811 265.431 334.611 260.187 329.683 271.508C327.921 275.554 326.228 278.417 323.893 281.39L316.718 290.206C314.753 291.915 312.423 293.511 310.294 295.629C306.397 299.507 305.508 300.787 299.815 304.667L290.002 310.607C289.402 310.072 289.649 310.372 289.183 309.753L297.418 302.271L297.42 302.265ZM333.534 233.715C333.001 236.296 326.793 252.271 323.858 254.893C324.828 251.385 326.756 248.278 327.94 244.783C329.091 241.387 330.998 238.313 331.673 234.566C331.408 233.776 331.274 234.149 330.535 233.527C329.241 232.443 329.557 230.678 330.095 229.02C330.727 227.076 331.659 225.188 332.428 223.348C333.274 221.323 334.249 219.955 334.932 217.839C335.698 215.469 334.345 213.054 336.866 212.403C341.233 211.275 340.767 217.804 338.213 222.737C336.654 225.742 334.485 232.764 333.537 233.709L333.534 233.715ZM324.804 239.462C325.47 241.987 325.395 242.85 324.003 245L319.646 254.403C318.435 258.147 317.605 255.169 316.646 258.302L317.112 256.768C312.123 256.256 315.987 250.212 317.329 247.611C318.146 246.029 318.746 244.446 319.605 242.855C320.896 240.466 319.924 239.299 322.672 238.817L326.788 224.087C327.578 221.436 327.915 219.277 328.403 216.465C328.925 213.447 331.801 211.878 330.371 209.328L320.476 209.165C318.786 213.118 318.483 218.332 317.04 222.681L307.171 255.383C306.346 257.525 305.329 259.507 304.683 261.502C304.812 264.368 304.003 264.135 302.972 266.208L294.491 282.022C293.623 283.513 292.951 284.253 292.005 285.634C290.503 287.828 291.365 287.225 289.375 289.084L283.982 295.854C283.269 296.85 282.23 298.468 281.443 299.394C280.626 300.353 278.931 301.55 277.129 300.699C275.854 300.096 275.597 298.133 275.016 296.722C272.763 291.261 269.263 285.142 268.452 278.738C265.072 268.832 264.724 260.739 266.971 250.656L270.964 232.606C271.633 229.66 273.087 227.212 274.073 224.5C275 221.95 276.29 219.103 277.048 216.597C277.536 214.979 277.579 213.648 278.379 212.494C279.092 211.471 280.468 210.276 280.784 209.17C276.89 209.17 268.329 208.533 265.618 209.966C261.625 212.079 261.89 211.329 260.005 212.371C258.835 213.016 258.862 213.356 257.812 214.004C253.679 216.556 247.397 218.752 244.079 220.429C239.973 222.504 232.863 223.897 231.84 224.411L231.816 234.189C234.705 234.028 241.958 231.725 244.796 230.769C247.836 229.746 251.583 227.239 256.58 225.839C256.058 227.287 249.537 230.758 247.908 231.623L231.883 240.838L231.765 251.599C233.61 250.948 235.329 249.925 237.075 248.953C238.814 247.984 240.726 247.191 242.351 246.243C245.613 244.344 249.306 241.883 252.469 240.257C252.075 243.423 251.058 247.464 250.605 251.004C248.931 264.065 246.467 270.886 250.827 284.751C251.928 288.251 252.796 291.052 254.223 294.159C256.068 298.173 258.438 306.813 261.076 312.9C262.027 315.096 264.001 320.023 264.354 322.332C270.594 322.364 270.875 323.079 273.923 321.004C276.234 319.429 278.427 318.082 280.731 316.491C282.98 317.203 284.807 319.453 289.295 317.495C292.214 316.223 292.945 314.37 295.645 312.969C307.482 306.829 309.166 303.026 317.278 296.199C322.281 291.989 320.62 293.561 325.173 287.774C329.129 282.747 331.169 280.533 333.837 274.349C334.886 271.915 336.242 269.593 337.321 266.95C339.656 261.227 340.385 255.597 341.678 249.213C342.589 244.714 342.385 247.689 342.816 242.36C343.06 239.328 344.096 241.141 344.096 229.569C344.096 227.775 344.15 225.9 344.088 224.117C344.027 222.371 343.566 220.825 343.475 219.299C343.29 216.265 344.75 213.126 344.335 209.173H333.901L327.283 231.963C326.127 236.476 325.687 236.425 324.82 239.462H324.804Z" fill="black"/>
<path fill-rule="evenodd" clip-rule="evenodd" d="M297.511 144.407C296.266 145.114 294.665 145.253 293.409 145.845C288.679 148.068 286.446 149.613 280.385 149.519C278.5 149.49 277.354 149.061 275.859 148.317C274.392 147.586 273.987 146.828 273.987 144.749C273.987 141.064 273.894 137.165 274.044 133.504C275.024 134.214 276.949 136.889 278.154 138.009C280.463 140.151 281.108 139.68 284.252 140.58C287.005 141.367 287.431 142.16 290.95 142.586C292.305 142.749 296.652 143.903 297.511 144.409V144.407ZM264.113 118.167C264.306 115.259 263.09 110.92 266.641 110.917C270.064 110.912 268.746 114.619 268.768 117.206C268.805 122.264 274.469 140.574 269.523 140.574C267.771 140.574 268.377 140.379 267.279 139.31C266.315 138.376 263.776 137.35 263.776 132.246L264.116 118.167H264.113ZM325.31 21.5264C326.335 21.0256 327.171 20.6801 328.341 20.6801C330.535 24.3865 330.221 29.6088 328.995 33.982C327.854 38.05 325.936 41.5449 324.185 45.1523C322.661 48.291 319.863 52.4125 317.891 54.8576L310.334 63.0176C312.115 60.2217 313.564 56.5608 314.991 53.5507L319.024 43.5079L325.312 21.529L325.31 21.5264ZM281.213 76.0893C281.483 75.1118 282.07 73.9093 282.412 72.7952L285.522 61.8312C286.135 59.5549 287.383 57.5651 288.205 55.2673C289.062 52.8731 289.796 50.7574 290.648 48.4275C292.005 44.7104 291.74 44.5631 294.3 42.4688L308.044 28.8054L304.121 38.8615C303.636 39.9541 303.042 40.7495 302.487 41.7109C301.148 44.0275 299.796 49.4907 296.397 54.1747L288.631 65.2806C287.517 66.8767 281.489 75.243 281.21 76.0919L281.213 76.0893ZM320.259 0.0322266C318.711 1.56676 311.81 19.0304 310.005 21.055L302.005 30.3318C300.634 32.2788 300.216 34.5739 297.361 34.3034C294.054 31.7753 297.541 26.8316 298.907 24.0223C300.704 20.3293 314.123 4.80454 315.845 1.78904L305.511 1.80778C304.083 4.86613 292.024 20.2355 290.658 23.4706C289.458 26.3174 288.427 28.9955 287.214 31.8905L284.086 40.2594C282.766 44.073 284.456 42.8357 281.47 49.488C277.212 58.9791 277.913 56.8099 275.069 66.4241C274.108 69.678 272.83 71.574 272.064 75.2832C271.44 78.3094 270.46 81.4266 269.646 84.7153C268.789 85.1572 268.412 85.2456 267.646 85.5857C266.451 86.1159 266.738 86.3275 265.672 86.7854C264.228 87.4041 262.314 87.5621 260.57 87.613C256.773 87.7228 252.041 87.4148 248.46 87.7254L248.404 99.9294L260.388 99.9187C260.442 102.31 260.771 102.463 259.046 103.539C258.015 104.182 256.738 104.972 255.637 105.548C253.171 106.844 231.205 128.488 228.921 129.677C227.014 145.079 227.515 151.099 227.7 151.287C231.411 134.72 248.511 130.384 259.601 119.726L260.051 121.718C260.308 125.96 260.144 138.893 260.482 141.04C260.739 142.674 261.371 143.156 261.716 145.199C262.522 149.98 262.675 153.579 266.001 157.765L293.856 157.832C297.811 157.655 300.899 155.507 303.904 153.825C307.252 151.951 310.232 150.438 312.551 148.726C311.561 150.306 307.021 156.453 306.649 157.759L312.391 157.826C313.751 156.268 315.262 153.654 316.609 151.817L322.918 142.762C324.23 140.781 323.604 141.549 325.634 140.349C328.904 138.41 326.85 135.69 334.801 128.729C337.905 126.014 341.745 121.413 345.326 118.456C346.432 117.543 347.125 117.232 347.179 115.315C347.227 113.574 347.171 111.646 347.147 109.892C345.245 110.473 340.071 116.525 338.29 117.377C338.826 115.393 340.441 112.208 340.709 110.36C341.389 105.693 337.532 104.745 334.889 109.943C330.053 119.455 328.095 119.967 320.232 127.918C314.667 133.547 319.314 130.4 312.755 134.533C311.657 135.226 311.271 135.716 310.128 136.694C307.171 139.23 297.546 137.961 293.888 136.962C288.942 135.612 291.906 137.125 286.628 134.964C283.066 133.507 282.932 135.007 280.085 132.243C276.063 128.338 275.782 126.201 274.469 119.316C273.904 116.357 274.169 104.584 275.436 102.316C280.369 93.4913 284.26 94.051 291.456 86.0222C292.533 84.8224 297.857 80.9767 299.375 79.8653L314.364 66.6919C317.182 63.2399 320.243 60.9153 322.899 56.6626C325.275 52.8597 327.776 49.3997 329.825 44.7077C331.641 40.5513 333.746 35.8594 334.271 30.5863C335.518 18.0502 326.78 9.92232 320.256 0.0375797L320.259 0.0322266Z" fill="black"/>
<path fill-rule="evenodd" clip-rule="evenodd" d="M149.862 121.919C151.52 123.416 153.18 125.315 156.244 126.501C164.864 129.835 174.476 128.483 182.671 124.75C185.502 123.461 191.273 118.622 193.876 116.568C193.102 117.891 193.086 117.939 191.784 119.15C189.318 121.44 188.089 124.297 185.076 127.157C181.562 130.494 178.22 132.497 172.636 134.538C166.736 136.694 166.319 138.116 157.837 133.852C155.127 132.489 154.23 131.37 152.433 129.343C150.379 127.021 150.089 125.974 149.862 121.919ZM223.905 95.1276C223.843 101.046 222.253 103.507 219.117 109.364C217.994 111.461 216.693 113.796 215.3 115.462C214.545 116.365 213.967 117.058 213.115 118.076L205.373 127.296C203.354 129.292 198.983 135.052 196.613 136.134C195.351 136.71 193.637 136.431 192.649 135.84C190.959 134.83 191.431 134.284 191.061 132.323C190.871 131.316 189.773 130.339 191.016 128.622C192.357 126.766 204.676 115.395 208.016 111.054C208.809 110.023 209.355 109.415 210.193 108.438C213.246 104.878 215.587 100.652 217.638 96.3675C218.683 94.1849 219.285 90.4088 222.657 91.7077C224.202 92.3022 223.921 93.4163 223.902 95.1276H223.905ZM212.566 157.837L215.14 136.091C215.499 133.745 215.341 130.759 218.016 130.663C222.322 130.507 219.754 136.177 219.071 142.872C218.629 147.203 218.3 154.042 217.341 157.84L229.349 157.842C228.833 155.4 228.434 154.433 227.657 152.352L228.57 132.564C230.407 118.076 229.368 121.627 232.994 108.526C234.071 104.64 234.898 101.335 236.516 97.9503L244.197 76.8364C245.3 73.9495 245.22 74.3619 245.212 70.8134C245.206 68.4434 245.343 65.7385 245.123 63.4166L240.45 73.1112C238.881 76.3142 237.71 80.1197 236.387 83.4619C235.828 76.582 240.857 62.6266 242.673 54.5201C243.115 52.5517 242.737 51.6305 243.532 49.6273C244.414 47.4125 243.878 46.4297 243.27 44.5925L228.085 44.5872C226.955 52.608 224.545 62.565 221.661 69.3593L213.924 84.6537C212.92 86.3409 211.883 87.5781 210.833 89.5492C209.406 92.2272 206.773 97.3129 204.88 98.9653C204.106 99.6428 200.689 104.252 197.379 107.149C194.259 109.878 183.134 119.219 179.859 120.644C172.411 123.885 161.592 124.953 155.199 120.186C152.872 118.451 150.751 113.395 150.464 109.546C149.87 101.611 154.535 93.2235 157.8 85.8106C159.498 81.9569 162.044 78.6173 163.461 75.7893C167.95 66.8311 168.804 67.2784 172.596 61.5607C173.772 59.7905 175.028 58.3685 175.917 56.6786C172.741 57.0428 169.248 57.9212 166.051 58.5479C160.413 59.6539 161.793 59.1692 159.16 63.4996L150.638 78.4004C151.779 73.4192 155.049 63.8772 155.754 60.6261L150.156 61.7134L144.862 80.2188C143.852 83.9011 143.405 86.0489 142.891 90.0607C142.658 91.8684 142.248 93.2342 142.012 95.0071C141.771 96.8014 141.782 98.7215 141.525 100.572C140.108 110.749 138.858 122.334 141.876 132.564C147.189 150.566 153.001 150.794 170.976 150.826C180.373 150.842 189.904 147.012 197.065 141.391C198.075 140.598 199.232 139.648 200.228 138.796L206.273 132.99C206.789 132.436 208.694 130.433 208.846 129.913C208.878 130.698 203.919 152.532 204.502 157.805L212.579 157.848L212.566 157.837Z" fill="black"/>
<path fill-rule="evenodd" clip-rule="evenodd" d="M191.763 292.611C191.763 290.329 194.326 288.497 196.548 291.668C197.869 293.551 199.438 294.044 199.438 297.41C199.438 298.899 199.476 300.932 198.619 302.035C197.759 303.144 196.99 303.211 195.432 302.737C191.235 301.457 191.763 296.13 191.763 292.611ZM194.963 285.892C194.96 283.554 196.021 282.978 197.092 281.872C199.058 282.437 198.519 281.824 200.338 283.082C201.358 283.789 200.882 282.956 201.39 284.258C202.239 286.414 201.53 289.408 197.839 289.408C195.102 289.408 194.966 288.12 194.96 285.892H194.963ZM202.001 280.128C197.21 280.115 199.109 274.837 199.588 274.194C201.074 272.209 205.207 274.039 205.199 276.933C205.193 279.234 204.352 280.136 202.001 280.128ZM192.012 256.543C191.141 258.942 188.271 263.589 186.602 265.372C185.437 266.618 184.923 268.307 184.015 269.834C183.126 271.331 182.167 272.464 181.142 274.325C178.94 278.321 178.978 280.533 176.316 283.888C174.16 286.604 173.086 288.728 170.124 292.423C167.577 295.597 165.89 298.685 163.656 300.348C162.529 301.186 160.885 302.846 159.923 303.969C158.836 305.241 157.411 306.245 156.273 307.678C150.788 314.579 144.516 318.792 141.959 322.236C143.07 322.42 146.814 322.509 147.901 322.337C149.219 322.131 150.547 320.725 151.45 319.825L156.083 315.495C157.103 314.528 160.569 310.182 163.383 307.437C164.508 306.341 165.188 305.712 166.466 304.448C167.582 303.342 168.536 302.806 169.612 301.647L160.673 317.204C159.728 318.518 158.169 320.939 157.593 322.276L162.963 322.367C164.546 320.8 171.961 308.157 173.059 305.902C174.733 302.469 176.551 301.167 178.589 298.318C180.429 295.744 182.175 292.988 183.929 290.447C183.844 296.746 180.855 301.325 179.511 305.958C178.429 309.686 175.627 318.31 175.884 322.252L185.413 322.38C185.954 320.602 185.914 318.992 186.31 317.23C187.076 313.813 189.899 306.644 190.346 302.721L195.892 310.246C197.073 312.461 195.359 319.306 195.493 322.361C197.826 322.394 201.779 322.605 203.948 322.386C205.571 322.22 204.486 322.519 205.509 321.719C207.472 320.182 207.081 319.22 206.109 317.289C204.99 315.066 206.73 304.4 207.531 301.949C208.377 302.482 208.736 303.409 210.319 303.315C212.802 303.168 213.426 299.909 210.956 298.069C209.949 297.319 209.379 296.708 208.452 296.157C208.391 289.775 212.879 281.583 214.135 274.336C215.592 265.948 215.865 268.329 216.937 263.396C217.807 259.387 219.398 256.84 220.314 253.002C221.516 247.962 224.687 235.745 226.829 232.001C228.629 228.854 228.508 226.61 229.32 224.243C232.467 215.057 231.987 221.182 231.987 209.176H226.966L226.071 212.347C225.648 213.38 225.137 214.058 224.593 215.035C223.474 217.052 224.036 217.256 222.129 220.903C219.529 225.876 221.398 224.481 216.286 231.693C213.46 235.681 212.044 239.143 208.423 240.485C203.918 242.151 199.489 243.187 194.652 243.3C188.619 243.444 192.13 242.065 184.877 249.888L177.175 258.824C175.092 261.245 168.185 265.643 165.006 267.434C161.688 269.304 162.882 269.405 156.868 271.778C155.925 272.15 154.969 272.292 153.914 272.667L144.889 276.125C140.322 278.115 133.989 274.628 131.38 279.266C130.151 281.449 131.008 283.821 132.406 285.094C134.179 286.706 136.362 286.427 139.289 286.427C148.295 286.427 152.409 283.176 158.777 281.43L167.408 277.531C168.474 276.885 168.83 276.441 169.878 275.846C173.852 273.586 181.412 268.648 184.401 265.407C185.121 264.628 185.477 263.744 186.15 262.986L192.02 256.545L192.012 256.543Z" fill="black"/>
<path fill-rule="evenodd" clip-rule="evenodd" d="M213.439 211.819C207.354 213.276 209.012 212.154 205.434 216.688C203.428 219.227 201.642 221.393 199.604 223.975C198.715 225.102 197.853 226.58 196.91 227.678C195.836 228.932 194.851 229.267 194.251 231.396C193.035 235.71 196.46 238.008 200.258 237.743C207.962 237.204 206.345 236.784 212.684 230.962C214.205 229.564 219.644 218.916 219.741 218.383C220.52 214.05 217.561 210.828 213.442 211.816L213.439 211.819Z" fill="black"/>
<path fill-rule="evenodd" clip-rule="evenodd" d="M339.364 175.079C344.153 174.538 348.047 178.303 348.43 182.559C348.888 187.658 345.478 191.522 341.097 192.017C330.495 193.215 328.167 176.343 339.364 175.079ZM348.317 173.978C346.638 172.701 345.358 171.362 342.388 170.762C327.725 167.8 321.312 188.142 333.885 194.963C335.995 196.107 338.922 196.68 341.809 196.318C343.041 196.163 344.439 195.66 345.347 195.18C346.627 194.505 347.238 193.747 348.223 193.145L348.258 195.871L352.915 195.917L352.897 163.22L348.325 163.228L348.317 173.978Z" fill="black" fill-opacity="0.5"/>
<path fill-rule="evenodd" clip-rule="evenodd" d="M372.133 181.083C373.711 173.134 385.698 172.569 387.478 181.083H372.133ZM391.664 187.925L386.707 187.933C384.749 190.769 382.353 192.612 378.204 191.808C375.012 191.19 372.404 188.501 371.959 185.247L392.502 185.244C393.276 177.673 388.451 171.878 382.355 170.686C374.675 169.184 368.756 174.554 367.425 180.341C364.308 193.886 381.038 202.253 389.484 192.015C390.151 191.206 391.632 189.047 391.664 187.922V187.925Z" fill="black" fill-opacity="0.5"/>
<path fill-rule="evenodd" clip-rule="evenodd" d="M296.754 175.097C300.069 174.712 302.206 176.056 303.96 178.003C304.287 178.367 304.557 178.788 304.82 179.281C305.374 180.317 305.693 181.152 305.878 182.478C306.558 187.344 302.98 191.388 298.853 191.977C293.851 192.692 289.967 188.879 289.477 184.655C288.91 179.757 291.871 175.665 296.756 175.1L296.754 175.097ZM305.73 192.987L305.76 195.909L310.398 195.903L310.412 171.161L305.771 171.137L305.765 173.868C304.049 172.947 303.358 171.383 299.584 170.724C284.445 168.07 279.14 189.066 291.697 195.137C296.807 197.609 301.703 196.61 305.733 192.987H305.73Z" fill="black" fill-opacity="0.5"/>
<path fill-rule="evenodd" clip-rule="evenodd" d="M452.483 193.573L452.48 195.826L456.899 195.917L456.894 171.136H452.381C452.328 175.467 452.531 179.966 452.344 184.264C452.164 188.402 450.855 191.747 446.656 191.932C442.084 192.133 440.815 188.766 440.71 184.473C440.603 180.052 440.804 175.566 440.691 171.142L436.12 171.145C435.967 174.728 436.099 178.555 436.099 182.133C436.099 187.526 436.208 195.196 443.935 196.284C446.455 196.637 448.795 196.361 450.737 194.918C451.532 194.326 451.68 193.991 452.483 193.573Z" fill="black" fill-opacity="0.5"/>
<path fill-rule="evenodd" clip-rule="evenodd" d="M244.28 187.368L239.574 187.349C238.846 187.545 238.84 189.353 236.146 191.01C231.99 193.568 224.213 191.372 224.256 183.405C224.304 174.176 234.989 172.58 238.677 178.362C239.622 179.843 238.65 179.462 244.277 179.457C242.965 173.723 236.744 169.377 229.992 170.646C224.473 171.685 219.374 176.964 219.467 183.616C219.623 194.422 231.275 199.848 239.363 194.428C241.267 193.15 243.685 190.062 244.277 187.363L244.28 187.368Z" fill="black" fill-opacity="0.5"/>
<path fill-rule="evenodd" clip-rule="evenodd" d="M205.544 187.759L201.444 187.756C200.914 191.27 203.648 196.133 208.624 196.522C213.535 196.905 217.129 193.453 217.153 188.715C217.183 182.861 213.613 182.205 209.363 180.317C202.33 177.194 211.401 170.903 212.397 177.537L216.829 177.532C216.545 174.65 215.911 173.359 214.341 171.94C212.93 170.665 210.407 170.02 207.863 170.601C204.151 171.45 200.782 176.193 203.11 180.839C205.295 185.202 211.422 184.353 212.585 187.719C213.431 190.169 211.821 192.207 209.446 192.231C206.588 192.261 206.093 190.199 205.544 187.762V187.759Z" fill="black" fill-opacity="0.5"/>
<path fill-rule="evenodd" clip-rule="evenodd" d="M398.815 187.748L394.583 187.762C394.455 192.481 397.534 196.217 401.905 196.524C406.771 196.867 410.354 193.279 410.373 188.713C410.384 186.043 409.511 184.283 408.024 182.995C406.356 181.549 404.513 181.225 402.449 180.279C395.754 177.216 404.452 170.914 405.606 177.537H410.02C409.757 174.8 409.101 173.156 407.508 171.843C406.021 170.62 403.399 169.99 400.97 170.633C397.347 171.589 393.871 176.286 396.423 181.029C398.616 185.1 404.872 184.551 405.831 187.74C407.079 191.881 402.184 193.611 399.846 190.965C399.064 190.078 399.069 189.168 398.812 187.748H398.815Z" fill="black" fill-opacity="0.5"/>
<path fill-rule="evenodd" clip-rule="evenodd" d="M339.364 175.079C328.167 176.343 330.494 193.214 341.097 192.017C345.475 191.522 348.887 187.657 348.429 182.558C348.046 178.303 344.153 174.54 339.364 175.079Z" fill="black" fill-opacity="0.5"/>
<path fill-rule="evenodd" clip-rule="evenodd" d="M266.202 178.04C267.033 179.154 267.58 180.498 267.763 181.945C267.774 182.029 267.784 182.113 267.793 182.196C267.784 182.113 267.774 182.029 267.764 181.945C267.581 180.498 267.034 179.154 266.202 178.04ZM247.284 185.678C246.002 177.738 251.585 171.798 257.731 170.553C265.201 169.04 271.668 175.285 272.485 181.487C273.503 189.197 268.171 195.231 262.097 196.367C254.368 197.813 248.299 191.958 247.284 185.678Z" fill="black" fill-opacity="0.5"/>
<path fill-rule="evenodd" clip-rule="evenodd" d="M415.528 170.89L412.095 171.139L412.068 175.352L415.494 175.338L415.528 195.855L420.108 195.914L420.127 175.338L423.565 175.344L423.552 171.139L420.124 171.136V163.193L415.528 163.242V170.89Z" fill="black" fill-opacity="0.5"/>
<path fill-rule="evenodd" clip-rule="evenodd" d="M276.261 195.908H280.79L280.776 163.217L276.253 163.225L276.261 195.908Z" fill="black" fill-opacity="0.5"/>
<path fill-rule="evenodd" clip-rule="evenodd" d="M426.597 195.826L431.158 195.917L431.152 171.145L426.602 171.155L426.597 195.826Z" fill="black" fill-opacity="0.5"/>
<path fill-rule="evenodd" clip-rule="evenodd" d="M372.133 181.083H387.478C385.697 172.569 373.71 173.134 372.133 181.083Z" fill="black" fill-opacity="0.5"/>
<path fill-rule="evenodd" clip-rule="evenodd" d="M193.544 187.917L198.503 187.987H198.506C197.995 190.456 194.904 193.686 193.056 194.802C183.656 200.488 171.508 191.704 174.181 180.389C177.523 166.241 199.719 166.667 199.336 185.239L178.721 185.311C179.575 188.624 181.436 191.125 184.931 191.792C186.937 192.178 188.956 191.857 190.373 191.069C191.864 190.239 192.496 189.365 193.387 188.134C193.438 188.063 193.49 187.991 193.544 187.917Z" fill="black" fill-opacity="0.5"/>
<path fill-rule="evenodd" clip-rule="evenodd" d="M358.287 168.346C358.547 168.855 358.226 168.659 359.795 168.849C359.966 170.386 359.503 170.978 358.293 171.254L358.29 174.382C363.724 173.303 363.041 168.924 363.001 163.255L358.295 163.223L358.285 168.346H358.287Z" fill="black" fill-opacity="0.5"/>
<path fill-rule="evenodd" clip-rule="evenodd" d="M426.605 168.416L431.061 168.453L431.174 167.497L431.155 164.101L431.16 163.215L430.311 163.228H427.553L426.597 163.287L426.605 168.416Z" fill="black" fill-opacity="0.5"/>
</svg>
