<svg width="457" height="323" viewBox="0 0 457 323" fill="none" xmlns="http://www.w3.org/2000/svg">
<path fill-rule="evenodd" clip-rule="evenodd" d="M68.0829 106.935C68.1311 106.86 68.2088 106.777 68.249 106.731C68.2892 106.689 68.3695 106.587 68.4177 106.536L82.033 94.482C82.831 93.5795 83.372 92.8136 84.1004 92.061C84.8664 91.2683 85.5091 90.88 86.2724 90.0686C90.6028 85.4596 92.4025 85.1463 95.6456 82.1656C97.3381 80.6096 98.3236 79.4822 100.166 78.0548C102.199 76.4801 107.93 70.8615 111.422 74.0055C114.467 76.7479 110.316 79.1153 110.062 79.3161C109.446 79.8009 105.517 89.8811 104.952 91.4558C101.663 100.631 101.061 103.033 99.5288 112.034C99.178 114.093 99.5234 118.044 98.6504 119.535L68.0803 106.935H68.0829ZM122.335 37.6401L43.7474 113.831L88.7817 58.0148L115.145 37.6401C122.397 34.9486 123.95 35.4173 122.338 37.6401H122.335ZM106.516 120.21C106.537 117.813 106.604 114.434 107.092 112.168C107.542 110.076 108.305 107.84 107.951 105.558C107.633 103.491 110.375 94.5383 110.865 92.1682C111.331 89.9132 111.288 87.1923 111.939 85.0445C112.777 82.2754 113.251 81.6648 114.389 79.4849C115.316 77.7066 115.56 74.8009 116.618 73.719C117.978 72.3264 120.136 71.3301 122.638 71.8095C122.753 73.6627 119.582 82.6637 118.693 84.1286C115.629 89.1821 114.341 95.1837 111.569 101.003C110.091 104.11 110.98 104.999 110.699 108.194C110.667 108.561 107.796 118.973 106.513 120.213L106.516 120.21ZM139.536 16.2317C141.138 15.6478 142.935 16.2879 143.792 17.3243C145.35 19.2097 144.116 20.0372 143.639 21.3575C143.112 22.8143 143.553 24.223 142.485 25.6504C140.032 28.9284 131.438 25.5219 133.588 21.2316C133.835 20.7388 138.457 16.6253 139.539 16.2343L139.536 16.2317ZM18.6084 90.5399C27.9227 84.4875 36.1095 79.3831 45.2578 72.1014C48.8036 69.2814 57.8286 64.5654 62.9223 60.9714C66.1494 58.695 77.4347 50.7519 80.4663 49.6191C79.6441 51.1322 78.2301 52.6319 77.0973 54.0191C71.5243 60.8428 72.716 59.3753 65.2335 65.5187L61.195 69.1556C59.7917 70.5241 58.3723 71.539 56.7119 72.6719C47.2958 79.0965 42.9761 82.4602 34.2188 89.225C32.6575 90.4328 31.2944 91.504 29.6768 92.6824L15.8768 102.235C14.1923 103.333 14.2619 103.054 12.9684 104.286C12.3042 106.078 8.28177 116.394 5.86883 126.399C2.73014 139.409 -0.325531 153.887 0.0279738 154.792C22.6764 143.874 6.63208 155.555 32.1567 135.164L39.8079 128.646C40.8631 127.414 40.124 127.004 41.7013 125.834C42.5878 125.178 43.8009 124.862 44.8588 124.182C46.3103 123.247 46.3397 122.995 47.4967 122.023C48.367 121.292 49.066 120.665 49.8828 119.91C53.0403 116.994 52.3707 117.87 54.9578 115.706C56.7253 114.225 56.7333 115.042 59.7729 116.359C60.7209 116.769 60.5924 116.605 61.3449 117.2C63.9132 117.971 67.2019 119.723 70.0647 120.813C71.784 121.466 72.8151 122.112 74.3951 122.886C75.935 123.641 77.4187 124.112 78.9559 124.731C80.4636 125.339 81.6473 126.003 83.2194 126.549C86.2134 127.588 95.3537 130.612 97.1373 131.9C96.915 135.373 96.5427 137.154 99.7109 138.191C99.3172 139.806 98.0692 142.023 97.2471 143.641C96.2803 145.542 95.7875 146.691 94.802 148.879C93.8995 150.879 93.5219 152.344 92.4881 154.246C91.2991 156.434 90.6322 157.283 90.177 159.746L98.0478 159.736C98.5406 158.067 99.7886 156.23 100.544 154.572C101.366 152.767 102.078 150.82 102.86 148.884C103.567 147.138 104.566 145.644 105.426 143.772C106.24 141.994 106.936 139.806 107.935 138.239C109.976 138.654 109.612 139.064 109.523 141.169L109.344 149.985C109.708 151.027 110.87 151.937 112.124 152.122C118.404 153.051 116.88 143.582 117.3 138.657C120.053 138.619 128.741 142.623 131.245 142.821L131.234 130.438L119.164 126.785C119.247 124.867 120.294 121.107 120.613 118.753C120.806 117.323 120.833 115.832 121.034 114.332C121.213 112.977 121.864 111.756 122.332 110.403C124.068 105.398 124.997 100.32 127.049 95.3068C129.357 89.6615 128.42 88.4242 131.625 80.3766C132.185 78.9733 132.19 77.8968 132.466 76.464L136.328 65.2456C137.924 61.6141 137.027 61.9328 141.044 60.3715C143.551 59.3967 145.725 58.5826 148.35 57.7631C153.942 56.0143 159.426 55.8804 165.24 54.7985C169.239 54.054 179.638 53.5237 182.426 52.1579C185.045 50.8751 184.814 47.5248 182.182 46.467C179.994 45.5886 176.387 47.1526 173.561 46.9919L181.598 44.6245C185.181 43.8425 184.423 44.9807 184.389 37.6106C175.302 37.7981 167.386 43.7434 154.981 44.6191C150.98 44.9003 147.828 45.7466 144.212 46.5527C145.57 44.2737 150.94 42.5892 154.919 39.6942C158.508 37.0804 163.382 34.8415 165.297 32.7874C167.062 30.8914 166.411 28.0928 163.786 27.4126C160.945 26.6761 159.327 28.7704 157.825 29.7934C156.231 30.8753 153.958 31.8662 152.375 32.9829C150.956 33.9845 148.752 35.9984 146.917 36.4885C147.421 34.4987 148.661 35.8806 148.655 31.7591L149.025 19.2659C149.175 16.9387 150.005 16.3254 149.619 13.5081H129.204C128.053 15.2006 122.788 20.6585 120.881 22.6081C112.354 31.3118 118.966 24.4104 111.162 30.1629C109.124 31.6653 105.739 34.7371 104.092 34.5443C104.925 33.39 112.276 28.9551 114.14 27.3938C115.501 26.2556 117.989 24.7934 117.983 22.4635C117.978 20.064 115.102 18.6044 112.708 19.5605C111.773 19.9354 109.33 22.3751 107.895 23.3767C97.1185 30.8994 82.4802 40.211 71.2082 47.174C66.0208 50.377 53.7312 59.319 50.0194 60.9151C48.442 60.1948 47.5984 58.296 43.2948 60.8589C38.7206 63.5825 32.4459 64.7019 29.4599 69.2198C26.2489 74.0752 21.016 84.1125 18.6137 90.5533L18.6084 90.5399Z" fill="black"/>
<path fill-rule="evenodd" clip-rule="evenodd" d="M93.2432 294.499C92.5202 297.715 91.5507 298.596 90.043 300.61C88.6745 302.439 87.6166 304.555 85.991 306.159C80.7608 311.322 73.0051 308.023 76.342 302.908C79.1245 298.644 77.4962 302.08 79.5958 296.879C80.26 295.238 81.7945 291.451 82.7854 290.476C86.0848 287.238 94.8581 287.308 93.2379 294.499H93.2432ZM47.4537 315.937C45.9031 315.934 45.5014 315.856 44.3739 315.197C44.3391 313.617 46.12 295.91 46.8136 293.859C48.9615 287.512 47.3707 291.234 58.49 285.693C59.4407 285.219 60.4075 284.434 61.1092 284.135C62.7053 283.449 62.882 284.199 64.2291 283.43C66.3126 282.241 65.1611 282.962 67.4615 282.453C70.402 281.802 67.0705 281.357 73.5407 281.531C72.357 282.841 75.3591 284.086 73.1658 286.609C72.4052 287.485 70.0351 287.774 66.0689 295.195L57.4268 310.232C56.7761 311.226 54.6416 313.435 53.5811 314.054C52.9277 314.434 48.1554 315.939 47.4537 315.939V315.937ZM29.3446 310.232C30.3194 306.764 31.5969 303.668 32.2048 300.048C32.5771 297.836 33.0029 295.889 33.5278 293.687C33.8732 292.238 34.1544 288.157 34.2348 286.478C34.3928 283.168 33.7956 273.572 34.7249 271.213C37.0387 265.34 43.774 268.428 41.7575 272.737C40.4586 275.508 40.713 272.474 40.713 279.456C40.7103 291.906 40.6113 288.69 38.5759 300.998C37.5208 307.38 38.0591 303.553 36.9959 307.08C36.3853 309.099 35.5015 311.395 35.3274 313.395C35.1614 315.315 34.2937 316.496 33.2359 317.016L29.3446 310.23V310.232ZM43.7017 264.986C42.4511 262.691 42.5555 256.561 42.0895 253.479C41.7842 251.459 41.3477 249.802 41.013 247.847C40.697 246.012 40.6541 243.953 40.3729 242.054C38.7875 231.331 37.2771 231.326 41.0263 220.563C41.7307 218.541 41.7709 216.923 42.3279 215.123C42.7992 213.597 43.4661 211.995 44.0097 210.413C44.631 208.605 45.164 207.518 45.5978 205.587C45.9754 203.91 46.2646 201.982 46.7895 200.399C47.767 197.448 50.3996 188.487 51.7252 185.807C52.3787 184.489 53.2651 183.115 53.6963 181.648C54.347 186.795 53.9534 199.451 53.0562 204.43C52.4162 207.984 51.6931 217.403 51.1146 220.086C49.5346 227.426 49.722 229.017 48.6428 235.166C46.8619 245.292 46.7333 254.895 43.7071 264.986H43.7017ZM24.5429 301.526C28.327 308.735 32.2423 315.768 36.5593 322.251L61.219 322.257C62.4884 322.257 63.8488 322.088 64.9843 322.115L86.5106 322.27C89.2074 322.238 89.9599 320.487 91.5962 318.807C93.0263 317.342 94.3948 316.078 95.9454 314.512C96.6765 313.775 97.1773 313.074 97.8709 312.273C98.6262 311.403 99.3358 310.896 100.118 310.042C104.43 305.334 108.57 297.123 115.233 290.599C119.215 286.7 123.476 279.36 126.446 275.567C126.759 275.168 136.341 260.937 136.893 260.088C138.221 258.039 138.519 256.553 140.032 254.595C141.448 252.761 142.68 251.821 143.939 249.869C145.195 247.919 146.336 246.251 147.423 244.384L154.78 234.47C156.009 233.093 157.067 231.012 158.162 229.189C159.638 226.728 159.132 224.756 159.132 221.535C159.132 212.863 159.504 193.9 159.07 186.532C154.25 195.844 151.368 204.679 145.661 212.547C141.947 217.668 142.978 218.476 137.86 224.59C136.427 226.302 135.19 228.546 133.768 230.418L129.716 236.181C131.473 230.868 133.993 225.533 136.242 220.391C137.461 217.609 137.833 214.537 139.129 212.1L144.169 200.166C145.615 197.579 148.443 191.04 149.258 188.313C151.309 181.452 164.713 161.691 164.274 154.856L145.141 154.781C144.159 155.175 144.244 155.357 143.644 156.166C141.347 159.259 132.86 175.906 131.748 179.773C130.68 183.493 129.338 185.659 128.278 188.72C127.552 190.815 126.939 191.099 126.253 192.823L120.584 206.023C119.295 209.122 118.888 212.132 117.453 215.397C116.159 218.337 114.113 221.961 113.613 224.012C112.777 227.445 111.216 229.855 109.724 232.603C107.989 235.798 106.706 237.496 105.008 240.383C101.974 245.538 98.6663 250.536 95.0456 255.372C94.0065 256.759 93.3745 257.394 92.247 258.645C87.1239 264.328 91.2213 260.128 85.9562 264.839C80.0323 270.139 84.1137 266.572 78.8433 270.201C77.1213 271.387 72.8257 274.735 71.4063 275.251L62.6196 278.939C60.911 279.909 60.204 280.117 58.2409 280.948L49.3766 284.627C49.7194 283.473 50.2389 283.173 50.8789 281.922C52.526 278.703 56.7091 262.161 57.2715 258.864C58.4846 251.735 56.2404 252.973 59.4729 244.103C63.5837 232.817 65.1825 213.348 67.017 201.066C67.4026 198.477 68.1739 197.172 68.4631 194.219C68.7202 191.583 69.3281 189.532 69.7727 186.875C70.619 181.835 71.018 156.9 71.9259 151.835L65.212 151.876C64.1863 156.905 63.9827 181.977 63.1365 186.988C62.6973 189.588 62.1777 191.554 61.8724 194.336C61.8135 194.877 60.4745 200.849 60.3031 201.318L59.4996 141.787H49.9015C48.3214 142.733 48.1741 178.099 47.2689 180.076C46.6476 181.433 46.0022 182.438 45.3327 183.9C44.5159 185.684 44.8319 186.428 43.8196 188.147C42.5743 190.263 41.9182 194.261 41.0478 196.894C40.1158 199.709 39.5722 203.793 38.592 206.141L38.4822 171.929H27.9092C27.8503 182.17 29.0206 181.945 25.6355 185.571C24.6312 184.419 23.2842 185.651 21.9103 183.688C21.056 182.467 21.4952 180.903 21.1364 179.374C20.3945 176.219 18.0432 175.003 18.0968 171.929L9.03955 171.94C11.3454 173.589 10.0492 171.268 11.9908 174.417C12.7755 175.692 13.3968 176.583 14.077 178.086C18.4717 187.783 22.3201 189.366 25.2499 200.857C25.6221 202.314 26.3506 203.418 26.4978 204.952C26.6773 206.832 26.4443 208.578 26.7416 210.563C27.1834 213.498 27.9922 217.247 28.185 220.279C28.6323 227.346 28.2547 235.766 28.2413 242.973C28.2332 246.599 28.6082 250.102 28.6216 253.854C28.6376 257.587 28.6296 261.32 28.6296 265.053C28.6296 269.598 28.7983 283.591 28.0806 287.3C27.4432 290.594 26.4014 292.728 25.8658 296.266C25.8096 296.636 25.2793 298.717 24.5348 301.523L24.5429 301.526Z" fill="black"/>
<path fill-rule="evenodd" clip-rule="evenodd" d="M402.654 310.816C402.651 305.728 405.415 290.902 407.378 287.134C407.67 290.254 407.354 291.7 408.093 294.815C408.685 297.297 409.804 298.409 410.629 300.616C412.892 306.676 416.03 305.399 420.206 307.501C418.81 308.165 417.972 308.433 416.478 308.955C415.198 309.402 414.15 310.069 412.862 310.471C410.591 311.178 405.356 310.814 402.651 310.814L402.654 310.816ZM430.238 252.579C432.736 249.96 436.804 245.825 438.671 241.438C438.631 244.767 436.914 247.501 435.789 250.201C435.101 251.851 434.638 252.866 433.743 254.234C433.042 255.308 431.89 256.307 431.579 257.539C431.636 253.966 430.923 254.679 430.238 252.582V252.579ZM423.735 225.217C425.918 224.995 429.501 225.043 431.788 225.116C434.322 225.196 435.65 226.787 436.601 228.533C438.033 231.165 437.983 231.741 436.261 234.033L425.851 248.254C422.851 251.355 424.852 250.163 421.384 252.124C419.432 253.227 419.817 254.877 418.018 256.743C415.452 259.4 422.019 242.606 418.551 245.994C416.21 248.281 409.022 267.357 406.065 269.29C401.896 272.022 399.866 273.899 396.743 276.746L387.595 284.247C385.468 286.191 381.218 290.736 379.057 292.043C377.231 293.149 374.146 291.317 373.688 290.187C373.259 289.121 373.422 275.862 373.642 274.146C374.033 271.066 374.437 270.078 375.281 267.445C377.889 259.301 379.325 260.236 380.723 256.243C381.537 253.921 382.33 252.678 383.476 250.996C384.073 250.123 384.654 249.384 385.273 248.64C385.908 247.876 386.609 247.298 387.26 246.47C391.778 240.71 392.53 239.082 399.917 234.486C404.038 231.923 402.431 232.571 404.574 230.825C407.107 228.76 420.937 225.504 423.735 225.22V225.217ZM369.429 298.007C367.426 296.789 365.214 292.739 364.001 290.594C362.44 287.833 361.302 283.516 362.732 280.305C363.532 272.415 363.626 275.088 364.419 270.715C364.641 269.496 364.539 268.417 364.815 267.201C365.6 263.747 367.48 259.114 368.891 256.256C372.432 249.087 378.197 246.339 384.306 241.843C381.32 246.291 378.342 248.042 376.242 254.017C374.938 257.729 373.653 256.701 369.751 268.002C368.717 270.996 368.431 276.773 368.492 280.206C368.487 281.435 369.459 288.856 369.794 289.919C370.08 290.827 371.652 292.774 372.236 293.221C373.755 294.384 374.419 294.212 374.52 296.797C380.787 298.446 383.187 295.559 387.729 291.095C388.862 289.981 389.767 288.923 391.116 287.766C392.156 286.877 393.824 285.65 394.927 284.85C399.469 281.558 399.791 279.496 406.028 276.012C403.486 280.549 401.44 289.167 399.943 295.005C399.485 296.794 399.381 298.578 398.934 300.374C398.436 302.38 398.232 303.746 398.058 305.894C397.745 309.724 396.39 314.699 400.131 315.618C401.197 315.88 411.138 315.784 412.557 315.605C414.354 315.38 420.074 313.071 421.995 312.23C424.49 311.138 428.441 308.235 430.513 307.943C435.792 307.201 440.492 306.264 444.705 303.267C446.1 302.276 447.383 301.815 448.194 300.345C450.186 296.73 447.503 293.042 443.923 292.959C439.413 292.852 447.471 295.083 438.098 295.091C456.014 272.014 432.439 295.117 430.53 295.075C418.505 294.804 419.145 292.667 419.777 285.407C420.24 280.088 421.017 279.721 422.71 275.511C423.925 272.49 425.554 269.357 427.169 267.169C428.62 265.206 430.556 261.144 431.261 258.342C432.177 262.507 434.806 261.36 435.599 260.568L438.797 255.442C442.375 249.14 444.239 243.337 443.465 236.045C443.012 231.779 449.153 222.579 449.319 221.776C449.651 220.161 449.102 219.334 448.044 218.943C447.192 221.339 448.036 222.681 445.695 223.945C444.097 224.808 441.986 225.099 440.693 226.018C439.927 224.352 438.604 222.719 437.214 221.993C437.206 218.348 436.981 216.8 440.749 216.436C442.209 216.294 443.62 216.476 444.948 216.656C447.085 216.945 446.21 216.805 447.763 217.863L456.729 217.842V209.186L412.262 209.135C409.986 209.227 387.702 215.359 386.028 216.09C377.734 219.722 379.523 217.949 370.943 223.102C362.906 227.925 364.861 226.066 357.59 232.143C353.682 235.407 350.846 240.257 347.582 244.542C344.341 248.795 326.856 284.218 326.872 284.37C327.279 283.805 348.037 266.743 350.795 262.801L353.755 259.114C353.527 260.811 352.852 262.172 352.413 263.771C351.963 265.407 351.947 267.228 351.503 268.977C350.52 272.831 350.024 275.203 349.917 279.451C349.689 288.43 352.938 299.992 359.106 306.039C361.173 308.066 362.426 311.033 366.168 311.154C369.759 311.269 372.367 308.947 373.05 306.167C374.263 301.231 371.001 300.061 369.429 297.999V298.007Z" fill="black"/>
<path fill-rule="evenodd" clip-rule="evenodd" d="M400.733 146.292C400.725 141.233 403.497 126.356 405.458 122.612C405.752 125.732 405.433 127.176 406.173 130.293C406.762 132.778 407.884 133.887 408.709 136.094C410.969 142.152 414.116 140.882 418.285 142.979L410.701 146.024C408.559 146.616 403.31 146.292 400.731 146.292H400.733ZM428.317 88.0547C430.816 85.4383 434.887 81.298 436.751 76.914C436.713 79.975 433.569 87.0424 431.823 89.7098C431.116 90.7864 429.973 91.7826 429.657 93.0172C427.444 91.4746 428.995 90.1543 428.317 88.0574V88.0547ZM421.815 60.6929C423.998 60.4707 427.581 60.5189 429.868 60.5912C432.402 60.6715 433.73 62.2596 434.681 64.0084C436.129 66.6731 436.078 67.1926 434.34 69.5091L423.931 83.7297C423.17 84.5143 422.707 85.1089 421.962 85.9284C420.886 87.1121 420.996 86.7318 419.464 87.5968C417.512 88.7001 417.897 90.3498 416.097 92.2164C413.516 94.8972 411.657 97.5645 408.186 100.947C405.835 103.237 402.396 106.557 399.432 108.499C395.257 111.233 397.935 109.386 394.82 112.219L385.672 119.717C383.543 121.664 379.301 126.201 377.134 127.513C375.329 128.606 372.215 126.774 371.765 125.657C371.336 124.592 371.5 111.332 371.719 109.616C372.11 106.533 372.515 105.551 373.358 102.915C375.972 94.7579 377.402 95.7033 378.8 91.713C379.614 89.3911 380.404 88.1485 381.553 86.4666L387.107 79.5519C395.04 70.5938 391.649 74.5948 400.511 68.3147C401.499 67.6157 401.813 66.9784 402.651 66.2955C405.184 64.2307 419.017 60.9742 421.812 60.6903L421.815 60.6929ZM444.881 54.9539L437.554 44.5362L412.892 44.5335C406.644 44.5148 394.767 48.5452 387.718 50.3878C384.574 51.2099 382.914 52.3829 380.024 53.2613C372.274 55.6153 365.937 62.9559 359.861 68.6897C357.584 70.8375 355.19 74.5867 353.131 77.3157C352.054 78.7431 335.273 105.596 335.287 107.87C335.324 114.635 337.004 110.666 337.341 117.347C338.179 116.26 347.879 99.7204 348.747 98.4804L351.835 94.6026C351.607 96.3005 350.935 97.6609 350.496 99.2598C350.046 100.899 350.03 102.72 349.585 104.466C346.754 115.601 347.536 124.268 352.373 134.495C353.589 137.066 355.584 139.958 357.188 141.528C359.258 143.555 360.506 146.522 364.25 146.643C367.841 146.758 370.45 144.436 371.133 141.656C372.346 136.718 369.081 135.55 367.512 133.488C366.776 133.041 365.158 131.198 364.454 130.103C361.872 126.097 358.709 120.494 360.817 115.786C361.604 107.886 361.714 110.548 362.501 106.199C362.724 104.98 362.622 103.901 362.898 102.682C363.682 99.233 365.562 94.5919 366.974 91.7371C368.508 88.6278 371.406 85.1678 373.744 83.4726C376.708 81.3194 379.566 79.4019 382.389 77.3264C381.773 78.245 381.861 78.3468 381.039 79.2466C374.009 86.9353 376.076 87.9476 371.845 93.7403C370.71 95.2935 368.629 101.183 367.833 103.488C366.805 106.469 366.513 112.27 366.575 115.692C366.567 117.211 367.56 124.656 367.962 125.647C368.262 126.389 369.721 128.188 370.525 128.823C371.974 129.964 372.504 129.838 372.603 132.286C377.365 133.542 379.711 132.315 382.335 129.822C386.111 126.233 388.701 123.464 393.01 120.341C394.295 119.41 395.364 118.242 396.615 117.235C400.428 114.163 398.35 114.742 404.11 111.507C401.574 116.019 399.515 124.683 398.026 130.499L396.138 141.388C395.825 145.221 394.472 150.191 398.213 151.112C399.282 151.375 409.218 151.278 410.637 151.099C412.439 150.871 418.152 148.566 420.074 147.725C422.573 146.632 426.515 143.729 428.593 143.437C433.869 142.695 438.574 141.755 442.787 138.761C444.182 137.77 445.465 137.31 446.277 135.839C448.269 132.224 445.586 128.536 442.005 128.453C437.484 128.346 440.843 130.706 431.453 130.714C413.821 130.73 417.145 129.112 417.862 120.904C418.363 115.167 422.053 106.997 425.254 102.666C426.705 100.701 428.639 96.6433 429.346 93.8394C430.262 98.0037 432.894 96.8548 433.684 96.0621L436.882 90.9363C440.457 84.6375 442.324 78.8288 441.55 71.5391C441.258 68.778 442.302 67.7871 443.269 65.326C444.164 63.0497 444.905 61.9463 445.853 59.9056C446.413 58.7031 446.777 59.295 447.002 58.205L444.879 54.9592L444.881 54.9539ZM443.778 59.4316C442.182 60.2939 440.069 60.5858 438.773 61.5071C438.015 59.844 436.681 58.205 435.297 57.4819C435.28 52.6775 435.535 51.1323 443.031 52.1446L443.778 59.4343V59.4316Z" fill="black"/>
<path fill-rule="evenodd" clip-rule="evenodd" d="M295.863 295.632C297.023 294.073 298.217 292.354 299.484 290.841L303.455 286.183C306.915 282.769 309.639 278.01 311.093 276.577C309.143 280.64 306.98 283.864 304.486 287.209C298.841 294.777 298.388 292.771 295.866 295.632H295.863ZM296.471 302.233C297.77 300.864 299.082 299.413 300.536 298.307C309.749 291.301 311.487 284.769 317.705 276.098C319.957 272.956 321.28 268.87 323.281 265.672C326.521 260.485 325.855 259.887 328.664 255.394C330.102 253.096 334.917 242.22 336.184 238.905C336.939 236.934 337.362 234.845 338.246 233.372C338.243 234.687 338.134 235.916 337.973 237.196C337.791 238.632 337.4 239.028 337.14 240.201C336.746 241.974 335.595 251.369 334.904 253.964C331.861 265.399 333.661 260.155 328.733 271.475C326.971 275.522 325.279 278.385 322.944 281.357L315.769 290.174C313.803 291.882 311.473 293.478 309.344 295.597C305.448 299.475 304.559 300.755 298.865 304.635L289.053 310.575C288.453 310.04 288.699 310.34 288.233 309.721L296.468 302.238L296.471 302.233ZM332.585 233.683C332.052 236.264 325.844 252.239 322.909 254.861C323.878 251.352 325.806 248.246 326.99 244.751C328.142 241.355 330.048 238.281 330.723 234.534C330.458 233.744 330.324 234.116 329.585 233.495C328.292 232.411 328.608 230.646 329.146 228.988C329.778 227.044 330.71 225.156 331.479 223.316C332.325 221.291 333.3 219.923 333.982 217.807C334.748 215.437 333.396 213.021 335.916 212.371C340.284 211.243 339.818 217.772 337.263 222.705C335.704 225.71 333.535 232.732 332.587 233.677L332.585 233.683ZM323.854 239.43C324.521 241.955 324.446 242.817 323.053 244.968L318.696 254.371C317.486 258.115 316.655 255.137 315.697 258.27L316.163 256.735C311.173 256.224 315.038 250.179 316.38 247.579C317.196 245.996 317.796 244.414 318.656 242.823C319.947 240.434 318.975 239.266 321.722 238.784L325.838 224.055C326.629 221.404 326.966 219.245 327.453 216.433C327.976 213.415 330.852 211.846 329.422 209.296L319.526 209.133C317.836 213.086 317.534 218.3 316.09 222.649L306.222 255.351C305.397 257.493 304.379 259.475 303.734 261.47C303.862 264.336 303.054 264.103 302.022 266.176L293.541 281.989C292.673 283.481 292.001 284.22 291.056 285.602C289.553 287.796 290.416 287.193 288.426 289.052L283.032 295.822C282.32 296.818 281.281 298.435 280.494 299.362C279.677 300.321 277.982 301.518 276.179 300.666C274.904 300.064 274.647 298.101 274.066 296.689C271.814 291.229 268.314 285.109 267.502 278.706C264.123 268.8 263.774 260.707 266.021 250.624L270.014 232.574C270.684 229.628 272.138 227.18 273.123 224.467C274.05 221.918 275.341 219.071 276.099 216.564C276.586 214.947 276.629 213.616 277.43 212.462C278.142 211.439 279.519 210.244 279.835 209.138C275.941 209.138 267.379 208.501 264.669 209.934C260.676 212.047 260.941 211.297 259.056 212.338C257.885 212.984 257.912 213.324 256.862 213.972C252.73 216.524 246.447 218.72 243.129 220.397C239.024 222.472 231.913 223.865 230.89 224.379L230.866 234.157C233.756 233.996 241.008 231.693 243.847 230.737C246.887 229.714 250.633 227.207 255.63 225.806C255.108 227.255 248.587 230.726 246.959 231.591L230.933 240.806L230.815 251.567C232.661 250.916 234.38 249.893 236.126 248.921C237.864 247.951 239.776 247.159 241.402 246.211C244.664 244.312 248.357 241.851 251.52 240.225C251.126 243.391 250.108 247.432 249.656 250.972C247.982 264.033 245.518 270.854 249.878 284.718C250.979 288.219 251.846 291.02 253.274 294.127C255.119 298.141 257.489 306.78 260.127 312.868C261.078 315.064 263.051 319.991 263.405 322.3C269.645 322.332 269.926 323.047 272.974 320.971C275.285 319.397 277.478 318.05 279.781 316.459C282.031 317.171 283.857 319.421 288.346 317.463C291.265 316.191 291.996 314.338 294.695 312.937C306.532 306.796 308.217 302.994 316.329 296.167C321.331 291.957 319.671 293.529 324.224 287.742C328.179 282.715 330.22 280.5 332.887 274.317C333.937 271.882 335.292 269.561 336.371 266.917C338.707 261.194 339.435 255.565 340.729 249.181C341.639 244.681 341.436 247.657 341.867 242.327C342.11 239.296 343.147 241.109 343.147 229.537C343.147 227.743 343.2 225.868 343.139 224.084C343.077 222.338 342.617 220.793 342.526 219.267C342.341 216.232 343.8 213.094 343.385 209.141H332.951L326.334 231.931C325.177 236.444 324.738 236.393 323.87 239.43H323.854Z" fill="black"/>
<path fill-rule="evenodd" clip-rule="evenodd" d="M296.562 144.374C295.317 145.081 293.715 145.221 292.459 145.813C287.73 148.035 285.496 149.581 279.436 149.487C277.55 149.457 276.404 149.029 274.91 148.284C273.442 147.553 273.038 146.795 273.038 144.717C273.038 141.032 272.944 137.133 273.094 133.472C274.074 134.182 276 136.857 277.205 137.977C279.513 140.119 280.159 139.648 283.303 140.548C286.056 141.335 286.482 142.128 290.001 142.553C291.356 142.717 295.702 143.871 296.562 144.377V144.374ZM263.164 118.135C263.357 115.226 262.141 110.888 265.692 110.885C269.114 110.88 267.797 114.586 267.818 117.173C267.856 122.232 273.52 140.542 268.573 140.542C266.822 140.542 267.427 140.347 266.329 139.278C265.365 138.343 262.826 137.318 262.826 132.213L263.166 118.135H263.164ZM324.36 21.4941C325.386 20.9933 326.221 20.6479 327.392 20.6479C329.585 24.3543 329.272 29.5765 328.045 33.9498C326.904 38.0178 324.987 41.5127 323.235 45.12C321.712 48.2587 318.913 52.3803 316.942 54.8253L309.385 62.9854C311.165 60.1895 312.614 56.5286 314.042 53.5184L318.075 43.4757L324.363 21.4968L324.36 21.4941ZM280.263 76.057C280.534 75.0795 281.12 73.8771 281.463 72.763L284.572 61.799C285.186 59.5227 286.434 57.5329 287.256 55.2351C288.113 52.8409 288.846 50.7252 289.698 48.3953C291.056 44.6781 290.791 44.5309 293.351 42.4366L307.095 28.7731L303.171 38.8293C302.687 39.9219 302.092 40.7173 301.538 41.6787C300.199 43.9952 298.846 49.4585 295.448 54.1424L287.681 65.2484C286.567 66.8445 280.539 75.2108 280.261 76.0597L280.263 76.057ZM319.309 0C317.761 1.53453 310.86 18.9982 309.055 21.0228L301.056 30.2996C299.685 32.2466 299.267 34.5417 296.412 34.2712C293.105 31.7431 296.591 26.7994 297.957 23.9901C299.754 20.297 313.174 4.77231 314.896 1.75681L304.561 1.77556C303.134 4.83391 291.075 20.2033 289.709 23.4384C288.509 26.2852 287.478 28.9633 286.265 31.8583L283.137 40.2272C281.817 44.0408 283.506 42.8035 280.52 49.4558C276.262 58.9469 276.964 56.7776 274.12 66.3919C273.158 69.6457 271.881 71.5418 271.115 75.2509C270.491 78.2772 269.511 81.3944 268.697 84.6831C267.84 85.125 267.462 85.2133 266.696 85.5534C265.502 86.0837 265.788 86.2953 264.722 86.7532C263.279 87.3718 261.364 87.5299 259.621 87.5807C255.823 87.6905 251.091 87.3826 247.511 87.6932L247.454 99.8972L259.439 99.8865C259.492 102.278 259.822 102.431 258.097 103.507C257.066 104.15 255.788 104.94 254.688 105.516C252.221 106.812 230.256 128.456 227.971 129.645C226.065 145.047 226.565 151.067 226.75 151.254C230.462 134.688 247.561 130.352 258.651 119.693L259.101 121.686C259.358 125.928 259.195 138.86 259.532 141.008C259.789 142.642 260.421 143.124 260.767 145.167C261.573 149.948 261.726 153.547 265.052 157.733L292.906 157.8C296.862 157.623 299.95 155.475 302.954 153.793C306.302 151.919 309.283 150.405 311.602 148.694C310.611 150.274 306.072 156.42 305.699 157.727L311.441 157.794C312.802 156.236 314.312 153.622 315.659 151.785L321.969 142.73C323.281 140.748 322.654 141.517 324.684 140.317C327.954 138.378 325.9 135.657 333.851 128.697C336.955 125.982 340.796 121.381 344.376 118.424C345.482 117.511 346.176 117.2 346.229 115.283C346.278 113.542 346.221 111.614 346.197 109.86C344.296 110.441 339.122 116.493 337.341 117.345C337.876 115.36 339.491 112.176 339.759 110.328C340.439 105.66 336.583 104.712 333.94 109.91C329.103 119.423 327.145 119.934 319.283 127.886C313.718 133.515 318.364 130.368 311.805 134.5C310.707 135.194 310.322 135.684 309.178 136.662C306.222 139.198 296.597 137.928 292.939 136.929C287.992 135.58 290.957 137.093 285.678 134.932C282.116 133.475 281.983 134.974 279.136 132.211C275.113 128.306 274.832 126.169 273.52 119.284C272.955 116.324 273.22 104.552 274.487 102.283C279.42 93.4591 283.311 94.0188 290.507 85.99C291.583 84.7902 296.907 80.9445 298.426 79.8331L313.415 66.6597C316.232 63.2077 319.293 60.8831 321.95 56.6303C324.325 52.8275 326.827 49.3674 328.875 44.6755C330.691 40.5191 332.796 35.8271 333.321 30.554C334.569 18.018 325.83 9.89009 319.307 0.00535319L319.309 0Z" fill="black"/>
<path fill-rule="evenodd" clip-rule="evenodd" d="M148.912 121.887C150.57 123.384 152.231 125.283 155.294 126.469C163.915 129.803 173.526 128.451 181.721 124.717C184.552 123.429 190.323 118.59 192.926 116.536C192.152 117.859 192.136 117.907 190.835 119.118C188.368 121.407 187.139 124.265 184.126 127.125C180.613 130.462 177.27 132.465 171.687 134.506C165.787 136.662 165.369 138.084 156.888 133.82C154.177 132.457 153.28 131.338 151.483 129.31C149.429 126.988 149.14 125.941 148.912 121.887ZM222.956 95.0954C222.894 101.014 221.303 103.475 218.167 109.332C217.045 111.429 215.743 113.764 214.351 115.43C213.596 116.332 213.017 117.026 212.166 118.044L204.423 127.264C202.404 129.259 198.033 135.02 195.663 136.102C194.402 136.678 192.688 136.399 191.7 135.807C190.01 134.798 190.481 134.251 190.112 132.291C189.922 131.284 188.824 130.307 190.066 128.59C191.408 126.734 203.727 115.363 207.067 111.022C207.859 109.991 208.406 109.383 209.244 108.405C212.297 104.846 214.637 100.62 216.689 96.3353C217.733 94.1527 218.336 90.3766 221.708 91.6755C223.253 92.27 222.972 93.3841 222.953 95.0954H222.956ZM211.617 157.805L214.19 136.059C214.549 133.713 214.391 130.727 217.066 130.631C221.373 130.475 218.805 136.145 218.122 142.84C217.68 147.17 217.35 154.01 216.392 157.808L228.4 157.81C227.883 155.368 227.484 154.401 226.707 152.32L227.621 132.532C229.458 118.044 228.419 121.595 232.045 108.494C233.121 104.608 233.949 101.303 235.567 97.918L243.247 76.8042C244.351 73.9172 244.27 74.3296 244.262 70.7812C244.257 68.4111 244.393 65.7063 244.174 63.3844L239.501 73.079C237.931 76.2819 236.761 80.0875 235.438 83.4297C234.878 76.5498 239.908 62.5944 241.723 54.4879C242.165 52.5195 241.788 51.5982 242.583 49.595C243.464 47.3803 242.929 46.3974 242.321 44.5603L227.136 44.5549C226.006 52.5757 223.596 62.5328 220.711 69.327L212.974 84.6214C211.97 86.3086 210.934 87.5459 209.884 89.5169C208.456 92.195 205.824 97.2807 203.931 98.933C203.157 99.6106 199.739 104.22 196.429 107.117C193.309 109.846 182.185 119.187 178.909 120.612C171.462 123.852 160.642 124.921 154.25 120.154C151.923 118.419 149.802 113.362 149.515 109.514C148.92 101.579 153.586 93.1913 156.85 85.7784C158.548 81.9246 161.095 78.5851 162.512 75.757C167 66.7989 167.854 67.2462 171.646 61.5285C172.822 59.7583 174.078 58.3362 174.967 56.6464C171.791 57.0106 168.299 57.889 165.101 58.5157C159.464 59.6217 160.843 59.137 158.211 63.4674L149.689 78.3682C150.83 73.387 154.1 63.845 154.804 60.5938L149.207 61.6811L143.912 80.1866C142.903 83.8689 142.456 86.0167 141.941 90.0285C141.708 91.8362 141.299 93.202 141.063 94.9748C140.822 96.7691 140.833 98.6893 140.576 100.54C139.159 110.717 137.908 122.302 140.926 132.532C146.24 150.534 152.051 150.762 170.026 150.794C179.424 150.81 188.955 146.98 196.116 141.359C197.126 140.566 198.283 139.615 199.279 138.764L205.323 132.958C205.84 132.403 207.744 130.4 207.897 129.881C207.929 130.665 202.969 152.5 203.553 157.773L211.63 157.816L211.617 157.805Z" fill="black"/>
<path fill-rule="evenodd" clip-rule="evenodd" d="M190.813 292.579C190.813 290.297 193.376 288.465 195.599 291.636C196.919 293.519 198.489 294.011 198.489 297.378C198.489 298.867 198.526 300.899 197.669 302.003C196.809 303.111 196.041 303.178 194.482 302.704C190.286 301.424 190.813 296.098 190.813 292.579ZM194.014 285.859C194.011 283.521 195.071 282.946 196.143 281.84C198.108 282.405 197.57 281.791 199.388 283.05C200.409 283.757 199.932 282.924 200.441 284.226C201.29 286.382 200.58 289.376 196.89 289.376C194.153 289.376 194.016 288.088 194.011 285.859H194.014ZM201.052 280.096C196.26 280.083 198.159 274.804 198.639 274.162C200.125 272.177 204.257 274.006 204.249 276.901C204.244 279.202 203.403 280.104 201.052 280.096ZM191.062 256.51C190.192 258.91 187.321 263.556 185.653 265.34C184.488 266.585 183.974 268.275 183.066 269.802C182.177 271.299 181.218 272.432 180.192 274.293C177.991 278.289 178.028 280.501 175.366 283.856C173.21 286.572 172.136 288.695 169.175 292.391C166.628 295.565 164.94 298.653 162.707 300.316C161.58 301.154 159.935 302.814 158.974 303.936C157.886 305.208 156.462 306.213 155.324 307.645C149.839 314.547 143.567 318.759 141.009 322.203C142.121 322.388 145.865 322.477 146.952 322.305C148.27 322.099 149.598 320.693 150.5 319.793L155.133 315.463C156.154 314.496 159.619 310.149 162.434 307.404C163.559 306.309 164.239 305.68 165.516 304.416C166.633 303.31 167.586 302.774 168.663 301.614L159.724 317.171C158.778 318.486 157.22 320.907 156.644 322.244L162.013 322.335C163.596 320.768 171.012 308.125 172.11 305.87C173.783 302.437 175.602 301.135 177.64 298.286C179.48 295.712 181.226 292.956 182.98 290.415C182.894 296.714 179.906 301.293 178.561 305.926C177.479 309.654 174.678 318.277 174.935 322.219L184.464 322.348C185.005 320.57 184.964 318.96 185.361 317.198C186.127 313.781 188.949 306.612 189.397 302.688L194.943 310.214C196.124 312.428 194.41 319.274 194.544 322.329C196.876 322.361 200.829 322.573 202.998 322.353C204.621 322.187 203.537 322.487 204.56 321.687C206.523 320.149 206.132 319.188 205.16 317.257C204.04 315.034 205.781 304.368 206.582 301.917C207.428 302.45 207.787 303.377 209.37 303.283C211.852 303.136 212.476 299.876 210.007 298.037C209 297.287 208.43 296.676 207.503 296.124C207.441 289.743 211.93 281.55 213.186 274.304C214.643 265.916 214.916 268.297 215.987 263.364C216.857 259.355 218.448 256.808 219.364 252.97C220.567 247.93 223.737 235.713 225.88 231.969C227.679 228.822 227.559 226.578 228.37 224.21C231.517 215.025 231.038 221.149 231.038 209.144H226.016L225.122 212.314C224.699 213.348 224.187 214.026 223.644 215.003C222.524 217.02 223.087 217.223 221.18 220.871C218.579 225.844 220.449 224.449 215.336 231.661C212.511 235.648 211.094 239.111 207.474 240.453C202.969 242.119 198.539 243.155 193.703 243.267C187.669 243.412 191.18 242.033 183.928 249.855L176.226 258.792C174.142 261.213 167.236 265.611 164.057 267.402C160.739 269.271 161.933 269.373 155.918 271.746C154.975 272.118 154.019 272.26 152.964 272.635L143.939 276.092C139.373 278.082 133.039 274.595 130.431 279.234C129.202 281.416 130.059 283.789 131.457 285.061C133.23 286.674 135.412 286.395 138.339 286.395C147.346 286.395 151.459 283.144 157.828 281.398L166.459 277.498C167.525 276.853 167.881 276.409 168.928 275.814C172.902 273.554 180.463 268.615 183.451 265.375C184.172 264.596 184.528 263.712 185.2 262.954L191.07 256.513L191.062 256.51Z" fill="black"/>
<path fill-rule="evenodd" clip-rule="evenodd" d="M212.49 211.787C206.405 213.244 208.063 212.122 204.485 216.655C202.479 219.194 200.693 221.361 198.655 223.942C197.766 225.07 196.903 226.548 195.961 227.646C194.887 228.9 193.901 229.234 193.301 231.363C192.085 235.678 195.511 237.976 199.308 237.71C207.013 237.172 205.395 236.752 211.734 230.93C213.255 229.532 218.695 218.884 218.791 218.351C219.57 214.018 216.611 210.796 212.492 211.784L212.49 211.787Z" fill="black"/>
<path fill-rule="evenodd" clip-rule="evenodd" d="M338.415 175.046C343.203 174.505 347.097 178.271 347.48 182.526C347.938 187.625 344.529 191.49 340.147 191.985C329.545 193.182 327.218 176.31 338.415 175.046ZM347.367 173.946C345.688 172.668 344.408 171.329 341.438 170.729C326.776 167.767 320.362 188.11 332.935 194.931C335.046 196.075 337.973 196.648 340.86 196.286C342.092 196.131 343.49 195.627 344.397 195.148C345.678 194.473 346.288 193.715 347.274 193.113L347.309 195.839L351.966 195.884L351.947 163.188L347.376 163.196L347.367 173.946Z" fill="black"/>
<path fill-rule="evenodd" clip-rule="evenodd" d="M371.183 181.051C372.761 173.102 384.748 172.537 386.529 181.051H371.183ZM390.715 187.893L385.757 187.901C383.8 190.737 381.403 192.58 377.255 191.776C374.062 191.158 371.454 188.469 371.009 185.215L391.553 185.212C392.327 177.641 387.501 171.846 381.406 170.654C373.725 169.152 367.806 174.521 366.475 180.309C363.358 193.854 380.088 202.221 388.535 191.982C389.201 191.174 390.682 189.015 390.715 187.89V187.893Z" fill="black"/>
<path fill-rule="evenodd" clip-rule="evenodd" d="M295.804 175.065C299.119 174.679 301.257 176.024 303.011 177.971C303.337 178.335 303.608 178.755 303.87 179.248C304.425 180.285 304.743 181.12 304.928 182.446C305.608 187.312 302.031 191.356 297.904 191.945C292.901 192.66 289.018 188.846 288.528 184.623C287.96 179.725 290.922 175.633 295.807 175.068L295.804 175.065ZM304.781 192.955L304.81 195.876L309.449 195.871L309.462 171.128L304.821 171.104L304.816 173.836C303.099 172.915 302.408 171.351 298.635 170.692C283.496 168.038 278.19 189.034 290.748 195.105C295.858 197.577 300.753 196.578 304.784 192.955H304.781Z" fill="black"/>
<path fill-rule="evenodd" clip-rule="evenodd" d="M451.533 193.541L451.531 195.793L455.95 195.884L455.944 171.104H451.432C451.378 175.435 451.582 179.934 451.394 184.232C451.215 188.37 449.905 191.715 445.706 191.899C441.135 192.1 439.865 188.734 439.761 184.441C439.654 180.02 439.854 175.534 439.742 171.11L435.17 171.112C435.018 174.696 435.149 178.523 435.149 182.1C435.149 187.494 435.259 195.164 442.985 196.251C445.505 196.605 447.846 196.329 449.787 194.885C450.583 194.294 450.73 193.959 451.533 193.541Z" fill="black"/>
<path fill-rule="evenodd" clip-rule="evenodd" d="M243.33 187.336L238.625 187.317C237.896 187.513 237.891 189.32 235.197 190.978C231.04 193.536 223.263 191.34 223.306 183.372C223.354 174.144 234.04 172.548 237.727 178.33C238.673 179.811 237.701 179.43 243.327 179.425C242.015 173.691 235.794 169.345 229.043 170.614C223.523 171.653 218.424 176.932 218.518 183.584C218.673 194.39 230.325 199.816 238.413 194.395C240.317 193.118 242.735 190.03 243.327 187.331L243.33 187.336Z" fill="black"/>
<path fill-rule="evenodd" clip-rule="evenodd" d="M204.594 187.727L200.494 187.724C199.964 191.238 202.698 196.101 207.674 196.49C212.586 196.873 216.18 193.421 216.204 188.683C216.233 182.829 212.663 182.173 208.413 180.285C201.381 177.162 210.451 170.871 211.448 177.505L215.88 177.499C215.596 174.618 214.961 173.327 213.392 171.908C211.981 170.633 209.458 169.987 206.914 170.569C203.202 171.418 199.833 176.16 202.16 180.807C204.345 185.169 210.473 184.32 211.635 187.687C212.481 190.137 210.872 192.175 208.496 192.199C205.639 192.229 205.143 190.167 204.594 187.73V187.727Z" fill="black"/>
<path fill-rule="evenodd" clip-rule="evenodd" d="M397.865 187.716L393.634 187.73C393.505 192.448 396.585 196.184 400.956 196.492C405.822 196.835 409.405 193.246 409.424 188.68C409.434 186.01 408.561 184.251 407.075 182.963C405.406 181.517 403.564 181.193 401.499 180.247C394.804 177.183 403.502 170.882 404.657 177.505H409.07C408.808 174.768 408.151 173.124 406.558 171.811C405.072 170.587 402.45 169.958 400.021 170.601C396.397 171.557 392.921 176.254 395.474 180.997C397.667 185.068 403.923 184.519 404.882 187.708C406.13 191.849 401.234 193.579 398.896 190.933C398.114 190.046 398.119 189.136 397.862 187.716H397.865Z" fill="black"/>
<path fill-rule="evenodd" clip-rule="evenodd" d="M338.415 175.046C327.218 176.31 329.545 193.182 340.147 191.985C344.526 191.49 347.938 187.625 347.48 182.526C347.097 178.271 343.203 174.508 338.415 175.046Z" fill="black"/>
<path fill-rule="evenodd" clip-rule="evenodd" d="M246.335 185.646C245.052 177.706 250.636 171.766 256.782 170.52C264.251 169.007 270.719 175.253 271.536 181.455C272.553 189.165 267.221 195.199 261.147 196.334C253.418 197.78 247.35 191.926 246.335 185.646Z" fill="black"/>
<path fill-rule="evenodd" clip-rule="evenodd" d="M414.579 170.858L411.146 171.107L411.119 175.32L414.544 175.306L414.579 195.823L419.158 195.882L419.177 175.306L422.616 175.312L422.602 171.107L419.174 171.104V163.161L414.579 163.209V170.858Z" fill="black"/>
<path fill-rule="evenodd" clip-rule="evenodd" d="M275.311 195.876H279.84L279.827 163.185L275.303 163.193L275.311 195.876Z" fill="black"/>
<path fill-rule="evenodd" clip-rule="evenodd" d="M425.647 195.793L430.208 195.884L430.203 171.112L425.653 171.123L425.647 195.793Z" fill="black"/>
<path fill-rule="evenodd" clip-rule="evenodd" d="M386.529 181.051H371.183C372.761 173.102 384.748 172.537 386.529 181.051Z" fill="black"/>
<path fill-rule="evenodd" clip-rule="evenodd" d="M192.594 187.885L197.554 187.955H197.557C197.045 190.424 193.955 193.654 192.107 194.77C182.707 200.456 170.559 191.672 173.232 180.357C176.574 166.209 198.77 166.635 198.387 185.207L177.771 185.279C178.625 188.592 180.487 191.093 183.981 191.76C185.987 192.146 188.007 191.824 189.423 191.037C190.915 190.207 191.547 189.333 192.437 188.102C192.489 188.031 192.541 187.958 192.594 187.885Z" fill="black"/>
<path fill-rule="evenodd" clip-rule="evenodd" d="M357.338 168.314C357.598 168.823 357.276 168.627 358.846 168.817C359.017 170.354 358.554 170.946 357.343 171.222L357.341 174.35C362.774 173.271 362.091 168.892 362.051 163.223L357.346 163.191L357.335 168.314H357.338Z" fill="black"/>
<path fill-rule="evenodd" clip-rule="evenodd" d="M425.655 168.383L430.112 168.421L430.224 167.465L430.205 164.069L430.211 163.183L429.362 163.196H426.603L425.647 163.255L425.655 168.383Z" fill="black"/>
</svg>
