<svg width="897" height="560" viewBox="0 0 897 560" fill="none" xmlns="http://www.w3.org/2000/svg">
<path fill-rule="evenodd" clip-rule="evenodd" d="M509.04 388.805L498.535 383.592C494.729 389.578 491.167 393.932 487.91 396.596C484.651 399.289 480.663 401.437 476.004 403.07C471.346 404.702 466.535 405.505 461.602 405.505C451.372 405.505 442.785 402.096 435.813 395.307C428.871 388.518 425.248 379.81 425.035 369.154H512.267C512.146 356.693 508.584 346.296 501.55 337.96C491.684 326.158 478.47 320.229 461.938 320.229C445.891 320.229 433.073 326.015 423.513 337.53C415.961 346.582 412.186 356.923 412.186 368.495C412.186 380.813 416.631 391.841 425.552 401.609C434.473 411.377 446.835 416.246 462.668 416.246C469.793 416.246 476.187 415.215 481.85 413.182C487.483 411.148 492.568 408.169 497.104 404.244C501.611 400.32 505.599 395.193 509.04 388.805ZM491.259 344.005C494.425 347.728 496.861 352.741 498.535 359.015H426.283C428.841 350.621 432.616 344.319 437.61 340.137C444.43 334.38 452.62 331.487 462.12 331.487C467.905 331.487 473.386 332.632 478.622 334.924C483.86 337.215 488.061 340.252 491.259 344.005Z" fill="black"/>
<path fill-rule="evenodd" clip-rule="evenodd" d="M633.919 322.578V413.898H621.618V398.2C616.381 404.187 610.504 408.685 603.989 411.721C597.473 414.729 590.348 416.246 582.615 416.246C568.883 416.246 557.16 411.549 547.417 402.182C537.704 392.815 532.833 381.414 532.833 367.98C532.833 354.832 537.765 343.604 547.57 334.265C557.374 324.927 569.187 320.23 582.981 320.23C590.958 320.23 598.174 321.834 604.598 325.013C611.053 328.221 616.717 333.005 621.618 339.364V322.578L633.919 322.578ZM583.954 331.573C577.013 331.573 570.587 333.177 564.68 336.385C558.805 339.623 554.116 344.119 550.644 349.963C547.173 355.778 545.438 361.936 545.438 368.41C545.438 374.855 547.173 381.014 550.674 386.886C554.206 392.758 558.896 397.313 564.833 400.607C570.74 403.872 577.104 405.505 583.863 405.505C590.714 405.505 597.2 403.872 603.319 400.636C609.439 397.398 614.158 393.016 617.447 387.459C620.766 381.93 622.41 375.686 622.41 368.754C622.41 358.184 618.695 349.333 611.296 342.229C603.898 335.125 594.794 331.573 583.954 331.573Z" fill="black"/>
<path d="M364.424 266H379.551V306.664H403.3V318.763H379.551V416.246H364.424V318.763H344V306.664H364.424V266Z" fill="black"/>
<path d="M735.124 324.927H722.366L722.367 416.246H735.125V385.367C735.125 369.527 735.885 359.014 737.438 353.801C739.447 347.041 742.401 342.057 746.268 338.82C750.135 335.611 754.154 334.008 758.295 334.008C760.091 334.008 762.284 334.523 764.902 335.611L771.418 325.7C767.49 323.638 763.806 322.578 760.365 322.578C755.767 322.578 751.383 323.896 747.15 326.503C742.949 329.11 738.929 333.034 735.124 338.276V324.927Z" fill="black"/>
<path d="M877.766 357.853C876.107 352.12 873.78 347.496 870.812 344.005C870.412 343.535 869.997 343.078 869.566 342.631C866.548 339.504 862.758 336.929 858.176 334.924C857.521 334.637 856.863 334.369 856.2 334.118C851.564 332.364 846.735 331.487 841.673 331.487C841.079 331.487 840.491 331.498 839.907 331.521C831.155 331.859 823.557 334.74 817.163 340.137C816.539 340.66 815.934 341.216 815.347 341.805C811.245 345.927 808.074 351.67 805.836 359.015H878.089C878.062 358.915 878.035 358.816 878.009 358.718C877.987 358.639 877.965 358.56 877.944 358.482C877.923 358.408 877.903 358.334 877.882 358.26L877.836 358.097L877.802 357.979L877.766 357.853Z" fill="black"/>
<path fill-rule="evenodd" clip-rule="evenodd" d="M0 0H897V560H136V151H0V0ZM588.232 207.406C561.182 187.389 527.835 175.572 491.765 175.572C401.415 175.572 328.144 249.722 328.144 341.155C328.144 432.589 401.415 506.739 491.765 506.739C582.115 506.739 655.386 432.589 655.386 341.155C655.386 339.286 655.356 337.424 655.295 335.57H669.021V416.806H683.225V335.57H700.56V548.667H787.334V259.797H886.095V171.724H598.899V259.797H700.56V323.887H683.225V290H669.021V323.887H654.507C652.567 304.95 647.472 286.96 639.763 270.464H588.232V207.406ZM11.3331 11.3333V140.266H146.758V548.667H278.042V140.266H413.467V11.3333H11.3331ZM878.089 383.592L888.593 388.805C888.52 388.94 888.447 389.074 888.374 389.208C888.231 389.47 888.087 389.73 887.942 389.988C884.652 395.829 880.882 400.565 876.658 404.244C876.091 404.735 875.515 405.211 874.931 405.672C870.841 408.899 866.332 411.402 861.403 413.182C860.695 413.436 859.976 413.674 859.245 413.897C854.13 415.457 848.455 416.246 842.221 416.246C841.232 416.246 840.256 416.227 839.293 416.189C824.857 415.618 813.469 410.766 805.106 401.609C803.99 400.388 802.945 399.147 801.97 397.887C795.142 389.064 791.739 379.273 791.739 368.495C791.739 356.923 795.514 346.582 803.066 337.53C812.626 326.015 825.444 320.229 841.491 320.229C858.024 320.229 871.238 326.158 881.103 337.96C888.137 346.296 891.699 356.693 891.821 369.154H804.588C804.801 379.81 808.424 388.518 815.366 395.307C822.338 402.096 830.925 405.505 841.155 405.505C846.088 405.505 850.899 404.702 855.557 403.07C860.216 401.437 864.204 399.289 867.462 396.597C870.719 393.933 874.283 389.578 878.089 383.592Z" fill="black"/>
</svg>
