<svg width="970" height="363" viewBox="0 0 970 363" fill="none" xmlns="http://www.w3.org/2000/svg">
<mask id="path-1-inside-1_17_232" fill="white">
<path d="M6.9 279.6L5.2 281.9L3.4 281.6L3.6 277.3H5.4L6.9 279.6ZM114.8 315.5L112.6 321.7L98 325C99.1 312.3 98.1 302.5 95.3 290L94.4 276.8L92.7 267.9L90.6 255L89.9 245.5L87.7 240.2L85.9 230.4V222.3L84.3 215.7L84.5 202.2L82.8 197.7L82.1 190.4L81.9 180.1L82.8 169.9L84.3 164.3L82.8 158L82.1 151.3L81.9 143.8L79.1 140.6L76.6 139.2L73.5 143.5L70.1 150.1L67 158.3L64.4 167.8L62.1 178.5L60.1 187.4L58.2 196.4L56.1 205.3L54.4 210.3L52.6 212.9L50.6 214.5L47.5 212.6L45.6 207.8L42.1 200.2L40.2 193.3L37.6 177.5L36.7 170.2L35.2 161.3L32.9 153.3L31.5 146L29.6 140L27.3 138.1L24.5 136.2L23.1 140.5L21.3 147.8L19.1 156.7L17.3 175.6L15.8 186.4V190.5L14.7 205L12.4 222.4L12.2 231.8L14.3 235L14.5 241.9L15.6 247.8L13.3 253.1L10.7 258.4L9.2 259.4L5.9 259L1 263.7L2 250L3.4 236.5L2.7 210.3L6.7 190.8L7.4 182.9L10.2 175.6L10 170.9L13.2 163.6V158.9L19.8 136.2L20.7 131.5L22.7 129.2L23.4 123.3L26.5 117.6L30.5 109.4L26.8 106.5H29.7L31.6 109.8L33.6 115.8L35 123.4L36.7 131.6L39 142.5L40.1 150.1L42 159L42.9 165.9L43.8 175.6L44.5 183.5L46.2 191.1L49.2 196.4L50.9 198.3L52.7 195.2L53.9 189.8L56 183.5L58.5 172.9L61.3 163.4L62.9 156.1L64.5 150.8L69 135.1L73.7 115L74.6 108.7L77.7 101.1L80 97.7001L85 95.0001H86L89.7 95.7001L93.6 98.9001L96.7 103L99.3 108L100 114.9L100.2 123.2L100 130.7L99.8 140.2L100.3 158.1V168.4L102.4 186.4L102.2 195.3L101.7 207.2L101.5 216.9V225.8L100.8 236.6L99.4 241L100.8 249.5V267.1L102.2 270.7L102.4 282.6L103.3 292.3L104 299.9L104.5 307.8L114.8 315.5ZM109.1 218.8L106.7 222.3L105.6 218.8L107.2 215.4L109.1 218.8ZM33 81.4001L31.9 84.3001L30 83.3001L30.2 79.1001H32.3L33 81.4001Z"/>
</mask>
<path d="M6.9 279.6L5.2 281.9L3.4 281.6L3.6 277.3H5.4L6.9 279.6ZM114.8 315.5L112.6 321.7L98 325C99.1 312.3 98.1 302.5 95.3 290L94.4 276.8L92.7 267.9L90.6 255L89.9 245.5L87.7 240.2L85.9 230.4V222.3L84.3 215.7L84.5 202.2L82.8 197.7L82.1 190.4L81.9 180.1L82.8 169.9L84.3 164.3L82.8 158L82.1 151.3L81.9 143.8L79.1 140.6L76.6 139.2L73.5 143.5L70.1 150.1L67 158.3L64.4 167.8L62.1 178.5L60.1 187.4L58.2 196.4L56.1 205.3L54.4 210.3L52.6 212.9L50.6 214.5L47.5 212.6L45.6 207.8L42.1 200.2L40.2 193.3L37.6 177.5L36.7 170.2L35.2 161.3L32.9 153.3L31.5 146L29.6 140L27.3 138.1L24.5 136.2L23.1 140.5L21.3 147.8L19.1 156.7L17.3 175.6L15.8 186.4V190.5L14.7 205L12.4 222.4L12.2 231.8L14.3 235L14.5 241.9L15.6 247.8L13.3 253.1L10.7 258.4L9.2 259.4L5.9 259L1 263.7L2 250L3.4 236.5L2.7 210.3L6.7 190.8L7.4 182.9L10.2 175.6L10 170.9L13.2 163.6V158.9L19.8 136.2L20.7 131.5L22.7 129.2L23.4 123.3L26.5 117.6L30.5 109.4L26.8 106.5H29.7L31.6 109.8L33.6 115.8L35 123.4L36.7 131.6L39 142.5L40.1 150.1L42 159L42.9 165.9L43.8 175.6L44.5 183.5L46.2 191.1L49.2 196.4L50.9 198.3L52.7 195.2L53.9 189.8L56 183.5L58.5 172.9L61.3 163.4L62.9 156.1L64.5 150.8L69 135.1L73.7 115L74.6 108.7L77.7 101.1L80 97.7001L85 95.0001H86L89.7 95.7001L93.6 98.9001L96.7 103L99.3 108L100 114.9L100.2 123.2L100 130.7L99.8 140.2L100.3 158.1V168.4L102.4 186.4L102.2 195.3L101.7 207.2L101.5 216.9V225.8L100.8 236.6L99.4 241L100.8 249.5V267.1L102.2 270.7L102.4 282.6L103.3 292.3L104 299.9L104.5 307.8L114.8 315.5ZM109.1 218.8L106.7 222.3L105.6 218.8L107.2 215.4L109.1 218.8ZM33 81.4001L31.9 84.3001L30 83.3001L30.2 79.1001H32.3L33 81.4001Z" fill="black" stroke="black" stroke-width="2" mask="url(#path-1-inside-1_17_232)"/>
<path d="M6.9 279.6L5.2 281.9L3.4 281.6L3.6 277.3H5.4L6.9 279.6ZM114.8 315.5L112.6 321.7L98 325C99.1 312.3 98.1 302.5 95.3 290L94.4 276.8L92.7 267.9L90.6 255L89.9 245.5L87.7 240.2L85.9 230.4V222.3L84.3 215.7L84.5 202.2L82.8 197.7L82.1 190.4L81.9 180.1L82.8 169.9L84.3 164.3L82.8 158L82.1 151.3L81.9 143.8L79.1 140.6L76.6 139.2L73.5 143.5L70.1 150.1L67 158.3L64.4 167.8L62.1 178.5L60.1 187.4L58.2 196.4L56.1 205.3L54.4 210.3L52.6 212.9L50.6 214.5L47.5 212.6L45.6 207.8L42.1 200.2L40.2 193.3L37.6 177.5L36.7 170.2L35.2 161.3L32.9 153.3L31.5 146L29.6 140L27.3 138.1L24.5 136.2L23.1 140.5L21.3 147.8L19.1 156.7L17.3 175.6L15.8 186.4V190.5L14.7 205L12.4 222.4L12.2 231.8L14.3 235L14.5 241.9L15.6 247.8L13.3 253.1L10.7 258.4L9.2 259.4L5.9 259L1 263.7L2 250L3.4 236.5L2.7 210.3L6.7 190.8L7.4 182.9L10.2 175.6L10 170.9L13.2 163.6V158.9L19.8 136.2L20.7 131.5L22.7 129.2L23.4 123.3L26.5 117.6L30.5 109.4L26.8 106.5H29.7L31.6 109.8L33.6 115.8L35 123.4L36.7 131.6L39 142.5L40.1 150.1L42 159L42.9 165.9L43.8 175.6L44.5 183.5L46.2 191.1L49.2 196.4L50.9 198.3L52.7 195.2L53.9 189.8L56 183.5L58.5 172.9L61.3 163.4L62.9 156.1L64.5 150.8L69 135.1L73.7 115L74.6 108.7L77.7 101.1L80 97.7001L85 95.0001H86L89.7 95.7001L93.6 98.9001L96.7 103L99.3 108L100 114.9L100.2 123.2L100 130.7L99.8 140.2L100.3 158.1V168.4L102.4 186.4L102.2 195.3L101.7 207.2L101.5 216.9V225.8L100.8 236.6L99.4 241L100.8 249.5V267.1L102.2 270.7L102.4 282.6L103.3 292.3L104 299.9L104.5 307.8L114.8 315.5ZM109.1 218.8L106.7 222.3L105.6 218.8L107.2 215.4L109.1 218.8ZM33 81.4001L31.9 84.3001L30 83.3001L30.2 79.1001H32.3L33 81.4001Z" fill="black" stroke="black" stroke-width="1.4173" stroke-miterlimit="22.9256"/>
<mask id="path-3-inside-2_17_232" fill="white">
<path d="M208 156.7L207.5 166.5L207.7 172.2L207 181.1V187L205.6 193.9V200.2L204.2 204.9L204.4 209.9L202.6 215.8L203.3 218.8L202.4 221.1L201.7 226.1L201.5 234.4L199.4 240L198.2 246L197.3 252.3L195.7 254.9L194.1 261.5L191.7 268.4L188.2 275.3L184.2 281.2L179.9 286.2L174.8 288.8L169.4 290.4L164.5 291.4H158.5L152.3 290.4L148.1 288.8L144.4 285.6L140.6 282.5L137.9 277.5L135.7 272L134.1 265.7L132.5 260.1L132 253.2L131.3 246.5L130.7 239.6L131.3 230.7V223.4L131.7 215.4L132.8 210.9L131.9 207.8V203.3L133.5 198.6L134 192L133.8 187L134.7 179.7L136 172.8V166.5L137.1 159.9V153L134.7 147.5L133.8 141.2L133.6 137.8L134.7 131.8L136.6 127.9L138.2 126.9L142.2 124.2L146.9 123.2L151.3 124.5L154.9 127.9L157.1 130.2L158.2 132.5L160.6 135.2L161.7 139.4L161.5 145.3L159.1 151.3L156.6 156.6L154 163.5L153.1 168.5L151.7 177.7L149.1 185.6L147.5 194.5L145.9 202.9L144.2 210.5L142.6 218.8L142.4 228L141 235.2L142.1 244.9L142.3 256.7L143.2 264.8L145.6 269.9L149 274L150.9 276.3L153.8 277.6L159.6 279.4L163.6 280.1L167.8 279.8L175.3 277.7L181.1 272.5L184.4 267.5L186.9 261.9L189.5 257.2L189.7 252.7L191.3 249.6L193.3 242.7L194.8 236.8L195.7 231L197.9 225.4L197.7 222L197.9 218.8L199.8 215.4L199.1 209.9L200.7 200.9L201.4 193.4L203 186.7L202.6 178.8L203.5 172.2L203.8 164.3L203.5 158V151.7L204.5 146.7L203.3 144.4L203.9 140.8L203.3 136.8L203.5 133.1L203.8 128.6L204.3 123.9V121.4L206.4 120.4L207.1 121.7L206.4 126.2L206.8 133.1V136.8L207.5 145.7L208 156.7ZM218.5 160L217.9 162.4H215.8L214.9 159.3L216 156.1L217.8 156.8L218.5 160Z"/>
</mask>
<path d="M208 156.7L207.5 166.5L207.7 172.2L207 181.1V187L205.6 193.9V200.2L204.2 204.9L204.4 209.9L202.6 215.8L203.3 218.8L202.4 221.1L201.7 226.1L201.5 234.4L199.4 240L198.2 246L197.3 252.3L195.7 254.9L194.1 261.5L191.7 268.4L188.2 275.3L184.2 281.2L179.9 286.2L174.8 288.8L169.4 290.4L164.5 291.4H158.5L152.3 290.4L148.1 288.8L144.4 285.6L140.6 282.5L137.9 277.5L135.7 272L134.1 265.7L132.5 260.1L132 253.2L131.3 246.5L130.7 239.6L131.3 230.7V223.4L131.7 215.4L132.8 210.9L131.9 207.8V203.3L133.5 198.6L134 192L133.8 187L134.7 179.7L136 172.8V166.5L137.1 159.9V153L134.7 147.5L133.8 141.2L133.6 137.8L134.7 131.8L136.6 127.9L138.2 126.9L142.2 124.2L146.9 123.2L151.3 124.5L154.9 127.9L157.1 130.2L158.2 132.5L160.6 135.2L161.7 139.4L161.5 145.3L159.1 151.3L156.6 156.6L154 163.5L153.1 168.5L151.7 177.7L149.1 185.6L147.5 194.5L145.9 202.9L144.2 210.5L142.6 218.8L142.4 228L141 235.2L142.1 244.9L142.3 256.7L143.2 264.8L145.6 269.9L149 274L150.9 276.3L153.8 277.6L159.6 279.4L163.6 280.1L167.8 279.8L175.3 277.7L181.1 272.5L184.4 267.5L186.9 261.9L189.5 257.2L189.7 252.7L191.3 249.6L193.3 242.7L194.8 236.8L195.7 231L197.9 225.4L197.7 222L197.9 218.8L199.8 215.4L199.1 209.9L200.7 200.9L201.4 193.4L203 186.7L202.6 178.8L203.5 172.2L203.8 164.3L203.5 158V151.7L204.5 146.7L203.3 144.4L203.9 140.8L203.3 136.8L203.5 133.1L203.8 128.6L204.3 123.9V121.4L206.4 120.4L207.1 121.7L206.4 126.2L206.8 133.1V136.8L207.5 145.7L208 156.7ZM218.5 160L217.9 162.4H215.8L214.9 159.3L216 156.1L217.8 156.8L218.5 160Z" fill="black" stroke="black" stroke-width="2" mask="url(#path-3-inside-2_17_232)"/>
<path d="M208 156.7L207.5 166.5L207.7 172.2L207 181.1V187L205.6 193.9V200.2L204.2 204.9L204.4 209.9L202.6 215.8L203.3 218.8L202.4 221.1L201.7 226.1L201.5 234.4L199.4 240L198.2 246L197.3 252.3L195.7 254.9L194.1 261.5L191.7 268.4L188.2 275.3L184.2 281.2L179.9 286.2L174.8 288.8L169.4 290.4L164.5 291.4H158.5L152.3 290.4L148.1 288.8L144.4 285.6L140.6 282.5L137.9 277.5L135.7 272L134.1 265.7L132.5 260.1L132 253.2L131.3 246.5L130.7 239.6L131.3 230.7V223.4L131.7 215.4L132.8 210.9L131.9 207.8V203.3L133.5 198.6L134 192L133.8 187L134.7 179.7L136 172.8V166.5L137.1 159.9V153L134.7 147.5L133.8 141.2L133.6 137.8L134.7 131.8L136.6 127.9L138.2 126.9L142.2 124.2L146.9 123.2L151.3 124.5L154.9 127.9L157.1 130.2L158.2 132.5L160.6 135.2L161.7 139.4L161.5 145.3L159.1 151.3L156.6 156.6L154 163.5L153.1 168.5L151.7 177.7L149.1 185.6L147.5 194.5L145.9 202.9L144.2 210.5L142.6 218.8L142.4 228L141 235.2L142.1 244.9L142.3 256.7L143.2 264.8L145.6 269.9L149 274L150.9 276.3L153.8 277.6L159.6 279.4L163.6 280.1L167.8 279.8L175.3 277.7L181.1 272.5L184.4 267.5L186.9 261.9L189.5 257.2L189.7 252.7L191.3 249.6L193.3 242.7L194.8 236.8L195.7 231L197.9 225.4L197.7 222L197.9 218.8L199.8 215.4L199.1 209.9L200.7 200.9L201.4 193.4L203 186.7L202.6 178.8L203.5 172.2L203.8 164.3L203.5 158V151.7L204.5 146.7L203.3 144.4L203.9 140.8L203.3 136.8L203.5 133.1L203.8 128.6L204.3 123.9V121.4L206.4 120.4L207.1 121.7L206.4 126.2L206.8 133.1V136.8L207.5 145.7L208 156.7ZM218.5 160L217.9 162.4H215.8L214.9 159.3L216 156.1L217.8 156.8L218.5 160Z" fill="black" stroke="black" stroke-width="1.4173" stroke-miterlimit="22.9256"/>
<mask id="path-5-inside-3_17_232" fill="white">
<path d="M287.4 144.5L285.2 148.5H282.3L278.8 146.7L275.5 144.4L272.1 140.8L271.4 137.7L267.2 136.4L264.8 135.1L260.1 136.1H256.1L252 136.4L246.3 139.3L242.2 142.7L235.6 151.2L234.2 155.9L232 162.6L232.6 170.1L234.4 176.4L236.2 180.3L242.1 186.2L245.5 190.2L249.5 193.8L252.6 197.8L256.2 201.7L263.7 208L267.5 212.7L270.2 217L272.8 219.6L273.5 223.3L277.3 231.8L278.9 237.1L279.8 242.9L281.5 249.2L282.9 255.1L283.1 263.7L282.2 270.3L279.6 278L278.2 284.2L275.4 288.5L274 292.5L270.7 297.3L267.7 300.7L262.8 303.3L256.2 305L251.6 306.4L246.4 305L242.8 304.7L239.5 303.7L237 301.8H235.3L234.4 300.2L234.9 296.5L235.8 294.6H237.5V296.5L238 297.8L239.6 299.2L242.9 301.1L250.3 301.8L252.7 300.8L256.3 301.1L261.2 299.2L265.6 296.4L271.1 291.1L272 287.2L274.3 281.9L275.7 276.2L277.4 272L277.6 267L278.7 259.7L277.8 255L276.9 248.7L274.5 243.9L273.4 238L271.3 232.3L269.8 227L267.1 224.7L264.9 221.3L261.7 218.1L258.9 214.1L253.8 210.9L250.7 206.6L247.3 205.7L244 201.7L239.8 197.5L237.5 194.8L233.3 193.2L229.3 188.2L225.8 182.4L223.8 176.5L221.6 170.2V157.7L223.5 150.8L225.7 144.2L228.3 138.5L231.2 134L234 130.3L237.5 126.2L241.7 123.3L245.3 121.4L250.7 121.1L255.8 120.4L260.9 118.6L265.4 115.4L270.1 113.5L272.2 111.1L276.7 112.1L279.2 115.5L280.7 121.5L282.5 124.7L284.7 128.1L286.2 133.3L286.6 138.3L287.4 144.5ZM288.3 151.8L288.1 155.5L285 156.5L282.9 156.2L280.5 153.1L282.7 150.5L286 150.2L288.3 151.8Z"/>
</mask>
<path d="M287.4 144.5L285.2 148.5H282.3L278.8 146.7L275.5 144.4L272.1 140.8L271.4 137.7L267.2 136.4L264.8 135.1L260.1 136.1H256.1L252 136.4L246.3 139.3L242.2 142.7L235.6 151.2L234.2 155.9L232 162.6L232.6 170.1L234.4 176.4L236.2 180.3L242.1 186.2L245.5 190.2L249.5 193.8L252.6 197.8L256.2 201.7L263.7 208L267.5 212.7L270.2 217L272.8 219.6L273.5 223.3L277.3 231.8L278.9 237.1L279.8 242.9L281.5 249.2L282.9 255.1L283.1 263.7L282.2 270.3L279.6 278L278.2 284.2L275.4 288.5L274 292.5L270.7 297.3L267.7 300.7L262.8 303.3L256.2 305L251.6 306.4L246.4 305L242.8 304.7L239.5 303.7L237 301.8H235.3L234.4 300.2L234.9 296.5L235.8 294.6H237.5V296.5L238 297.8L239.6 299.2L242.9 301.1L250.3 301.8L252.7 300.8L256.3 301.1L261.2 299.2L265.6 296.4L271.1 291.1L272 287.2L274.3 281.9L275.7 276.2L277.4 272L277.6 267L278.7 259.7L277.8 255L276.9 248.7L274.5 243.9L273.4 238L271.3 232.3L269.8 227L267.1 224.7L264.9 221.3L261.7 218.1L258.9 214.1L253.8 210.9L250.7 206.6L247.3 205.7L244 201.7L239.8 197.5L237.5 194.8L233.3 193.2L229.3 188.2L225.8 182.4L223.8 176.5L221.6 170.2V157.7L223.5 150.8L225.7 144.2L228.3 138.5L231.2 134L234 130.3L237.5 126.2L241.7 123.3L245.3 121.4L250.7 121.1L255.8 120.4L260.9 118.6L265.4 115.4L270.1 113.5L272.2 111.1L276.7 112.1L279.2 115.5L280.7 121.5L282.5 124.7L284.7 128.1L286.2 133.3L286.6 138.3L287.4 144.5ZM288.3 151.8L288.1 155.5L285 156.5L282.9 156.2L280.5 153.1L282.7 150.5L286 150.2L288.3 151.8Z" fill="black" stroke="black" stroke-width="2" mask="url(#path-5-inside-3_17_232)"/>
<path d="M287.4 144.5L285.2 148.5H282.3L278.8 146.7L275.5 144.4L272.1 140.8L271.4 137.7L267.2 136.4L264.8 135.1L260.1 136.1H256.1L252 136.4L246.3 139.3L242.2 142.7L235.6 151.2L234.2 155.9L232 162.6L232.6 170.1L234.4 176.4L236.2 180.3L242.1 186.2L245.5 190.2L249.5 193.8L252.6 197.8L256.2 201.7L263.7 208L267.5 212.7L270.2 217L272.8 219.6L273.5 223.3L277.3 231.8L278.9 237.1L279.8 242.9L281.5 249.2L282.9 255.1L283.1 263.7L282.2 270.3L279.6 278L278.2 284.2L275.4 288.5L274 292.5L270.7 297.3L267.7 300.7L262.8 303.3L256.2 305L251.6 306.4L246.4 305L242.8 304.7L239.5 303.7L237 301.8H235.3L234.4 300.2L234.9 296.5L235.8 294.6H237.5V296.5L238 297.8L239.6 299.2L242.9 301.1L250.3 301.8L252.7 300.8L256.3 301.1L261.2 299.2L265.6 296.4L271.1 291.1L272 287.2L274.3 281.9L275.7 276.2L277.4 272L277.6 267L278.7 259.7L277.8 255L276.9 248.7L274.5 243.9L273.4 238L271.3 232.3L269.8 227L267.1 224.7L264.9 221.3L261.7 218.1L258.9 214.1L253.8 210.9L250.7 206.6L247.3 205.7L244 201.7L239.8 197.5L237.5 194.8L233.3 193.2L229.3 188.2L225.8 182.4L223.8 176.5L221.6 170.2V157.7L223.5 150.8L225.7 144.2L228.3 138.5L231.2 134L234 130.3L237.5 126.2L241.7 123.3L245.3 121.4L250.7 121.1L255.8 120.4L260.9 118.6L265.4 115.4L270.1 113.5L272.2 111.1L276.7 112.1L279.2 115.5L280.7 121.5L282.5 124.7L284.7 128.1L286.2 133.3L286.6 138.3L287.4 144.5ZM288.3 151.8L288.1 155.5L285 156.5L282.9 156.2L280.5 153.1L282.7 150.5L286 150.2L288.3 151.8Z" fill="black" stroke="black" stroke-width="2.0001" stroke-miterlimit="22.9256"/>
<path d="M125.065 315.359L125.007 315.39L124.959 315.435L123.493 316.803L121.378 318.149L118.16 319.319L114.146 320.2H110.973L108.091 319.335L105.076 317.734L104.047 315.677L103.986 315.553L103.87 315.479L101.421 313.912L99.7849 312.185L99.5077 308.581L100.819 305.396L103.705 302.799L106.771 300.82L106.783 300.813L106.794 300.805L111.129 297.652L116.278 296H121.1H121.137L121.173 295.995L123.873 295.595L123.995 295.577L124.094 295.505L126.194 293.978L127.471 293.795L127.505 293.79L127.537 293.781L133.02 292.215L136.8 292.99L136.835 292.997L136.871 292.999L140.336 293.197L144.267 293.983L148.732 295.571L148.8 295.595L148.871 295.599L152.243 295.798L158.068 296.785L162.222 298.367L162.337 298.411L162.46 298.397L164.906 298.103L167.837 298.387L168.8 298.98V299.929L167.064 301.058L165.097 301.9H158.2H158.169L158.138 301.904L151.738 302.704L151.711 302.707L151.685 302.714L146.185 304.014L146.176 304.016L146.167 304.018L142.167 305.118L142.15 305.123L142.134 305.129L138.734 306.329L138.685 306.346L138.641 306.373L135.841 308.073L135.725 308.143L135.661 308.261L134.533 310.329L125.065 315.359Z" fill="black" stroke="black"/>
<path d="M134.9 310.7L125.3 315.8L123.8 317.2L121.6 318.6L118.3 319.8L114.2 320.7H110.9L107.9 319.8L104.7 318.1L103.6 315.9L101.1 314.3L99.3 312.4L99 308.5L100.4 305.1L103.4 302.4L106.5 300.4L110.9 297.2L116.2 295.5H121.1L123.8 295.1L126 293.5L127.4 293.3L133 291.7L136.9 292.5L140.4 292.7L144.4 293.5L148.9 295.1L152.3 295.3L158.2 296.3L162.4 297.9L164.9 297.6L168 297.9L169.3 298.7V300.2L167.3 301.5L165.2 302.4H158.2L151.8 303.2L146.3 304.5L142.3 305.6L138.9 306.8L136.1 308.5L134.9 310.7Z" fill="black" stroke="black" stroke-width="2.0001" stroke-miterlimit="22.9256"/>
<path d="M416.921 222.255L416.904 222.314L416.901 222.376L416.704 226.399L412.735 237.215L412.731 237.228L409.65 244.98L407.669 248.347L407.664 248.355L407.66 248.363L404.787 253.712L401.025 257.969L400.999 257.999L400.977 258.033L397.928 262.853L392.781 266.64L382.903 269.209L378.622 269.792L373.81 268.712L373.792 268.708L373.774 268.706L363.184 267.122L359.977 264.984L359.957 264.97L359.934 264.958L355.077 262.381L347.318 256.114L347.314 256.111L339.363 249.551L333.398 241.698L333.352 241.637L333.29 241.593L328.893 238.466L326.349 233.28L326.319 233.219L326.274 233.168L321.535 227.836L318.367 219.522L318.364 219.515L318.361 219.507L315.084 211.662L313.7 203.16L313.7 191.8L313.7 191.793L313.5 178.328L314.792 168.291L317.077 158.853L320.664 149.988L320.698 149.903L320.7 149.811L320.899 141.064L322.966 132.4L325.519 128.473L325.54 128.44L325.556 128.405L326.804 125.621L330.398 122.902L330.402 122.899L335.736 118.947L340.532 117.284L347.498 115.89L347.563 115.877L347.622 115.848L356.311 111.554L363.199 108.559L363.27 108.528L363.328 108.478L366.968 105.317L373.652 105.898L373.657 105.898L380.981 106.68L385.459 110.865L385.55 110.951L385.672 110.983L388.916 111.842L393.873 117.868L398.712 128.336L399.052 131.397L395.905 132.009L395.585 132.071L395.513 132.389L394.269 137.843L389.077 140.12L384.713 136.61L384.595 136.516L384.445 136.502L377.867 135.913L372.37 132.379L372.282 132.323L372.178 132.306L365.878 131.306L365.741 131.284L365.612 131.337L359.736 133.727L352.161 135.92L352.116 135.933L352.074 135.954L345.774 139.154L345.703 139.19L345.646 139.246L341.746 143.147L341.699 143.193L341.666 143.251L338.566 148.651L338.555 148.672L338.545 148.693L335.545 155.293L335.529 155.328L335.519 155.364L332.519 165.964L332.512 165.989L332.507 166.015L330.407 178.215L330.403 178.238L330.402 178.26L329.902 184.56L329.9 184.574L329.9 184.588L329.7 192.688L329.699 192.722L329.703 192.757L330.802 202.344L331.401 212.031L331.405 212.097L331.426 212.16L334.326 220.76L334.337 220.793L334.353 220.824L337.453 227.024L337.469 227.056L337.49 227.087L347.49 241.387L347.53 241.443L347.584 241.487L353.584 246.387L353.605 246.404L353.628 246.419L357.628 249.019L357.726 249.083L357.843 249.097L369.143 250.397L369.251 250.409L369.355 250.375L379.455 247.075L379.474 247.069L379.492 247.062L387.892 243.562L388.008 243.513L388.088 243.416L393.388 236.916L393.421 236.875L393.445 236.829L397.13 229.658L403.14 220.988L406.477 219.271L410.421 218.285L410.648 218.228L410.75 218.018L413.6 212.121L416.213 210.049L418.9 210.782V215.726L416.921 222.255Z" fill="black" stroke="black"/>
<path d="M419.4 215.8L417.4 222.4L417.2 226.5L413.2 237.4L410.1 245.2L408.1 248.6L405.2 254L401.4 258.3L398.3 263.2L393 267.1L383 269.7L378.6 270.3L373.7 269.2L363 267.6L359.7 265.4L354.8 262.8L347 256.5L339 249.9L333 242L328.5 238.8L325.9 233.5L321.1 228.1L317.9 219.7L314.6 211.8L313.2 203.2V191.8L313 178.3L314.3 168.2L316.6 158.7L320.2 149.8L320.4 141L322.5 132.2L325.1 128.2L326.4 125.3L330.1 122.5L335.5 118.5L340.4 116.8L347.4 115.4L356.1 111.1L363 108.1L366.8 104.8L373.7 105.4L381.2 106.2L385.8 110.5L389.2 111.4L394.3 117.6L399.2 128.2L399.6 131.8L396 132.5L394.7 138.2L389 140.7L384.4 137L377.7 136.4L372.1 132.8L365.8 131.8L359.9 134.2L352.3 136.4L346 139.6L342.1 143.5L339 148.9L336 155.5L333 166.1L330.9 178.3L330.4 184.6L330.2 192.7L331.3 202.3L331.9 212L334.8 220.6L337.9 226.8L347.9 241.1L353.9 246L357.9 248.6L369.2 249.9L379.3 246.6L387.7 243.1L393 236.6L396.7 229.4L402.8 220.6L406.3 218.8L410.3 217.8L413.2 211.8L416.1 209.5L419.4 210.4V215.8Z" fill="black" stroke="black" stroke-width="0.216" stroke-miterlimit="22.9256"/>
<mask id="path-11-inside-4_17_232" fill="white">
<path d="M467.7 199L466.3 199.4L465.2 198.4L465.4 197.3H466.5L467.2 196.7L467.7 197.6V199ZM478.8 198.4L477.8 195.4L475.5 190.3L475 185.4L473.9 183.2L473.1 180.3L471.7 177.5L471.9 170.1L469 165.2L469.9 163.1L468.8 159.8L467.3 149.8L465.5 145.2L465.3 141.5L462.7 137.5L461.8 135.3L459.5 129.3L454.8 135L455.3 138.6L453.6 141.8V145.2L453.1 147L452.2 152.7L451.7 157.7V159.2L450.6 161.1V165.1L450.1 173V176.8L448.9 180.2L449.7 183.7L448.5 188L450.4 191.3L455.8 194.2L461.3 196.7L466 199.9L468.6 202.1L473.1 203.2L476.2 202.3L477.1 201.5L478.8 198.4ZM406.6 355.2L406.4 356.3L404.8 356L404.1 353.9L405.2 353.6H406.6V355.2ZM402.6 318L401.6 318.6L400.5 318V316.6L401.2 316L402.4 316.3L402.6 317.2V318ZM430.1 194L429.9 195.4L428.9 196.3L427.5 195.2V193.8L428.6 192.3L429.8 191.7L430 192.6V194H430.1ZM521.5 298.9C521.4 299.1 521 299.3 520.4 299.5L519.7 299.2L519.5 298.4L520.2 297.5L521.3 297.8L521.5 298.9ZM521.3 288.7L520.4 290.1L518.6 291L517.9 289.6L516.7 287.5L515.1 283.6L512.8 279.8L509.5 272.7L507.1 265.9L506.2 261L504.6 258.3L501.8 248.4L499.6 244.9L497.8 239.8L495.2 234.6L493.2 232.4L488.3 225.8L487.3 222L483.5 218.6L478.6 217.5L473.4 218.4L468 219.5L464.1 221.4L459.9 226L455.9 228.5L455 230.9L451.9 233.7L445.4 238.3L444.2 240L443.3 246.3V250.3L441.7 252.5V257.4L427.9 316.5L428.6 324.9L427.9 330.6L426.5 336.6L424.4 341.4L421.9 345.2L417.7 349.8L413.7 350.6L410 351.2L408.8 350.1H406.7L405.1 347.7L403.9 346.6V343.8L402.8 341.7V336L403.9 332.3L403.7 329.1L404.4 327.2L405.8 326.3V323.7L408 322.3L408.9 319.8L410.3 316.3L412.2 315.2L427.2 256.1L427.9 250.4L429 249.5L428.5 245.7L429.4 240V236.4L427.3 230.9L425.9 226.1L425.4 220.6L425.2 216.8L425.9 215.7L425.4 213.8V212.8L428.8 207.7V206L430.7 203.3L433.2 198.5L436.3 193L437 189.1L437.2 186.2L437 184L438.1 176.9L439 170.1L440.9 161.4L441.3 156.6L442.2 154.4L442 147L441.5 140.4L442 134.1L443.8 129L445.5 125L447.6 123.1L448.3 119.3L449.8 116.8L450.5 114.4L449.8 112.7L450.3 108.9L448.6 104.4L449.1 99.8002L447.7 97.7002L448.4 94.1002H449.9L452.4 91.7002L453.8 91.5002L454.8 89.3002L458.4 88.7002L461.5 90.4001L464.1 95.3002L465.3 96.1002L467.1 100.4L469.3 105.6L470.2 110.4L472.3 116L474.9 120.3L475.1 122.7L476.9 125.2L478.1 128.1L480.2 131.7L480 135.2L482.1 140.3L482.3 142.5L483.5 145.3L484.7 150.2L486.5 154.2L487.2 161L488.2 165.8L489.6 172.6V175.1L490.7 178.9L492.3 185.5L493.8 191.5L494.3 196.4L495.4 199.9L498.5 202.4L502.1 203.8L506.5 203.5H510.7L514.9 204.6L515.6 206.1L516.5 207.5L515.6 208.4L514.9 209.8L513.1 212.2L510.7 212.5L509.8 213.9L506.3 214.8L502.3 217L500.7 218.8V222.1L501.4 226.1L502.9 230.1L504.7 234L506.3 239.7L507.5 243.2L509 248.6L510.6 253.5L513 259.5L514.6 264.5L515.5 272.3L516.6 273.2L518.1 277.2L519.7 281.1V283.5L520.9 284.9L521.3 288.7ZM519.5 206.5L519.3 207.6L518.4 208.2H517.7V207.3L517.9 206.2L518.4 205.9L519.5 206.5Z"/>
</mask>
<path d="M467.7 199L466.3 199.4L465.2 198.4L465.4 197.3H466.5L467.2 196.7L467.7 197.6V199ZM478.8 198.4L477.8 195.4L475.5 190.3L475 185.4L473.9 183.2L473.1 180.3L471.7 177.5L471.9 170.1L469 165.2L469.9 163.1L468.8 159.8L467.3 149.8L465.5 145.2L465.3 141.5L462.7 137.5L461.8 135.3L459.5 129.3L454.8 135L455.3 138.6L453.6 141.8V145.2L453.1 147L452.2 152.7L451.7 157.7V159.2L450.6 161.1V165.1L450.1 173V176.8L448.9 180.2L449.7 183.7L448.5 188L450.4 191.3L455.8 194.2L461.3 196.7L466 199.9L468.6 202.1L473.1 203.2L476.2 202.3L477.1 201.5L478.8 198.4ZM406.6 355.2L406.4 356.3L404.8 356L404.1 353.9L405.2 353.6H406.6V355.2ZM402.6 318L401.6 318.6L400.5 318V316.6L401.2 316L402.4 316.3L402.6 317.2V318ZM430.1 194L429.9 195.4L428.9 196.3L427.5 195.2V193.8L428.6 192.3L429.8 191.7L430 192.6V194H430.1ZM521.5 298.9C521.4 299.1 521 299.3 520.4 299.5L519.7 299.2L519.5 298.4L520.2 297.5L521.3 297.8L521.5 298.9ZM521.3 288.7L520.4 290.1L518.6 291L517.9 289.6L516.7 287.5L515.1 283.6L512.8 279.8L509.5 272.7L507.1 265.9L506.2 261L504.6 258.3L501.8 248.4L499.6 244.9L497.8 239.8L495.2 234.6L493.2 232.4L488.3 225.8L487.3 222L483.5 218.6L478.6 217.5L473.4 218.4L468 219.5L464.1 221.4L459.9 226L455.9 228.5L455 230.9L451.9 233.7L445.4 238.3L444.2 240L443.3 246.3V250.3L441.7 252.5V257.4L427.9 316.5L428.6 324.9L427.9 330.6L426.5 336.6L424.4 341.4L421.9 345.2L417.7 349.8L413.7 350.6L410 351.2L408.8 350.1H406.7L405.1 347.7L403.9 346.6V343.8L402.8 341.7V336L403.9 332.3L403.7 329.1L404.4 327.2L405.8 326.3V323.7L408 322.3L408.9 319.8L410.3 316.3L412.2 315.2L427.2 256.1L427.9 250.4L429 249.5L428.5 245.7L429.4 240V236.4L427.3 230.9L425.9 226.1L425.4 220.6L425.2 216.8L425.9 215.7L425.4 213.8V212.8L428.8 207.7V206L430.7 203.3L433.2 198.5L436.3 193L437 189.1L437.2 186.2L437 184L438.1 176.9L439 170.1L440.9 161.4L441.3 156.6L442.2 154.4L442 147L441.5 140.4L442 134.1L443.8 129L445.5 125L447.6 123.1L448.3 119.3L449.8 116.8L450.5 114.4L449.8 112.7L450.3 108.9L448.6 104.4L449.1 99.8002L447.7 97.7002L448.4 94.1002H449.9L452.4 91.7002L453.8 91.5002L454.8 89.3002L458.4 88.7002L461.5 90.4001L464.1 95.3002L465.3 96.1002L467.1 100.4L469.3 105.6L470.2 110.4L472.3 116L474.9 120.3L475.1 122.7L476.9 125.2L478.1 128.1L480.2 131.7L480 135.2L482.1 140.3L482.3 142.5L483.5 145.3L484.7 150.2L486.5 154.2L487.2 161L488.2 165.8L489.6 172.6V175.1L490.7 178.9L492.3 185.5L493.8 191.5L494.3 196.4L495.4 199.9L498.5 202.4L502.1 203.8L506.5 203.5H510.7L514.9 204.6L515.6 206.1L516.5 207.5L515.6 208.4L514.9 209.8L513.1 212.2L510.7 212.5L509.8 213.9L506.3 214.8L502.3 217L500.7 218.8V222.1L501.4 226.1L502.9 230.1L504.7 234L506.3 239.7L507.5 243.2L509 248.6L510.6 253.5L513 259.5L514.6 264.5L515.5 272.3L516.6 273.2L518.1 277.2L519.7 281.1V283.5L520.9 284.9L521.3 288.7ZM519.5 206.5L519.3 207.6L518.4 208.2H517.7V207.3L517.9 206.2L518.4 205.9L519.5 206.5Z" fill="black" stroke="black" stroke-width="2" mask="url(#path-11-inside-4_17_232)"/>
<path d="M467.7 199L466.3 199.4L465.2 198.4L465.4 197.3H466.5L467.2 196.7L467.7 197.6V199ZM478.8 198.4L477.8 195.4L475.5 190.3L475 185.4L473.9 183.2L473.1 180.3L471.7 177.5L471.9 170.1L469 165.2L469.9 163.1L468.8 159.8L467.3 149.8L465.5 145.2L465.3 141.5L462.7 137.5L461.8 135.3L459.5 129.3L454.8 135L455.3 138.6L453.6 141.8V145.2L453.1 147L452.2 152.7L451.7 157.7V159.2L450.6 161.1V165.1L450.1 173V176.8L448.9 180.2L449.7 183.7L448.5 188L450.4 191.3L455.8 194.2L461.3 196.7L466 199.9L468.6 202.1L473.1 203.2L476.2 202.3L477.1 201.5L478.8 198.4ZM406.6 355.2L406.4 356.3L404.8 356L404.1 353.9L405.2 353.6H406.6V355.2ZM402.6 318L401.6 318.6L400.5 318V316.6L401.2 316L402.4 316.3L402.6 317.2V318ZM430.1 194L429.9 195.4L428.9 196.3L427.5 195.2V193.8L428.6 192.3L429.8 191.7L430 192.6V194H430.1ZM521.5 298.9C521.4 299.1 521 299.3 520.4 299.5L519.7 299.2L519.5 298.4L520.2 297.5L521.3 297.8L521.5 298.9ZM521.3 288.7L520.4 290.1L518.6 291L517.9 289.6L516.7 287.5L515.1 283.6L512.8 279.8L509.5 272.7L507.1 265.9L506.2 261L504.6 258.3L501.8 248.4L499.6 244.9L497.8 239.8L495.2 234.6L493.2 232.4L488.3 225.8L487.3 222L483.5 218.6L478.6 217.5L473.4 218.4L468 219.5L464.1 221.4L459.9 226L455.9 228.5L455 230.9L451.9 233.7L445.4 238.3L444.2 240L443.3 246.3V250.3L441.7 252.5V257.4L427.9 316.5L428.6 324.9L427.9 330.6L426.5 336.6L424.4 341.4L421.9 345.2L417.7 349.8L413.7 350.6L410 351.2L408.8 350.1H406.7L405.1 347.7L403.9 346.6V343.8L402.8 341.7V336L403.9 332.3L403.7 329.1L404.4 327.2L405.8 326.3V323.7L408 322.3L408.9 319.8L410.3 316.3L412.2 315.2L427.2 256.1L427.9 250.4L429 249.5L428.5 245.7L429.4 240V236.4L427.3 230.9L425.9 226.1L425.4 220.6L425.2 216.8L425.9 215.7L425.4 213.8V212.8L428.8 207.7V206L430.7 203.3L433.2 198.5L436.3 193L437 189.1L437.2 186.2L437 184L438.1 176.9L439 170.1L440.9 161.4L441.3 156.6L442.2 154.4L442 147L441.5 140.4L442 134.1L443.8 129L445.5 125L447.6 123.1L448.3 119.3L449.8 116.8L450.5 114.4L449.8 112.7L450.3 108.9L448.6 104.4L449.1 99.8002L447.7 97.7002L448.4 94.1002H449.9L452.4 91.7002L453.8 91.5002L454.8 89.3002L458.4 88.7002L461.5 90.4001L464.1 95.3002L465.3 96.1002L467.1 100.4L469.3 105.6L470.2 110.4L472.3 116L474.9 120.3L475.1 122.7L476.9 125.2L478.1 128.1L480.2 131.7L480 135.2L482.1 140.3L482.3 142.5L483.5 145.3L484.7 150.2L486.5 154.2L487.2 161L488.2 165.8L489.6 172.6V175.1L490.7 178.9L492.3 185.5L493.8 191.5L494.3 196.4L495.4 199.9L498.5 202.4L502.1 203.8L506.5 203.5H510.7L514.9 204.6L515.6 206.1L516.5 207.5L515.6 208.4L514.9 209.8L513.1 212.2L510.7 212.5L509.8 213.9L506.3 214.8L502.3 217L500.7 218.8V222.1L501.4 226.1L502.9 230.1L504.7 234L506.3 239.7L507.5 243.2L509 248.6L510.6 253.5L513 259.5L514.6 264.5L515.5 272.3L516.6 273.2L518.1 277.2L519.7 281.1V283.5L520.9 284.9L521.3 288.7ZM519.5 206.5L519.3 207.6L518.4 208.2H517.7V207.3L517.9 206.2L518.4 205.9L519.5 206.5Z" fill="black" stroke="black" stroke-width="0.216" stroke-miterlimit="22.9256"/>
<mask id="path-13-inside-5_17_232" fill="white">
<path d="M515.5 161.9L515.3 163.6L513.5 164.8L512.4 162.7L513.8 160.5L515.5 161.9ZM583.5 202.4L582.8 204.1L581.4 203.5L580.3 201L581.9 198.6L583.5 200V202.4ZM600.3 248.4L600.1 252.3L598.4 255.5L597.5 258L595.4 260.1H591.9L588.8 261.2L585.4 262.6H581.4L576.7 262L571.3 263.1H567.8L563.8 264.5L560.6 266.9L556.2 268.6L552 271.8L548.5 274.6H542L538 273.7H533.3L529.6 273.5L526.4 272.6L522.9 271.1L518.9 271.8L516.3 270.8L515.1 268.6L515.3 265.4V261.8L515.5 258.6L516.7 255.6L516.2 252.4L516.7 249.6L517.4 246.1V241.8L518.5 236.5L518.7 231.1L518.5 226.5L519.2 222.2L519.7 217.3L520.6 213.1L520.8 208L520.6 205.1V194.3L520.8 189.5V183.2L521.4 178.6L521.9 172.6L522.1 168.8L521.9 164.9L521.4 160.9L521.9 157.1V152.3L522.1 147.8L522.6 143.5L522.1 140.9L522.6 138.1L523.1 134.3L522.9 131.5L523.8 128L522.7 125L522.2 121V116.4L522 112.2L521.5 107.9V104.1L522.6 101.6L520.9 99.3L520.4 96.5L521.9 94V90.8L522.8 87.3V83.1L523 79.3L522.8 76.8L524.9 73.6L527.3 71.1L529.6 70L532.4 69.6L535.3 68.5L538.1 68.8L540.7 70.9L543.2 72.6L546.3 75.1L548.4 78.9L549.3 82.9L549.8 85.9L548.9 89.7L548.4 92.5L545.7 95.4L544 98.7L543.3 104.1L542.2 107.9L541.5 111.7L540.8 115.6L539.8 119.6V124.2L538.7 128.7L537.8 136.8V141L536.7 144.8L536 147.7L534.7 150.2L534.5 154L533.8 158.5L532.9 168V172.6L531.7 176.5L531.2 181.6L530.2 186.5V191.1L529.5 194.5L529 197.4V201.7L528.1 205.3L527.9 209.1L527.2 213.4L526.1 218.2L526.3 221.7L526.1 227.4L525.3 231.7L524.6 234.7V236.8L524.1 239.9L523.9 243.7L524.6 245.4L526.7 246L529.2 244.6L533.2 244.1L537.7 243.5H540.2L543.5 245.2H547.3L549.8 244.1L552.9 243.8L557.1 241.9L559.3 240.8L562.8 241.1L567.2 241.9L571.4 241.1L576.3 239.7L580 237.5L583 235.6L583.7 233.1L587 230.9L589.6 229.3L592.8 230.2L595.2 232.3L596.6 235.3L599 238.2L599.5 241.2L600.2 245V248.4H600.3Z"/>
</mask>
<path d="M515.5 161.9L515.3 163.6L513.5 164.8L512.4 162.7L513.8 160.5L515.5 161.9ZM583.5 202.4L582.8 204.1L581.4 203.5L580.3 201L581.9 198.6L583.5 200V202.4ZM600.3 248.4L600.1 252.3L598.4 255.5L597.5 258L595.4 260.1H591.9L588.8 261.2L585.4 262.6H581.4L576.7 262L571.3 263.1H567.8L563.8 264.5L560.6 266.9L556.2 268.6L552 271.8L548.5 274.6H542L538 273.7H533.3L529.6 273.5L526.4 272.6L522.9 271.1L518.9 271.8L516.3 270.8L515.1 268.6L515.3 265.4V261.8L515.5 258.6L516.7 255.6L516.2 252.4L516.7 249.6L517.4 246.1V241.8L518.5 236.5L518.7 231.1L518.5 226.5L519.2 222.2L519.7 217.3L520.6 213.1L520.8 208L520.6 205.1V194.3L520.8 189.5V183.2L521.4 178.6L521.9 172.6L522.1 168.8L521.9 164.9L521.4 160.9L521.9 157.1V152.3L522.1 147.8L522.6 143.5L522.1 140.9L522.6 138.1L523.1 134.3L522.9 131.5L523.8 128L522.7 125L522.2 121V116.4L522 112.2L521.5 107.9V104.1L522.6 101.6L520.9 99.3L520.4 96.5L521.9 94V90.8L522.8 87.3V83.1L523 79.3L522.8 76.8L524.9 73.6L527.3 71.1L529.6 70L532.4 69.6L535.3 68.5L538.1 68.8L540.7 70.9L543.2 72.6L546.3 75.1L548.4 78.9L549.3 82.9L549.8 85.9L548.9 89.7L548.4 92.5L545.7 95.4L544 98.7L543.3 104.1L542.2 107.9L541.5 111.7L540.8 115.6L539.8 119.6V124.2L538.7 128.7L537.8 136.8V141L536.7 144.8L536 147.7L534.7 150.2L534.5 154L533.8 158.5L532.9 168V172.6L531.7 176.5L531.2 181.6L530.2 186.5V191.1L529.5 194.5L529 197.4V201.7L528.1 205.3L527.9 209.1L527.2 213.4L526.1 218.2L526.3 221.7L526.1 227.4L525.3 231.7L524.6 234.7V236.8L524.1 239.9L523.9 243.7L524.6 245.4L526.7 246L529.2 244.6L533.2 244.1L537.7 243.5H540.2L543.5 245.2H547.3L549.8 244.1L552.9 243.8L557.1 241.9L559.3 240.8L562.8 241.1L567.2 241.9L571.4 241.1L576.3 239.7L580 237.5L583 235.6L583.7 233.1L587 230.9L589.6 229.3L592.8 230.2L595.2 232.3L596.6 235.3L599 238.2L599.5 241.2L600.2 245V248.4H600.3Z" fill="black" stroke="black" stroke-width="2" mask="url(#path-13-inside-5_17_232)"/>
<path d="M515.5 161.9L515.3 163.6L513.5 164.8L512.4 162.7L513.8 160.5L515.5 161.9ZM583.5 202.4L582.8 204.1L581.4 203.5L580.3 201L581.9 198.6L583.5 200V202.4ZM600.3 248.4L600.1 252.3L598.4 255.5L597.5 258L595.4 260.1H591.9L588.8 261.2L585.4 262.6H581.4L576.7 262L571.3 263.1H567.8L563.8 264.5L560.6 266.9L556.2 268.6L552 271.8L548.5 274.6H542L538 273.7H533.3L529.6 273.5L526.4 272.6L522.9 271.1L518.9 271.8L516.3 270.8L515.1 268.6L515.3 265.4V261.8L515.5 258.6L516.7 255.6L516.2 252.4L516.7 249.6L517.4 246.1V241.8L518.5 236.5L518.7 231.1L518.5 226.5L519.2 222.2L519.7 217.3L520.6 213.1L520.8 208L520.6 205.1V194.3L520.8 189.5V183.2L521.4 178.6L521.9 172.6L522.1 168.8L521.9 164.9L521.4 160.9L521.9 157.1V152.3L522.1 147.8L522.6 143.5L522.1 140.9L522.6 138.1L523.1 134.3L522.9 131.5L523.8 128L522.7 125L522.2 121V116.4L522 112.2L521.5 107.9V104.1L522.6 101.6L520.9 99.3L520.4 96.5L521.9 94V90.8L522.8 87.3V83.1L523 79.3L522.8 76.8L524.9 73.6L527.3 71.1L529.6 70L532.4 69.6L535.3 68.5L538.1 68.8L540.7 70.9L543.2 72.6L546.3 75.1L548.4 78.9L549.3 82.9L549.8 85.9L548.9 89.7L548.4 92.5L545.7 95.4L544 98.7L543.3 104.1L542.2 107.9L541.5 111.7L540.8 115.6L539.8 119.6V124.2L538.7 128.7L537.8 136.8V141L536.7 144.8L536 147.7L534.7 150.2L534.5 154L533.8 158.5L532.9 168V172.6L531.7 176.5L531.2 181.6L530.2 186.5V191.1L529.5 194.5L529 197.4V201.7L528.1 205.3L527.9 209.1L527.2 213.4L526.1 218.2L526.3 221.7L526.1 227.4L525.3 231.7L524.6 234.7V236.8L524.1 239.9L523.9 243.7L524.6 245.4L526.7 246L529.2 244.6L533.2 244.1L537.7 243.5H540.2L543.5 245.2H547.3L549.8 244.1L552.9 243.8L557.1 241.9L559.3 240.8L562.8 241.1L567.2 241.9L571.4 241.1L576.3 239.7L580 237.5L583 235.6L583.7 233.1L587 230.9L589.6 229.3L592.8 230.2L595.2 232.3L596.6 235.3L599 238.2L599.5 241.2L600.2 245V248.4H600.3Z" fill="black" stroke="black" stroke-width="0.216" stroke-miterlimit="22.9256"/>
<mask id="path-15-inside-6_17_232" fill="white">
<path d="M545.9 192.6L543.6 194.5L540.8 193.4L543.2 191.2L545.9 192.6ZM632 201.8L630.9 207.8L630.4 215.7L628.9 223.4L629.6 229.2L630.1 237.5L628.7 243.1V250.9L626 257.5L623.8 264.1L615.4 280.9L611.6 284.8L606.5 289.1L601.4 291.5L590.6 293.2L584.5 292.3L579.6 293.2L576.5 293.5L574.2 292.4L573 291.3L571.8 289.2L573 285.3L575.8 281.3L579.3 279.9L581.4 280.7L585.6 276.7L589.6 274.8L593.8 274.3L597.3 270.8L601.3 268.9L604.9 266.3L608.9 260.6L612.2 254L615.4 248.6L617.1 243.2L616.4 236.9L617.3 231.2L616.4 226.4L615.6 221.6L617.1 215.9L616.7 211.6L617.8 205.9L617.3 199.1L616.2 192.6L614.5 183.7L612.4 175.5L610.5 171.7L610.1 167L607.6 161.6L604.1 157.6L600.1 155.1L591.6 155.7L586.4 157.6L583.9 161.6L583 167.8L581.3 173.6L579.9 181L578.8 187.5L577.9 195.2L576.9 199.8L576.2 203.6L576.9 209L577.9 214L575.5 216.7L576.6 219.7L575.7 223.7V229.1L574.3 233.4L574.1 239.7V244.3L572.9 248.8L571.9 252.3V256.6L571.2 261.8L569.6 268.9V272.5L569.4 281.7L569.2 286L569.4 290.2L570.3 295.6L571.9 298.3L571.7 301.6L570.3 305.4L568.3 306L566.1 305.4L564.5 304.3L563.6 302.8L562.4 299.7L561.4 292.3L561.2 286.6L561.4 280.6L561.2 274.6V270.3L562.1 262.6L562.6 254.8L563.8 248L564.2 242.6L565.1 236.9V229.2L565.6 220.4L566.5 212.6L565.6 208.4L565.1 201.7L565.8 193.2L567.5 186.4V180.9L569.1 170.9V165.5L568.2 161.3L568.4 157.5L566.5 154.7L565.6 150.9L565.1 147.7L565.8 142.3L567.9 139.8L573 137.6L577.9 134.7L583.3 132.8L588.4 132.5H591.9L600.6 134.7L604.6 135.3L607.7 137.4L608.4 139.3L611.9 140.1L615.3 143.9L618.4 147L620.8 153L622.9 157.6L624.3 163L626 167L627.6 172.8L629.6 179.6L630.4 185L630.9 191.6L632 197V201.8ZM601.4 179.3L600.2 180.7L596 181.3L594.2 178.3L600.3 177.6L601.4 179.3Z"/>
</mask>
<path d="M545.9 192.6L543.6 194.5L540.8 193.4L543.2 191.2L545.9 192.6ZM632 201.8L630.9 207.8L630.4 215.7L628.9 223.4L629.6 229.2L630.1 237.5L628.7 243.1V250.9L626 257.5L623.8 264.1L615.4 280.9L611.6 284.8L606.5 289.1L601.4 291.5L590.6 293.2L584.5 292.3L579.6 293.2L576.5 293.5L574.2 292.4L573 291.3L571.8 289.2L573 285.3L575.8 281.3L579.3 279.9L581.4 280.7L585.6 276.7L589.6 274.8L593.8 274.3L597.3 270.8L601.3 268.9L604.9 266.3L608.9 260.6L612.2 254L615.4 248.6L617.1 243.2L616.4 236.9L617.3 231.2L616.4 226.4L615.6 221.6L617.1 215.9L616.7 211.6L617.8 205.9L617.3 199.1L616.2 192.6L614.5 183.7L612.4 175.5L610.5 171.7L610.1 167L607.6 161.6L604.1 157.6L600.1 155.1L591.6 155.7L586.4 157.6L583.9 161.6L583 167.8L581.3 173.6L579.9 181L578.8 187.5L577.9 195.2L576.9 199.8L576.2 203.6L576.9 209L577.9 214L575.5 216.7L576.6 219.7L575.7 223.7V229.1L574.3 233.4L574.1 239.7V244.3L572.9 248.8L571.9 252.3V256.6L571.2 261.8L569.6 268.9V272.5L569.4 281.7L569.2 286L569.4 290.2L570.3 295.6L571.9 298.3L571.7 301.6L570.3 305.4L568.3 306L566.1 305.4L564.5 304.3L563.6 302.8L562.4 299.7L561.4 292.3L561.2 286.6L561.4 280.6L561.2 274.6V270.3L562.1 262.6L562.6 254.8L563.8 248L564.2 242.6L565.1 236.9V229.2L565.6 220.4L566.5 212.6L565.6 208.4L565.1 201.7L565.8 193.2L567.5 186.4V180.9L569.1 170.9V165.5L568.2 161.3L568.4 157.5L566.5 154.7L565.6 150.9L565.1 147.7L565.8 142.3L567.9 139.8L573 137.6L577.9 134.7L583.3 132.8L588.4 132.5H591.9L600.6 134.7L604.6 135.3L607.7 137.4L608.4 139.3L611.9 140.1L615.3 143.9L618.4 147L620.8 153L622.9 157.6L624.3 163L626 167L627.6 172.8L629.6 179.6L630.4 185L630.9 191.6L632 197V201.8ZM601.4 179.3L600.2 180.7L596 181.3L594.2 178.3L600.3 177.6L601.4 179.3Z" fill="black" stroke="black" stroke-width="2" mask="url(#path-15-inside-6_17_232)"/>
<path d="M545.9 192.6L543.6 194.5L540.8 193.4L543.2 191.2L545.9 192.6ZM632 201.8L630.9 207.8L630.4 215.7L628.9 223.4L629.6 229.2L630.1 237.5L628.7 243.1V250.9L626 257.5L623.8 264.1L615.4 280.9L611.6 284.8L606.5 289.1L601.4 291.5L590.6 293.2L584.5 292.3L579.6 293.2L576.5 293.5L574.2 292.4L573 291.3L571.8 289.2L573 285.3L575.8 281.3L579.3 279.9L581.4 280.7L585.6 276.7L589.6 274.8L593.8 274.3L597.3 270.8L601.3 268.9L604.9 266.3L608.9 260.6L612.2 254L615.4 248.6L617.1 243.2L616.4 236.9L617.3 231.2L616.4 226.4L615.6 221.6L617.1 215.9L616.7 211.6L617.8 205.9L617.3 199.1L616.2 192.6L614.5 183.7L612.4 175.5L610.5 171.7L610.1 167L607.6 161.6L604.1 157.6L600.1 155.1L591.6 155.7L586.4 157.6L583.9 161.6L583 167.8L581.3 173.6L579.9 181L578.8 187.5L577.9 195.2L576.9 199.8L576.2 203.6L576.9 209L577.9 214L575.5 216.7L576.6 219.7L575.7 223.7V229.1L574.3 233.4L574.1 239.7V244.3L572.9 248.8L571.9 252.3V256.6L571.2 261.8L569.6 268.9V272.5L569.4 281.7L569.2 286L569.4 290.2L570.3 295.6L571.9 298.3L571.7 301.6L570.3 305.4L568.3 306L566.1 305.4L564.5 304.3L563.6 302.8L562.4 299.7L561.4 292.3L561.2 286.6L561.4 280.6L561.2 274.6V270.3L562.1 262.6L562.6 254.8L563.8 248L564.2 242.6L565.1 236.9V229.2L565.6 220.4L566.5 212.6L565.6 208.4L565.1 201.7L565.8 193.2L567.5 186.4V180.9L569.1 170.9V165.5L568.2 161.3L568.4 157.5L566.5 154.7L565.6 150.9L565.1 147.7L565.8 142.3L567.9 139.8L573 137.6L577.9 134.7L583.3 132.8L588.4 132.5H591.9L600.6 134.7L604.6 135.3L607.7 137.4L608.4 139.3L611.9 140.1L615.3 143.9L618.4 147L620.8 153L622.9 157.6L624.3 163L626 167L627.6 172.8L629.6 179.6L630.4 185L630.9 191.6L632 197V201.8ZM601.4 179.3L600.2 180.7L596 181.3L594.2 178.3L600.3 177.6L601.4 179.3Z" fill="black" stroke="black" stroke-width="0.216" stroke-miterlimit="22.9256"/>
<mask id="path-17-inside-7_17_232" fill="white">
<path d="M692.8 186L691.4 186.4L690.3 185.4L690.5 184.3H691.6L692.3 183.7L692.8 184.6V186ZM703.9 185.4L702.9 182.4L700.7 177.3L700.2 172.4L699.1 170.2L698.3 167.3L696.9 164.5L697.1 157.1L694.2 152.2L695.1 150.1L694 146.8L692.5 136.8L690.7 132.2L690.5 128.5L687.9 124.5L687 122.3L684.7 116.3L680 122L680.5 125.6L678.8 128.8V132.2L678.3 134L677.4 139.7L676.9 144.7V146.2L675.8 148.1V152.1L675.3 160V163.8L674.1 167.2L674.9 170.7L673.7 175L675.6 178.3L681 181.2L686.5 183.7L691.2 186.9L693.8 189.1L698.3 190.2L701.4 189.3L702.3 188.5L703.9 185.4ZM644.9 288.2L644.7 289.3L643.1 289L642.4 286.9L643.5 286.6H644.9V288.2ZM640.8 251L639.8 251.6L638.7 251V249.6L639.4 249L640.6 249.3L640.8 250.2V251ZM655.2 181L655 182.4L654 183.3L652.6 182.2V180.8L653.7 179.3L654.9 178.7L655.1 179.6V181H655.2ZM778.4 362.2C778.3 362.4 777.9 362.6 777.3 362.8L776.6 362.5L776.4 361.7L777.1 360.8L778.2 361.1L778.4 362.2ZM778.1 352L777.2 353.4L775.4 354.3L774.7 352.9L773.5 350.8L771.9 346.9L769.6 343.1L766.3 336L732.2 252.8L731.3 247.9L729.7 245.2L726.9 235.3L724.7 231.8L722.9 226.7L720.3 221.5L718.3 219.3L713.4 212.7L712.4 208.9L708.6 205.5L703.7 204.4L698.5 205.3L693.1 206.4L689.2 208.4L685 213L681 215.5L680.1 217.9L677 220.7L670.5 225.3L669.3 227L668.4 233.3V237.3L666.8 239.5V244.4L666.1 249.5L666.8 257.9L666.1 263.6L664.7 269.6L662.6 274.4L660.1 278.2L655.9 282.8L651.9 283.6L648.2 284.2L647 283.1H644.9L643.3 280.7L642.1 279.6V276.8L641 274.7V269L642.1 265.3L641.9 262.1L642.6 260.2L644 259.3V256.7L646.2 255.3L647.1 252.8L648.5 249.3L650.4 248.2L652.2 243.1L652.9 237.4L654 236.5L653.5 232.7L654.4 227V223.4L652.3 217.9L650.9 213.1L650.4 207.6L650.2 203.8L650.9 202.7L650.4 200.8V199.7L653.8 194.6V192.9L655.7 190.2L658.2 185.4L661.3 179.9L662 176L662.2 173.1L662 170.9L663.1 163.8L664 157L665.9 148.3L666.3 143.5L667.2 141.3L667 133.9L666.5 127.3L667 121L668.8 115.9L670.5 111.9L672.6 110L673.3 106.2L674.8 103.7L675.5 101.3L674.8 99.6001L675.3 95.8001L673.6 91.3001L674.1 86.7001L672.7 84.6001L673.4 81.0001H674.9L677.4 78.6001L678.8 78.4001L679.8 76.2001L683.4 75.6001L686.5 77.3001L689.1 82.2001L690.3 83.0001L692.1 87.3001L694.3 92.5001L695.2 97.3001L697.3 102.9L699.9 107.2L700.1 109.6L701.9 112.1L703.1 115L705.2 118.6L705 122.1L707.1 127.2L707.3 129.4L708.5 132.2L709.7 137.1L711.5 141.1L712.2 147.9L713.2 152.7L714.6 159.5V162L715.7 165.8L717.3 172.4L718.8 178.4L719.3 183.3L720.4 186.8L723.5 189.3L727.1 190.7L731.5 190.4H735.7L739.9 191.5L740.6 193L741.5 194.4L740.6 195.3L739.9 196.7L738.1 199.1L735.7 199.4L734.8 200.8L731.3 201.7L727.3 203.9L725.7 205.7V209L726.4 213L727.9 217L729.7 220.9L731.3 226.6L732.5 230.1L734 235.5L735.6 240.4L738 246.4L739.6 251.4L772.3 335.6L773.4 336.5L774.9 340.5L776.5 344.4V346.8L777.7 348.2L778.1 352ZM744.6 193.5L744.4 194.6L743.5 195.2H742.8V194.3L743 193.2L743.5 192.9L744.6 193.5Z"/>
</mask>
<path d="M692.8 186L691.4 186.4L690.3 185.4L690.5 184.3H691.6L692.3 183.7L692.8 184.6V186ZM703.9 185.4L702.9 182.4L700.7 177.3L700.2 172.4L699.1 170.2L698.3 167.3L696.9 164.5L697.1 157.1L694.2 152.2L695.1 150.1L694 146.8L692.5 136.8L690.7 132.2L690.5 128.5L687.9 124.5L687 122.3L684.7 116.3L680 122L680.5 125.6L678.8 128.8V132.2L678.3 134L677.4 139.7L676.9 144.7V146.2L675.8 148.1V152.1L675.3 160V163.8L674.1 167.2L674.9 170.7L673.7 175L675.6 178.3L681 181.2L686.5 183.7L691.2 186.9L693.8 189.1L698.3 190.2L701.4 189.3L702.3 188.5L703.9 185.4ZM644.9 288.2L644.7 289.3L643.1 289L642.4 286.9L643.5 286.6H644.9V288.2ZM640.8 251L639.8 251.6L638.7 251V249.6L639.4 249L640.6 249.3L640.8 250.2V251ZM655.2 181L655 182.4L654 183.3L652.6 182.2V180.8L653.7 179.3L654.9 178.7L655.1 179.6V181H655.2ZM778.4 362.2C778.3 362.4 777.9 362.6 777.3 362.8L776.6 362.5L776.4 361.7L777.1 360.8L778.2 361.1L778.4 362.2ZM778.1 352L777.2 353.4L775.4 354.3L774.7 352.9L773.5 350.8L771.9 346.9L769.6 343.1L766.3 336L732.2 252.8L731.3 247.9L729.7 245.2L726.9 235.3L724.7 231.8L722.9 226.7L720.3 221.5L718.3 219.3L713.4 212.7L712.4 208.9L708.6 205.5L703.7 204.4L698.5 205.3L693.1 206.4L689.2 208.4L685 213L681 215.5L680.1 217.9L677 220.7L670.5 225.3L669.3 227L668.4 233.3V237.3L666.8 239.5V244.4L666.1 249.5L666.8 257.9L666.1 263.6L664.7 269.6L662.6 274.4L660.1 278.2L655.9 282.8L651.9 283.6L648.2 284.2L647 283.1H644.9L643.3 280.7L642.1 279.6V276.8L641 274.7V269L642.1 265.3L641.9 262.1L642.6 260.2L644 259.3V256.7L646.2 255.3L647.1 252.8L648.5 249.3L650.4 248.2L652.2 243.1L652.9 237.4L654 236.5L653.5 232.7L654.4 227V223.4L652.3 217.9L650.9 213.1L650.4 207.6L650.2 203.8L650.9 202.7L650.4 200.8V199.7L653.8 194.6V192.9L655.7 190.2L658.2 185.4L661.3 179.9L662 176L662.2 173.1L662 170.9L663.1 163.8L664 157L665.9 148.3L666.3 143.5L667.2 141.3L667 133.9L666.5 127.3L667 121L668.8 115.9L670.5 111.9L672.6 110L673.3 106.2L674.8 103.7L675.5 101.3L674.8 99.6001L675.3 95.8001L673.6 91.3001L674.1 86.7001L672.7 84.6001L673.4 81.0001H674.9L677.4 78.6001L678.8 78.4001L679.8 76.2001L683.4 75.6001L686.5 77.3001L689.1 82.2001L690.3 83.0001L692.1 87.3001L694.3 92.5001L695.2 97.3001L697.3 102.9L699.9 107.2L700.1 109.6L701.9 112.1L703.1 115L705.2 118.6L705 122.1L707.1 127.2L707.3 129.4L708.5 132.2L709.7 137.1L711.5 141.1L712.2 147.9L713.2 152.7L714.6 159.5V162L715.7 165.8L717.3 172.4L718.8 178.4L719.3 183.3L720.4 186.8L723.5 189.3L727.1 190.7L731.5 190.4H735.7L739.9 191.5L740.6 193L741.5 194.4L740.6 195.3L739.9 196.7L738.1 199.1L735.7 199.4L734.8 200.8L731.3 201.7L727.3 203.9L725.7 205.7V209L726.4 213L727.9 217L729.7 220.9L731.3 226.6L732.5 230.1L734 235.5L735.6 240.4L738 246.4L739.6 251.4L772.3 335.6L773.4 336.5L774.9 340.5L776.5 344.4V346.8L777.7 348.2L778.1 352ZM744.6 193.5L744.4 194.6L743.5 195.2H742.8V194.3L743 193.2L743.5 192.9L744.6 193.5Z" fill="black" stroke="black" stroke-width="2" mask="url(#path-17-inside-7_17_232)"/>
<path d="M692.8 186L691.4 186.4L690.3 185.4L690.5 184.3H691.6L692.3 183.7L692.8 184.6V186ZM703.9 185.4L702.9 182.4L700.7 177.3L700.2 172.4L699.1 170.2L698.3 167.3L696.9 164.5L697.1 157.1L694.2 152.2L695.1 150.1L694 146.8L692.5 136.8L690.7 132.2L690.5 128.5L687.9 124.5L687 122.3L684.7 116.3L680 122L680.5 125.6L678.8 128.8V132.2L678.3 134L677.4 139.7L676.9 144.7V146.2L675.8 148.1V152.1L675.3 160V163.8L674.1 167.2L674.9 170.7L673.7 175L675.6 178.3L681 181.2L686.5 183.7L691.2 186.9L693.8 189.1L698.3 190.2L701.4 189.3L702.3 188.5L703.9 185.4ZM644.9 288.2L644.7 289.3L643.1 289L642.4 286.9L643.5 286.6H644.9V288.2ZM640.8 251L639.8 251.6L638.7 251V249.6L639.4 249L640.6 249.3L640.8 250.2V251ZM655.2 181L655 182.4L654 183.3L652.6 182.2V180.8L653.7 179.3L654.9 178.7L655.1 179.6V181H655.2ZM778.4 362.2C778.3 362.4 777.9 362.6 777.3 362.8L776.6 362.5L776.4 361.7L777.1 360.8L778.2 361.1L778.4 362.2ZM778.1 352L777.2 353.4L775.4 354.3L774.7 352.9L773.5 350.8L771.9 346.9L769.6 343.1L766.3 336L732.2 252.8L731.3 247.9L729.7 245.2L726.9 235.3L724.7 231.8L722.9 226.7L720.3 221.5L718.3 219.3L713.4 212.7L712.4 208.9L708.6 205.5L703.7 204.4L698.5 205.3L693.1 206.4L689.2 208.4L685 213L681 215.5L680.1 217.9L677 220.7L670.5 225.3L669.3 227L668.4 233.3V237.3L666.8 239.5V244.4L666.1 249.5L666.8 257.9L666.1 263.6L664.7 269.6L662.6 274.4L660.1 278.2L655.9 282.8L651.9 283.6L648.2 284.2L647 283.1H644.9L643.3 280.7L642.1 279.6V276.8L641 274.7V269L642.1 265.3L641.9 262.1L642.6 260.2L644 259.3V256.7L646.2 255.3L647.1 252.8L648.5 249.3L650.4 248.2L652.2 243.1L652.9 237.4L654 236.5L653.5 232.7L654.4 227V223.4L652.3 217.9L650.9 213.1L650.4 207.6L650.2 203.8L650.9 202.7L650.4 200.8V199.7L653.8 194.6V192.9L655.7 190.2L658.2 185.4L661.3 179.9L662 176L662.2 173.1L662 170.9L663.1 163.8L664 157L665.9 148.3L666.3 143.5L667.2 141.3L667 133.9L666.5 127.3L667 121L668.8 115.9L670.5 111.9L672.6 110L673.3 106.2L674.8 103.7L675.5 101.3L674.8 99.6001L675.3 95.8001L673.6 91.3001L674.1 86.7001L672.7 84.6001L673.4 81.0001H674.9L677.4 78.6001L678.8 78.4001L679.8 76.2001L683.4 75.6001L686.5 77.3001L689.1 82.2001L690.3 83.0001L692.1 87.3001L694.3 92.5001L695.2 97.3001L697.3 102.9L699.9 107.2L700.1 109.6L701.9 112.1L703.1 115L705.2 118.6L705 122.1L707.1 127.2L707.3 129.4L708.5 132.2L709.7 137.1L711.5 141.1L712.2 147.9L713.2 152.7L714.6 159.5V162L715.7 165.8L717.3 172.4L718.8 178.4L719.3 183.3L720.4 186.8L723.5 189.3L727.1 190.7L731.5 190.4H735.7L739.9 191.5L740.6 193L741.5 194.4L740.6 195.3L739.9 196.7L738.1 199.1L735.7 199.4L734.8 200.8L731.3 201.7L727.3 203.9L725.7 205.7V209L726.4 213L727.9 217L729.7 220.9L731.3 226.6L732.5 230.1L734 235.5L735.6 240.4L738 246.4L739.6 251.4L772.3 335.6L773.4 336.5L774.9 340.5L776.5 344.4V346.8L777.7 348.2L778.1 352ZM744.6 193.5L744.4 194.6L743.5 195.2H742.8V194.3L743 193.2L743.5 192.9L744.6 193.5Z" fill="black" stroke="black" stroke-width="0.216" stroke-miterlimit="22.9256"/>
<mask id="path-19-inside-8_17_232" fill="white">
<path d="M775.8 356.6L774.3 358.3L772.5 357.8L772.3 354.8L774.5 354.7L775.8 356.6ZM801.2 107.4L802.1 111.3L803.3 115.7L803 119L804 121.1L804.2 125.1L803.1 129.7L802.4 133.9L803.7 142L809.4 194.1L810.3 201.2L811.5 204.7L812.2 211L813.5 216.5L813 222L814 228.5L815.3 234.9L814.3 254.1L812.9 256.9L813.4 261.2L812.8 265.7L813.6 272.3L813.7 276.4L815.1 281.6L815.2 290.9L814.7 295.5L815.8 302.1L816.8 307.3L817.2 312.5L818.5 316.6L819.2 321.2L820.2 323.4L819.4 326.8L819.2 332.9L817.7 333.4L815.6 333.6L813.8 330L809.4 328.5L806.8 324.2L804.8 320.4L801.4 316.2L800.5 312.9L797.7 310.4L798.1 304.8L794.8 300.6L792.2 293.5L787 285.7L783.9 278.5L781.3 272.8L777.4 263.7L775.8 260.8L773.5 256.5L770.4 251.3L764.6 240.8L759.7 235.4L759.1 241.6L758.9 244L763.1 259.3L764.3 266.9L766.7 273.5L767.8 281.9L769.1 290.6L768.7 295.3L769.8 302.3L771.2 310.7L775 326.4L774.7 330.7L776.4 333.9L775.4 338.5L772.5 341.9L768.2 343.8L764 342.1L761.7 337.5L758.7 332L756.3 326.9L755.1 322.5L756.1 316.2L757.2 313.2L757.9 309.9L758.1 303.6L756.3 296.2L756.5 289.3L755.6 283.4L756.1 278.4L751.9 265.9L749.8 262.1L747.2 255L746.2 247.3V241.9L745.6 235.2L747.5 230.3L744.4 213.7L745.8 207.8L745.1 202.1L746.5 196.3L747.1 194.5L748.1 192.7L747.6 189.2L748.5 187.7L750.2 187.1L752 188.7L753.7 192.5L756.6 198.6L759.6 206L765.9 223.5L768.9 231.3L771.5 235.7L773.4 240.7L775.1 245.5L778.5 252.3L781.3 260.3L785.2 264.9L788.8 272.5L791.2 280.1L794.3 286.2L797.8 293.3L800.1 297.9L801.6 300.3L803.1 299.8L803.6 296.7L805.1 293.1L804.3 287.1L805.3 285.2L804.2 282.7L803.7 275.7L801.9 271.5L801 265.8L802 262.7L802.7 258.1L802.9 252.6L803.5 247L804.6 243.3L803.2 238.2L803.6 232.7L803.7 229L803.4 222.5L802.8 217.3L800.3 209.6L797.4 204.1L794.2 198.4L787 147.1L785.5 141.6L783.2 134.7L784.4 131L783.4 127.1L784.2 123.9L782.8 115.1V109.5L784.6 110.1L787.4 107.2L788.4 103.3L791.3 100.1L793.4 98.2002L796.1 99.7002L798.4 103.3L799.4 102.6L801.2 107.4ZM773 142.4L771.3 145.2L770.3 141.6L772.4 141.1L773 142.4Z"/>
</mask>
<path d="M775.8 356.6L774.3 358.3L772.5 357.8L772.3 354.8L774.5 354.7L775.8 356.6ZM801.2 107.4L802.1 111.3L803.3 115.7L803 119L804 121.1L804.2 125.1L803.1 129.7L802.4 133.9L803.7 142L809.4 194.1L810.3 201.2L811.5 204.7L812.2 211L813.5 216.5L813 222L814 228.5L815.3 234.9L814.3 254.1L812.9 256.9L813.4 261.2L812.8 265.7L813.6 272.3L813.7 276.4L815.1 281.6L815.2 290.9L814.7 295.5L815.8 302.1L816.8 307.3L817.2 312.5L818.5 316.6L819.2 321.2L820.2 323.4L819.4 326.8L819.2 332.9L817.7 333.4L815.6 333.6L813.8 330L809.4 328.5L806.8 324.2L804.8 320.4L801.4 316.2L800.5 312.9L797.7 310.4L798.1 304.8L794.8 300.6L792.2 293.5L787 285.7L783.9 278.5L781.3 272.8L777.4 263.7L775.8 260.8L773.5 256.5L770.4 251.3L764.6 240.8L759.7 235.4L759.1 241.6L758.9 244L763.1 259.3L764.3 266.9L766.7 273.5L767.8 281.9L769.1 290.6L768.7 295.3L769.8 302.3L771.2 310.7L775 326.4L774.7 330.7L776.4 333.9L775.4 338.5L772.5 341.9L768.2 343.8L764 342.1L761.7 337.5L758.7 332L756.3 326.9L755.1 322.5L756.1 316.2L757.2 313.2L757.9 309.9L758.1 303.6L756.3 296.2L756.5 289.3L755.6 283.4L756.1 278.4L751.9 265.9L749.8 262.1L747.2 255L746.2 247.3V241.9L745.6 235.2L747.5 230.3L744.4 213.7L745.8 207.8L745.1 202.1L746.5 196.3L747.1 194.5L748.1 192.7L747.6 189.2L748.5 187.7L750.2 187.1L752 188.7L753.7 192.5L756.6 198.6L759.6 206L765.9 223.5L768.9 231.3L771.5 235.7L773.4 240.7L775.1 245.5L778.5 252.3L781.3 260.3L785.2 264.9L788.8 272.5L791.2 280.1L794.3 286.2L797.8 293.3L800.1 297.9L801.6 300.3L803.1 299.8L803.6 296.7L805.1 293.1L804.3 287.1L805.3 285.2L804.2 282.7L803.7 275.7L801.9 271.5L801 265.8L802 262.7L802.7 258.1L802.9 252.6L803.5 247L804.6 243.3L803.2 238.2L803.6 232.7L803.7 229L803.4 222.5L802.8 217.3L800.3 209.6L797.4 204.1L794.2 198.4L787 147.1L785.5 141.6L783.2 134.7L784.4 131L783.4 127.1L784.2 123.9L782.8 115.1V109.5L784.6 110.1L787.4 107.2L788.4 103.3L791.3 100.1L793.4 98.2002L796.1 99.7002L798.4 103.3L799.4 102.6L801.2 107.4ZM773 142.4L771.3 145.2L770.3 141.6L772.4 141.1L773 142.4Z" fill="black" stroke="black" stroke-width="2" mask="url(#path-19-inside-8_17_232)"/>
<path d="M775.8 356.6L774.3 358.3L772.5 357.8L772.3 354.8L774.5 354.7L775.8 356.6ZM801.2 107.4L802.1 111.3L803.3 115.7L803 119L804 121.1L804.2 125.1L803.1 129.7L802.4 133.9L803.7 142L809.4 194.1L810.3 201.2L811.5 204.7L812.2 211L813.5 216.5L813 222L814 228.5L815.3 234.9L814.3 254.1L812.9 256.9L813.4 261.2L812.8 265.7L813.6 272.3L813.7 276.4L815.1 281.6L815.2 290.9L814.7 295.5L815.8 302.1L816.8 307.3L817.2 312.5L818.5 316.6L819.2 321.2L820.2 323.4L819.4 326.8L819.2 332.9L817.7 333.4L815.6 333.6L813.8 330L809.4 328.5L806.8 324.2L804.8 320.4L801.4 316.2L800.5 312.9L797.7 310.4L798.1 304.8L794.8 300.6L792.2 293.5L787 285.7L783.9 278.5L781.3 272.8L777.4 263.7L775.8 260.8L773.5 256.5L770.4 251.3L764.6 240.8L759.7 235.4L759.1 241.6L758.9 244L763.1 259.3L764.3 266.9L766.7 273.5L767.8 281.9L769.1 290.6L768.7 295.3L769.8 302.3L771.2 310.7L775 326.4L774.7 330.7L776.4 333.9L775.4 338.5L772.5 341.9L768.2 343.8L764 342.1L761.7 337.5L758.7 332L756.3 326.9L755.1 322.5L756.1 316.2L757.2 313.2L757.9 309.9L758.1 303.6L756.3 296.2L756.5 289.3L755.6 283.4L756.1 278.4L751.9 265.9L749.8 262.1L747.2 255L746.2 247.3V241.9L745.6 235.2L747.5 230.3L744.4 213.7L745.8 207.8L745.1 202.1L746.5 196.3L747.1 194.5L748.1 192.7L747.6 189.2L748.5 187.7L750.2 187.1L752 188.7L753.7 192.5L756.6 198.6L759.6 206L765.9 223.5L768.9 231.3L771.5 235.7L773.4 240.7L775.1 245.5L778.5 252.3L781.3 260.3L785.2 264.9L788.8 272.5L791.2 280.1L794.3 286.2L797.8 293.3L800.1 297.9L801.6 300.3L803.1 299.8L803.6 296.7L805.1 293.1L804.3 287.1L805.3 285.2L804.2 282.7L803.7 275.7L801.9 271.5L801 265.8L802 262.7L802.7 258.1L802.9 252.6L803.5 247L804.6 243.3L803.2 238.2L803.6 232.7L803.7 229L803.4 222.5L802.8 217.3L800.3 209.6L797.4 204.1L794.2 198.4L787 147.1L785.5 141.6L783.2 134.7L784.4 131L783.4 127.1L784.2 123.9L782.8 115.1V109.5L784.6 110.1L787.4 107.2L788.4 103.3L791.3 100.1L793.4 98.2002L796.1 99.7002L798.4 103.3L799.4 102.6L801.2 107.4ZM773 142.4L771.3 145.2L770.3 141.6L772.4 141.1L773 142.4Z" fill="black" stroke="black" stroke-width="0.216" stroke-miterlimit="22.9256"/>
<mask id="path-21-inside-9_17_232" fill="white">
<path d="M884.8 118L882.1 123.4L879.2 123.1L875.9 120.4L872.9 117L869.9 111.7L869.6 107.4L865.6 105.3L863.4 103.3L858.6 104.3L854.7 104L850.6 104.1L844.6 107.7L840.1 112L832.5 123.3L830.6 129.7L827.6 138.7L827.3 149.2L828.3 158.1L829.6 163.7L834.8 172.5L837.7 178.4L841.2 183.7L843.8 189.5L847 195.2L853.7 204.6L856.9 211.4L859.1 217.7L861.4 221.5L861.6 226.7L864.3 238.9L865.2 246.4L865.4 254.6L866.3 263.4L866.9 271.8L866.1 283.7L864.4 292.8L860.8 303.3L858.7 311.7L855.3 317.5L853.5 323L849.6 329.4L846.2 333.8L841 337L834.3 338.7L829.6 340.3L824.6 337.9L821 337.1L817.8 335.4L815.5 332.5L813.8 332.4L813.1 330.1L814 325L815.1 322.4L816.8 322.5L816.6 325.2L816.9 327.1L818.3 329.2L821.3 332.2L828.6 333.8L831.1 332.6L834.7 333.4L839.8 331.2L844.5 327.8L850.6 320.9L852 315.6L854.9 308.5L856.9 300.8L859.1 295.1L859.9 288.2L861.9 278.2L861.6 271.6L861.4 262.8L859.6 255.9L859.2 247.6L857.8 239.6L857 232.1L854.6 228.7L852.8 223.9L850 219.1L847.7 213.3L843 208.4L840.5 202.1L837.2 200.5L834.4 194.6L830.7 188.4L828.8 184.5L824.8 181.8L821.4 174.5L818.6 166.2L817.3 157.8L815.9 148.8L817.4 131.4L820.2 122L823.3 113L826.6 105.4L830.1 99.4001L833.4 94.5001L837.4 89.2001L841.9 85.6001L845.8 83.2001H851.2L856.4 82.7001L861.7 80.7001L866.5 76.6001L871.4 74.3001L873.8 71.1001L878.1 72.9001L880.2 77.8001L880.9 86.2001L882.3 90.8001L884.1 95.7001L885 103L884.8 109.9V118ZM884.8 128.1L884.1 133.2L880.9 134.3L878.9 133.7L876.9 129.2L879.4 125.8L882.7 125.6L884.8 128.1Z"/>
</mask>
<path d="M884.8 118L882.1 123.4L879.2 123.1L875.9 120.4L872.9 117L869.9 111.7L869.6 107.4L865.6 105.3L863.4 103.3L858.6 104.3L854.7 104L850.6 104.1L844.6 107.7L840.1 112L832.5 123.3L830.6 129.7L827.6 138.7L827.3 149.2L828.3 158.1L829.6 163.7L834.8 172.5L837.7 178.4L841.2 183.7L843.8 189.5L847 195.2L853.7 204.6L856.9 211.4L859.1 217.7L861.4 221.5L861.6 226.7L864.3 238.9L865.2 246.4L865.4 254.6L866.3 263.4L866.9 271.8L866.1 283.7L864.4 292.8L860.8 303.3L858.7 311.7L855.3 317.5L853.5 323L849.6 329.4L846.2 333.8L841 337L834.3 338.7L829.6 340.3L824.6 337.9L821 337.1L817.8 335.4L815.5 332.5L813.8 332.4L813.1 330.1L814 325L815.1 322.4L816.8 322.5L816.6 325.2L816.9 327.1L818.3 329.2L821.3 332.2L828.6 333.8L831.1 332.6L834.7 333.4L839.8 331.2L844.5 327.8L850.6 320.9L852 315.6L854.9 308.5L856.9 300.8L859.1 295.1L859.9 288.2L861.9 278.2L861.6 271.6L861.4 262.8L859.6 255.9L859.2 247.6L857.8 239.6L857 232.1L854.6 228.7L852.8 223.9L850 219.1L847.7 213.3L843 208.4L840.5 202.1L837.2 200.5L834.4 194.6L830.7 188.4L828.8 184.5L824.8 181.8L821.4 174.5L818.6 166.2L817.3 157.8L815.9 148.8L817.4 131.4L820.2 122L823.3 113L826.6 105.4L830.1 99.4001L833.4 94.5001L837.4 89.2001L841.9 85.6001L845.8 83.2001H851.2L856.4 82.7001L861.7 80.7001L866.5 76.6001L871.4 74.3001L873.8 71.1001L878.1 72.9001L880.2 77.8001L880.9 86.2001L882.3 90.8001L884.1 95.7001L885 103L884.8 109.9V118ZM884.8 128.1L884.1 133.2L880.9 134.3L878.9 133.7L876.9 129.2L879.4 125.8L882.7 125.6L884.8 128.1Z" fill="black" stroke="black" stroke-width="2" mask="url(#path-21-inside-9_17_232)"/>
<path d="M884.8 118L882.1 123.4L879.2 123.1L875.9 120.4L872.9 117L869.9 111.7L869.6 107.4L865.6 105.3L863.4 103.3L858.6 104.3L854.7 104L850.6 104.1L844.6 107.7L840.1 112L832.5 123.3L830.6 129.7L827.6 138.7L827.3 149.2L828.3 158.1L829.6 163.7L834.8 172.5L837.7 178.4L841.2 183.7L843.8 189.5L847 195.2L853.7 204.6L856.9 211.4L859.1 217.7L861.4 221.5L861.6 226.7L864.3 238.9L865.2 246.4L865.4 254.6L866.3 263.4L866.9 271.8L866.1 283.7L864.4 292.8L860.8 303.3L858.7 311.7L855.3 317.5L853.5 323L849.6 329.4L846.2 333.8L841 337L834.3 338.7L829.6 340.3L824.6 337.9L821 337.1L817.8 335.4L815.5 332.5L813.8 332.4L813.1 330.1L814 325L815.1 322.4L816.8 322.5L816.6 325.2L816.9 327.1L818.3 329.2L821.3 332.2L828.6 333.8L831.1 332.6L834.7 333.4L839.8 331.2L844.5 327.8L850.6 320.9L852 315.6L854.9 308.5L856.9 300.8L859.1 295.1L859.9 288.2L861.9 278.2L861.6 271.6L861.4 262.8L859.6 255.9L859.2 247.6L857.8 239.6L857 232.1L854.6 228.7L852.8 223.9L850 219.1L847.7 213.3L843 208.4L840.5 202.1L837.2 200.5L834.4 194.6L830.7 188.4L828.8 184.5L824.8 181.8L821.4 174.5L818.6 166.2L817.3 157.8L815.9 148.8L817.4 131.4L820.2 122L823.3 113L826.6 105.4L830.1 99.4001L833.4 94.5001L837.4 89.2001L841.9 85.6001L845.8 83.2001H851.2L856.4 82.7001L861.7 80.7001L866.5 76.6001L871.4 74.3001L873.8 71.1001L878.1 72.9001L880.2 77.8001L880.9 86.2001L882.3 90.8001L884.1 95.7001L885 103L884.8 109.9V118ZM884.8 128.1L884.1 133.2L880.9 134.3L878.9 133.7L876.9 129.2L879.4 125.8L882.7 125.6L884.8 128.1Z" fill="black" stroke="black" stroke-width="1.4173" stroke-miterlimit="22.9256"/>
<mask id="path-23-inside-10_17_232" fill="white">
<path d="M915.4 203L914 203.4L912.9 202.4L913.1 201.3H914.2L914.9 200.7L915.4 201.6V203ZM926.5 202.4L925.5 199.4L923.3 194.3L922.8 189.4L921.7 187.2L920.9 184.3L919.5 181.5L919.7 174.1L916.8 169.2L917.7 167.1L916.6 163.8L915.1 153.8L913.3 149.2L913.1 145.5L910.5 141.5L909.6 139.3L907.4 133.3L902.7 139L903.2 142.6L901.5 145.8V149.2L901 151L900.1 156.7L899.6 161.7V163.2L898.5 165.1V169.1L898 177V180.8L896.8 184.2L897.6 187.7L896.4 192L898.3 195.3L903.7 198.2L909.2 200.7L913.9 203.9L916.5 206.1L921 207.2L924.1 206.3L925 205.5L926.5 202.4ZM867.5 305.2L867.3 306.3L865.7 306L865 303.9L866.1 303.6H867.5V305.2ZM863.4 268L862.4 268.6L861.3 268V266.6L862 266L863.2 266.3L863.4 267.2V268ZM877.8 198L877.6 199.4L876.6 200.3L875.2 199.2V197.8L876.3 196.3L877.5 195.7L877.7 196.6V198H877.8ZM969.2 302.8C969.1 303 968.7 303.2 968.1 303.4L967.4 303.1L967.2 302.3L967.9 301.4L969 301.7L969.2 302.8ZM969 292.7L968.1 294.1L966.3 295L965.6 293.6L964.4 291.5L962.8 287.6L960.5 283.8L957.2 276.7L954.8 269.9L953.9 265L952.3 262.3L949.5 252.4L947.3 248.9L945.5 243.8L942.9 238.6L940.9 236.4L936 229.8L935 226L931.2 222.6L926.3 221.5L921.1 222.4L915.7 223.5L911.8 225.4L907.6 230L903.6 232.5L902.7 234.9L899.6 237.7L893.1 242.3L891.9 244L891 250.3V254.3L889.4 256.5V261.4L888.7 266.5L889.4 274.9L888.7 280.6L887.3 286.6L885.2 291.4L882.7 295.2L878.5 299.8L874.5 300.6L870.8 301.2L869.6 300.1H867.5L865.9 297.7L864.7 296.6V293.8L863.6 291.7V286L864.7 282.3L864.5 279.1L865.2 277.2L866.6 276.3V273.7L868.8 272.3L869.7 269.8L871.1 266.3L873 265.2L874.8 260.1L875.5 254.4L876.6 253.5L876.1 249.7L877 244V240.4L874.9 234.9L873.5 230.1L873 224.6L872.8 220.8L873.5 219.7L873 217.8V216.8L876.4 211.7V210L878.3 207.3L880.8 202.5L883.9 197L884.6 193.1L884.8 190.2L884.6 188L885.7 180.9L886.6 174.1L888.5 165.4L888.9 160.6L889.8 158.4L889.6 151L889.1 144.4L889.6 138.1L891.4 133L893.1 129L895.2 127.1L895.9 123.3L897.4 120.8L898.1 118.4L897.4 116.7L897.9 112.9L896.2 108.4L896.7 103.8L895.3 101.7L896 98.1002H897.5L900 95.7002L901.4 95.5002L902.4 93.3002L906 92.7002L909.1 94.4001L911.7 99.3002L912.9 100.1L914.7 104.4L916.9 109.6L917.8 114.4L919.9 120L922.5 124.3L922.7 126.7L924.5 129.2L925.7 132.1L927.8 135.7L927.6 139.2L929.7 144.3L929.9 146.5L931.1 149.3L932.3 154.2L934.1 158.2L934.8 165L935.8 169.8L937.2 176.6V179.1L938.3 182.9L939.9 189.5L941.4 195.5L941.9 200.4L943 203.9L946.1 206.4L949.7 207.8L954.1 207.5H958.3L962.5 208.6L963.2 210.1L964.1 211.5L963.2 212.4L962.5 213.8L960.7 216.2L958.3 216.5L957.4 217.9L953.6 218.8L949.6 221L948 222.8V226.1L948.7 230.1L950.2 234.1L952 238L953.6 243.7L954.8 247.2L956.3 252.6L957.9 257.5L960.3 263.5L961.9 268.5L962.8 276.3L963.9 277.2L965.4 281.2L967 285.1V287.5L968.2 288.9L969 292.7ZM967.2 210.5L967 211.6L966.1 212.2H965.4V211.3L965.6 210.2L966.1 209.9L967.2 210.5Z"/>
</mask>
<path d="M915.4 203L914 203.4L912.9 202.4L913.1 201.3H914.2L914.9 200.7L915.4 201.6V203ZM926.5 202.4L925.5 199.4L923.3 194.3L922.8 189.4L921.7 187.2L920.9 184.3L919.5 181.5L919.7 174.1L916.8 169.2L917.7 167.1L916.6 163.8L915.1 153.8L913.3 149.2L913.1 145.5L910.5 141.5L909.6 139.3L907.4 133.3L902.7 139L903.2 142.6L901.5 145.8V149.2L901 151L900.1 156.7L899.6 161.7V163.2L898.5 165.1V169.1L898 177V180.8L896.8 184.2L897.6 187.7L896.4 192L898.3 195.3L903.7 198.2L909.2 200.7L913.9 203.9L916.5 206.1L921 207.2L924.1 206.3L925 205.5L926.5 202.4ZM867.5 305.2L867.3 306.3L865.7 306L865 303.9L866.1 303.6H867.5V305.2ZM863.4 268L862.4 268.6L861.3 268V266.6L862 266L863.2 266.3L863.4 267.2V268ZM877.8 198L877.6 199.4L876.6 200.3L875.2 199.2V197.8L876.3 196.3L877.5 195.7L877.7 196.6V198H877.8ZM969.2 302.8C969.1 303 968.7 303.2 968.1 303.4L967.4 303.1L967.2 302.3L967.9 301.4L969 301.7L969.2 302.8ZM969 292.7L968.1 294.1L966.3 295L965.6 293.6L964.4 291.5L962.8 287.6L960.5 283.8L957.2 276.7L954.8 269.9L953.9 265L952.3 262.3L949.5 252.4L947.3 248.9L945.5 243.8L942.9 238.6L940.9 236.4L936 229.8L935 226L931.2 222.6L926.3 221.5L921.1 222.4L915.7 223.5L911.8 225.4L907.6 230L903.6 232.5L902.7 234.9L899.6 237.7L893.1 242.3L891.9 244L891 250.3V254.3L889.4 256.5V261.4L888.7 266.5L889.4 274.9L888.7 280.6L887.3 286.6L885.2 291.4L882.7 295.2L878.5 299.8L874.5 300.6L870.8 301.2L869.6 300.1H867.5L865.9 297.7L864.7 296.6V293.8L863.6 291.7V286L864.7 282.3L864.5 279.1L865.2 277.2L866.6 276.3V273.7L868.8 272.3L869.7 269.8L871.1 266.3L873 265.2L874.8 260.1L875.5 254.4L876.6 253.5L876.1 249.7L877 244V240.4L874.9 234.9L873.5 230.1L873 224.6L872.8 220.8L873.5 219.7L873 217.8V216.8L876.4 211.7V210L878.3 207.3L880.8 202.5L883.9 197L884.6 193.1L884.8 190.2L884.6 188L885.7 180.9L886.6 174.1L888.5 165.4L888.9 160.6L889.8 158.4L889.6 151L889.1 144.4L889.6 138.1L891.4 133L893.1 129L895.2 127.1L895.9 123.3L897.4 120.8L898.1 118.4L897.4 116.7L897.9 112.9L896.2 108.4L896.7 103.8L895.3 101.7L896 98.1002H897.5L900 95.7002L901.4 95.5002L902.4 93.3002L906 92.7002L909.1 94.4001L911.7 99.3002L912.9 100.1L914.7 104.4L916.9 109.6L917.8 114.4L919.9 120L922.5 124.3L922.7 126.7L924.5 129.2L925.7 132.1L927.8 135.7L927.6 139.2L929.7 144.3L929.9 146.5L931.1 149.3L932.3 154.2L934.1 158.2L934.8 165L935.8 169.8L937.2 176.6V179.1L938.3 182.9L939.9 189.5L941.4 195.5L941.9 200.4L943 203.9L946.1 206.4L949.7 207.8L954.1 207.5H958.3L962.5 208.6L963.2 210.1L964.1 211.5L963.2 212.4L962.5 213.8L960.7 216.2L958.3 216.5L957.4 217.9L953.6 218.8L949.6 221L948 222.8V226.1L948.7 230.1L950.2 234.1L952 238L953.6 243.7L954.8 247.2L956.3 252.6L957.9 257.5L960.3 263.5L961.9 268.5L962.8 276.3L963.9 277.2L965.4 281.2L967 285.1V287.5L968.2 288.9L969 292.7ZM967.2 210.5L967 211.6L966.1 212.2H965.4V211.3L965.6 210.2L966.1 209.9L967.2 210.5Z" fill="black" stroke="black" stroke-width="2" mask="url(#path-23-inside-10_17_232)"/>
<path d="M915.4 203L914 203.4L912.9 202.4L913.1 201.3H914.2L914.9 200.7L915.4 201.6V203ZM926.5 202.4L925.5 199.4L923.3 194.3L922.8 189.4L921.7 187.2L920.9 184.3L919.5 181.5L919.7 174.1L916.8 169.2L917.7 167.1L916.6 163.8L915.1 153.8L913.3 149.2L913.1 145.5L910.5 141.5L909.6 139.3L907.4 133.3L902.7 139L903.2 142.6L901.5 145.8V149.2L901 151L900.1 156.7L899.6 161.7V163.2L898.5 165.1V169.1L898 177V180.8L896.8 184.2L897.6 187.7L896.4 192L898.3 195.3L903.7 198.2L909.2 200.7L913.9 203.9L916.5 206.1L921 207.2L924.1 206.3L925 205.5L926.5 202.4ZM867.5 305.2L867.3 306.3L865.7 306L865 303.9L866.1 303.6H867.5V305.2ZM863.4 268L862.4 268.6L861.3 268V266.6L862 266L863.2 266.3L863.4 267.2V268ZM877.8 198L877.6 199.4L876.6 200.3L875.2 199.2V197.8L876.3 196.3L877.5 195.7L877.7 196.6V198H877.8ZM969.2 302.8C969.1 303 968.7 303.2 968.1 303.4L967.4 303.1L967.2 302.3L967.9 301.4L969 301.7L969.2 302.8ZM969 292.7L968.1 294.1L966.3 295L965.6 293.6L964.4 291.5L962.8 287.6L960.5 283.8L957.2 276.7L954.8 269.9L953.9 265L952.3 262.3L949.5 252.4L947.3 248.9L945.5 243.8L942.9 238.6L940.9 236.4L936 229.8L935 226L931.2 222.6L926.3 221.5L921.1 222.4L915.7 223.5L911.8 225.4L907.6 230L903.6 232.5L902.7 234.9L899.6 237.7L893.1 242.3L891.9 244L891 250.3V254.3L889.4 256.5V261.4L888.7 266.5L889.4 274.9L888.7 280.6L887.3 286.6L885.2 291.4L882.7 295.2L878.5 299.8L874.5 300.6L870.8 301.2L869.6 300.1H867.5L865.9 297.7L864.7 296.6V293.8L863.6 291.7V286L864.7 282.3L864.5 279.1L865.2 277.2L866.6 276.3V273.7L868.8 272.3L869.7 269.8L871.1 266.3L873 265.2L874.8 260.1L875.5 254.4L876.6 253.5L876.1 249.7L877 244V240.4L874.9 234.9L873.5 230.1L873 224.6L872.8 220.8L873.5 219.7L873 217.8V216.8L876.4 211.7V210L878.3 207.3L880.8 202.5L883.9 197L884.6 193.1L884.8 190.2L884.6 188L885.7 180.9L886.6 174.1L888.5 165.4L888.9 160.6L889.8 158.4L889.6 151L889.1 144.4L889.6 138.1L891.4 133L893.1 129L895.2 127.1L895.9 123.3L897.4 120.8L898.1 118.4L897.4 116.7L897.9 112.9L896.2 108.4L896.7 103.8L895.3 101.7L896 98.1002H897.5L900 95.7002L901.4 95.5002L902.4 93.3002L906 92.7002L909.1 94.4001L911.7 99.3002L912.9 100.1L914.7 104.4L916.9 109.6L917.8 114.4L919.9 120L922.5 124.3L922.7 126.7L924.5 129.2L925.7 132.1L927.8 135.7L927.6 139.2L929.7 144.3L929.9 146.5L931.1 149.3L932.3 154.2L934.1 158.2L934.8 165L935.8 169.8L937.2 176.6V179.1L938.3 182.9L939.9 189.5L941.4 195.5L941.9 200.4L943 203.9L946.1 206.4L949.7 207.8L954.1 207.5H958.3L962.5 208.6L963.2 210.1L964.1 211.5L963.2 212.4L962.5 213.8L960.7 216.2L958.3 216.5L957.4 217.9L953.6 218.8L949.6 221L948 222.8V226.1L948.7 230.1L950.2 234.1L952 238L953.6 243.7L954.8 247.2L956.3 252.6L957.9 257.5L960.3 263.5L961.9 268.5L962.8 276.3L963.9 277.2L965.4 281.2L967 285.1V287.5L968.2 288.9L969 292.7ZM967.2 210.5L967 211.6L966.1 212.2H965.4V211.3L965.6 210.2L966.1 209.9L967.2 210.5Z" fill="black" stroke="black" stroke-width="0.216" stroke-miterlimit="22.9256"/>
<path d="M287.722 279.633L287.474 279.727L287.414 279.985L285.537 287.923L285.201 283.888L285.8 266.217L285.8 266.213L286.197 251.222L290.25 242.919L290.299 242.818L290.3 242.706L290.395 234.434L291.371 234.295L291.63 234.258L291.747 234.024L293.047 231.424L293.105 231.308L293.1 231.179L292.801 224.001L293 219.623L293.001 219.594L292.999 219.566L292.602 213.715L293.596 206.064L293.599 206.042L293.6 206.02L293.798 201.168L294.987 196.114L295.001 196.054L295 195.992L294.9 189.709L295.199 183.936L295.598 179.545L295.6 179.525L295.6 179.505L295.7 169.327L298.498 140.749L298.509 140.635L298.47 140.528L297.458 137.768L300.015 133.98L300.1 133.853V133.7V121.624L301.698 105.249L301.702 105.205L301.699 105.162L301.306 99.9544L302.979 94.3429L303.001 94.2688L303 94.1915L302.901 88.322L303.291 84.6158L304.468 81.4755L304.5 81.3906V81.3V79.1458L304.992 76.491L305.009 76.4003L304.992 76.3096L304.104 71.477L304.588 66.1536L306.134 63.448L306.21 63.3157L306.199 63.1637L305.815 57.8815L308.357 55.1577L312.066 54.3969L315.236 54.2047L317.92 55.0705L318.2 60.0141V64.5V64.5202L318.202 64.5404L318.497 68.1815L317.806 72.6231L317.802 72.65L317.801 72.6772L317.606 76.956L315.367 80.8507L315.321 80.93L315.307 81.0203L314.808 84.1114L311.31 101.702L311.307 101.718L311.305 101.733L310.408 108.408L308.814 115.084L308.801 115.137L308.8 115.191L308.702 120.616L307.425 124.545L307.388 124.657L307.406 124.773L308.191 130.076L306.415 137.28L306.406 137.317L306.402 137.355L305.903 142.847L304.812 151.874L303.137 156.012L303.089 156.131L303.104 156.258L303.497 159.605L302.805 166.622L301.512 172.594L301.5 172.646V172.7V179.562L300.206 188.125L300.204 188.138L300.203 188.152L298.105 209.728L296.809 216.405L296.802 216.442L296.801 216.48L296.503 223.815C292.201 237.798 290.776 251.543 290.002 261.938C289.865 263.77 289.749 265.494 289.641 267.096C289.442 270.058 289.27 272.603 289.05 274.64C288.88 276.21 288.684 277.445 288.434 278.318C288.309 278.756 288.176 279.079 288.041 279.302C287.904 279.526 287.791 279.606 287.722 279.633ZM337.674 236.871L337.43 238.74L336.41 239.579L335.376 236.994L336.52 235.649L337.674 236.871Z" fill="black" stroke="black"/>
<path d="M337.9 239L336.2 240.4L334.8 236.9L336.5 234.9L338.2 236.7L337.9 239ZM287.9 280.1L285.3 291.1L284.7 283.9L285.3 266.2L285.7 251.1L289.8 242.7L289.9 234L291.3 233.8L292.6 231.2L292.3 224L292.5 219.6L292.1 213.7L293.1 206L293.3 201.1L294.5 196L294.4 189.7L294.7 183.9L295.1 179.5L295.2 169.3L298 140.7L296.9 137.7L299.6 133.7V121.6L301.2 105.2L300.8 99.8999L302.5 94.2L302.4 88.3L302.8 84.5L304 81.3V79.0999L304.5 76.4L303.6 71.5L304.1 66L305.7 63.2L305.3 57.7L308.1 54.7L312 53.9L315.3 53.7L318.4 54.7L318.7 60V64.5L319 68.2L318.3 72.7L318.1 77.0999L315.8 81.0999L315.3 84.2L311.8 101.8L310.9 108.5L309.3 115.2L309.2 120.7L307.9 124.7L308.7 130.1L306.9 137.4L306.4 142.9L305.3 152L303.6 156.2L304 159.6L303.3 166.7L302 172.7V179.6L300.7 188.2L298.6 209.8L297.3 216.5L297 223.9C288.4 251.8 291.3 278.8 287.9 280.1Z" fill="black" stroke="black" stroke-width="2.0001" stroke-miterlimit="22.9256"/>
<path d="M309.458 7.39827L309.855 7.43128L309.976 7.05271L311.6 1.9904L313.533 1.50706L316.943 1.89676C318.667 2.09373 319.422 2.40713 319.735 2.61601C319.81 2.66611 319.855 2.70717 319.881 2.7349C319.885 2.73914 319.889 2.74307 319.892 2.74668L319.846 3.15557L320.358 3.19825L321.478 3.29152L321.762 3.41344L321.703 3.94478L321.646 4.4556L322.158 4.49827L323.358 4.59825L324.046 4.65557L324.003 5.04476L323.946 5.55556L324.458 5.59825L325.146 5.65557L325.103 6.04476L325.6 6.09998L325.103 6.04476L325.003 6.94478L324.946 7.4556L325.458 7.49827L326.489 7.58415L327.464 8.46994L328.564 9.46994L328.9 9.09998L328.564 9.46995L329.659 10.4661L331.696 12.4055L332.586 14.0972L332.419 15.5969L331.167 17.1178L329.938 17.8742L329.867 17.9178L329.814 17.9821L328.586 19.4734C328.36 19.4641 328.152 19.4951 327.953 19.569C327.678 19.6715 327.465 19.8419 327.286 20.0076C327.19 20.096 327.1 20.1851 327.01 20.2748C326.748 20.5355 326.48 20.8019 326.038 21.0742C325.315 21.519 324.892 22.0153 324.645 22.5546C324.412 23.0655 324.354 23.5839 324.306 24.0179L324.303 24.0448C324.29 24.1621 324.234 24.3058 324.116 24.4905C323.998 24.6758 323.843 24.8644 323.664 25.0821L323.655 25.0936C323.486 25.2981 323.295 25.5304 323.141 25.7718C322.984 26.0183 322.84 26.3121 322.803 26.6448C322.788 26.779 322.715 26.9888 322.573 27.2801C322.435 27.5619 322.256 27.8714 322.067 28.2001L322.062 28.209C321.878 28.5276 321.683 28.8648 321.529 29.1801C321.378 29.4888 321.238 29.829 321.203 30.1448L320.903 32.8448L321.4 32.9L320.903 32.8448C320.891 32.9569 320.858 32.9822 320.844 32.9936C320.811 33.019 320.731 33.0581 320.556 33.0782C320.26 33.112 319.888 33.078 319.424 33.0356C319.303 33.0245 319.175 33.0129 319.041 33.0017C318.449 32.9524 317.308 32.8283 316.154 32.7029L316.144 32.7019C315.003 32.5778 313.851 32.4526 313.244 32.4019C313.156 32.3937 312.971 32.3542 312.681 32.2733C312.399 32.1952 312.05 32.0875 311.652 31.9587C310.902 31.7159 309.995 31.4037 309.07 31.0855L308.9 31.0272C307.92 30.6901 306.93 30.3506 306.11 30.0892C305.699 29.9585 305.327 29.8458 305.016 29.7621C304.786 29.7001 304.571 29.6487 304.393 29.6206L300.228 26.5206C300.149 26.4421 300.071 26.3647 299.994 26.2881C299.574 25.8717 299.182 25.4822 298.879 25.1014C298.502 24.6272 298.371 24.2923 298.397 24.0552L298.597 22.2552L298.697 21.3552L298.797 20.4552L298.797 20.4552L298.897 19.5552L298.897 19.5552L298.997 18.6552L299.097 17.7552L299.197 16.8552L299.297 15.9552L299.297 15.9552L299.47 14.3978L300.562 13.7258L300.77 13.5979L300.797 13.3552L300.843 12.9387L301.558 12.9983L302.043 13.0387L302.097 12.5552L302.143 12.1386L302.858 12.1983L303.343 12.2387L303.397 11.7552L303.443 11.3387L304.158 11.3983L304.643 11.4387L304.697 10.9552L304.78 10.203L306.086 8.61784L306.18 8.50303L306.197 8.35521L306.28 7.60304L307.533 6.08215L308.111 5.72631C308.167 6.03763 308.256 6.37178 308.41 6.6572C308.602 7.01471 308.933 7.35446 309.458 7.39827Z" fill="black" stroke="black"/>
<path d="M309.5 6.89999L311.2 1.59998L308.5 4.89999L307.2 5.69998L305.8 7.39999L305.7 8.29999L304.3 10L304.2 10.9L303 10.8L302.9 11.7L301.7 11.6L301.6 12.5L300.4 12.4L300.3 13.3L299 14.1L298.8 15.9L298.7 16.8L298.6 17.7L298.5 18.6L298.4 19.5L298.3 20.4L298.2 21.3L298.1 22.2L297.9 24C297.8 24.9 298.9 25.9 299.9 26.9L304.2 30.1C305.4 30.2 312.1 32.8 313.2 32.9C314.4 33 317.8 33.4 319 33.5C320.2 33.6 321.3 33.8 321.4 32.9L321.7 30.2C321.8 29.3 323.2 27.6 323.3 26.7C323.4 25.8 324.7 25 324.8 24.1C324.9 23.2 325 22.3 326.3 21.5C327.6 20.7 327.7 19.8 328.8 20L330.2 18.3L331.5 17.5L332.9 15.8L333.1 14L332.1 12.1L330 10.1L328.9 9.09998L327.8 8.09998L326.7 7.09998L325.5 7L325.6 6.09998L325.7 5.19998L324.5 5.09998L324.6 4.19998L323.4 4.09998L322.2 4L322.3 3.09998L321.6 2.79999L320.4 2.69998C320.4 2.69998 320.5 1.79999 317 1.39999L313.5 1L311.1 1.59998L309.8 2.39999L309.7 3.29999L309.6 4.19998L308.4 4.09998C308.6 4.09998 308.3 6.79999 309.5 6.89999Z" fill="black" stroke="black" stroke-width="0.216" stroke-miterlimit="22.9256"/>
</svg>
