<svg width="480" height="480" viewBox="0 0 480 480" fill="none" xmlns="http://www.w3.org/2000/svg">
<path d="M160 240C160 197.565 176.857 156.869 206.863 126.863C236.869 96.8571 277.565 80 320 80C362.435 80 403.131 96.8571 433.137 126.863C463.143 156.869 480 197.565 480 240L160 240Z" fill="#33691E"/>
<path d="M240 320C197.565 320 156.869 303.143 126.863 273.137C96.8571 243.131 80 202.435 80 160C80 117.565 96.8571 76.8687 126.863 46.8629C156.869 16.8571 197.565 4.55257e-06 240 0L240 320Z" fill="#B2FF59"/>
<path d="M320 240C320 282.435 303.143 323.131 273.137 353.137C243.131 383.143 202.435 400 160 400C117.565 400 76.8688 383.143 46.8629 353.137C16.8571 323.131 6.40745e-06 282.435 0 240L320 240Z" fill="#33691E"/>
<path d="M240 160C282.435 160 323.131 176.857 353.137 206.863C383.143 236.869 400 277.565 400 320C400 362.435 383.143 403.131 353.137 433.137C323.131 463.143 282.435 480 240 480L240 160Z" fill="#33691E"/>
</svg>
