<svg width="480" height="480" viewBox="0 0 480 480" fill="none" xmlns="http://www.w3.org/2000/svg">
<path d="M1.19249e-05 240C31.5173 240 62.7259 246.208 91.844 258.269C120.962 270.33 147.42 288.008 169.706 310.294C191.992 332.58 209.67 359.038 221.731 388.156C233.792 417.274 240 448.483 240 480L0 480L1.19249e-05 240Z" fill="#33691e"/>
<path d="M1.19249e-05 5.30481e-06C31.5173 5.39501e-06 62.7259 6.20781 91.844 18.2689C120.962 30.33 147.42 48.0083 169.706 70.2944C191.992 92.5804 209.67 119.038 221.731 148.156C233.792 177.274 240 208.483 240 240L0 240L1.19249e-05 5.30481e-06Z" fill="#33691e"/>
<path d="M240 240C271.517 240 302.726 246.208 331.844 258.269C360.962 270.33 387.42 288.008 409.706 310.294C431.992 332.58 449.67 359.038 461.731 388.156C473.792 417.274 480 448.483 480 480L240 480L240 240Z" fill="#33691e"/>
<path d="M240 5.30481e-06C271.517 5.68065e-06 302.726 6.20781 331.844 18.2689C360.962 30.33 387.42 48.0083 409.706 70.2944C431.992 92.5805 449.67 119.038 461.731 148.156C473.792 177.274 480 208.483 480 240L240 240L240 5.30481e-06Z" fill="#b2ff59"/>
</svg>
